<svg width="48" height="48" viewBox="0 0 48 48" fill="none" xmlns="http://www.w3.org/2000/svg">
<circle cx="24" cy="24" r="24" fill="#2C2C2C"/>
<g clip-path="url(#clip0_1887_4585)">
<path d="M18.2687 17.541H14.5677C14.2781 17.541 14.043 17.7686 14.043 18.0491C14.043 18.3296 14.2781 18.5572 14.5677 18.5572H18.2687C18.5583 18.5572 18.7934 18.3296 18.7934 18.0491C18.7934 17.7686 18.5583 17.541 18.2687 17.541Z" fill="#FFB600"/>
<path d="M16.7773 21.053C16.7773 20.7725 16.5422 20.5449 16.2526 20.5449H13.1204C12.8308 20.5449 12.5957 20.7725 12.5957 21.053C12.5957 21.3335 12.8308 21.5611 13.1204 21.5611H16.2526C16.5422 21.5611 16.7773 21.3335 16.7773 21.053Z" fill="#FFB600"/>
<path d="M13.9622 23.6387C13.6726 23.6387 13.4375 23.8663 13.4375 24.1468C13.4375 24.4272 13.6726 24.6548 13.9622 24.6548H15.5784C15.8681 24.6548 16.1032 24.4272 16.1032 24.1468C16.1032 23.8663 15.8681 23.6387 15.5784 23.6387H13.9622Z" fill="#FFB600"/>
<path d="M33.9496 19.658C33.8646 19.4766 33.6778 19.3598 33.4716 19.3598H29.5466V16.7838C29.5466 15.8087 28.77 15.0156 27.8149 15.0156H16.4387C15.6369 15.0156 14.9285 15.5933 14.7553 16.3895C14.6955 16.6639 14.8765 16.9331 15.1599 16.9911C15.4448 17.049 15.7219 16.8737 15.7817 16.5988C15.8536 16.2706 16.1296 16.0318 16.4387 16.0318H27.8149C28.1912 16.0318 28.4971 16.3692 28.4971 16.7838V27.9515H20.8407C20.5967 26.7936 19.5372 25.9191 18.27 25.9191C17.0027 25.9191 15.9433 26.7936 15.6993 27.9515H14.8644C14.4882 27.9515 14.1823 27.6121 14.1797 27.2442L14.2584 26.477C14.2872 26.1981 14.0763 25.9491 13.7882 25.9212C13.5001 25.8907 13.243 26.0975 13.2141 26.3764L13.1328 27.1944C13.1328 28.172 13.9094 28.9677 14.8644 28.9677H15.6993C15.9433 30.1256 17.0027 31 18.27 31C19.5372 31 20.5967 30.1256 20.8407 28.9677H29.0218H29.6783C29.9223 30.1256 30.9817 31 32.249 31C33.5162 31 34.5756 30.1256 34.8196 28.9677H35.4761C35.7657 28.9677 36.0008 28.74 36.0008 28.4596V24.1459C36.0008 24.0733 35.9851 24.0021 35.9541 23.9361L33.9496 19.658ZM18.27 29.9838C17.4021 29.9838 16.6958 29.2999 16.6958 28.4596C16.6958 27.6192 17.4021 26.9353 18.27 26.9353C19.1379 26.9353 19.8442 27.6192 19.8442 28.4596C19.8442 29.2999 19.1379 29.9838 18.27 29.9838ZM33.1337 20.3759L34.6328 23.5759C32.9699 23.2517 31.6313 21.9891 31.2661 20.3759H33.1337ZM32.249 29.9838C31.381 29.9838 30.6748 29.2999 30.6748 28.4596C30.6748 27.6192 31.381 26.9353 32.249 26.9353C33.1169 26.9353 33.8232 27.6192 33.8232 28.4596C33.8232 29.2999 33.1169 29.9838 32.249 29.9838ZM34.9514 25.5752H34.7189C34.5137 25.5752 34.3479 25.8028 34.3479 26.0833V26.3058C34.3479 26.5863 34.5142 26.8139 34.7189 26.8139H34.9514V27.952H34.8196C34.5756 26.7941 33.5162 25.9197 32.249 25.9197C30.9817 25.9197 29.9223 26.7941 29.6783 27.952H29.5466V20.3759H30.193C30.6029 22.6552 32.5701 24.4203 34.9508 24.6489L34.9514 25.5752Z" fill="#FFB600"/>
<path d="M18.2689 28.9625C18.5587 28.9625 18.7936 28.735 18.7936 28.4544C18.7936 28.1738 18.5587 27.9463 18.2689 27.9463C17.9791 27.9463 17.7441 28.1738 17.7441 28.4544C17.7441 28.735 17.9791 28.9625 18.2689 28.9625Z" fill="#FFB600"/>
<path d="M32.2474 28.9625C32.5372 28.9625 32.7721 28.735 32.7721 28.4544C32.7721 28.1738 32.5372 27.9463 32.2474 27.9463C31.9576 27.9463 31.7227 28.1738 31.7227 28.4544C31.7227 28.735 31.9576 28.9625 32.2474 28.9625Z" fill="#FFB600"/>
<g clip-path="url(#clip1_1887_4585)">
<path d="M23.2622 17.3864C23.1823 17.3313 23.0871 17.3018 22.9896 17.3018C22.892 17.3018 22.7968 17.3313 22.7169 17.3864C22.1042 17.8312 21.5435 18.3418 21.0454 18.9087C19.9322 20.1679 19.3438 21.5024 19.3438 22.7663C19.3438 23.7186 19.7279 24.632 20.4116 25.3055C21.0953 25.9789 22.0226 26.3573 22.9896 26.3573C23.9565 26.3573 24.8838 25.9789 25.5676 25.3055C26.2513 24.632 26.6354 23.7186 26.6354 22.7663C26.6354 19.7467 23.4001 17.4812 23.2622 17.3864ZM22.9896 25.4205C22.2751 25.4197 21.5901 25.1399 21.0849 24.6423C20.5797 24.1447 20.2956 23.47 20.2948 22.7663C20.2948 21.4661 21.0874 20.2928 21.7492 19.5379C22.1271 19.1104 22.5421 18.7162 22.9896 18.3599C23.4371 18.7162 23.8521 19.1104 24.2299 19.5379C24.8917 20.2928 25.6843 21.4661 25.6843 22.7663C25.6836 23.47 25.3994 24.1447 24.8942 24.6423C24.389 25.1399 23.704 25.4197 22.9896 25.4205ZM24.9559 23.3752C24.8564 23.6869 24.6819 23.9703 24.4473 24.2013C24.2128 24.4324 23.925 24.6042 23.6086 24.7023C23.5624 24.7164 23.5143 24.7237 23.4659 24.7237C23.3522 24.7238 23.2423 24.6838 23.156 24.6109C23.0697 24.538 23.0128 24.4371 22.9955 24.3264C22.9783 24.2158 23.0019 24.1027 23.062 24.0076C23.1221 23.9126 23.2148 23.8419 23.3232 23.8084C23.4938 23.7556 23.6489 23.6631 23.7753 23.5386C23.9017 23.4141 23.9957 23.2613 24.0492 23.0933C24.068 23.0347 24.0983 22.9802 24.1384 22.933C24.1785 22.8859 24.2276 22.8469 24.283 22.8185C24.3949 22.761 24.5253 22.7497 24.6457 22.7869C24.7052 22.8054 24.7606 22.8352 24.8084 22.8747C24.8563 22.9142 24.8958 22.9627 24.9247 23.0172C24.9536 23.0718 24.9713 23.1314 24.9768 23.1927C24.9823 23.2539 24.9755 23.3157 24.9567 23.3744L24.9559 23.3752Z" fill="#FFB600"/>
</g>
</g>
<defs>
<clipPath id="clip0_1887_4585">
<rect width="24" height="24" fill="white" transform="translate(12 12)"/>
</clipPath>
<clipPath id="clip1_1887_4585">
<rect width="10.1449" height="9.99235" fill="white" transform="translate(17.918 17.1455)"/>
</clipPath>
</defs>
</svg>
