<svg width="44" height="44" viewBox="0 0 44 44" fill="none" xmlns="http://www.w3.org/2000/svg">
<path d="M22 22C22 22.2652 22.1054 22.5196 22.2929 22.7071C22.4804 22.8946 22.7348 23 23 23C23.2652 23 23.5196 22.8946 23.7071 22.7071C23.8946 22.5196 24 22.2652 24 22C24 21.7348 23.8946 21.4804 23.7071 21.2929C23.5196 21.1054 23.2652 21 23 21C22.7348 21 22.4804 21.1054 22.2929 21.2929C22.1054 21.4804 22 21.7348 22 22ZM22 29C22 29.2652 22.1054 29.5196 22.2929 29.7071C22.4804 29.8946 22.7348 30 23 30C23.2652 30 23.5196 29.8946 23.7071 29.7071C23.8946 29.5196 24 29.2652 24 29C24 28.7348 23.8946 28.4804 23.7071 28.2929C23.5196 28.1054 23.2652 28 23 28C22.7348 28 22.4804 28.1054 22.2929 28.2929C22.1054 28.4804 22 28.7348 22 29ZM22 15C22 15.2652 22.1054 15.5196 22.2929 15.7071C22.4804 15.8946 22.7348 16 23 16C23.2652 16 23.5196 15.8946 23.7071 15.7071C23.8946 15.5196 24 15.2652 24 15C24 14.7348 23.8946 14.4804 23.7071 14.2929C23.5196 14.1054 23.2652 14 23 14C22.7348 14 22.4804 14.1054 22.2929 14.2929C22.1054 14.4804 22 14.7348 22 15Z" stroke="#080507" stroke-width="2" stroke-linecap="round" stroke-linejoin="round"/>
</svg>
