<svg width="120" height="120" viewBox="0 0 120 120" fill="none" xmlns="http://www.w3.org/2000/svg">
<path d="M112.5 43.125L67.5 31.875L60 43.125L105 54.375L112.5 43.125Z" fill="#DCAA64"/>
<path d="M7.5 43.125L52.5 31.875L60 43.125L15 54.375L7.5 43.125Z" fill="#EBB978"/>
<path d="M15 106.875L60 118.125V65.625L15 54.375V106.875Z" fill="#EBB978"/>
<path d="M105 106.875L60 118.125V65.625L105 54.375V106.875Z" fill="#DCAA64"/>
<path d="M60 43.125L15 54.375L60 65.625L105 54.375L60 43.125Z" fill="#BA6B4C"/>
<path d="M112.5 73.125L67.5 84.375L60 65.625L105 54.375L112.5 73.125Z" fill="#EBB978"/>
<path d="M7.5 73.125L52.5 84.375L60 65.625L15 54.375L7.5 73.125Z" fill="#FACD8C"/>
<path d="M114.241 72.4275L107.116 54.5944L114.067 44.1675C114.234 43.9174 114.338 43.6307 114.371 43.3318C114.404 43.0328 114.365 42.7302 114.256 42.4496C114.148 42.1691 113.974 41.9187 113.748 41.7197C113.522 41.5207 113.252 41.3789 112.96 41.3063L67.9603 30.0563C67.5851 29.9622 67.19 29.9865 66.8292 30.1258C66.4683 30.2651 66.1594 30.5126 65.9447 30.8344L60.0009 39.75L54.0609 30.84C53.8463 30.5182 53.5373 30.2707 53.1765 30.1314C52.8156 29.9921 52.4205 29.9678 52.0453 30.0619L7.04531 41.3119C6.7534 41.3845 6.48325 41.5263 6.25766 41.7253C6.03208 41.9243 5.85769 42.1747 5.74921 42.4553C5.64073 42.7358 5.60135 43.0384 5.63439 43.3374C5.66744 43.6364 5.77194 43.923 5.93906 44.1731L12.8897 54.6L5.76469 72.4331C5.66517 72.6818 5.62007 72.9489 5.63245 73.2165C5.64482 73.484 5.71438 73.7458 5.83643 73.9843C5.95848 74.2227 6.1302 74.4322 6.34002 74.5987C6.54984 74.7651 6.79289 74.8847 7.05281 74.9494L13.1259 76.4644V106.875C13.1261 107.293 13.266 107.699 13.5235 108.029C13.7811 108.359 14.1414 108.593 14.5472 108.694L59.5472 119.944C59.8463 120.019 60.1593 120.019 60.4584 119.944L105.458 108.694C105.864 108.592 106.223 108.358 106.48 108.028C106.737 107.699 106.876 107.293 106.876 106.875V76.4644L112.953 74.9438C113.213 74.8791 113.456 74.7595 113.666 74.593C113.875 74.4265 114.047 74.217 114.169 73.9786C114.291 73.7402 114.361 73.4784 114.373 73.2108C114.386 72.9433 114.34 72.6762 114.241 72.4275ZM68.3278 34.0144L109.465 44.2988L104.174 52.2356L63.0366 41.9513L68.3278 34.0144ZM10.5366 44.2988L51.6741 34.0144L56.9653 41.9513L15.8278 52.2356L10.5366 44.2988ZM10.0397 71.8275L16.1259 56.5913L57.4547 66.9225L51.3759 82.1588L10.0397 71.8275ZM58.1259 115.723L16.8759 105.411V77.4019L52.0472 86.1938C52.4873 86.3036 52.9524 86.2501 53.3561 86.0432C53.7598 85.8364 54.0749 85.4902 54.2428 85.0688L58.1259 75.3619V115.723ZM60.0009 63.6919L22.7334 54.375L60.0009 45.0581L97.2684 54.375L60.0009 63.6919ZM103.126 105.411L61.8759 115.723V75.3619L65.7591 85.0706C65.927 85.492 66.2421 85.8382 66.6458 86.0451C67.0495 86.252 67.5145 86.3055 67.9547 86.1956L103.126 77.4019V105.411ZM68.6259 82.1606L62.5322 66.9244L103.876 56.5913L109.97 71.8275L68.6259 82.1606Z" fill="#2C2C2C"/>
</svg>
