<svg width="11" height="11" viewBox="0 0 11 11" fill="none" xmlns="http://www.w3.org/2000/svg">
<path fill-rule="evenodd" clip-rule="evenodd" d="M5.33865 10.2088L5.33311 10.2098L5.29733 10.2274L5.28725 10.2294L5.2802 10.2274L5.24442 10.2098C5.23904 10.2081 5.23501 10.2089 5.23232 10.2123L5.23031 10.2173L5.22174 10.433L5.22426 10.4431L5.2293 10.4496L5.28171 10.4869L5.28927 10.4889L5.29531 10.4869L5.34772 10.4496L5.35377 10.4416L5.35578 10.433L5.34722 10.2178C5.34587 10.2125 5.34302 10.2094 5.33865 10.2088ZM5.47219 10.1518L5.46564 10.1528L5.37241 10.1997L5.36737 10.2047L5.36586 10.2103L5.37493 10.427L5.37745 10.433L5.38148 10.4365L5.48277 10.4834C5.48915 10.4851 5.49402 10.4837 5.49738 10.4794L5.4994 10.4723L5.48227 10.1629C5.48059 10.1569 5.47723 10.1532 5.47219 10.1518ZM5.11189 10.1528C5.10967 10.1515 5.10701 10.151 5.10448 10.1516C5.10194 10.1522 5.09972 10.1537 5.09828 10.1558L5.09526 10.1629L5.07812 10.4723C5.07846 10.4784 5.08132 10.4824 5.08669 10.4844L5.09425 10.4834L5.19554 10.4365L5.20058 10.4325L5.20259 10.427L5.21116 10.2103L5.20965 10.2042L5.20461 10.1992L5.11189 10.1528Z" fill="#A8A8A3"/>
<path d="M6.047 0C6.3143 0 6.57064 0.106182 6.75965 0.295188C6.94865 0.484193 7.05484 0.740539 7.05484 1.00783H8.56659C8.83388 1.00783 9.09023 1.11402 9.27923 1.30302C9.46824 1.49203 9.57442 1.74837 9.57442 2.01567V3.0235C9.57453 3.24791 9.49974 3.46593 9.3619 3.64301C9.22407 3.8201 9.03107 3.94612 8.81351 4.0011L9.89289 6.51867C10.0259 6.78423 10.0783 7.01503 10.0783 7.30679C10.0785 7.70738 9.94231 8.09609 9.69216 8.40896C9.442 8.72183 9.09279 8.94023 8.70199 9.02821C8.31118 9.11619 7.90207 9.06851 7.54197 8.89302C7.18187 8.71753 6.89224 8.42468 6.72074 8.06267H3.86151C3.69935 8.40527 3.43114 8.68651 3.09661 8.86472C2.76208 9.04293 2.37904 9.10863 2.00424 9.05209C1.62945 8.99554 1.28284 8.81975 1.01578 8.55078C0.74872 8.2818 0.575418 7.93394 0.521554 7.55875H0.503917C0.37027 7.55875 0.242097 7.50566 0.147594 7.41116C0.0530911 7.31666 0 7.18848 0 7.05484V3.0235C0 2.75621 0.106182 2.49986 0.295188 2.31085C0.484193 2.12185 0.740539 2.01567 1.00783 2.01567H3.0235C3.29079 2.01567 3.54714 2.12185 3.73615 2.31085C3.92515 2.49986 4.03133 2.75621 4.03133 3.0235V4.03133C4.03133 4.29863 4.13752 4.55497 4.32652 4.74398C4.51553 4.93299 4.77187 5.03917 5.03917 5.03917C5.30646 5.03917 5.56281 4.93299 5.75181 4.74398C5.94082 4.55497 6.047 4.29863 6.047 4.03133V1.00783H5.03917C4.90552 1.00783 4.77735 0.954742 4.68285 0.86024C4.58834 0.765737 4.53525 0.637564 4.53525 0.503917C4.53525 0.37027 4.58834 0.242097 4.68285 0.147594C4.77735 0.0530911 4.90552 0 5.03917 0H6.047ZM2.26763 6.55092C2.06716 6.55092 1.8749 6.63056 1.73314 6.77231C1.59139 6.91406 1.51175 7.10632 1.51175 7.30679C1.51175 7.50726 1.59139 7.69952 1.73314 7.84128C1.8749 7.98303 2.06716 8.06267 2.26763 8.06267C2.4681 8.06267 2.66036 7.98303 2.80211 7.84128C2.94386 7.69952 3.0235 7.50726 3.0235 7.30679C3.0235 7.10632 2.94386 6.91406 2.80211 6.77231C2.66036 6.63056 2.4681 6.55092 2.26763 6.55092ZM8.31463 6.55092C8.16513 6.55092 8.01899 6.59525 7.89469 6.67831C7.77038 6.76136 7.6735 6.87942 7.61629 7.01753C7.55908 7.15565 7.54411 7.30763 7.57328 7.45426C7.60244 7.60088 7.67443 7.73557 7.78014 7.84128C7.88585 7.94699 8.02054 8.01898 8.16716 8.04815C8.31379 8.07731 8.46577 8.06234 8.60389 8.00513C8.74201 7.94792 8.86006 7.85104 8.94311 7.72674C9.02617 7.60243 9.0705 7.45629 9.0705 7.30679C9.0705 6.89812 8.72532 6.55092 8.31463 6.55092ZM7.73008 4.03133H7.05484C7.05501 4.4752 6.90867 4.9067 6.63853 5.25889C6.36838 5.61108 5.98954 5.86425 5.5608 5.97912C5.13206 6.09399 4.67739 6.06413 4.26736 5.89417C3.85732 5.72421 3.51485 5.42366 3.2931 5.03917H1.00783V6.0722C1.23798 5.83716 1.52928 5.67118 1.8488 5.593C2.16833 5.51481 2.50335 5.52755 2.81602 5.62976C3.12868 5.73198 3.40654 5.91959 3.61818 6.17142C3.82982 6.42324 3.96682 6.72924 4.0137 7.05484H6.56856C6.69453 6.17348 7.49072 5.51285 8.37862 5.54409L7.73008 4.03133ZM3.0235 3.0235H1.00783V4.03133H3.0235V3.0235ZM8.56659 2.01567H7.05484V3.0235H8.56659V2.01567Z" fill="#A8A8A3"/>
</svg>
