<svg width="19" height="17" viewBox="0 0 19 17" fill="none" xmlns="http://www.w3.org/2000/svg">
<path d="M4.42229 8.43122L17.9827 7.60261M4.42229 8.43122L2.66042 15.035C2.63371 15.1231 2.63283 15.2169 2.65788 15.3054C2.68293 15.3939 2.73287 15.4733 2.80175 15.5343C2.87063 15.5952 2.95556 15.6351 3.04645 15.6492C3.13734 15.6633 3.23036 15.651 3.31447 15.6138L17.9827 7.60261M4.42229 8.43122L1.86948 2.09103C1.83225 2.00693 1.81995 1.91391 1.83405 1.82302C1.84814 1.73213 1.88803 1.6472 1.94898 1.57832C2.00992 1.50944 2.08937 1.4595 2.17786 1.43445C2.26636 1.4094 2.36019 1.41028 2.4482 1.43699L17.9827 7.60261" stroke="#080507" stroke-width="2" stroke-linecap="round" stroke-linejoin="round"/>
</svg>
