<svg width="18" height="18" viewBox="0 0 18 18" fill="none" xmlns="http://www.w3.org/2000/svg">
<path d="M5.92823 5.1922L0.701596 5.94998L0.609024 5.96882C0.468887 6.00602 0.341135 6.07975 0.238812 6.18248C0.136489 6.2852 0.0632617 6.41324 0.0266086 6.55352C-0.0100444 6.6938 -0.00881029 6.8413 0.0301849 6.98095C0.0691801 7.12059 0.144539 7.24739 0.248567 7.34839L4.03501 11.0341L3.14206 16.2402L3.13141 16.3303C3.12283 16.4753 3.15292 16.6199 3.21861 16.7494C3.2843 16.8789 3.38322 16.9886 3.50525 17.0672C3.62727 17.1459 3.76801 17.1908 3.91306 17.1972C4.05812 17.2036 4.20226 17.1713 4.33075 17.1037L9.00522 14.646L13.669 17.1037L13.751 17.1414C13.8862 17.1946 14.0331 17.211 14.1768 17.1887C14.3204 17.1664 14.4555 17.1063 14.5682 17.0146C14.681 16.9229 14.7673 16.8028 14.8183 16.6667C14.8693 16.5307 14.8832 16.3834 14.8586 16.2402L13.9648 11.0341L17.7529 7.34757L17.8168 7.27794C17.908 7.16551 17.9679 7.0309 17.9902 6.88782C18.0125 6.74474 17.9965 6.59829 17.9438 6.46341C17.8911 6.32853 17.8036 6.21003 17.6902 6.11998C17.5768 6.02993 17.4415 5.97155 17.2982 5.9508L12.0716 5.1922L9.73515 0.4571C9.66754 0.319909 9.56288 0.204383 9.43301 0.123599C9.30314 0.0428153 9.15325 0 9.00031 0C8.84736 0 8.69747 0.0428153 8.5676 0.123599C8.43773 0.204383 8.33307 0.319909 8.26547 0.4571L5.92823 5.1922Z" fill="url(#paint0_linear_1173_1892)"/>
<defs>
<linearGradient id="paint0_linear_1173_1892" x1="9" y1="0" x2="9" y2="17.1984" gradientUnits="userSpaceOnUse">
<stop stop-color="#FFD45A"/>
<stop offset="1" stop-color="#FFBC00"/>
</linearGradient>
</defs>
</svg>
