<svg width="24" height="24" viewBox="0 0 24 24" fill="none" xmlns="http://www.w3.org/2000/svg">
<path d="M6.99947 17.9992C5.75174 17.9992 4.55512 17.5251 3.67285 16.6812C2.79058 15.8373 2.29492 14.6927 2.29492 13.4992C2.29492 12.3057 2.79058 11.1612 3.67285 10.3172C4.55512 9.47333 5.75174 8.99922 6.99947 8.99922C7.29415 7.6864 8.15623 6.5327 9.39605 5.79193C10.01 5.42514 10.6981 5.17077 11.4212 5.04333C12.1444 4.9159 12.8883 4.9179 13.6106 5.04922C14.3328 5.18054 15.0193 5.43861 15.6308 5.8087C16.2422 6.17878 16.7667 6.65364 17.1742 7.20615C17.5818 7.75866 17.8644 8.378 18.006 9.02882C18.1476 9.67963 18.1454 10.3492 17.9995 10.9992H18.9995C19.9277 10.9992 20.818 11.368 21.4743 12.0243C22.1307 12.6807 22.4995 13.571 22.4995 14.4992C22.4995 15.4275 22.1307 16.3177 21.4743 16.9741C20.818 17.6305 19.9277 17.9992 18.9995 17.9992H17.9995" stroke="#FFC533" stroke-width="0.923077" stroke-linecap="round" stroke-linejoin="round"/>
<path d="M9 14.999L12 11.999M12 11.999L15 14.999M12 11.999V20.999" stroke="#FFC533" stroke-width="0.923077" stroke-linecap="round" stroke-linejoin="round"/>
</svg>
