<svg width="26" height="27" viewBox="0 0 26 27" fill="none" xmlns="http://www.w3.org/2000/svg">
<path d="M9.25 11.5979C9.25 11.0511 9.46074 10.5267 9.83586 10.14C10.211 9.75336 10.7198 9.53613 11.2502 9.53613H17.7498C18.0124 9.53613 18.2725 9.58946 18.5152 9.69308C18.7579 9.79669 18.9784 9.94856 19.1641 10.14C19.3499 10.3315 19.4972 10.5588 19.5977 10.8089C19.6983 11.0591 19.75 11.3272 19.75 11.5979V18.2974C19.75 18.5682 19.6983 18.8363 19.5977 19.0864C19.4972 19.3366 19.3499 19.5639 19.1641 19.7553C18.9784 19.9468 18.7579 20.0986 18.5152 20.2023C18.2725 20.3059 18.0124 20.3592 17.7498 20.3592H11.2502C10.9876 20.3592 10.7275 20.3059 10.4848 20.2023C10.2421 20.0986 10.0216 19.9468 9.83586 19.7553C9.65012 19.5639 9.50278 19.3366 9.40226 19.0864C9.30174 18.8363 9.25 18.5682 9.25 18.2974V11.5979Z" stroke="#919191" stroke-width="1.5" stroke-linecap="round" stroke-linejoin="round"/>
<path d="M7.009 17.0631C6.77875 16.9283 6.58724 16.733 6.45393 16.4971C6.32061 16.2613 6.25025 15.9932 6.25 15.7203V7.98951C6.25 7.13913 6.925 6.44336 7.75 6.44336H15.25C15.8125 6.44336 16.1185 6.74099 16.375 7.21644" stroke="#919191" stroke-width="1.5" stroke-linecap="round" stroke-linejoin="round"/>
</svg>
