<svg width="24" height="24" viewBox="0 0 24 24" fill="none" xmlns="http://www.w3.org/2000/svg">
<g clip-path="url(#clip0_143_6518)">
<path fill-rule="evenodd" clip-rule="evenodd" d="M17.3587 13.6755C20.4783 16.087 26.9281 24.6611 16.8611 23.1492C12.4592 22.5176 6.02854 18.575 4.70797 14.0583C4.03811 15.264 3.2917 16.4315 2.46873 17.5607C1.26299 19.1109 -0.114998 17.9243 1.22471 16.3166C5.03333 11.7233 7.67447 6.21137 7.67447 0.661133C7.99983 3.41711 7.50223 6.78554 6.33476 10.0774C6.92806 9.90515 7.55964 9.80946 8.1338 9.80946C10.2008 6.68985 13.3204 4.02956 16.8611 2.78554C20.0955 1.57979 24.3826 2.28793 22.641 7.09176C21.7032 9.71377 19.5022 12.0296 17.3587 13.6755ZM17.7989 22.0391C23.3874 22.6133 17.397 16.1827 15.4257 14.9769C13.5883 16.087 11.3108 17.063 9.0716 16.7951C10.6793 18.709 14.5836 21.6755 17.7989 22.0391ZM16.7654 5.31185C14.1242 6.01999 11.6745 7.97214 9.87543 9.98171C11.3491 10.2497 12.7845 10.7855 14.1242 11.5319C14.6218 11.7425 15.1195 12.0678 15.5596 12.3741C17.129 11.0343 18.7367 9.27357 19.3683 7.264C19.9807 5.08219 18.2965 4.90994 16.7654 5.31185ZM13.4545 13.9052C12.1913 14.709 10.5454 15.5128 9.01427 15.3789C7.04297 15.1875 7.46403 12.8717 9.51187 12.8908C10.909 12.9674 12.2487 13.331 13.4545 13.9052Z" fill="#EBA12A"/>
</g>
<defs>
<clipPath id="clip0_143_6518">
<rect width="24" height="-24" fill="white" transform="matrix(-1 0 0 -1 24 0)"/>
</clipPath>
</defs>
</svg>
