<svg width="76" height="76" viewBox="0 0 76 76" fill="none" xmlns="http://www.w3.org/2000/svg">
<g filter="url(#filter0_d_125_4603)">
<rect x="12" y="8" width="44" height="44" rx="22" fill="white"/>
</g>
<path d="M31.999 38.7767C31.1289 38.5784 30.2931 38.2518 29.519 37.8077M35.999 21.2227C37.9872 21.6767 39.7623 22.7923 41.0337 24.3869C42.3051 25.9814 42.9975 27.9603 42.9975 29.9997C42.9975 32.039 42.3051 34.0179 41.0337 35.6125C39.7623 37.207 37.9872 38.3226 35.999 38.7767M26.578 35.0927C26.0331 34.2998 25.6189 33.4247 25.351 32.5007M25.123 28.4997C25.283 27.5497 25.591 26.6497 26.023 25.8247L26.192 25.5197M28.906 22.5787C29.8422 21.9355 30.8917 21.4754 31.999 21.2227" stroke="#5E5E5E" stroke-width="2" stroke-linecap="round" stroke-linejoin="round"/>
<path d="M34 26V30L37 33" stroke="#5E5E5E" stroke-width="2" stroke-linecap="round" stroke-linejoin="round"/>
<defs>
<filter id="filter0_d_125_4603" x="0" y="0" width="76" height="76" filterUnits="userSpaceOnUse" color-interpolation-filters="sRGB">
<feFlood flood-opacity="0" result="BackgroundImageFix"/>
<feColorMatrix in="SourceAlpha" type="matrix" values="0 0 0 0 0 0 0 0 0 0 0 0 0 0 0 0 0 0 127 0" result="hardAlpha"/>
<feMorphology radius="8" operator="erode" in="SourceAlpha" result="effect1_dropShadow_125_4603"/>
<feOffset dx="4" dy="8"/>
<feGaussianBlur stdDeviation="12"/>
<feComposite in2="hardAlpha" operator="out"/>
<feColorMatrix type="matrix" values="0 0 0 0 0.117647 0 0 0 0 0.117647 0 0 0 0 0.117647 0 0 0 0.26 0"/>
<feBlend mode="normal" in2="BackgroundImageFix" result="effect1_dropShadow_125_4603"/>
<feBlend mode="normal" in="SourceGraphic" in2="effect1_dropShadow_125_4603" result="shape"/>
</filter>
</defs>
</svg>
