<svg width="14" height="14" viewBox="0 0 14 14" fill="none" xmlns="http://www.w3.org/2000/svg">
<path d="M11.0833 6.41699H2.91667C2.27233 6.41699 1.75 6.93933 1.75 7.58366V11.667C1.75 12.3113 2.27233 12.8337 2.91667 12.8337H11.0833C11.7277 12.8337 12.25 12.3113 12.25 11.667V7.58366C12.25 6.93933 11.7277 6.41699 11.0833 6.41699Z" stroke="#919191" stroke-width="1.5" stroke-linecap="round" stroke-linejoin="round"/>
<path d="M4.08398 6.41699V4.08366C4.08398 3.31011 4.39128 2.56825 4.93826 2.02126C5.48524 1.47428 6.2271 1.16699 7.00065 1.16699C7.7742 1.16699 8.51607 1.47428 9.06305 2.02126C9.61003 2.56825 9.91732 3.31011 9.91732 4.08366V6.41699" stroke="#919191" stroke-width="1.5" stroke-linecap="round" stroke-linejoin="round"/>
</svg>
