<svg width="24" height="24" viewBox="0 0 24 24" fill="none" xmlns="http://www.w3.org/2000/svg">
<path d="M10.001 20.7767C9.13061 20.5792 8.29468 20.2526 7.521 19.8077M14.001 3.22266C15.9892 3.67673 17.7642 4.79235 19.0357 6.38686C20.3071 7.98138 20.9994 9.96031 20.9994 11.9997C20.9994 14.039 20.3071 16.0179 19.0357 17.6125C17.7642 19.207 15.9892 20.3226 14.001 20.7767M4.58 17.0927C4.0345 16.3001 3.6202 15.4249 3.353 14.5007M3.125 10.4997C3.285 9.54966 3.593 8.64966 4.025 7.82466L4.194 7.51966M6.908 4.57866C7.84365 3.93456 8.89332 3.47437 10.001 3.22266" stroke="#919191" stroke-width="2" stroke-linecap="round" stroke-linejoin="round"/>
<path d="M12 8V12L15 15" stroke="#919191" stroke-width="2" stroke-linecap="round" stroke-linejoin="round"/>
</svg>
