<svg width="275" height="316" viewBox="0 0 275 316" fill="none" xmlns="http://www.w3.org/2000/svg">
<path d="M135 315.019C209.487 315.019 269.871 310.112 269.871 304.058C269.871 298.005 209.487 293.098 135 293.098C60.5128 293.098 0.128906 298.005 0.128906 304.058C0.128906 310.112 60.5128 315.019 135 315.019Z" fill="#777373" fill-opacity="0.3"/>
<path d="M199.968 4.21289H182.855V13.9098H199.968V4.21289Z" fill="#263238"/>
<path d="M202.377 0.951172H180.432V7.29567H202.377V0.951172Z" fill="#455A64"/>
<path d="M161.704 13.7978L157.041 18.4609L164.407 25.8271L169.07 21.164L161.704 13.7978Z" fill="#263238"/>
<path d="M160.6 9.9429L153.191 17.3516L158.003 22.1633L165.412 14.7546L160.6 9.9429Z" fill="#455A64"/>
<path d="M213.749 21.1572L218.412 25.8203L225.778 18.4541L221.115 13.7909L213.749 21.1572Z" fill="#263238"/>
<path d="M217.386 14.7593L224.795 22.168L229.607 17.3562L222.198 9.94758L217.386 14.7593Z" fill="#455A64"/>
<path d="M231.887 63.7755C237.134 41.4078 223.254 19.0221 200.886 13.7758C178.518 8.52952 156.132 22.4092 150.886 44.777C145.64 67.1447 159.519 89.5303 181.887 94.7766C204.255 100.023 226.641 86.1433 231.887 63.7755Z" fill="#FFC533"/>
<path d="M190.899 93.2865C212.819 93.2865 230.588 75.5175 230.588 53.5983C230.588 31.6791 212.819 13.9102 190.899 13.9102C168.98 13.9102 151.211 31.6791 151.211 53.5983C151.211 75.5175 168.98 93.2865 190.899 93.2865Z" fill="#263238"/>
<path d="M226.083 59.17C228.885 40.0135 215.626 22.213 196.47 19.4116C177.313 16.6101 159.513 29.8685 156.711 49.025C153.91 68.1815 167.168 85.982 186.325 88.7834C205.481 91.5849 223.282 78.3265 226.083 59.17Z" fill="white"/>
<path opacity="0.5" d="M226.465 54.1088H191.439V19.084C200.729 19.084 209.637 22.7741 216.206 29.3425C222.774 35.911 226.465 44.8197 226.465 54.1088Z" fill="#FFC533"/>
<path d="M191.749 21.5957H191.068V26.9095H191.749V21.5957Z" fill="#C7C7C7"/>
<path d="M175.441 25.7594L174.852 26.0996L177.508 30.7015L178.098 30.3612L175.441 25.7594Z" fill="#C7C7C7"/>
<path d="M163.409 37.5435L163.068 38.1328L167.67 40.7897L168.01 40.2004L163.409 37.5435Z" fill="#C7C7C7"/>
<path d="M164.21 53.7695H158.896V54.45H164.21V53.7695Z" fill="#C7C7C7"/>
<path d="M168.875 67.7513L164.252 70.4082L164.592 71.0002L169.215 68.3433L168.875 67.7513Z" fill="#C7C7C7"/>
<path d="M177.508 77.4964L174.854 82.0996L175.443 82.4395L178.098 77.8363L177.508 77.4964Z" fill="#C7C7C7"/>
<path d="M191.749 81.3086H191.068V86.6224H191.749V81.3086Z" fill="#C7C7C7"/>
<path d="M205.294 77.4762L204.705 77.8164L207.362 82.4183L207.951 82.078L205.294 77.4762Z" fill="#C7C7C7"/>
<path d="M215.127 67.3892L214.787 67.9785L219.389 70.6354L219.729 70.0461L215.127 67.3892Z" fill="#C7C7C7"/>
<path d="M223.923 53.7695H218.609V54.45H223.923V53.7695Z" fill="#C7C7C7"/>
<path d="M219.389 37.5404L214.787 40.1973L215.127 40.7866L219.729 38.1297L219.389 37.5404Z" fill="#C7C7C7"/>
<path d="M207.362 25.7722L204.707 30.375L205.296 30.715L207.952 26.1123L207.362 25.7722Z" fill="#C7C7C7"/>
<path d="M191.649 28.7424L193.21 56.1919L189.688 56.1419L190.698 28.7324L191.649 28.7424Z" fill="#FFC533"/>
<path d="M192.611 54.1093C192.611 54.3492 192.54 54.5838 192.406 54.7831C192.273 54.9824 192.083 55.1376 191.861 55.229C191.64 55.3203 191.396 55.3437 191.16 55.2961C190.925 55.2486 190.709 55.1323 190.541 54.9619C190.372 54.7916 190.257 54.5749 190.212 54.3394C190.166 54.1038 190.191 53.8601 190.285 53.639C190.378 53.4179 190.534 53.2295 190.735 53.0977C190.935 52.9658 191.17 52.8965 191.41 52.8985C191.569 52.8985 191.726 52.9299 191.872 52.9908C192.019 53.0518 192.151 53.1412 192.263 53.2537C192.375 53.3663 192.463 53.4999 192.523 53.6467C192.582 53.7936 192.613 53.9508 192.611 54.1093Z" fill="#FFC533"/>
<path d="M216.819 54.5183L189.369 56.0694L189.419 52.5469L216.829 53.5576L216.819 54.5183Z" fill="#263238"/>
<path d="M192.611 54.1093C192.611 54.3492 192.54 54.5838 192.406 54.7831C192.273 54.9824 192.083 55.1376 191.861 55.229C191.64 55.3203 191.396 55.3437 191.16 55.2961C190.925 55.2486 190.709 55.1323 190.541 54.9619C190.372 54.7916 190.257 54.5749 190.212 54.3394C190.166 54.1038 190.191 53.8601 190.285 53.639C190.378 53.4179 190.534 53.2295 190.735 53.0977C190.935 52.9658 191.17 52.8965 191.41 52.8985C191.569 52.8985 191.726 52.9299 191.872 52.9908C192.019 53.0518 192.151 53.1412 192.263 53.2537C192.375 53.3663 192.463 53.4999 192.523 53.6467C192.582 53.7936 192.613 53.9508 192.611 54.1093Z" fill="#FFC533"/>
<path d="M90.0969 107.23C93.7599 121.206 98.5326 130.332 101.733 133.49C109.401 141.058 125.917 142.736 135.206 146.591C138.229 147.85 146.586 128.675 143.492 126.996C141.209 125.751 114.693 122.394 112.438 121.704C111.279 121.348 102.48 109.89 97.5012 103.446C89.4781 93.1181 88.0911 99.5978 90.0969 107.23Z" fill="#AD6359"/>
<path d="M149.722 149.279C148.3 149.244 148.25 149.99 150.234 151.633C152.219 153.276 161.458 158.035 159.517 161.129C157.575 164.223 144.637 157.281 141.543 154.308C138.449 151.335 134.473 145.445 134.473 145.445C137.268 146.292 144.246 147.693 149.722 149.279Z" fill="#AD6359"/>
<path d="M141.259 126.391C155.029 128.524 160.506 131.22 166.537 138.262C167.226 139.023 167.641 139.991 167.718 141.014C170.478 144.116 169.852 146.356 169.852 146.356C171.531 150.033 170.563 152.231 170.563 152.231C170.563 152.231 173.764 155.908 171.858 158.213C169.724 160.802 165.655 155.126 161.509 153.376C151.999 149.358 137.326 146.313 134.48 145.431L141.259 126.391Z" fill="#AD6359"/>
<path d="M154.475 142.181C157.273 143.32 159.99 144.651 162.605 146.164C165.362 147.995 167.977 150.03 170.429 152.252C170.445 152.262 170.465 152.266 170.484 152.263C170.503 152.26 170.52 152.251 170.533 152.237C170.547 152.223 170.555 152.205 170.556 152.186C170.558 152.167 170.553 152.148 170.543 152.131C166.228 147.371 160.69 143.885 154.532 142.053C154.39 142.01 154.333 142.117 154.475 142.181Z" fill="#263238"/>
<path d="M156.059 136.085C158.698 137.436 163.307 139.847 169.758 146.434C169.758 146.434 169.823 146.434 169.801 146.434C166.3 141.749 161.564 138.131 156.123 135.985C155.953 135.886 155.889 135.992 156.059 136.085Z" fill="#263238"/>
<path d="M156.977 132.828C161.365 135.303 163.819 137.415 167.681 141.029C167.681 141.029 167.738 141.029 167.717 140.993C163.769 136.427 161.821 135.217 157.048 132.664C156.877 132.579 156.806 132.728 156.977 132.828Z" fill="#263238"/>
<path d="M105.717 113.566L93.035 125.452C93.035 125.452 87.9138 107.016 87.9494 101.183C87.9494 94.6038 91.3351 96.0548 95.7734 100.472C100.212 104.889 105.717 113.566 105.717 113.566Z" fill="#FFC533"/>
<path opacity="0.1" d="M105.717 113.566L93.035 125.452C93.035 125.452 87.9138 107.016 87.9494 101.183C87.9494 94.6038 91.3351 96.0548 95.7734 100.472C100.212 104.889 105.717 113.566 105.717 113.566Z" fill="black"/>
<path d="M103.119 111.689C101.298 112.984 96.3835 117.636 95.5584 118.397C95.1245 118.802 93.4744 120.474 93.0405 120.872C92.9836 120.922 93.0405 121 93.1258 120.95C93.958 120.196 94.8685 119.528 95.7006 118.766C96.5328 118.005 101.711 113.46 103.176 111.753C103.212 111.718 103.162 111.661 103.119 111.689Z" fill="#263238"/>
<path d="M172.924 256.19C171.203 256.751 121.642 254.767 119.785 253.565C119.558 253.43 118.676 243.899 118.676 243.899L124.409 207.275L156.949 207.709L150.669 239.005C150.669 239.005 157.838 242.305 163.749 245.186C167.391 246.95 170.556 248.565 171.281 249.155C173.188 250.677 174.653 255.635 172.924 256.19Z" fill="#AD6359"/>
<path d="M172.931 256.191C171.21 256.753 121.634 254.768 119.785 253.573C119.564 253.431 118.668 243.9 118.668 243.9L120.439 232.619L151.657 234.042L150.647 238.978C150.647 238.978 157.809 242.278 163.727 245.152C167.369 246.916 170.534 248.53 171.259 249.121C173.18 250.685 174.645 255.643 172.931 256.191Z" fill="#EBEBEB"/>
<path d="M172.903 256.24C171.146 256.787 121.257 255.628 119.387 254.376C118.676 253.914 118.412 246.63 118.355 237.825V237.555L150.555 237.946V238.486C150.555 238.486 169.453 247.477 171.367 249.07C173.28 250.663 174.66 255.713 172.903 256.24Z" fill="#C7C7C7"/>
<path d="M170.058 256.383C159.14 256.497 120.98 255.472 119.387 254.384C118.676 253.922 118.412 246.638 118.355 237.833V237.562L138.52 237.804L170.058 256.383Z" fill="#A6A6A6"/>
<path d="M172.383 254.305C163.976 253.899 130.034 253.067 121.698 253.309C121.627 253.309 121.627 253.359 121.698 253.366C130.02 253.942 163.962 254.497 172.376 254.44C172.554 254.44 172.561 254.312 172.383 254.305Z" fill="#263238"/>
<path d="M153.231 238.657C149.937 237.946 145.876 238.373 143.273 240.677C143.173 240.763 143.273 240.905 143.408 240.87C146.594 239.924 149.873 239.323 153.188 239.077C153.239 239.075 153.287 239.054 153.324 239.019C153.361 238.983 153.384 238.936 153.389 238.886C153.394 238.835 153.381 238.784 153.352 238.742C153.323 238.7 153.28 238.67 153.231 238.657Z" fill="#263238"/>
<path d="M155.584 240.15C152.291 239.439 148.23 239.873 145.626 242.17C145.527 242.256 145.626 242.398 145.761 242.37C148.955 241.427 152.241 240.831 155.563 240.591C155.621 240.594 155.678 240.574 155.722 240.534C155.765 240.495 155.791 240.44 155.794 240.382C155.797 240.323 155.776 240.266 155.737 240.222C155.698 240.179 155.643 240.153 155.584 240.15Z" fill="#263238"/>
<path d="M157.938 241.644C154.644 240.933 150.583 241.367 147.98 243.665C147.88 243.757 147.98 243.892 148.115 243.864C151.301 242.916 154.58 242.313 157.895 242.064C157.946 242.062 157.994 242.041 158.031 242.006C158.068 241.971 158.091 241.923 158.096 241.873C158.102 241.822 158.088 241.771 158.059 241.729C158.03 241.687 157.987 241.657 157.938 241.644Z" fill="#263238"/>
<path d="M153.399 234.268L117.074 232.618C117.074 232.618 129.628 181.641 128.291 179.984C126.868 178.206 74.2769 191.364 63.7643 178.32C52.9957 164.955 58.3942 145.715 58.3942 145.715H94.2636C94.2636 145.715 93.5524 150.53 94.036 152.828C94.036 152.828 144.536 145.103 155.518 150.921C157.652 152.066 165.476 158.496 165.604 164.592C166.294 191.514 153.399 234.268 153.399 234.268Z" fill="#455A64"/>
<path d="M153.761 227.689C149.451 227.149 145.134 226.822 140.802 226.494C136.47 226.167 132.139 225.911 127.807 225.748C125.36 225.648 122.914 225.669 120.467 225.584C120.454 225.588 120.443 225.597 120.436 225.607C120.428 225.618 120.424 225.631 120.424 225.644C120.424 225.658 120.428 225.671 120.436 225.682C120.443 225.692 120.454 225.701 120.467 225.705C122.643 225.861 124.813 226.139 126.989 226.309L133.433 226.779C137.765 227.063 142.097 227.305 146.428 227.568C148.868 227.718 151.308 227.796 153.754 227.853C153.772 227.849 153.788 227.838 153.8 227.824C153.811 227.81 153.818 227.792 153.819 227.774C153.82 227.755 153.815 227.737 153.804 227.722C153.794 227.707 153.779 227.695 153.761 227.689Z" fill="#263238"/>
<path d="M133.891 176.365C126.913 176.592 119.971 177.197 113.029 177.88C106.087 178.563 99.1023 179.302 92.1034 179.758C88.6324 179.978 85.1471 180.12 81.6619 180.142C78.767 180.266 75.8697 179.964 73.0626 179.246C70.2757 178.431 67.8937 176.604 66.3838 174.124C64.8659 171.611 63.8715 168.817 63.4605 165.909C62.5429 160.027 63.4605 154.017 64.5345 148.213C64.6696 147.501 64.8048 146.79 64.9328 146.022C64.9328 145.958 64.8403 145.93 64.819 146.022C63.3965 151.876 62.0664 157.9 62.4931 163.946C62.6676 166.913 63.3911 169.821 64.6269 172.524C65.7416 175.15 67.6587 177.356 70.1037 178.826C72.6003 180.248 75.5521 180.668 78.4185 180.81C81.7615 180.981 85.1471 180.81 88.4901 180.661C95.6455 180.312 102.772 179.573 109.885 178.833C116.998 178.093 124.075 177.368 131.223 177.012C132.013 176.969 132.802 176.941 133.592 176.913C132.511 183.314 123.357 221.424 122.845 224.44C122.795 224.738 123.079 224.831 123.157 224.525C124.722 218.586 133.606 180.426 134.196 176.699C134.206 176.656 134.205 176.611 134.193 176.568C134.182 176.525 134.16 176.486 134.13 176.453C134.1 176.42 134.063 176.395 134.021 176.38C133.979 176.364 133.935 176.359 133.891 176.365Z" fill="#263238"/>
<path d="M161.892 257.676H84.2637V266.261H161.892V257.676Z" fill="#FFC533"/>
<path d="M60.9561 242.363C83.0625 242.363 95.8725 257.72 95.8725 275.793C95.8725 293.866 84.0084 308.874 62.4498 308.874C38.5938 308.874 27.1992 289.898 27.1992 275.629C27.1992 261.361 38.5796 242.363 60.9561 242.363Z" fill="#37474F"/>
<path d="M57.5554 242.363C78.5735 242.363 90.7434 257.72 90.7434 275.793C90.7434 293.866 79.4697 308.874 58.9638 308.874C36.2813 308.874 25.4629 289.869 25.4629 275.601C25.4629 261.333 36.2813 242.363 57.5554 242.363Z" fill="#263238"/>
<path d="M57.7682 255.344C70.5711 255.344 77.9897 264.704 77.9897 275.715C77.9897 286.725 71.1188 295.865 58.6289 295.865C44.8018 295.865 38.2012 284.3 38.2012 275.601C38.2012 266.902 44.8018 255.344 57.7682 255.344Z" fill="#C7C7C7"/>
<path d="M123.535 201.841V198.932L49.1428 201.329V207.872C49.1428 207.872 27.5984 231.664 25.4219 256.395L100.02 257.974L112.005 257.676H126.721V242.725C126.721 242.725 115.597 234.616 117.546 218.051C118.193 212.552 123.535 201.841 123.535 201.841Z" fill="#FFC533"/>
<path d="M93.0699 254.513C92.2946 255.935 80.9783 257.977 59.5264 258.553C40.2153 259.072 25.7908 258.645 24.6741 257.401C23.5574 256.156 26.4025 234.142 39.4756 222.221C52.5488 210.3 71.0561 208.586 83.2615 215.699C93.9946 221.937 102.003 237.791 93.0699 254.513Z" fill="#FFC533"/>
<path opacity="0.1" d="M96.7115 233.672C95.5646 228.459 92.9193 223.695 89.1009 219.966C85.2731 216.13 80.4933 213.383 75.2525 212.007C69.4065 210.547 63.2838 210.614 57.4707 212.199C54.5615 212.962 51.7482 214.052 49.0848 215.449C46.2728 216.96 43.6225 218.755 41.1755 220.805C40.5211 221.346 39.8596 221.886 39.2124 222.441C39.1555 222.484 39.2124 222.562 39.2977 222.519C41.7598 220.354 44.4252 218.432 47.2568 216.779C49.8407 215.304 52.582 214.123 55.4293 213.258C61.0744 211.493 67.0694 211.156 72.8768 212.277C78.1256 213.332 82.9901 215.79 86.9529 219.39C90.7713 222.827 93.5797 227.242 95.0756 232.157C96.8538 238.146 96.2705 244.739 94.4995 250.65C94.2647 251.447 94.0087 252.229 93.7455 253.011C93.7455 253.097 93.8451 253.125 93.8735 253.047C96.2634 246.909 98.0487 240.294 96.7115 233.672Z" fill="black"/>
<path d="M45.0019 260.822C32.0496 260.822 25.193 260.424 21.7148 259.044L23.3294 254.983C27.3979 256.597 40.1368 256.569 60.6356 256.334C75.7786 256.156 86.9526 254.727 93.9231 252.066L95.4808 256.149C87.9413 258.994 76.561 260.502 60.6854 260.687C54.6609 260.772 49.4686 260.822 45.0019 260.822Z" fill="#DBDBDB"/>
<path d="M124.756 200.847C124.756 200.847 125.254 184.573 124.756 183.933C124.258 183.292 48.9489 181.934 46.6942 182.133C44.4395 182.332 44.2119 201.337 44.3826 202.226C44.5533 203.116 122.793 201.017 124.756 200.847Z" fill="#37474F"/>
<path d="M131.813 184.259C131.592 184.003 122.047 183.733 121.521 183.719C120.994 183.705 120.81 201.052 121.094 201.038C121.379 201.024 131.464 201.166 131.799 200.796C132.133 200.427 132.289 184.814 131.813 184.259Z" fill="#455A64"/>
<path d="M79.0654 182.146C78.7955 182.428 78.6192 182.785 78.5603 183.171C78.471 183.577 78.4069 183.987 78.3683 184.401C78.2758 185.226 78.226 186.066 78.1834 186.898C78.1122 188.576 78.0696 190.262 78.0411 191.955C78.0127 193.648 77.97 195.326 78.0411 196.998C78.0474 197.826 78.1044 198.652 78.2118 199.473C78.2546 199.87 78.3478 200.259 78.4892 200.632C78.5413 200.8 78.6332 200.952 78.7571 201.076C78.881 201.2 79.0332 201.292 79.2005 201.344C79.0128 201.338 78.8306 201.279 78.6755 201.173C78.5205 201.067 78.399 200.919 78.3256 200.746C78.1266 200.374 77.9715 199.98 77.8633 199.573C77.662 198.739 77.5312 197.889 77.4721 197.033C77.3408 195.33 77.298 193.62 77.3441 191.912C77.3868 190.212 77.4579 188.505 77.6499 186.805C77.7423 185.955 77.8776 185.11 78.0553 184.273C78.1546 183.859 78.2757 183.451 78.4181 183.05C78.5319 182.701 78.7311 182.267 79.0654 182.146Z" fill="#455A64"/>
<path d="M85.8564 131.434H64.5254V135.523H85.8564V131.434Z" fill="#263238"/>
<path d="M223.324 242.094C245.437 242.094 258.24 257.45 258.24 275.523C258.24 293.597 246.376 308.583 224.81 308.583C200.947 308.583 189.553 289.607 189.553 275.346C189.553 261.085 200.947 242.094 223.324 242.094Z" fill="#37474F"/>
<path d="M219.926 242.094C240.944 242.094 253.121 257.45 253.121 275.523C253.121 293.597 241.84 308.583 221.341 308.583C198.659 308.583 187.826 289.607 187.826 275.346C187.826 261.085 198.659 242.094 219.926 242.094Z" fill="#263238"/>
<path d="M220.138 255.072C232.941 255.072 240.367 264.433 240.367 275.443C240.367 286.454 233.496 295.593 220.999 295.593C207.179 295.593 200.578 284.028 200.578 275.336C200.578 266.645 207.179 255.072 220.138 255.072Z" fill="#C7C7C7"/>
<path d="M187.556 166.59H178.857L172.896 157.842H183.089L187.556 166.59Z" fill="#FFC533"/>
<path d="M172.896 157.842L176.389 162.963L178.857 166.59H187.556L185.201 161.981L183.082 157.842H172.896Z" fill="#FFC533"/>
<path opacity="0.1" d="M172.896 157.842L176.389 162.963L185.201 161.981L183.082 157.842H172.896Z" fill="black"/>
<path d="M208.695 231.879L200.224 233.828L192.457 226.63L202.386 224.354L208.695 231.879Z" fill="#FFC533"/>
<path d="M192.457 226.63L197.002 230.847L200.217 233.828L208.702 231.879L205.374 227.917L202.386 224.354L192.457 226.63Z" fill="#FFC533"/>
<path opacity="0.1" d="M192.457 226.63L197.002 230.847L205.374 227.917L202.386 224.354L192.457 226.63Z" fill="black"/>
<path d="M256.32 246.36L248.091 250.684C248.091 250.684 224.256 246.36 208.971 249.632C193.686 252.904 189.56 261.069 189.56 261.069H181.836C181.836 261.069 188.465 237.519 199.71 228.969C210.955 220.42 229.029 222.333 239.022 227.717C249.016 233.102 256.32 246.36 256.32 246.36Z" fill="#FFC533"/>
<path opacity="0.1" d="M247.224 249.056C245.63 247.392 243.903 245.86 242.06 244.476C240.234 243.056 238.304 241.777 236.285 240.649C232.371 238.474 228.079 237.065 223.638 236.495C214.947 235.428 205.857 237.96 199.455 244.639C195.856 248.423 193.296 253.068 190.863 257.755C190.827 257.826 190.927 257.883 190.963 257.812C193.024 253.691 195.626 249.863 198.701 246.432C201.664 243.196 205.352 240.71 209.463 239.177C217.664 236.168 226.533 237.32 234.414 240.955C236.671 241.978 238.849 243.166 240.929 244.511C243.057 245.944 245.111 247.485 247.082 249.127C247.095 249.139 247.111 249.146 247.128 249.149C247.145 249.151 247.162 249.148 247.177 249.14C247.193 249.133 247.205 249.121 247.214 249.106C247.222 249.091 247.226 249.073 247.224 249.056Z" fill="black"/>
<path d="M156.787 161.884C156.659 162.182 139.481 165.34 139.481 165.34C139.481 165.34 136.636 163.42 138.393 160.988L155.627 157.268C156.29 157.811 156.76 158.553 156.969 159.384C157.178 160.215 157.114 161.092 156.787 161.884Z" fill="#263238"/>
<path d="M192.839 139.677V160.055C192.839 160.055 181.836 159.095 178.905 158.995C175.975 158.896 162.951 160.581 162.951 160.581L161.941 156.015C161.941 156.015 171.985 152.508 176.252 149.77C180.52 147.032 185.435 141.797 188.074 140.637C189.567 139.955 191.198 139.626 192.839 139.677Z" fill="#FFC533"/>
<path d="M162.995 155.438C163.649 156.11 164.142 156.922 164.438 157.813C164.734 158.704 164.824 159.65 164.702 160.58C164.702 160.58 156.501 162.081 156.401 162.081C156.469 161.116 156.235 160.154 155.732 159.328C155.229 158.502 154.481 157.853 153.592 157.472L162.995 155.438Z" fill="#DBDBDB"/>
<path d="M192.946 160.054C195.924 160.054 198.338 155.494 198.338 149.869C198.338 144.244 195.924 139.684 192.946 139.684C189.969 139.684 187.555 144.244 187.555 149.869C187.555 155.494 189.969 160.054 192.946 160.054Z" fill="#DBDBDB"/>
<path d="M193.28 158.959C195.83 158.959 197.896 154.89 197.896 149.869C197.896 144.849 195.83 140.779 193.28 140.779C190.731 140.779 188.664 144.849 188.664 149.869C188.664 154.89 190.731 158.959 193.28 158.959Z" fill="white"/>
<path d="M194.681 166.619C196.474 169.244 203.65 204.935 205.059 206.728C206.467 208.52 209.163 208.648 209.163 208.648L213.907 220.441C213.907 220.441 202.121 224.161 195.578 229.538C187.121 236.487 179.304 259.525 179.304 259.525C178.023 260.422 162.134 266.958 157.773 267.214C157.773 267.214 178.038 244.966 179.688 214.175C180.328 202.247 172.988 185.446 172.511 177.125C171.985 168.191 174.687 166.619 179.432 166.619H194.681Z" fill="#FFC533"/>
<path d="M156.799 269.753L153.627 266.752C171.409 247.931 177.967 218.279 177.447 210.184C177.177 206.038 175.847 201.4 174.432 196.485C172.924 191.243 171.217 185.304 170.491 178.853C169.815 172.864 170.491 168.995 172.533 166.683C174.574 164.371 177.376 164.378 179.24 164.386H196.168V168.753H179.233C177.604 168.753 176.494 168.81 175.79 169.599C175.086 170.389 174.168 172.444 174.837 178.369C175.548 184.451 177.106 189.956 178.635 195.276C180.115 200.426 181.48 205.284 181.808 209.9C182.362 218.542 175.541 250.001 156.799 269.753Z" fill="#DBDBDB"/>
<path d="M205.145 216.465C206.14 220.135 209.277 222.468 212.151 221.686C215.024 220.903 216.553 217.297 215.55 213.634C214.548 209.971 211.411 207.624 208.537 208.406C205.664 209.189 204.142 212.802 205.145 216.465Z" fill="#DBDBDB"/>
<path d="M206.211 216.173C207.1 219.445 209.818 221.55 212.279 220.882C214.74 220.213 216.006 217.02 215.124 213.769C214.242 210.519 211.517 208.392 209.064 209.06C206.61 209.729 205.322 212.901 206.211 216.173Z" fill="white"/>
<path opacity="0.1" d="M192.562 215.875C191.773 212.184 190.919 208.507 190.179 204.808C189.44 201.109 188.757 197.404 188.181 193.684C187.619 190.22 187.014 186.72 186.794 183.214C186.573 179.551 186.794 175.852 188.572 172.545C188.576 172.538 188.578 172.531 188.579 172.524C188.58 172.516 188.579 172.509 188.577 172.501C188.575 172.494 188.572 172.487 188.567 172.481C188.563 172.475 188.557 172.47 188.551 172.467C188.544 172.463 188.537 172.46 188.529 172.459C188.522 172.458 188.514 172.459 188.507 172.461C188.5 172.463 188.493 172.466 188.487 172.471C188.481 172.476 188.476 172.481 188.472 172.488C186.644 175.155 186.047 178.363 185.947 181.542C185.957 185.048 186.266 188.546 186.872 191.998C187.91 199.579 189.334 207.102 191.14 214.538C192.171 218.742 193.501 222.874 194.924 226.957C194.924 226.97 194.929 226.983 194.938 226.992C194.947 227.002 194.96 227.007 194.973 227.007C194.987 227.007 194.999 227.002 195.009 226.992C195.018 226.983 195.023 226.97 195.023 226.957C194.174 223.244 193.354 219.55 192.562 215.875Z" fill="black"/>
<path opacity="0.1" d="M126.72 242.725V257.661H113.974V246.352C113.974 246.352 106.862 242.76 105.439 229.694C104.159 217.859 113.605 202.061 115.397 199.195L123.513 198.932V201.841C123.513 201.841 118.171 212.552 117.524 218.051C115.596 234.616 126.72 242.725 126.72 242.725Z" fill="black"/>
<path d="M158.776 261.156C157.055 261.71 107.486 259.733 105.63 258.531C105.409 258.396 104.527 248.858 104.527 248.858L110.26 212.234L142.801 212.668L136.52 243.964C136.52 243.964 143.683 247.257 149.601 250.138C153.242 251.909 156.407 253.524 157.133 254.107C159.032 255.643 160.497 260.601 158.776 261.156Z" fill="#AD6359"/>
<path d="M158.784 261.155C157.056 261.71 107.487 259.732 105.638 258.53C105.411 258.395 104.521 248.864 104.521 248.864L106.293 237.576L137.51 238.999L136.522 243.921C136.522 243.921 143.684 247.221 149.602 250.095C153.236 251.866 156.409 253.48 157.134 254.063C159.033 255.65 160.499 260.6 158.784 261.155Z" fill="#EBEBEB"/>
<path d="M158.749 261.22C157 261.767 107.104 260.601 105.233 259.349C104.522 258.887 104.266 251.61 104.209 242.805V242.527L136.401 242.919V243.466C136.401 243.466 155.3 252.45 157.213 254.043C159.126 255.636 160.506 260.672 158.749 261.22Z" fill="#C7C7C7"/>
<path d="M158.229 259.262C149.829 258.864 115.887 258.032 107.551 258.274C107.48 258.274 107.48 258.324 107.551 258.324C115.873 258.907 149.815 259.462 158.229 259.405C158.407 259.398 158.407 259.27 158.229 259.262Z" fill="#263238"/>
<path d="M139.081 243.615C135.788 242.904 131.727 243.338 129.124 245.635C129.017 245.728 129.124 245.863 129.259 245.834C132.445 244.886 135.724 244.283 139.039 244.035C139.09 244.032 139.138 244.011 139.175 243.976C139.212 243.941 139.235 243.894 139.24 243.843C139.245 243.793 139.232 243.742 139.203 243.7C139.174 243.658 139.131 243.628 139.081 243.615Z" fill="#263238"/>
<path d="M141.438 245.117C138.144 244.405 134.083 244.832 131.48 247.13C131.38 247.222 131.48 247.364 131.615 247.329C134.804 246.38 138.085 245.777 141.402 245.529C141.429 245.531 141.456 245.528 141.482 245.52C141.508 245.512 141.532 245.499 141.553 245.481C141.574 245.464 141.591 245.442 141.604 245.418C141.616 245.394 141.624 245.368 141.626 245.341C141.628 245.314 141.625 245.286 141.617 245.26C141.609 245.234 141.596 245.21 141.578 245.19C141.561 245.169 141.539 245.152 141.515 245.139C141.491 245.127 141.465 245.119 141.438 245.117Z" fill="#263238"/>
<path d="M143.791 246.609C140.498 245.897 136.437 246.324 133.833 248.629C133.734 248.714 133.833 248.856 133.969 248.821C137.156 247.879 140.434 247.278 143.748 247.028C143.799 247.026 143.848 247.005 143.885 246.97C143.922 246.935 143.945 246.887 143.95 246.837C143.955 246.786 143.942 246.735 143.913 246.693C143.884 246.651 143.84 246.621 143.791 246.609Z" fill="#263238"/>
<path d="M139.267 239.233L102.942 237.576C102.942 237.576 115.504 186.599 114.166 184.942C112.744 183.156 64.8468 196.322 54.3271 183.277C43.5584 169.912 54.3271 147.543 54.3271 147.543H91.1496C91.1496 147.543 91.1496 151.64 88.6459 157.771C88.6459 157.771 130.398 150.04 141.401 155.858C143.57 157.01 151.359 163.44 151.487 169.535C152.127 196.493 139.267 239.233 139.267 239.233Z" fill="#455A64"/>
<path d="M139.614 232.653C135.304 232.113 130.98 231.779 126.648 231.459C122.316 231.138 117.992 230.875 113.653 230.705C111.213 230.612 108.767 230.633 106.32 230.541C106.303 230.541 106.287 230.548 106.275 230.56C106.263 230.572 106.256 230.588 106.256 230.605C106.256 230.622 106.263 230.638 106.275 230.65C106.287 230.662 106.303 230.669 106.32 230.669C108.496 230.826 110.666 231.096 112.842 231.267C115.019 231.437 117.11 231.594 119.286 231.736C123.611 232.028 127.943 232.262 132.274 232.533C134.721 232.682 137.161 232.76 139.607 232.817C139.625 232.813 139.641 232.803 139.653 232.788C139.665 232.774 139.671 232.756 139.672 232.738C139.673 232.72 139.668 232.701 139.657 232.686C139.647 232.671 139.632 232.659 139.614 232.653Z" fill="#263238"/>
<path d="M69.7265 150.624C69.6783 150.774 69.6164 150.919 69.5416 151.058C69.5335 151.068 69.5291 151.08 69.5291 151.093C69.5291 151.106 69.5335 151.119 69.5416 151.129C69.1148 152.459 68.937 153.867 68.5245 155.204C68.1327 156.624 67.2635 157.865 66.0635 158.718C63.5456 160.468 60.5227 161.257 57.5922 161.983C57.5746 161.988 57.5592 161.999 57.5482 162.014C57.5372 162.028 57.5312 162.046 57.5313 162.065C57.5312 162.083 57.5372 162.101 57.5482 162.116C57.5592 162.13 57.5746 162.141 57.5922 162.146C59.2815 162.156 60.9618 161.899 62.5711 161.385C64.0833 160.967 65.509 160.283 66.7818 159.365C67.9774 158.461 68.8301 157.176 69.2002 155.724C69.3791 154.951 69.5192 154.17 69.6198 153.384C69.7845 152.479 69.8819 151.564 69.9114 150.645C69.901 150.631 69.8878 150.619 69.8727 150.611C69.8576 150.602 69.8409 150.597 69.8236 150.595C69.8063 150.593 69.7887 150.594 69.772 150.599C69.7553 150.604 69.7399 150.613 69.7265 150.624Z" fill="#263238"/>
<path d="M94.5709 155.951C92.568 156.529 90.617 157.273 88.7385 158.177L88.646 158.22C88.6846 158.104 88.7132 157.985 88.7314 157.864C88.7314 157.722 88.7741 157.587 88.8025 157.445C88.831 157.302 88.8025 157.153 88.8452 157.004V156.776C89.0872 156.76 89.3234 156.695 89.5389 156.583C89.7543 156.472 89.9443 156.317 90.097 156.129C90.4899 155.583 90.7549 154.956 90.8723 154.294C91.0928 153.468 91.2991 152.629 91.4769 151.79C91.6547 150.951 91.8467 149.919 91.9961 148.945C92.1768 148.023 92.2838 147.088 92.3162 146.15C92.3162 146.116 92.3027 146.083 92.2787 146.059C92.2547 146.035 92.2221 146.021 92.1882 146.021C92.1542 146.021 92.1216 146.035 92.0976 146.059C92.0736 146.083 92.0601 146.116 92.0601 146.15C91.8396 147.01 91.7401 147.899 91.5765 148.767C91.4129 149.635 91.2279 150.51 91.0288 151.377C90.8296 152.245 90.6162 153.113 90.3744 153.966C90.1326 154.82 89.9477 155.837 89.0657 156.1C87.2448 156.619 88.0628 152.544 88.141 151.733C88.326 149.884 88.4398 147.992 88.7669 146.157C88.7669 146.086 88.6603 146.05 88.646 146.157C88.2477 147.842 87.7996 149.5 87.5009 151.207C87.3515 152.046 87.2448 152.892 87.1524 153.732C87.0047 154.459 87.0638 155.213 87.3231 155.908C87.4359 156.143 87.6044 156.347 87.8139 156.502C88.0234 156.657 88.2675 156.758 88.5251 156.797L88.4682 156.989C88.4255 157.124 88.3829 157.26 88.3473 157.395C88.3117 157.53 88.2833 157.672 88.2548 157.807C88.1922 157.968 88.1702 158.141 88.1908 158.312C88.2067 158.36 88.2396 158.401 88.2833 158.426C87.508 158.76 86.7256 159.095 85.9574 159.457C84.9917 159.837 84.0571 160.291 83.1621 160.816C83.0554 160.866 83.1621 161.008 83.2404 160.987C84.2418 160.706 85.2213 160.351 86.1708 159.927C87.1453 159.557 88.1055 159.159 89.0728 158.753C90.9889 158.05 92.8424 157.186 94.6136 156.171C94.6428 156.166 94.6686 156.149 94.6853 156.124C94.702 156.099 94.7082 156.069 94.7025 156.04C94.6968 156.011 94.6798 155.985 94.6551 155.968C94.6304 155.951 94.6002 155.945 94.5709 155.951Z" fill="#263238"/>
<path d="M150.405 164.906C149.145 161.202 146.595 158.074 143.221 156.093C139.757 154.18 135.717 153.668 131.841 153.547C127.331 153.412 122.793 153.647 118.291 153.931C113.497 154.23 108.703 154.685 103.938 155.354C99.1721 156.022 94.492 156.84 89.8047 157.85C88.6809 158.092 87.5642 158.391 86.4475 158.704C86.3621 158.704 86.3763 158.889 86.4475 158.874C91.1063 158.22 95.7438 157.452 100.403 156.812C105.061 156.172 109.77 155.667 114.479 155.311C119.187 154.955 123.846 154.756 128.533 154.685C132.374 154.628 136.357 154.685 140.006 155.923C141.81 156.499 143.481 157.43 144.921 158.661C146.335 159.926 147.494 161.449 148.335 163.149C150.256 166.926 150.433 171.258 150.625 175.44C151.18 187.852 142.254 227.292 140.668 233.629C140.664 233.684 140.679 233.739 140.711 233.784C140.743 233.828 140.79 233.86 140.844 233.874C140.897 233.888 140.954 233.882 141.004 233.858C141.053 233.834 141.093 233.793 141.116 233.743C142.901 226.588 151.785 189.331 151.785 178.136C151.792 173.669 151.956 169.117 150.405 164.906Z" fill="#263238"/>
<path d="M119.501 180.645C112.992 180.872 106.52 181.477 100.047 182.16C93.5747 182.843 87.0523 183.582 80.5371 184.038C77.2937 184.258 74.0432 184.4 70.7927 184.422C68.0901 184.548 65.3845 184.246 62.7766 183.526C60.128 182.67 57.9017 180.842 56.5459 178.411C55.1228 175.864 54.1983 173.069 53.8217 170.175C52.9682 164.293 53.8217 158.282 54.8246 152.479C54.9526 151.767 55.0736 151.056 55.2016 150.295C55.2016 150.224 55.1091 150.195 55.0949 150.295C53.7364 156.149 52.5201 162.173 52.9611 168.219C53.1227 171.174 53.794 174.078 54.9455 176.804C55.9494 179.384 57.7351 181.585 60.0525 183.099C62.439 184.376 65.0988 185.056 67.8053 185.083C70.9377 185.201 74.0741 185.151 77.2012 184.934C83.8729 184.585 90.5162 183.846 97.1524 183.106C103.789 182.366 110.382 181.641 117.025 181.285C117.737 181.249 118.498 181.214 119.23 181.193C118.227 187.558 109.692 225.697 109.216 228.713C109.166 229.011 109.436 229.104 109.507 228.805C110.93 222.859 119.252 184.706 119.799 180.972C119.809 180.93 119.808 180.886 119.797 180.843C119.786 180.801 119.764 180.763 119.735 180.731C119.706 180.699 119.669 180.674 119.628 180.659C119.587 180.644 119.544 180.639 119.501 180.645Z" fill="#263238"/>
<path d="M52.2134 152.089C52.313 152.231 100.971 155.973 101.483 155.517C102.194 154.87 97.3791 105.017 93.0332 97.7053C92.1015 96.1477 88.538 95.3297 85.4155 95.3581C84.6025 95.3542 83.7908 95.4232 82.9901 95.5644H82.9118C82.2656 95.6743 81.6426 95.8932 81.0696 96.2117C71.7235 102.044 61.7515 125.075 59.2407 132.046C55.0798 143.54 51.8506 151.577 52.2134 152.089Z" fill="#FFC533"/>
<path d="M90.7946 104.064C88.3763 104.064 84.2936 100.159 83.4828 96.4962C83.4259 96.2401 84.4288 94.0565 85.5099 91.3395C86.1643 89.6822 86.8542 87.8329 87.3592 86.0974C87.4588 85.7347 97.4806 91.9085 97.4806 91.9085C96.2286 93.9005 95.2253 96.0384 94.4933 98.2744C94.4273 98.507 94.3821 98.745 94.3581 98.9857C94.3609 99.0259 94.3609 99.0663 94.3581 99.1066C94.1661 100.55 93.3766 104.1 90.7946 104.064Z" fill="#AD6359"/>
<path d="M94.3577 99.0067C94.3605 99.047 94.3605 99.0874 94.3577 99.1276C93.974 99.0717 93.5957 98.9837 93.2268 98.8645C86.8253 96.8587 87.4939 88.3376 87.7642 86.2109C89.6206 87.0502 97.5015 91.9011 97.5015 91.9011C96.2506 93.8947 95.2452 96.0322 94.5071 98.267C94.438 98.5093 94.388 98.7566 94.3577 99.0067Z" fill="#263238"/>
<path d="M88.2472 72.7677C86.4903 76.5943 87.0309 88.4156 89.5132 91.3461C93.1194 95.6137 99.8053 96.9011 103.639 92.3917C107.352 88.0173 106.377 72.6468 103.532 69.8799C99.3288 65.8114 90.8504 67.1273 88.2472 72.7677Z" fill="#AD6359"/>
<path d="M98.5475 81.1895C98.5475 81.1895 98.4906 81.2321 98.4906 81.2677C98.5475 82.0572 98.4906 82.9819 97.7793 83.2735C97.7793 83.2735 97.7793 83.3233 97.7793 83.3162C98.6542 83.1597 98.7253 81.9363 98.5475 81.1895Z" fill="#263238"/>
<path d="M97.8005 80.3933C96.5202 80.3435 96.5273 82.9183 97.7151 82.961C98.903 83.0037 98.8816 80.4289 97.8005 80.3933Z" fill="#263238"/>
<path d="M103.155 81.3164C103.155 81.3164 103.219 81.352 103.212 81.3875C103.212 82.177 103.297 83.0946 104.015 83.3578C104.015 83.3578 104.015 83.4075 104.015 83.4004C103.133 83.2795 102.991 82.0632 103.155 81.3164Z" fill="#263238"/>
<path d="M103.867 80.4852C105.14 80.3857 105.246 82.9534 104.059 83.0387C102.871 83.1241 102.793 80.5564 103.867 80.4852Z" fill="#263238"/>
<path d="M96.7902 79.2188C97.1259 79.1183 97.456 78.9996 97.7788 78.8632C98.1468 78.7923 98.4801 78.5993 98.7248 78.3155C98.7854 78.2112 98.8099 78.0899 98.7944 77.9703C98.779 77.8506 98.7245 77.7395 98.6395 77.654C98.4457 77.5122 98.2175 77.4249 97.9786 77.4011C97.7397 77.3774 97.4988 77.418 97.2809 77.5189C96.8068 77.6522 96.4003 77.9596 96.1429 78.3795C96.0911 78.4783 96.0687 78.5899 96.0784 78.701C96.0881 78.8122 96.1294 78.9182 96.1976 79.0066C96.2657 79.0949 96.3577 79.1619 96.4628 79.1995C96.5678 79.2371 96.6814 79.2438 96.7902 79.2188Z" fill="#263238"/>
<path d="M104.855 79.1836C104.508 79.1168 104.166 79.0289 103.83 78.9204C103.458 78.8829 103.109 78.7198 102.842 78.4581C102.769 78.3629 102.73 78.2467 102.73 78.1273C102.73 78.0079 102.769 77.8917 102.842 77.7966C103.022 77.6374 103.242 77.5297 103.479 77.4847C103.715 77.4396 103.959 77.4589 104.186 77.5405C104.669 77.6315 105.101 77.9006 105.395 78.2945C105.455 78.3855 105.487 78.4917 105.489 78.6006C105.491 78.7095 105.462 78.8167 105.406 78.9097C105.349 79.0028 105.267 79.0779 105.17 79.1264C105.072 79.1748 104.963 79.1947 104.855 79.1836Z" fill="#263238"/>
<path d="M97.8209 88.5796C98.0129 88.7645 98.205 89.0206 98.5322 89.049C98.8279 89.0402 99.1186 88.9699 99.3857 88.8428C99.3857 88.8428 99.4355 88.8428 99.4213 88.8854C99.3076 89.042 99.1538 89.165 98.976 89.2414C98.7982 89.3178 98.6031 89.3447 98.4112 89.3193C98.2474 89.2776 98.1 89.1874 97.9883 89.0604C97.8766 88.9335 97.8059 88.7758 97.7853 88.608C97.7355 88.5725 97.7924 88.5511 97.8209 88.5796Z" fill="#263238"/>
<path d="M98.6544 86.1957C98.8572 86.5105 99.1231 86.7798 99.4353 86.9867C99.7475 87.1936 100.099 87.3336 100.468 87.3977C100.789 87.4583 101.117 87.4727 101.443 87.4404C101.504 87.4478 101.566 87.4478 101.627 87.4404H101.805C101.847 87.4314 101.885 87.4093 101.913 87.3773C101.941 87.3453 101.958 87.3051 101.962 87.2626C101.965 87.2366 101.965 87.2103 101.962 87.1843V87.1132C101.962 86.5015 101.912 85.5698 101.912 85.5698C102.14 85.6836 103.285 86.1957 103.263 85.8756C103.188 83.1127 102.831 80.3648 102.197 77.6746C102.197 77.6558 102.189 77.6377 102.176 77.6243C102.162 77.611 102.144 77.6035 102.125 77.6035C102.107 77.6035 102.088 77.611 102.075 77.6243C102.062 77.6377 102.054 77.6558 102.054 77.6746C102.111 80.2281 102.609 82.7531 102.709 85.3137C102.302 85.1268 101.871 84.9975 101.428 84.9296C101.343 84.9296 101.578 86.7291 101.549 87.0065C101.048 87.0561 100.542 87.0049 100.06 86.8559C99.5791 86.7068 99.1325 86.463 98.7468 86.1388C98.6757 86.0819 98.6117 86.1316 98.6544 86.1957Z" fill="#263238"/>
<path d="M101.078 87.1269C100.744 87.5678 100.3 87.9135 99.791 88.1298C99.5122 88.2381 99.2067 88.258 98.9162 88.1867C98.2832 88.0231 98.2618 87.4755 98.3756 86.9349C98.4435 86.6719 98.5388 86.4168 98.6601 86.1738C99.3435 86.7421 100.191 87.0761 101.078 87.1269Z" fill="#263238"/>
<path d="M99.791 88.1305C99.5122 88.2387 99.2067 88.2586 98.9162 88.1874C98.2832 88.0238 98.2618 87.4761 98.3756 86.9355C98.7116 86.9464 99.0341 87.0703 99.2909 87.2871C99.5478 87.5039 99.724 87.8011 99.791 88.1305Z" fill="#FF9BBC"/>
<path d="M105.232 73.7834C104.798 72.7734 104.293 71.7563 103.682 71.55C103.07 71.3437 102.679 72.8374 101.292 72.9299C99.4283 73.0579 98.5249 71.3437 95.9146 71.1588C92.1591 70.9027 90.5089 74.0039 90.4236 79.3526C90.3453 84.1039 87.4718 84.552 87.4718 84.552C87.4718 84.552 85.7292 74.075 88.681 70.604C91.6327 67.133 98.4111 65.6251 102.963 68.9112C104.621 70.1132 105.232 73.7834 105.232 73.7834Z" fill="#263238"/>
<path d="M89.8701 82.69C89.8701 82.69 87.6865 78.6571 85.887 79.3897C84.0874 80.1224 85.4246 85.7912 87.3095 86.7372C87.5457 86.8791 87.8081 86.9717 88.0811 87.0095C88.354 87.0472 88.6317 87.0294 88.8976 86.9569C89.1634 86.8845 89.4118 86.759 89.6278 86.588C89.8439 86.417 90.023 86.204 90.1546 85.9619L89.8701 82.69Z" fill="#AD6359"/>
<path d="M86.3125 80.9902V81.04C87.6426 81.7513 88.2258 83.1738 88.5886 84.5466C88.5236 84.3975 88.4272 84.2644 88.3058 84.1562C88.1844 84.0481 88.041 83.9676 87.8855 83.9202C87.7299 83.8729 87.566 83.8599 87.405 83.8821C87.2439 83.9042 87.0896 83.9611 86.9526 84.0487C86.91 84.0487 86.9526 84.1341 86.9526 84.1269C87.2071 84.0782 87.4703 84.1086 87.7069 84.2142C87.9435 84.3198 88.142 84.4954 88.2756 84.7173C88.4912 85.0942 88.6676 85.4922 88.8019 85.9051C88.8517 86.0332 89.0865 85.9976 89.0509 85.8482V85.8127C89.2927 84.0345 88.1974 81.3885 86.3125 80.9902Z" fill="#263238"/>
<path d="M104.785 70.6623C103.683 70.3991 97.5731 70.584 94.8276 71.7647C92.0821 72.9454 87.2027 76.893 86.9538 77.0993C86.7048 77.3055 85.4459 67.2339 93.6184 65.3989C102.516 63.3931 104.785 70.6623 104.785 70.6623Z" fill="#FFC533"/>
<path d="M87.4219 76.6869C87.4219 76.6869 92.8204 69.5742 95.822 67.9383C98.8236 66.3023 105.545 65.3919 109.706 67.227C112.942 68.6495 105.033 72.8176 105.033 72.8176C104.958 72.4763 104.805 72.1572 104.585 71.8855C104.365 71.6139 104.085 71.3972 103.767 71.2528C101.747 70.449 97.906 71.0678 95.7153 71.8005C92.9556 72.7322 87.4219 76.6869 87.4219 76.6869Z" fill="#FFC533"/>
<path opacity="0.2" d="M87.4219 76.7224C87.4219 76.7224 92.8204 69.567 95.822 67.9382C98.8236 66.3094 105.545 65.3919 109.706 67.227C112.942 68.6495 105.033 72.8176 105.033 72.8176C104.958 72.4763 104.805 72.1571 104.585 71.8855C104.365 71.6139 104.085 71.3972 103.767 71.2528C101.747 70.449 97.906 71.0678 95.7153 71.8004C92.9556 72.7322 87.4219 76.7224 87.4219 76.7224Z" fill="black"/>
<path d="M77.991 109.512C77.5357 123.539 82.7138 149.806 86.5262 151.591C98.8312 157.338 119.536 157.701 126.628 157.765C129.686 157.765 134.381 136.014 131.351 134.791C129.338 133.98 98.9806 133.973 98.4471 132.892C97.9137 131.811 90.68 116.191 87.5576 107.542C83.4108 96.041 78.2541 101.276 77.991 109.512Z" fill="#AD6359"/>
<path d="M128.093 134.5C128.093 134.5 137.389 135.069 143.442 135.723C146.828 136.086 152.568 137.231 154.922 138.632C158.479 140.766 171.879 151.777 169.276 155.091C166.914 158.086 156.587 147.139 156.587 147.139C156.587 147.139 167.967 157.261 164.482 160.355C160.996 163.449 150.967 149.515 150.967 149.515C150.967 149.515 162.447 160.184 158.329 162.801C155.221 164.772 145.427 152.673 145.427 152.673C145.427 152.673 155.235 161.92 152.12 164.053C148.677 166.45 138.94 155.845 138.94 155.845C130.099 160.028 124.181 158.399 120.105 156.741C119.103 156.372 128.093 134.5 128.093 134.5Z" fill="#AD6359"/>
<path d="M152.867 143.382C154.247 144.52 155.655 145.665 156.928 146.939C158.201 148.212 159.439 149.506 160.591 150.879C162.133 152.645 163.469 154.58 164.574 156.647C162.348 153.091 157.853 148.539 156.572 147.28C155.292 146.021 154.09 144.698 152.817 143.439C152.781 143.396 152.831 143.354 152.867 143.382Z" fill="#263238"/>
<path d="M148.236 147.907C149.936 149.436 151.678 150.902 153.314 152.509C154.95 154.117 156.344 155.774 157.859 157.488C157.973 157.616 157.859 157.637 157.738 157.488C156.159 155.845 154.573 154.444 152.98 152.815C151.387 151.186 149.843 149.493 148.193 147.928C148.165 147.921 148.207 147.886 148.236 147.907Z" fill="#263238"/>
<path d="M143.534 151.072C146.202 153.36 148.626 155.917 150.768 158.704C150.875 158.839 150.732 158.853 150.612 158.704C148.257 156.122 146.429 154.08 143.456 151.157C143.435 151.121 143.534 151.029 143.534 151.072Z" fill="#263238"/>
<path d="M153.749 137.508C151.539 136.564 149.194 135.976 146.8 135.766C141.636 135.133 136.444 134.72 131.251 134.343C126.059 133.966 120.789 133.632 115.554 133.44C112.609 133.326 109.664 133.238 106.72 133.177C103.775 133.12 103.163 133.226 100.204 133.262C100.126 133.262 100.133 133.369 100.204 133.376C105.361 133.646 108.206 133.859 113.363 134.13C118.52 134.4 123.662 134.706 128.805 135.061C133.947 135.417 139.004 135.773 144.083 136.342C146.539 136.508 148.975 136.901 151.359 137.515C153.695 138.373 155.861 139.635 157.761 141.242C159.937 142.957 168.095 150.802 168.842 151.819C168.935 151.94 168.97 151.904 168.92 151.748C168.33 149.621 158.522 139.734 153.749 137.508Z" fill="#263238"/>
<path d="M92.679 118.565L77.5502 127.143C77.5502 127.143 76.9101 108.024 78.3113 102.348C79.8903 95.947 82.8065 98.1662 86.0926 103.486C89.3787 108.807 92.679 118.565 92.679 118.565Z" fill="#FFC533"/>
<path opacity="0.1" d="M92.679 118.565L77.5502 127.143C77.5502 127.143 76.9101 108.024 78.3113 102.348C79.8903 95.947 82.8065 98.1662 86.0926 103.486C89.3787 108.807 92.679 118.565 92.679 118.565Z" fill="black"/>
<path d="M90.595 116.119C88.5252 116.951 82.6501 120.323 81.6757 120.87C81.1636 121.155 79.1578 122.4 78.6457 122.684C78.5816 122.72 78.6457 122.812 78.7097 122.777C79.6983 122.236 80.7368 121.795 81.7326 121.262C82.7284 120.728 88.8453 117.513 90.6377 116.19C90.6445 116.184 90.6489 116.175 90.6501 116.165C90.6513 116.156 90.6492 116.146 90.6443 116.138C90.6394 116.13 90.6319 116.123 90.6229 116.12C90.614 116.117 90.6041 116.116 90.595 116.119Z" fill="#263238"/>
<path d="M90.2961 111.489C90.0614 110.6 89.8195 109.718 89.5493 108.836C89.6986 109.49 89.8693 110.145 90.04 110.799C89.4924 109.562 88.9305 108.338 88.3188 107.15H88.2832C88.9447 109.078 89.7057 110.97 90.417 112.883C91.1283 114.797 91.8396 116.625 92.5508 118.495C92.2308 118.744 91.9178 118.986 91.5906 119.206C91.5774 119.215 91.5681 119.228 91.5648 119.244C91.5614 119.259 91.5643 119.275 91.5728 119.288C91.5813 119.301 91.5947 119.311 91.61 119.314C91.6254 119.317 91.6414 119.315 91.6546 119.306C92.0458 119.107 92.437 118.908 92.8424 118.73C92.8893 118.712 92.9278 118.677 92.9502 118.633C92.9726 118.588 92.9773 118.536 92.9634 118.488C92.1667 116.162 91.2848 113.801 90.2961 111.489Z" fill="#263238"/>
<g opacity="0.5">
<path d="M259.201 103.027C259.201 103.687 259.005 104.333 258.638 104.881C258.271 105.43 257.75 105.858 257.14 106.11C256.53 106.362 255.859 106.428 255.212 106.299C254.564 106.169 253.97 105.851 253.504 105.384C253.038 104.916 252.72 104.321 252.593 103.674C252.465 103.026 252.532 102.355 252.785 101.746C253.039 101.136 253.468 100.616 254.017 100.25C254.567 99.8845 255.212 99.69 255.872 99.6914C256.31 99.6914 256.743 99.7778 257.148 99.9455C257.552 100.113 257.919 100.359 258.229 100.669C258.538 100.979 258.783 101.347 258.95 101.751C259.117 102.156 259.202 102.59 259.201 103.027Z" fill="#263238"/>
<path d="M255.874 108.681C254.746 108.688 253.641 108.359 252.699 107.737C251.758 107.114 251.023 106.226 250.588 105.185C250.153 104.144 250.038 102.997 250.256 101.89C250.474 100.782 251.017 99.7653 251.815 98.9674C252.613 98.1695 253.63 97.6268 254.737 97.4084C255.844 97.19 256.991 97.3057 258.033 97.7407C259.074 98.1758 259.962 98.9106 260.585 99.8518C261.207 100.793 261.536 101.898 261.529 103.026C261.519 104.523 260.921 105.956 259.862 107.015C258.804 108.073 257.371 108.672 255.874 108.681ZM255.874 98.0831C254.898 98.0831 253.944 98.3721 253.131 98.9138C252.319 99.4554 251.686 100.225 251.311 101.127C250.935 102.028 250.835 103.02 251.023 103.978C251.211 104.936 251.678 105.817 252.366 106.509C253.054 107.202 253.932 107.676 254.888 107.87C255.845 108.065 256.837 107.972 257.741 107.604C258.645 107.235 259.42 106.607 259.967 105.799C260.515 104.99 260.81 104.038 260.817 103.062C260.822 102.41 260.698 101.763 260.451 101.159C260.205 100.555 259.842 100.006 259.382 99.5435C258.923 99.0807 258.376 98.7134 257.774 98.4627C257.172 98.2121 256.526 98.0831 255.874 98.0831Z" fill="#263238"/>
<path d="M55.2245 71.1256C55.2259 71.7857 55.0314 72.4314 54.6657 72.9809C54.3 73.5304 53.7795 73.9591 53.1701 74.2126C52.5607 74.4662 51.8897 74.5333 51.2422 74.4054C50.5946 74.2775 49.9995 73.9603 49.5323 73.4941C49.0651 73.0278 48.7466 72.4334 48.6174 71.7862C48.4881 71.1389 48.5537 70.4678 48.806 69.8578C49.0583 69.2478 49.4858 68.7264 50.0345 68.3596C50.5833 67.9927 51.2285 67.7969 51.8886 67.7969C52.7721 67.7969 53.6195 68.1474 54.2449 68.7714C54.8703 69.3955 55.2226 70.2421 55.2245 71.1256Z" fill="#263238"/>
<path d="M51.8878 76.7884C50.7609 76.7955 49.6573 76.4677 48.7169 75.8468C47.7765 75.2259 47.0417 74.3397 46.6055 73.3006C46.1694 72.2615 46.0516 71.1162 46.2671 70.0101C46.4827 68.904 47.0218 67.8868 47.8161 67.0875C48.6105 66.2881 49.6243 65.7426 50.729 65.5202C51.8338 65.2977 52.9797 65.4083 54.0215 65.8379C55.0633 66.2675 55.9541 66.9968 56.581 67.9333C57.2078 68.8698 57.5424 69.9713 57.5425 71.0983C57.5425 72.6012 56.9479 74.0432 55.8884 75.1093C54.829 76.1754 53.3908 76.779 51.8878 76.7884ZM51.8878 66.1834C50.9001 66.1763 49.9326 66.4633 49.1084 67.0076C48.2842 67.552 47.6406 68.3292 47.2593 69.2405C46.8781 70.1517 46.7765 71.1557 46.9675 72.1248C47.1584 73.0939 47.6334 73.9843 48.3318 74.6828C49.0302 75.3812 49.9206 75.8561 50.8898 76.0471C51.8589 76.2381 52.8629 76.1365 53.7741 75.7552C54.6853 75.374 55.4625 74.7303 56.0069 73.9061C56.5513 73.0819 56.8382 72.1144 56.8312 71.1267C56.8219 69.8185 56.2981 68.5666 55.373 67.6415C54.448 66.7165 53.196 66.1927 51.8878 66.1834Z" fill="#263238"/>
<path d="M177.748 120.638H134.645V54.0062H77.7646V71.4821H57.1875V70.7709H77.0533V53.2949H135.356V119.927H177.037V101.469H225.823V83.4955H256.23V97.728H255.518V84.2068H226.534V102.181H177.748V120.638Z" fill="#263238"/>
</g>
<path d="M63.7315 36.4587C63.1412 30.541 59.0585 24.6445 51.8889 24.6445C44.7192 24.6445 40.6437 30.5694 40.0533 36.4587C39.15 45.5986 45.3096 53.8778 51.8889 61.4315C58.4681 53.9062 64.6348 45.627 63.7315 36.4587ZM51.8889 43.0309C50.6056 43.0309 49.3512 42.6503 48.2843 41.9372C47.2174 41.2241 46.3859 40.2106 45.8952 39.0248C45.4044 37.8391 45.2764 36.5345 45.5272 35.276C45.7781 34.0175 46.3966 32.8616 47.3045 31.9547C48.2124 31.0478 49.3689 30.4306 50.6277 30.1811C51.8865 29.9316 53.191 30.0611 54.3762 30.5531C55.5614 31.0452 56.574 31.8777 57.2859 32.9454C57.9978 34.0131 58.3771 35.2679 58.3757 36.5512C58.3794 37.4051 58.2143 38.2514 57.8899 39.0413C57.5655 39.8312 57.0882 40.5492 56.4854 41.154C55.8826 41.7588 55.1661 42.2385 54.3773 42.5654C53.5885 42.8924 52.7428 43.0603 51.8889 43.0593V43.0309Z" fill="#FFC533"/>
</svg>
