<svg width="301" height="314" viewBox="0 0 301 314" fill="none" xmlns="http://www.w3.org/2000/svg">
<path d="M70.6062 313.212C109.157 313.212 140.408 310.218 140.408 306.526C140.408 302.833 109.157 299.84 70.6062 299.84C32.0559 299.84 0.804688 302.833 0.804688 306.526C0.804688 310.218 32.0559 313.212 70.6062 313.212Z" fill="#777373" fill-opacity="0.3"/>
<path d="M2.9043 291.402L32.2927 291.229L61.6811 291.164L120.452 291.041L179.223 291.164L208.612 291.229L238 291.402L208.612 291.582L179.223 291.647L120.452 291.762L61.6811 291.647L32.2927 291.582L2.9043 291.402Z" fill="#263238"/>
<path d="M213.108 14.9648H91.2182C89.5828 14.979 87.9662 15.3152 86.4608 15.9544C84.9554 16.5936 83.5907 17.5231 82.4447 18.6899C81.2987 19.8567 80.3938 21.2378 79.7818 22.7545C79.1698 24.2711 78.8626 25.8935 78.8778 27.5289V278.521C78.8587 280.156 79.1621 281.78 79.7705 283.298C80.3789 284.817 81.2805 286.201 82.4238 287.371C83.567 288.541 84.9296 289.474 86.4336 290.117C87.9376 290.761 89.5536 291.102 91.1894 291.121H213.079C216.383 291.092 219.541 289.752 221.857 287.396C224.174 285.04 225.461 281.861 225.434 278.557V27.5649C225.453 25.928 225.149 24.3033 224.54 22.7839C223.93 21.2644 223.027 19.88 221.883 18.7098C220.738 17.5395 219.374 16.6064 217.868 15.9639C216.362 15.3213 214.745 14.9818 213.108 14.9648ZM217.745 270.767C217.745 277.374 212.798 282.718 206.696 282.718H97.6228C91.4995 282.718 86.559 277.374 86.559 270.767V37.042C86.559 23.5837 91.4995 22.9273 97.6228 22.9273H119.469C120.739 22.9273 121.777 24.3698 121.777 26.1585V26.9302C121.777 31.1206 124.071 31.1351 126.891 31.1351H177.377C180.262 31.1351 182.491 31.1351 182.491 26.9302V26.1585C182.491 24.3698 183.515 22.9273 184.813 22.9273H206.66C212.762 22.9273 217.709 24.716 217.709 37.042L217.745 270.767Z" fill="#263238"/>
<path d="M159.044 25.8994H145.261C145.036 25.8994 144.819 25.8097 144.659 25.6501C144.5 25.4905 144.41 25.274 144.41 25.0483C144.41 24.8226 144.5 24.6061 144.659 24.4465C144.819 24.2869 145.036 24.1973 145.261 24.1973H159.044C159.27 24.1973 159.486 24.2869 159.646 24.4465C159.806 24.6061 159.895 24.8226 159.895 25.0483C159.895 25.274 159.806 25.4905 159.646 25.6501C159.486 25.8097 159.27 25.8994 159.044 25.8994Z" fill="white"/>
<path d="M217.745 37.0424V270.768C217.745 277.374 212.797 282.719 206.695 282.719H97.6224C91.4991 282.719 86.5586 277.374 86.5586 270.768V37.0424C86.5586 23.5841 91.4991 22.9277 97.6224 22.9277H119.469C120.738 22.9277 121.777 24.3702 121.777 26.1589V26.9306C121.777 31.121 124.07 31.1354 126.89 31.1354H177.377C180.262 31.1354 182.491 31.1354 182.491 26.9306V26.1589C182.491 24.3702 183.515 22.9277 184.813 22.9277H206.659C212.797 22.9277 217.745 24.7164 217.745 37.0424Z" fill="white"/>
<path d="M214.067 24.9826H182.693C183.032 23.7926 183.862 22.9487 184.857 22.9487H206.718C209.531 22.9199 212.113 23.3093 214.067 24.9826Z" fill="#DBDBDB"/>
<path d="M86.5586 259.249V262.357H97.4205V259.249H86.5586ZM217.745 66.8145L182.447 104.218H166.205V73.3057H172.66V70.1755H163.075V104.211H145.469V31.1348H139.224V53.0316H86.573V59.2776H139.224V104.218H88.203V116.479H86.5586V119.609H88.203V166.05L97.5791 187.529H86.5586V193.774H100.327L107.676 210.572C103.126 212.544 99.3661 215.981 96.9942 220.336C94.6222 224.691 93.7747 229.714 94.5865 234.607C95.3983 239.499 97.8227 243.979 101.474 247.335C105.126 250.69 109.794 252.729 114.737 253.125L130.02 278.138L125.412 282.747H140.168L121.748 252.657C124.82 251.918 127.699 250.534 130.194 248.596C132.689 246.658 134.742 244.21 136.217 241.417C137.693 238.623 138.556 235.547 138.75 232.394C138.943 229.241 138.463 226.082 137.341 223.129L180.933 202.393H217.716V196.155H200.284L163.695 156.371H217.73V153.248H160.81L121.459 110.464H185.102L206.609 87.6584L217.716 98.7655V89.9375L210.907 83.1218L217.716 75.9094L217.745 66.8145ZM116.541 247.009C113.373 247.011 110.277 246.073 107.643 244.314C105.009 242.556 102.956 240.056 101.743 237.13C100.53 234.204 100.212 230.985 100.829 227.878C101.446 224.772 102.97 221.918 105.209 219.678C107.448 217.438 110.301 215.913 113.407 215.294C116.513 214.676 119.733 214.993 122.659 216.204C125.585 217.416 128.086 219.468 129.846 222.101C131.606 224.735 132.545 227.831 132.545 230.998C132.541 235.242 130.854 239.311 127.853 242.313C124.853 245.315 120.785 247.004 116.541 247.009ZM191.823 196.126H179.562L134.319 217.626C132.244 214.872 129.559 212.638 126.473 211.099C123.388 209.559 119.988 208.757 116.541 208.755C115.612 208.758 114.685 208.816 113.764 208.928L94.4562 164.752V110.464H112.992L191.823 196.126ZM196.468 282.718H200.889L217.766 265.834V261.412L196.468 282.718Z" fill="#EBEBEB"/>
<path d="M108.881 115.195H99.8008V124.276H108.881V115.195Z" fill="#DBDBDB"/>
<path d="M194.125 150.002V132.476H187.749V125.148H176.52V150.002H194.125Z" fill="#DBDBDB"/>
<path d="M162.988 31.1348V48.7619H153.482V38.0298H148.34V31.1348H162.988Z" fill="#DBDBDB"/>
<path d="M217.744 37.0358V43.1159H209.811V27.8184H216.201C217.182 29.91 217.744 32.8743 217.744 37.0358Z" fill="#DBDBDB"/>
<path d="M168.664 101.572V88.5391H193.085L179.894 101.731L168.664 101.572Z" fill="#DBDBDB"/>
<path d="M160.616 89.4609H148.348V101.729H160.616V89.4609Z" fill="#DBDBDB"/>
<path d="M136.288 61.7227H121.51V75.318H136.288V61.7227Z" fill="#DBDBDB"/>
<path d="M136.296 77.9863V101.73H118.215L106.689 90.2041V77.9863H136.296Z" fill="#DBDBDB"/>
<path d="M103.429 92.8223L112.509 101.903H88.2754V92.8223H103.429Z" fill="#DBDBDB"/>
<path d="M102.13 207.551H86.5586V196.617H97.7234L102.13 207.551Z" fill="#DBDBDB"/>
<path d="M97.8893 249.693V254.944H86.5586V231.59H89.6527C90.5165 238.315 93.3868 244.624 97.8893 249.693Z" fill="#DBDBDB"/>
<path d="M152.156 204.328L142.657 183.809H131.117L111.355 192.976L116.52 204.249H116.563C123.579 204.242 130.316 206.999 135.315 211.923L152.156 204.328Z" fill="#DBDBDB"/>
<path d="M217.744 178.773V192.398H202.887L190.352 178.773H217.744Z" fill="#DBDBDB"/>
<path d="M124.425 276.962L118.987 282.732H97.6163C96.8223 282.729 96.0312 282.637 95.2578 282.458V275.967H104.504V261.657L111.464 255.801L124.425 276.962Z" fill="#DBDBDB"/>
<path d="M168.427 252.895L149.675 233.35L142.462 238.968C141.408 242.38 139.691 245.55 137.41 248.297C135.129 251.045 132.329 253.316 129.17 254.98L144.842 280.598L168.427 252.895Z" fill="#DBDBDB"/>
<path d="M148.008 224.759L180.932 208.48H197.355V237.114L171.751 249.757L148.008 224.759Z" fill="#DBDBDB"/>
<path d="M217.73 271.293C217.507 277.063 213.489 281.765 208.318 282.588H206.436L217.73 271.293Z" fill="#DBDBDB"/>
<path d="M99.8008 128.062V164.045L109.84 188.611L128.16 179.53H170.893L122.974 128.062H99.8008Z" fill="#FFC533"/>
<path d="M204.012 76.5938H168.664V85.4506H195.66L204.012 76.5938Z" fill="#DBDBDB"/>
<path d="M92.8694 184.6H86.5586V169.98L92.8694 184.6Z" fill="#DBDBDB"/>
<path d="M217.745 208.48H201.906V227.204H217.745V208.48Z" fill="#DBDBDB"/>
<path d="M217.745 230.125H201.906V236.696H217.745V230.125Z" fill="#DBDBDB"/>
<path d="M197.968 276.378L191.629 282.718H150.006L172.04 255.809L197.968 276.378Z" fill="#DBDBDB"/>
<path d="M200.242 273.283L210.938 263.02L197.963 251.725V241.57L175.1 253.218L200.242 273.283Z" fill="#FFC533"/>
<path d="M217.745 239.596V255.521L213.504 259.509L201.906 249.758V239.596H217.745Z" fill="#DBDBDB"/>
<path d="M90.6269 265.928V280.028C89.3318 278.86 88.2994 277.431 87.5981 275.835C86.8968 274.238 86.5427 272.511 86.5591 270.767V265.928H90.6269Z" fill="#DBDBDB"/>
<path d="M100.768 267.406H95.2578V272.917H100.768V267.406Z" fill="#DBDBDB"/>
<path d="M135.344 31.1349V49.2885H100.393V28.5095L106.473 22.9199H119.455C120.717 22.9199 121.756 24.3624 121.756 26.1583V26.93C121.756 31.1204 124.056 31.1349 126.869 31.1349H135.344Z" fill="#DBDBDB"/>
<path d="M97.4349 38.1387H86.5586V49.2746H97.4349V38.1387Z" fill="#DBDBDB"/>
<path d="M97.4358 29.0352V35.2595H86.6172C86.6537 33.1569 86.9467 31.0667 87.4899 29.0352H97.4358Z" fill="#DBDBDB"/>
<path d="M103.19 22.9199L99.3459 26.5261H88.5273C90.518 23.1724 93.8501 22.9199 97.6222 22.9199H103.19Z" fill="#DBDBDB"/>
<path d="M172.906 160.15L187.749 175.736H201.907V160.15H172.906Z" fill="#DBDBDB"/>
<path d="M217.745 168.574H204.85V175.743H217.745V168.574Z" fill="#DBDBDB"/>
<path d="M212.43 160.15H204.85V166.663H212.43V160.15Z" fill="#DBDBDB"/>
<path d="M217.746 160.15H214.32V166.663H217.746V160.15Z" fill="#DBDBDB"/>
<path d="M147.107 183.809H170.894V195.183L155.683 202.085L147.107 183.809Z" fill="#DBDBDB"/>
<path d="M116.549 241.767C122.445 241.767 127.224 236.988 127.224 231.092C127.224 225.197 122.445 220.418 116.549 220.418C110.654 220.418 105.875 225.197 105.875 231.092C105.875 236.988 110.654 241.767 116.549 241.767Z" fill="#FFC533"/>
<path d="M92.2708 61.7227H86.5586V69.9232H92.2708V61.7227Z" fill="#DBDBDB"/>
<path d="M103.162 89.8661V61.7305H94.4492V84.3486H88.2754V89.8661H103.162Z" fill="#DBDBDB"/>
<path d="M119.03 61.7227H106.689V74.5607H119.03V61.7227Z" fill="#DBDBDB"/>
<path d="M92.2708 71.502H86.5586V81.8662H92.2708V71.502Z" fill="#DBDBDB"/>
<path d="M215.113 132.477H196.779V150.01H215.113V132.477Z" fill="#DBDBDB"/>
<path d="M129.834 113.594L148.961 134.409H172.971V113.594H129.834Z" fill="#DBDBDB"/>
<path d="M151.688 136.811L163.826 150.009H172.906V136.811H151.688Z" fill="#DBDBDB"/>
<path d="M187.742 113.594H176.52V122.285H187.742V113.594Z" fill="#DBDBDB"/>
<path d="M215.12 121.925V102.379L206.249 92.8301L190.785 109.411V128.373H209.119V121.925H215.12Z" fill="#FFC533"/>
<path d="M217.744 80.7852V86.0286L215.213 83.5475L217.744 80.7852Z" fill="#DBDBDB"/>
<path d="M217.745 45.9629V62.0826L207.1 73.7739H193.086V45.9629H217.745Z" fill="#DBDBDB"/>
<path d="M189.834 56.1465H176.195V73.7736H189.834V56.1465Z" fill="#FFC533"/>
<path d="M207.1 27.8184V43.1159H189.827V53.9345H176.195V31.1361H177.4C180.018 31.1361 182.16 31.1361 182.448 27.8184H207.1Z" fill="#DBDBDB"/>
<path d="M174.434 31.1348H164.646V42.7467H174.434V31.1348Z" fill="#DBDBDB"/>
<path d="M174.442 50.666H148.348V63.4969H174.442V50.666Z" fill="#DBDBDB"/>
<path d="M174.441 44.6016H164.646V48.7631H174.441V44.6016Z" fill="#DBDBDB"/>
<path d="M160.616 87.0103H153.483L148.348 82.1347V67.9551H160.616V87.0103Z" fill="#DBDBDB"/>
<path d="M115.697 28.1794C115.624 28.2455 115.554 28.3153 115.488 28.3885L115.365 28.5039C114.824 27.9666 114.093 27.665 113.331 27.665C112.569 27.665 111.838 27.9666 111.297 28.5039L111.182 28.3813L110.973 28.1721L111.24 27.9341C111.431 27.7811 111.639 27.6505 111.86 27.5447C112.117 27.4148 112.391 27.3225 112.675 27.2706C112.811 27.2443 112.948 27.225 113.086 27.2129H113.447H113.721C113.967 27.2452 114.209 27.3057 114.442 27.3932C114.619 27.4578 114.79 27.5374 114.954 27.6312C115.125 27.7292 115.287 27.8427 115.437 27.9702L115.661 28.1721L115.697 28.1794Z" fill="#A6A6A6"/>
<path d="M111.961 29.1666L111.629 28.8348C111.995 28.4675 112.471 28.2295 112.985 28.1569C113.354 28.0994 113.732 28.1309 114.087 28.2488C114.442 28.3667 114.764 28.5676 115.026 28.8348C114.918 28.943 114.81 29.0584 114.694 29.1666C114.517 28.9859 114.304 28.8429 114.07 28.7463C113.836 28.6496 113.584 28.6012 113.331 28.604C113.077 28.6019 112.824 28.6505 112.589 28.7472C112.354 28.8438 112.14 28.9864 111.961 29.1666Z" fill="#A6A6A6"/>
<path d="M114.362 29.4999L114.03 29.8317C113.935 29.7384 113.822 29.6648 113.698 29.6153C113.575 29.5658 113.442 29.5413 113.309 29.5432C113.175 29.5406 113.042 29.5654 112.918 29.6163C112.794 29.6672 112.681 29.7429 112.588 29.8389L112.256 29.5071C112.39 29.3625 112.553 29.2471 112.734 29.1679C112.915 29.0888 113.11 29.0476 113.307 29.0469C113.505 29.0462 113.7 29.0861 113.882 29.164C114.063 29.2419 114.226 29.3562 114.362 29.4999Z" fill="#A6A6A6"/>
<path d="M113.628 30.1337C113.629 30.1731 113.622 30.2123 113.608 30.2491C113.593 30.2858 113.571 30.3192 113.544 30.3475C113.516 30.3757 113.483 30.3981 113.447 30.4134C113.411 30.4287 113.372 30.4366 113.332 30.4366C113.292 30.4366 113.253 30.4288 113.216 30.4135C113.18 30.3983 113.146 30.376 113.118 30.3479C113.09 30.3198 113.068 30.2864 113.052 30.2496C113.037 30.2129 113.029 30.1735 113.029 30.1337C113.029 30.0942 113.037 30.0552 113.052 30.0188C113.068 29.9825 113.09 29.9495 113.118 29.922C113.147 29.8944 113.18 29.8728 113.217 29.8584C113.254 29.844 113.293 29.837 113.332 29.838C113.411 29.838 113.486 29.8691 113.541 29.9246C113.597 29.98 113.628 30.0553 113.628 30.1337Z" fill="#A6A6A6"/>
<path d="M95.1055 28.8122C95.1055 28.6395 95.1567 28.4708 95.2526 28.3273C95.3485 28.1838 95.4848 28.0719 95.6442 28.0059C95.8037 27.9398 95.9792 27.9225 96.1485 27.9562C96.3177 27.9899 96.4733 28.073 96.5953 28.1951C96.7173 28.3171 96.8005 28.4726 96.8341 28.6419C96.8678 28.8112 96.8505 28.9867 96.7845 29.1461C96.7184 29.3056 96.6066 29.4419 96.4631 29.5378C96.3195 29.6337 96.1508 29.6849 95.9782 29.6849C95.8633 29.6858 95.7494 29.6639 95.6431 29.6204C95.5368 29.5769 95.4402 29.5126 95.359 29.4314C95.2777 29.3502 95.2135 29.2536 95.17 29.1473C95.1265 29.0409 95.1045 28.927 95.1055 28.8122Z" fill="#A6A6A6"/>
<path d="M97.8457 28.8122C97.8457 28.6395 97.8969 28.4708 97.9928 28.3273C98.0887 28.1838 98.225 28.0719 98.3845 28.0059C98.5439 27.9398 98.7194 27.9225 98.8887 27.9562C99.058 27.9899 99.2135 28.073 99.3355 28.1951C99.4576 28.3171 99.5407 28.4726 99.5744 28.6419C99.608 28.8112 99.5908 28.9867 99.5247 29.1461C99.4587 29.3056 99.3468 29.4419 99.2033 29.5378C99.0598 29.6337 98.891 29.6849 98.7184 29.6849C98.6036 29.6858 98.4896 29.6639 98.3833 29.6204C98.277 29.5769 98.1804 29.5126 98.0992 29.4314C98.018 29.3502 97.9537 29.2536 97.9102 29.1473C97.8667 29.0409 97.8448 28.927 97.8457 28.8122Z" fill="#A6A6A6"/>
<path d="M100.588 28.8121C100.588 28.6392 100.639 28.4702 100.736 28.3265C100.832 28.1829 100.968 28.071 101.128 28.0052C101.288 27.9394 101.464 27.9225 101.634 27.9568C101.803 27.991 101.959 28.0749 102.08 28.1976C102.202 28.3204 102.285 28.4766 102.317 28.6463C102.35 28.8161 102.332 28.9918 102.265 29.1511C102.198 29.3105 102.085 29.4463 101.94 29.5413C101.796 29.6363 101.626 29.6863 101.453 29.6848C101.339 29.6848 101.226 29.6622 101.121 29.6183C101.015 29.5743 100.919 29.5099 100.839 29.4288C100.758 29.3477 100.695 29.2514 100.652 29.1456C100.609 29.0397 100.587 28.9264 100.588 28.8121Z" fill="#A6A6A6"/>
<path d="M103.328 28.8121C103.328 28.6392 103.38 28.4702 103.476 28.3265C103.572 28.1829 103.709 28.071 103.869 28.0052C104.028 27.9394 104.204 27.9225 104.374 27.9568C104.543 27.991 104.699 28.0749 104.82 28.1976C104.942 28.3204 105.025 28.4766 105.058 28.6463C105.091 28.8161 105.072 28.9918 105.005 29.1511C104.938 29.3105 104.825 29.4463 104.68 29.5413C104.536 29.6363 104.367 29.6863 104.194 29.6848C104.079 29.6848 103.966 29.6622 103.861 29.6183C103.755 29.5743 103.66 29.5099 103.579 29.4288C103.499 29.3477 103.435 29.2514 103.392 29.1456C103.349 29.0397 103.327 28.9264 103.328 28.8121Z" fill="#A6A6A6"/>
<path d="M106.063 28.8122C106.063 28.6395 106.114 28.4708 106.21 28.3273C106.305 28.1838 106.442 28.0719 106.601 28.0059C106.761 27.9398 106.936 27.9225 107.105 27.9562C107.275 27.9899 107.43 28.073 107.552 28.1951C107.674 28.3171 107.757 28.4726 107.791 28.6419C107.825 28.8112 107.808 28.9867 107.742 29.1461C107.675 29.3056 107.564 29.4419 107.42 29.5378C107.277 29.6337 107.108 29.6849 106.935 29.6849C106.82 29.6858 106.706 29.6639 106.6 29.6204C106.494 29.5769 106.397 29.5126 106.316 29.4314C106.235 29.3502 106.171 29.2536 106.127 29.1473C106.083 29.0409 106.062 28.927 106.063 28.8122Z" fill="#A6A6A6"/>
<path d="M207.719 27.6152H201.004V30.5363H207.719V27.6152Z" fill="#A6A6A6"/>
<path d="M207.907 30.71H200.824V27.4355H207.907V30.71ZM201.185 30.3494H207.546V27.7962H201.199L201.185 30.3494Z" fill="white"/>
<path d="M205.981 27.9902H201.416V30.154H205.981V27.9902Z" fill="#A6A6A6"/>
<path d="M208.536 28.1934H207.908V29.946H208.536V28.1934Z" fill="#A6A6A6"/>
<path d="M157.313 210.573L156.729 209.26L180.977 198.485H195.993L111.969 106.743H140.717V52.7363H142.16V108.185H115.243L199.268 199.927H181.287L157.313 210.573Z" fill="#FFC533"/>
<path d="M146.315 44.2333C146.106 41.7955 144.389 39.4082 141.439 39.4082C138.489 39.4082 136.816 41.8316 136.571 44.2694C136.203 48.027 138.735 51.4385 141.439 54.547C144.151 51.4024 146.69 47.991 146.315 44.2333ZM141.439 46.938C140.912 46.9365 140.397 46.7788 139.959 46.4847C139.521 46.1906 139.18 45.7733 138.979 45.2856C138.778 44.7979 138.726 44.2615 138.83 43.7443C138.934 43.2272 139.189 42.7523 139.562 42.3799C139.936 42.0074 140.411 41.7539 140.928 41.6515C141.446 41.5492 141.982 41.6024 142.469 41.8046C142.957 42.0068 143.373 42.3488 143.666 42.7875C143.959 43.2262 144.115 43.7419 144.115 44.2694C144.116 44.6207 144.047 44.9687 143.913 45.2934C143.779 45.6181 143.582 45.9129 143.333 46.161C143.084 46.4091 142.789 46.6055 142.464 46.7388C142.139 46.8722 141.791 46.9399 141.439 46.938Z" fill="#FFC533"/>
<path d="M153.699 219.294L153.634 211.815L147.611 207.379L162.339 207.566L153.699 219.294Z" fill="#37474F"/>
<path d="M130.959 275.859L115.092 249.174L116.231 249.065C122.078 248.152 127.35 245.028 130.959 240.338C136.794 232.643 131.623 221.694 131.572 221.586L131.248 220.93L154.666 210.227L155.265 211.539L133.173 221.637C134.27 224.262 137.681 233.898 132.106 241.218C128.482 245.949 123.25 249.187 117.4 250.32L132.149 275.124L130.959 275.859Z" fill="#37474F"/>
<path d="M136.418 267.451C136.173 265.013 134.493 262.59 131.543 262.59C128.593 262.59 126.92 265.013 126.674 267.451C126.307 271.209 128.838 274.62 131.543 277.729C134.255 274.62 136.793 271.209 136.418 267.451ZM131.543 270.156C131.015 270.154 130.5 269.997 130.062 269.702C129.624 269.408 129.283 268.991 129.082 268.503C128.882 268.016 128.83 267.479 128.934 266.962C129.037 266.445 129.292 265.97 129.666 265.598C130.039 265.225 130.515 264.972 131.032 264.869C131.549 264.767 132.086 264.82 132.573 265.022C133.06 265.225 133.476 265.567 133.769 266.005C134.062 266.444 134.219 266.96 134.219 267.487C134.22 267.838 134.151 268.186 134.017 268.511C133.882 268.836 133.685 269.131 133.437 269.379C133.188 269.627 132.892 269.823 132.567 269.957C132.242 270.09 131.894 270.158 131.543 270.156Z" fill="#FFC533"/>
<path d="M242.216 181.125C242.219 185.48 240.893 189.732 238.416 193.314C235.939 196.895 232.428 199.636 228.353 201.171C224.278 202.705 219.831 202.96 215.607 201.902C211.383 200.844 207.582 198.522 204.712 195.247H163.111L157.29 206.015L151.47 195.247H146.154V167.003H204.719C207.591 163.732 211.393 161.414 215.616 160.358C219.84 159.302 224.285 159.559 228.359 161.094C232.433 162.628 235.942 165.369 238.419 168.949C240.896 172.529 242.223 176.779 242.223 181.133L242.216 181.125Z" fill="white"/>
<path d="M242.215 181.125C242.187 183.289 241.867 185.438 241.263 187.515C240.596 189.562 239.644 191.504 238.435 193.285C235.948 196.879 232.426 199.63 228.338 201.176C227.835 201.379 227.323 201.558 226.802 201.709L225.23 202.113C224.703 202.222 224.162 202.286 223.628 202.38C223.094 202.467 222.554 202.517 222.013 202.532C219.844 202.686 217.666 202.493 215.558 201.962C211.307 200.909 207.479 198.587 204.58 195.305L204.689 195.355L163.08 195.471L163.304 195.334L157.534 206.116L157.282 206.592L157.029 206.116L151.18 195.363L151.461 195.536H146.146H145.807V195.197C145.807 190.487 145.807 185.785 145.807 181.075L145.85 166.953V166.65H146.153L204.717 166.809L204.573 166.953V166.902L204.609 166.859C207.524 163.591 211.366 161.289 215.623 160.26C217.73 159.729 219.909 159.536 222.078 159.69C222.619 159.704 223.159 159.755 223.693 159.841C224.227 159.935 224.768 160 225.294 160.108L226.867 160.512C227.387 160.664 227.9 160.842 228.403 161.046C232.491 162.588 236.012 165.338 238.5 168.929C239.708 170.724 240.659 172.678 241.328 174.735C241.91 176.815 242.208 178.965 242.215 181.125ZM242.215 181.125C242.176 178.965 241.843 176.82 241.227 174.75C240.543 172.699 239.572 170.757 238.342 168.98C235.859 165.421 232.353 162.701 228.288 161.183C227.791 160.983 227.282 160.812 226.766 160.671L225.201 160.274C224.674 160.166 224.133 160.108 223.607 160.022C223.075 159.934 222.537 159.885 221.998 159.878C219.85 159.735 217.693 159.934 215.608 160.469C211.423 161.526 207.656 163.827 204.804 167.068L204.84 166.975V167.119H204.696L146.131 167.277L146.434 166.975L146.477 181.096C146.477 185.806 146.477 190.509 146.477 195.218L146.138 194.879H151.454H151.649L151.735 195.052L157.505 205.835H157L162.85 195.081L162.922 194.944H163.073L204.681 195.06H204.804L204.847 195.11C207.693 198.373 211.468 200.688 215.666 201.746C217.75 202.286 219.908 202.489 222.056 202.344C222.595 202.336 223.133 202.288 223.664 202.2C224.191 202.121 224.732 202.056 225.258 201.955L226.816 201.551C227.336 201.411 227.846 201.24 228.345 201.039C232.412 199.521 235.921 196.801 238.407 193.242C239.622 191.462 240.581 189.52 241.255 187.472C241.86 185.409 242.183 183.274 242.215 181.125Z" fill="#263238"/>
<path d="M229.672 197.558C238.753 192.662 242.146 181.332 237.25 172.251C232.354 163.17 221.024 159.777 211.943 164.672C202.862 169.568 199.469 180.899 204.365 189.98C209.26 199.061 220.591 202.454 229.672 197.558Z" fill="#FFC533"/>
<path d="M161.948 178.42C161.702 175.982 160.022 173.559 157.072 173.559C154.122 173.559 152.449 175.982 152.204 178.42C151.836 182.177 154.367 185.589 157.072 188.697C159.784 185.589 162.323 182.213 161.948 178.42ZM157.072 181.124C156.545 181.123 156.029 180.965 155.591 180.671C155.154 180.377 154.813 179.96 154.612 179.472C154.411 178.984 154.359 178.448 154.463 177.931C154.567 177.414 154.821 176.939 155.195 176.566C155.568 176.194 156.044 175.94 156.561 175.838C157.079 175.736 157.615 175.789 158.102 175.991C158.589 176.193 159.006 176.535 159.299 176.974C159.592 177.413 159.748 177.928 159.748 178.456C159.749 178.807 159.68 179.155 159.546 179.48C159.412 179.805 159.215 180.099 158.966 180.347C158.717 180.596 158.422 180.792 158.097 180.925C157.772 181.059 157.423 181.126 157.072 181.124Z" fill="#FFC533"/>
<path d="M196.777 175.795H167.264V176.682H196.777V175.795Z" fill="#A6A6A6"/>
<path d="M192.139 178.262H167.264V179.149H192.139V178.262Z" fill="#A6A6A6"/>
<path d="M195.32 180.729H167.264V181.616H195.32V180.729Z" fill="#A6A6A6"/>
<path d="M184.018 183.195H167.264V184.082H184.018V183.195Z" fill="#A6A6A6"/>
<path d="M233.459 194.835C230.013 198.021 225.494 199.795 220.801 199.804C219.956 199.804 219.112 199.741 218.277 199.617C217.721 199.553 217.169 199.457 216.625 199.328C217.303 197.142 218.147 195.01 219.149 192.952C219.229 192.779 219.33 192.613 219.409 192.469C219.54 192.253 219.682 192.043 219.835 191.842C220.556 190.947 222.359 190.507 224.328 190.471C225.184 190.452 226.04 190.497 226.888 190.608C227.57 190.69 228.243 190.83 228.9 191.027L229.023 191.063H229.095L229.564 191.236L229.975 191.423C229.992 191.419 230.009 191.419 230.026 191.423C230.255 191.528 230.471 191.662 230.668 191.82C230.797 191.928 230.942 192.051 231.079 192.181C231.958 192.985 232.755 193.874 233.459 194.835Z" fill="#EBEBEB"/>
<path d="M233.77 194.548C233.671 194.65 233.568 194.746 233.459 194.837C232.026 196.171 230.387 197.267 228.605 198.082C229.139 194.476 229.55 191.685 229.608 191.23C229.611 191.206 229.611 191.182 229.608 191.158C229.745 191.238 229.877 191.324 230.005 191.418C230.021 191.413 230.039 191.413 230.055 191.418C230.308 191.584 230.668 191.836 231.108 192.175C232.05 192.903 232.939 193.696 233.77 194.548Z" fill="#37474F"/>
<path d="M219.562 191.59L219.425 192.463C219.425 192.679 219.345 192.931 219.309 193.184C219.273 193.436 219.237 193.631 219.187 193.905C218.956 195.348 218.631 197.403 218.278 199.61C217.722 199.547 217.171 199.45 216.626 199.322L216.432 199.278C217.129 196.877 218.021 194.537 219.1 192.282C219.239 192.042 219.393 191.811 219.562 191.59Z" fill="#37474F"/>
<path d="M221.761 198.017C223.925 198.262 227.992 195.269 229.125 192.096C229.204 191.879 228.562 189.817 227.906 187.271C227.509 185.727 227.105 183.996 226.853 182.395C226.802 182.063 217.174 186.427 217.174 186.427C218.065 188.343 218.719 190.36 219.121 192.435C219.142 192.658 219.142 192.882 219.121 193.105V193.214C219.157 194.476 219.46 197.75 221.761 198.017Z" fill="#D3766A"/>
<path d="M219.157 193.106C219.153 193.142 219.153 193.178 219.157 193.214C219.505 193.204 219.852 193.167 220.195 193.106C226.095 192.038 226.484 184.379 226.484 182.453C224.739 182.994 217.166 186.427 217.166 186.427C218.058 188.345 218.712 190.365 219.113 192.442C219.145 192.662 219.16 192.884 219.157 193.106Z" fill="#263238"/>
<path d="M226.745 169.606C228.289 173.054 227.697 183.642 225.44 186.274C222.165 190.082 216.157 191.164 212.753 187.082C209.457 183.122 210.467 169.332 213.049 166.887C216.857 163.259 224.459 164.514 226.745 169.606Z" fill="#D3766A"/>
<path d="M219.409 177.08C219.409 177.08 219.46 177.116 219.46 177.145C219.402 177.866 219.46 178.681 220.087 178.948C220.087 178.948 220.087 178.999 220.087 178.991C219.294 178.84 219.229 177.744 219.409 177.08Z" fill="#263238"/>
<path d="M220.08 176.365C221.234 176.365 221.205 178.644 220.137 178.666C219.07 178.688 219.113 176.387 220.08 176.365Z" fill="#263238"/>
<path d="M215.039 177.166C215.039 177.166 214.981 177.166 214.981 177.231C214.981 177.952 214.894 178.767 214.26 178.998C214.26 178.998 214.26 179.041 214.26 179.034C215.039 178.911 215.169 177.822 215.039 177.166Z" fill="#263238"/>
<path d="M214.411 176.394C213.257 176.293 213.142 178.594 214.209 178.687C215.276 178.781 215.37 176.444 214.411 176.394Z" fill="#263238"/>
<path d="M221.004 175.318C220.702 175.227 220.406 175.118 220.117 174.993C219.788 174.923 219.491 174.745 219.273 174.488C219.219 174.394 219.198 174.285 219.214 174.178C219.23 174.07 219.281 173.972 219.36 173.897C219.535 173.772 219.74 173.696 219.954 173.677C220.169 173.658 220.384 173.696 220.579 173.789C221 173.918 221.361 174.194 221.596 174.568C221.641 174.657 221.66 174.758 221.65 174.858C221.64 174.958 221.601 175.053 221.539 175.132C221.477 175.21 221.394 175.27 221.299 175.303C221.204 175.336 221.102 175.341 221.004 175.318Z" fill="#263238"/>
<path d="M213.532 175.217C213.849 175.167 214.137 175.073 214.448 174.993C214.782 174.957 215.096 174.812 215.342 174.582C215.408 174.497 215.444 174.391 215.444 174.283C215.444 174.175 215.408 174.07 215.342 173.984C215.182 173.84 214.987 173.743 214.776 173.701C214.565 173.659 214.347 173.674 214.145 173.746C213.71 173.823 213.319 174.06 213.048 174.409C212.993 174.491 212.962 174.587 212.959 174.686C212.956 174.785 212.982 174.882 213.033 174.967C213.083 175.052 213.157 175.121 213.246 175.165C213.334 175.209 213.433 175.227 213.532 175.217Z" fill="#263238"/>
<path d="M218.753 181.565C218.57 181.846 218.331 182.087 218.051 182.271C217.77 182.454 217.454 182.577 217.123 182.632C216.831 182.672 216.535 182.672 216.243 182.632C216.188 182.64 216.132 182.64 216.077 182.632H215.918C215.839 182.632 215.796 182.553 215.781 182.473C215.778 182.449 215.778 182.425 215.781 182.401V182.344C215.781 181.788 215.839 180.952 215.839 180.952C215.637 181.053 214.606 181.5 214.627 181.218C214.717 178.738 215.06 176.273 215.651 173.862C215.651 173.845 215.658 173.828 215.67 173.816C215.683 173.804 215.699 173.797 215.716 173.797C215.734 173.797 215.75 173.804 215.762 173.816C215.774 173.828 215.781 173.845 215.781 173.862C215.709 176.155 215.233 178.42 215.125 180.714C215.493 180.553 215.881 180.441 216.279 180.382C216.358 180.382 216.127 181.997 216.149 182.243C216.599 182.292 217.054 182.25 217.488 182.12C217.922 181.99 218.325 181.774 218.673 181.485C218.746 181.493 218.796 181.493 218.753 181.565Z" fill="#263238"/>
<path d="M216.574 182.387C216.87 182.783 217.262 183.096 217.714 183.296C217.966 183.395 218.243 183.415 218.507 183.354C219.077 183.21 219.099 182.683 218.998 182.236C218.943 181.999 218.861 181.769 218.752 181.551C218.132 182.052 217.37 182.345 216.574 182.387Z" fill="#263238"/>
<path d="M217.715 183.297C217.967 183.396 218.244 183.416 218.508 183.354C219.078 183.21 219.1 182.683 218.999 182.236C218.697 182.244 218.406 182.352 218.174 182.545C217.941 182.737 217.779 183.002 217.715 183.297Z" fill="#FF9ABB"/>
<path d="M211.482 170.364C211.886 169.462 212.348 168.554 212.925 168.38C213.502 168.207 214.591 169.823 215.81 169.917C217.483 170.047 218.608 168.179 220.952 168.034C223.296 167.89 224.703 170.725 224.739 175.499C224.739 179.769 227.342 180.194 227.342 180.194C227.342 180.194 229.001 170.818 226.376 167.659C223.751 164.5 217.721 163.079 213.574 166.008C212.067 167.068 211.482 170.364 211.482 170.364Z" fill="#263238"/>
<path d="M225.201 178.494C225.201 178.494 227.191 174.887 228.807 175.565C230.422 176.243 229.167 181.292 227.451 182.15C227.238 182.274 227.002 182.354 226.758 182.385C226.513 182.416 226.265 182.397 226.028 182.33C225.791 182.262 225.57 182.148 225.378 181.993C225.187 181.838 225.028 181.646 224.912 181.429L225.201 178.494Z" fill="#D3766A"/>
<path d="M228.41 177.008C228.41 177.008 228.41 177.008 228.41 177.051C227.206 177.693 226.672 178.926 226.333 180.174C226.394 180.042 226.483 179.924 226.594 179.829C226.705 179.734 226.834 179.664 226.974 179.623C227.114 179.582 227.261 179.571 227.406 179.591C227.55 179.612 227.688 179.663 227.812 179.741C227.812 179.741 227.812 179.821 227.812 179.813C227.584 179.765 227.347 179.79 227.133 179.883C226.92 179.976 226.741 180.133 226.621 180.333C226.421 180.667 226.259 181.023 226.138 181.393C226.088 181.508 225.879 181.472 225.907 181.335C225.72 179.712 226.708 177.347 228.41 177.008Z" fill="#263238"/>
<path d="M33.1002 96.0761C35.3794 97.2661 35.8193 101.377 43.0606 101.125C44.0919 101.125 44.9286 100.685 45.8806 101.031C47.2582 101.543 48.3545 102.647 49.5878 103.454C50.5793 104.116 51.7049 104.549 52.8838 104.724C55.1552 104.994 57.45 104.466 59.375 103.231C60.5578 102.51 61.5387 101.493 62.6999 100.699C63.8611 99.9058 70.7706 98.2398 71.9318 94.3523C72.653 91.8784 72.5593 89.0656 69.6238 85.4522C68.945 84.81 68.4815 83.9736 68.2967 83.0577C68.3018 82.2529 68.4866 81.4594 68.8377 80.7353C69.2438 79.9111 69.3897 78.9829 69.256 78.0739C68.929 77.2088 68.4026 76.4329 67.7197 75.8092C66.6379 74.5038 66.8398 72.6069 67.7197 70.2773C68.0635 69.2905 68.1772 68.2381 68.0522 67.2006C67.9272 66.1632 67.5668 65.1679 66.9985 64.291C66.2858 63.282 65.4445 62.3703 64.4958 61.5791C63.1759 60.3242 62.9307 59.1558 62.3321 57.3887C61.2142 53.9772 59.4471 52.4482 57.3772 51.4024C55.5164 50.4576 55.5813 50.8182 53.5762 51.1211C51.5516 49.8895 49.1692 49.381 46.8182 49.6787C44.6545 49.9527 42.8298 51.4241 41.1781 52.8233C39.7356 54.0782 38.3581 55.4269 38.2932 57.5402C38.2499 58.7591 38.5456 59.9635 38.4879 61.1464C38.4158 62.697 37.5503 63.6779 36.5189 64.6516C34.9878 65.9574 33.9306 67.7322 33.5113 69.7003C33.2445 71.3519 34.8601 73.9051 32.9632 76.3501C31.2827 78.5139 28.3328 80.9805 27.5611 83.6996C25.1738 92.1742 30.9077 94.9437 33.1002 96.0761Z" fill="#263238"/>
<path d="M61.1145 100.613C64.4394 100.116 69.5458 100.736 71.3128 97.0072C72.0114 96.4366 72.5641 95.7079 72.9252 94.8815C73.2864 94.055 73.4457 93.1544 73.39 92.2542C73.289 90.2924 72.1422 88.5903 70.8801 87.2055C70.0641 86.4425 69.3535 85.5742 68.7668 84.6235C68.5792 83.8835 68.4418 83.1317 68.3557 82.3732C68.497 81.4028 68.7636 80.4548 69.1491 79.5531C69.1491 79.5171 69.1491 79.5531 69.1491 79.5531C68.4279 81.0822 67.7499 82.7843 68.4279 84.4864C68.5232 84.7359 68.639 84.9772 68.774 85.2077C69.0135 86.1048 69.3446 86.9748 69.7621 87.8041C70.8584 89.9679 71.8537 91.9368 71.7095 94.4684C71.6798 95.3135 71.476 96.1434 71.1109 96.9062C69.6734 98.1663 67.8779 98.9455 65.9756 99.1348C65.9324 99.1348 65.9251 99.2214 65.9756 99.2141C67.6967 99.0394 69.3473 98.4397 70.7791 97.4687C68.8462 100.231 64.3673 99.8633 61.1217 100.498C61.0135 100.52 61.0496 100.628 61.1145 100.613ZM71.5652 96.3869V96.3148C72.1326 94.2716 71.985 92.096 71.1469 90.1482C70.6204 88.8571 69.8343 87.6959 69.315 86.3977C69.2284 86.1741 69.1419 85.9433 69.0698 85.7197C69.791 86.7295 70.8152 87.5733 71.5364 88.5614C73.1231 90.7251 73.5847 93.2855 72.1134 95.6152C71.948 95.8843 71.7649 96.1421 71.5652 96.3869Z" fill="#263238"/>
<path d="M25.9397 92.0599C25.9829 92.1321 26.0839 92.0599 26.0478 91.995C24.6054 89.5572 25.0381 87.0545 26.1632 84.8187C25.6223 88.158 26.2786 91.9013 29.3367 93.6971C29.3872 93.6971 29.4305 93.6467 29.38 93.6178C26.2209 91.7209 25.7738 87.4007 26.596 84.0253C27.296 82.8726 28.1156 81.7968 29.041 80.8158C30.4835 79.2579 32.301 77.7145 33.3684 75.7671C33.1487 76.8969 32.5097 77.9018 31.5798 78.5799C31.5221 78.6232 31.5798 78.717 31.6302 78.6809C32.6373 78.0024 33.3569 76.9745 33.6497 75.796C33.6959 75.5581 33.7225 75.3169 33.729 75.0747C34.0028 74.4487 34.1803 73.7848 34.2555 73.1057C34.169 73.7119 34.0017 74.3038 33.7579 74.8656C33.6319 73.8155 33.39 72.7827 33.0367 71.7859C32.2577 68.9009 33.7146 67.1771 35.5105 65.6265C35.6548 65.5327 35.799 65.4389 35.9505 65.3524C36.9312 64.8403 37.7578 64.076 38.345 63.1382C38.4676 63.0084 38.5902 62.8785 38.7056 62.7415C38.7056 62.7415 38.5109 62.9362 38.4171 63.03C38.5447 62.7622 38.6438 62.4818 38.7128 62.1934C38.5226 62.6809 38.2466 63.1303 37.8978 63.5204C37.1766 64.1191 36.3904 64.6672 35.6331 65.2442C34.1906 66.1097 32.7986 66.9319 32.2505 68.6557C31.7024 70.3794 32.1351 72.0599 32.2505 73.7044C32.4525 76.2864 31.5293 78.4429 29.178 79.4743C29.178 79.4743 29.1347 79.532 29.178 79.5176C29.3571 79.4683 29.5329 79.4081 29.7045 79.3372C28.2589 80.3854 27.153 81.8349 26.5239 83.506C24.8794 86.0376 24.187 89.312 25.9397 92.0599ZM31.962 77.5341L31.1686 78.1472C31.5434 77.7075 31.8365 77.2043 32.0341 76.6614C32.6832 74.8295 32.1423 72.8389 32.099 70.9564C32.0348 70.1666 32.1627 69.373 32.4716 68.6434C32.7806 67.9137 33.2615 67.2696 33.8733 66.766C33.335 67.3686 32.9317 68.0793 32.6905 68.8504C32.2794 70.2424 32.6905 71.5334 33.1088 72.8677C33.3876 73.7081 33.4931 74.5963 33.4189 75.4786C33.0069 76.2087 32.5186 76.8929 31.962 77.5197V77.5341ZM27.1009 82.5828C27.9213 81.1046 29.0534 79.8224 30.4186 78.8252L30.6926 78.5944C31.0677 78.2915 31.4139 77.9885 31.8033 77.6784C30.2671 79.4022 28.3991 80.9096 27.1009 82.5973V82.5828Z" fill="#263238"/>
<path d="M64.0646 61.1035C65.3039 62.1805 66.4837 63.3242 67.5987 64.5294C68.3783 65.3159 68.8449 66.3594 68.9113 67.4649C68.9421 68.5795 68.5909 69.6713 67.916 70.559C67.6636 70.934 67.4184 71.3163 67.1948 71.7057C67.1426 72.4263 67.2561 73.1491 67.5266 73.819C68.0675 75.0956 69.272 75.8817 69.8345 77.1728C70.7361 79.2643 69.7335 80.9809 68.8536 82.8561C69.4883 81.3271 70.3827 79.8125 69.8922 78.0815C69.4883 76.639 68.4497 75.9178 67.6708 74.7422C67.1933 74.0116 66.9286 73.1625 66.9063 72.29C66.1851 73.7324 65.9687 75.1749 67.1948 76.6607C67.2525 76.7328 67.1948 76.8266 67.1082 76.7616C65.5504 75.1821 65.9615 73.2708 66.9135 71.6048C66.9726 70.6151 67.1893 69.6412 67.5554 68.7198C67.5987 68.6261 67.7357 68.7198 67.7141 68.7919C67.577 69.5132 67.3967 70.2344 67.2958 70.9557L67.4544 70.7177C68.7022 68.9434 69.1782 66.8807 67.7573 64.9477C66.6899 63.5052 65.233 62.4162 64.043 61.1107C64.0492 61.106 64.0568 61.1035 64.0646 61.1035Z" fill="#263238"/>
<path d="M105.166 308.431C103.515 308.95 55.2061 307.904 53.4462 306.729C52.7683 306.289 56.901 260.533 56.901 260.533L87.5392 261.117L84.0556 291.727C84.0556 291.727 101.877 300.173 103.688 301.673C105.498 303.173 106.825 307.911 105.166 308.431Z" fill="#AD6359"/>
<path d="M105.166 308.43C103.515 308.942 55.206 307.904 53.4462 306.721C53.2298 306.591 53.1649 301.946 53.9366 295.902C62.6925 297.345 93.9654 302.17 96.396 300.735C98.0909 299.739 96.5907 298.181 95.1987 297.128C99.1944 299.119 102.916 301.038 103.688 301.679C105.476 303.158 106.818 307.911 105.166 308.43Z" fill="#263238"/>
<path d="M84.9219 284.385L54.8462 283.959C54.8462 283.959 60.8037 211.922 60.5512 210.537C60.2411 208.763 38.9141 125.092 38.9141 125.092H67.6194C67.6194 125.092 90.2519 203.08 91.0669 210.595C92.3651 222.726 84.9219 284.385 84.9219 284.385Z" fill="#37474F"/>
<path d="M57.5494 277.164C59.3236 277.042 61.1555 277.063 62.9009 277.034C64.6463 277.005 66.4711 277.034 68.2525 277.034C71.8587 277.07 75.3856 277.121 78.9485 277.222C79.9294 277.222 80.9031 277.28 81.8768 277.323C82.8504 277.366 83.9611 277.554 84.9997 277.59C85.0791 277.59 85.0791 277.719 84.9997 277.719C84.1198 277.719 83.2471 277.857 82.3672 277.878C81.4873 277.9 80.5497 277.914 79.6409 277.914C77.8595 277.914 76.0347 277.914 74.2893 277.914C70.7264 277.914 67.1563 277.835 63.5933 277.691C61.5811 277.604 59.5472 277.582 57.5421 277.381C57.5134 277.38 57.4863 277.367 57.4667 277.346C57.4471 277.325 57.4366 277.297 57.4376 277.269C57.4385 277.24 57.4508 277.213 57.4718 277.193C57.4928 277.174 57.5207 277.163 57.5494 277.164Z" fill="#263238"/>
<path d="M45.2095 131.849C47.7772 140.944 50.1284 150.118 52.4219 159.257C54.7155 168.395 57.0162 177.605 59.3026 186.779L62.7212 200.576C63.8319 205.041 65.123 209.534 65.4042 214.15C65.6855 218.766 65.0869 223.57 64.683 228.243C64.2791 232.917 63.8896 237.619 63.4785 242.329C62.6563 251.705 61.8702 261.125 60.846 270.501C60.7162 271.676 60.5936 272.852 60.471 274.02C60.471 274.121 60.3051 274.121 60.3123 274.02C60.9398 264.644 61.5889 255.225 62.339 245.834C62.714 241.141 63.0963 236.444 63.4857 231.741C63.868 227.053 64.4162 222.365 64.5604 217.648C64.7046 212.931 63.8392 208.359 62.6996 203.779C61.56 199.199 60.4493 194.799 59.3242 190.306C57.0307 181.137 54.7395 171.962 52.4508 162.783C49.9048 152.513 47.3588 142.214 45.1086 131.871C45.1057 131.858 45.1083 131.844 45.1157 131.832C45.1231 131.821 45.1348 131.813 45.1482 131.81C45.1616 131.807 45.1756 131.809 45.1871 131.817C45.1986 131.824 45.2067 131.836 45.2095 131.849Z" fill="#263238"/>
<path d="M38.9219 125.092C38.9219 125.092 48.0744 160.988 54.479 186.26L66.6968 125.092H38.9219Z" fill="#263238"/>
<path d="M69.0968 308.532C67.438 309.052 19.1366 308.006 17.3695 306.83C16.6916 306.398 19.2159 260.613 19.2159 260.613L49.4431 261.197L48.0006 291.836C48.0006 291.836 65.8296 300.274 67.6327 301.774C69.4358 303.275 70.7485 308.028 69.0968 308.532Z" fill="#AD6359"/>
<path d="M69.0978 308.532C67.4462 309.052 19.1304 308.006 17.3705 306.83C17.1542 306.693 17.2046 302.171 17.3705 296.012C26.1264 297.454 57.8825 302.287 60.3131 300.851C62.0153 299.856 60.5079 298.291 59.1231 297.245C63.1115 299.236 66.8331 301.147 67.6049 301.789C69.4007 303.267 70.7495 308.028 69.0978 308.532Z" fill="#263238"/>
<path d="M66.6733 125.085C66.6733 125.085 65.8366 138.788 62.5622 149.643C62.2954 150.537 62.0141 151.424 61.7039 152.268C58.8092 153.395 56.0233 154.783 53.3808 156.415C53.3808 156.415 51.3109 208.915 51.347 212.175C51.484 224.371 48.3682 283.779 48.3682 283.779L18.0762 283.491C18.0762 283.491 21.2208 216.307 21.2352 211.843C21.2352 207.515 23.2979 180.26 25.1227 156.625C25.1227 156.625 22.4252 149.073 22.7282 145.265C23.4494 136.019 27.5965 125.07 27.5965 125.07L66.6733 125.085Z" fill="#37474F"/>
<path d="M60.0529 143.518C60.1611 142.754 60.2765 141.996 60.3919 141.239C60.6083 139.847 60.8896 138.462 61.1132 137.078C61.6685 133.933 62.2455 130.774 62.9451 127.658C62.9451 127.586 63.0894 127.601 63.0821 127.658C62.9523 128.92 62.8081 130.175 62.635 131.423C62.4619 132.671 62.3321 133.94 62.1517 135.195C61.8056 137.676 61.4305 140.165 61.0338 142.638C60.8679 143.59 60.3126 145.3 61.6469 145.595C62.736 145.833 63.5293 144.766 63.8539 143.872C64.188 142.749 64.4292 141.601 64.5751 140.439C64.7987 139.184 64.9934 137.921 65.1737 136.667C65.5632 133.916 65.9839 131.173 66.4359 128.437C66.4359 128.365 66.5729 128.387 66.5657 128.437C66.5082 131.249 66.306 134.056 65.9599 136.847C65.7868 138.188 65.5848 139.523 65.354 140.85C65.2209 142.129 64.9127 143.383 64.4381 144.579C64.2424 145.048 63.9317 145.46 63.5346 145.778C63.1376 146.096 62.667 146.308 62.1662 146.396H62.1013C62.1157 146.403 62.1276 146.415 62.1353 146.429C62.143 146.443 62.1463 146.459 62.1445 146.475C62.1445 146.915 62.1445 147.37 62.094 147.81C62.0436 148.25 61.957 148.69 61.8705 149.122C61.7941 149.566 61.6807 150.003 61.5315 150.428C61.464 150.634 61.3846 150.836 61.2935 151.034C61.1925 151.236 61.0555 151.394 60.9401 151.582C60.9325 151.6 60.9187 151.614 60.9012 151.622C60.8838 151.631 60.8638 151.633 60.8452 151.627C60.8265 151.622 60.8105 151.61 60.8001 151.594C60.7896 151.577 60.7856 151.558 60.7886 151.538C60.7886 151.466 60.7886 151.394 60.7886 151.322V151.279C60.7814 151.149 60.7814 151.019 60.7886 150.889C60.7886 150.673 60.8752 150.464 60.9184 150.255C61.0122 149.829 61.1276 149.411 61.243 148.993C61.3584 148.574 61.4449 148.149 61.5531 147.73C61.6613 147.312 61.8056 146.872 61.9065 146.439C61.9032 146.425 61.9032 146.41 61.9065 146.396C61.5037 146.416 61.1043 146.312 60.7625 146.098C60.4206 145.884 60.1528 145.57 59.9952 145.199C59.8727 144.643 59.8926 144.065 60.0529 143.518Z" fill="#263238"/>
<path d="M50.9289 157.46C51.8315 156.765 52.7836 156.135 53.7778 155.578C54.8261 154.949 55.9125 154.385 57.0306 153.89C59.1943 152.938 61.4878 152.289 63.7525 151.539C63.8174 151.539 63.8679 151.633 63.7958 151.654C61.6321 152.527 59.5044 153.688 57.384 154.727C56.3454 155.232 55.2852 155.722 54.2249 156.169C53.1647 156.617 52.1045 157.186 51.0082 157.612C50.9289 157.641 50.864 157.511 50.9289 157.46Z" fill="#263238"/>
<path d="M33.8068 138.341C35.351 138.326 36.8872 138.118 38.3795 137.721C39.1007 137.548 39.7499 137.324 40.4206 137.108C41.0905 136.92 41.7176 136.604 42.267 136.178C43.3056 135.283 43.7888 133.87 44.2432 132.622C44.7355 131.207 45.1354 129.761 45.4404 128.294C45.4404 128.222 45.563 128.244 45.563 128.294C45.5988 129.951 45.3898 131.603 44.9428 133.199C44.5677 134.555 44.0701 136.084 42.9738 137.021C41.7571 137.931 40.2999 138.463 38.7834 138.55C37.126 138.743 35.4507 138.719 33.7996 138.478C33.788 138.471 33.7786 138.46 33.7723 138.448C33.766 138.435 33.7631 138.422 33.7638 138.408C33.7645 138.394 33.7689 138.38 33.7764 138.369C33.784 138.357 33.7945 138.348 33.8068 138.341Z" fill="#263238"/>
<path d="M19.382 277.612C21.1562 277.482 22.9882 277.504 24.7336 277.482C26.479 277.461 28.3398 277.482 30.0852 277.482C33.6577 277.511 37.2254 277.574 40.7883 277.67C41.762 277.67 42.7357 277.727 43.6733 277.771C44.6109 277.814 45.7577 277.994 46.7963 278.038C46.8061 278.034 46.8165 278.033 46.8268 278.035C46.837 278.036 46.8468 278.04 46.8552 278.046C46.8637 278.052 46.8705 278.06 46.8753 278.069C46.88 278.078 46.8825 278.089 46.8825 278.099C46.8825 278.109 46.88 278.119 46.8753 278.129C46.8705 278.138 46.8637 278.146 46.8552 278.152C46.8468 278.158 46.837 278.162 46.8268 278.163C46.8165 278.165 46.8061 278.164 46.7963 278.16C45.9236 278.16 45.0437 278.304 44.1638 278.326C43.2838 278.348 42.3462 278.362 41.4375 278.362H36.0859C32.5229 278.362 28.9528 278.283 25.3899 278.131C23.3776 278.052 21.3437 278.023 19.3387 277.828C19.31 277.823 19.2848 277.806 19.2685 277.781C19.2523 277.757 19.2464 277.727 19.2521 277.699C19.2579 277.67 19.2748 277.645 19.2991 277.628C19.3235 277.612 19.3533 277.606 19.382 277.612Z" fill="#263238"/>
<path d="M23.0539 273.669C23.0059 273.667 22.9587 273.655 22.9152 273.635C22.8717 273.615 22.8326 273.586 22.8004 273.55C22.7681 273.515 22.7433 273.473 22.7274 273.428C22.7115 273.382 22.7048 273.334 22.7077 273.286L29.5523 155.724C29.4657 155.212 27.5328 148.641 27.3885 145.288C27.2082 141.746 30.8793 127.927 30.9947 127.336C31.0217 127.242 31.0843 127.162 31.1692 127.114C31.254 127.065 31.3545 127.052 31.4491 127.076C31.4962 127.089 31.5403 127.111 31.5788 127.14C31.6174 127.17 31.6497 127.207 31.6739 127.249C31.698 127.292 31.7135 127.338 31.7195 127.387C31.7255 127.435 31.7219 127.484 31.7088 127.531C31.7088 127.668 27.915 141.819 28.1026 145.252C28.2901 148.685 30.2663 155.587 30.2663 155.645C30.2663 155.702 23.4217 273.322 23.4217 273.322C23.4146 273.415 23.3729 273.503 23.3048 273.567C23.2368 273.631 23.1473 273.667 23.0539 273.669Z" fill="#263238"/>
<path d="M57.2975 84.1255C72.0973 97.1439 85.8008 111.453 86.9765 118.824C88.5632 129.023 82.31 131.929 79.4972 131.987C71.8304 132.146 57.5499 101.233 52.5733 89.4338C47.741 77.9589 54.0663 81.2405 57.2975 84.1255Z" fill="#FFC533"/>
<path d="M67.4307 125.084L65.3679 112.101C65.3679 112.101 70.4959 106.786 67.849 101.225C66.5075 98.405 57.3838 84.6365 52.5154 81.2034C47.95 77.965 42.5335 80.6552 40.4996 84.1605C35.386 93.0101 30.5176 103.18 27.5605 125.076L67.4307 125.084Z" fill="#FFC533"/>
<path d="M59.2818 110.443C57.2107 110.669 55.1592 111.047 53.144 111.576C52.1415 111.857 51.1679 112.174 50.187 112.52C49.7037 112.694 49.2133 112.845 48.7445 112.996C48.2337 113.172 47.7031 113.283 47.165 113.328C47.1554 113.328 47.1462 113.332 47.1395 113.339C47.1327 113.346 47.1289 113.355 47.1289 113.364C47.1289 113.374 47.1327 113.383 47.1395 113.39C47.1462 113.397 47.1554 113.4 47.165 113.4C47.673 113.417 48.1815 113.398 48.6868 113.343C49.1744 113.277 49.6565 113.176 50.1293 113.04C51.1462 112.773 52.1415 112.448 53.1585 112.167C55.1996 111.604 57.2407 111.035 59.3179 110.616C59.3408 110.612 59.3609 110.598 59.3738 110.578C59.3866 110.559 59.3912 110.535 59.3864 110.512C59.3816 110.489 59.3679 110.469 59.3483 110.456C59.3287 110.443 59.3047 110.438 59.2818 110.443Z" fill="#263238"/>
<path d="M64.4527 112.181C62.738 112.032 61.0161 111.984 59.2958 112.036C58.4376 112.036 57.5865 112.137 56.7282 112.238L55.5093 112.397C55.0622 112.469 54.6222 112.592 54.175 112.649C54.1318 112.649 54.1318 112.729 54.175 112.729C54.6006 112.685 55.0333 112.729 55.4588 112.729L56.7426 112.664L59.3175 112.556C61.0268 112.462 62.7361 112.39 64.4527 112.354C64.4756 112.354 64.4977 112.345 64.5139 112.328C64.5301 112.312 64.5392 112.29 64.5392 112.267C64.5392 112.244 64.5301 112.222 64.5139 112.206C64.4977 112.19 64.4756 112.181 64.4527 112.181Z" fill="#263238"/>
<path d="M39.9812 82.8346C26.2127 93.6532 12.675 112.355 12.5741 122.806C12.4803 133.127 16.0721 132.131 17.0962 132.059C23.3277 131.655 38.0122 102.928 42.4839 91.2154C46.9556 79.5025 43.3854 80.1588 39.9812 82.8346Z" fill="#FFC533"/>
<path d="M25.3828 123.996C26.1041 122.698 26.8253 121.414 27.5465 120.101L29.7102 116.192C31.1527 113.589 32.5952 110.985 33.9439 108.352C35.2926 105.72 36.7351 103.116 38.0983 100.476C38.7858 99.159 39.4518 97.8319 40.0961 96.4952C40.7668 95.1681 41.3799 93.8194 42.0074 92.4707C41.0171 95.2792 39.8734 98.0313 38.5815 100.714C37.3193 103.412 35.9418 106.052 34.5642 108.684C33.1866 111.317 31.6792 113.906 30.1791 116.459C28.6789 119.012 27.0922 121.558 25.3828 123.996Z" fill="#263238"/>
<path d="M40.5371 95.9312C40.7904 95.4631 41.0747 95.0125 41.3882 94.5825C41.5468 94.3661 41.6911 94.1497 41.857 93.9478C42.0146 93.7303 42.1831 93.5209 42.3618 93.3203C42.2319 93.8407 42.0016 94.3307 41.6839 94.7628C41.3773 95.2199 40.9884 95.6161 40.5371 95.9312Z" fill="#263238"/>
<path d="M82.6647 103.707C81.9434 98.8674 80.501 92.1094 78.7411 90.7246C76.9813 89.3398 70.2377 84.3561 68.3264 83.7142C66.4152 83.0722 57.8613 79.9276 56.3034 80.8292C55.0628 81.5504 56.5847 84.8393 60.6308 86.3755C62.8368 87.2628 64.9875 88.2816 67.0715 89.4264C68.1173 89.8591 70.6777 93.1985 69.9564 94.6914C69.567 95.5713 67.021 96.6316 65.4271 95.932C63.8331 95.2324 63.4076 92.095 61.5828 90.6309C59.7581 89.1667 56.5342 89.3831 56.3827 90.2486C56.2313 91.1141 57.2698 91.5108 58.9359 94.4246C60.0105 96.2998 60.1259 100.829 62.5421 104.046C63.7809 105.954 64.9009 107.936 65.8959 109.982L82.6647 103.707Z" fill="#AD6359"/>
<path d="M59.9238 89.3182C59.3352 89.2326 58.7827 88.9826 58.3298 88.5969C58.1507 88.4207 58.0234 88.1987 57.962 87.955C57.944 87.821 57.944 87.6852 57.962 87.5511C57.9659 87.4077 58.0195 87.2701 58.1135 87.1617C58.1135 87.0968 58.1135 87.1617 58.1135 87.1617C58.0695 87.2295 58.0213 87.2945 57.9692 87.3564C57.9309 87.4126 57.8995 87.4731 57.8755 87.5367C57.8323 87.6645 57.8103 87.7985 57.8105 87.9334C57.8285 88.232 57.9452 88.5162 58.1423 88.7412C58.3765 88.9811 58.6632 89.1633 58.9799 89.2735C59.2966 89.3836 59.6345 89.4187 59.9671 89.3759C59.9671 89.3759 59.9526 89.3254 59.9238 89.3182Z" fill="#263238"/>
<path d="M78.7403 90.7099C77.1752 88.3009 73.1795 83.9807 69.256 82.5166C66.6018 81.5357 57.5503 86.0579 57.8388 87.7961C58.1273 89.5342 59.6707 89.5198 61.9715 89.2385C62.8081 89.1304 67.2221 87.4859 67.9866 88.4091C69.0901 89.7362 70.5182 94.2872 70.5182 94.2872L78.7403 90.7099Z" fill="#AD6359"/>
<path d="M58.0549 87.1101C59.1584 85.2421 61.6178 84.2252 64.07 83.4102C64.07 83.4102 64.1277 83.4534 64.07 83.4679C63.4425 83.677 59.4613 85.5595 58.0621 87.139C58.0693 87.1606 58.0405 87.1318 58.0549 87.1101Z" fill="#263238"/>
<path d="M78.7405 90.7095C77.1754 88.3006 73.1798 83.9803 69.2562 82.5162C66.602 81.5353 59.469 87.2764 59.7503 89.0074C60.0316 90.7384 62.2674 90.8538 64.7268 89.9739C65.5202 89.6854 68.1743 87.7741 68.9389 88.6973C70.0351 90.0243 72.7182 93.3132 72.7182 93.3132L78.7405 90.7095Z" fill="#AD6359"/>
<path d="M71.1673 91.2795C70.9221 90.9045 70.8355 90.7674 70.5759 90.3924C70.3162 90.0174 70.0494 89.6712 69.7681 89.2961C69.5456 88.9668 69.2673 88.6788 68.9459 88.4451C68.6135 88.2566 68.2273 88.1855 67.8496 88.2431C67.0023 88.4276 66.2036 88.7889 65.5056 89.3033C64.3766 90.0145 63.0747 90.4035 61.7407 90.4285C61.3872 90.409 61.0413 90.3182 60.7237 90.1616C60.4839 90.0549 60.2735 89.8915 60.1107 89.6856C59.5409 88.7408 60.2261 87.6517 60.9329 86.88C62.3218 85.4767 63.9543 84.3379 65.7508 83.519L67.0274 82.8987C67.5085 82.6372 68.0393 82.48 68.5853 82.4371C69.4796 82.4371 70.9509 83.317 71.4125 83.5839C71.4125 83.5839 71.4702 83.5478 71.4125 83.5262C70.8644 83.1944 69.4868 82.0837 68.0443 82.1775C67.5195 82.2635 67.0141 82.4418 66.5514 82.704C66.0465 82.9203 65.556 83.1656 65.0656 83.4252C64.1131 83.907 63.1992 84.4616 62.3321 85.0841C61.4637 85.6611 60.7104 86.3949 60.1107 87.2478C59.8575 87.6248 59.7116 88.0636 59.6887 88.5172C59.6659 88.9708 59.7668 89.422 59.9809 89.8226C60.1741 90.0741 60.4203 90.2801 60.702 90.4259C60.9836 90.5718 61.2939 90.6539 61.6109 90.6665C61.9891 90.7167 62.3722 90.7167 62.7504 90.6665C63.5865 90.4854 64.4084 90.2444 65.2098 89.9452C65.9888 89.6279 66.6884 89.0942 67.4962 88.8417C67.6853 88.7733 67.8862 88.7438 68.087 88.7549C68.2878 88.7661 68.4842 88.8177 68.6646 88.9066C68.9941 89.1251 69.2905 89.3899 69.5445 89.6928C70.0764 90.2174 70.5592 90.7896 70.987 91.4021C71.1601 91.4959 71.2755 91.4382 71.1673 91.2795Z" fill="#263238"/>
<path d="M79.9094 92.7789C79.3324 91.6321 78.3227 86.8936 77.3923 85.4511C76.4619 84.0086 72.221 79.0104 70.2736 79.2485C67.8214 79.5442 70.4251 83.9437 71.7161 85.7396C73.0071 87.5355 72.834 90.6513 72.834 90.6513L79.9094 92.7789Z" fill="#AD6359"/>
<path d="M69.9336 82.784C70.3901 83.37 70.8162 83.979 71.2102 84.6087C71.6249 85.1801 71.9984 85.7803 72.3281 86.4046C72.6064 87.0547 72.7722 87.7473 72.8185 88.4529C72.8546 88.7991 72.869 89.1741 72.8762 89.4843C72.8835 89.7944 72.8762 90.2055 72.8762 90.6094C72.8762 90.6455 72.8113 90.6527 72.8113 90.6094C72.7577 89.9261 72.6613 89.2468 72.5228 88.5755C72.3937 87.8792 72.1806 87.2011 71.8882 86.556C71.2967 85.2795 70.4457 84.1399 69.847 82.8633C69.7966 82.7767 69.8687 82.7407 69.9336 82.784Z" fill="#263238"/>
<path d="M72.8181 91.2148C72.9144 92.4002 72.711 93.5907 72.2267 94.6768C72.0046 95.2268 71.7468 95.7616 71.4549 96.278C71.1487 96.7776 70.814 97.2593 70.4524 97.7204C68.9989 99.4906 68.0762 101.636 67.791 103.909C67.6925 102.73 67.8273 101.544 68.1877 100.418C68.5698 99.289 69.1404 98.233 69.8754 97.2949C70.5773 96.3986 71.184 95.4318 71.6857 94.4099C72.2363 93.4144 72.6189 92.3349 72.8181 91.2148Z" fill="#263238"/>
<path d="M78.7843 131.633C73.9953 130.984 70.8507 122.978 65.3981 108.899C64.4389 106.426 76.938 91.2362 78.6545 93.5009C80.8182 96.3859 86.5881 112.253 87.1723 116.581C88.3696 125.134 84.3595 132.383 78.7843 131.633Z" fill="#AD6359"/>
<path d="M68.2891 116.754L83.7164 101.76C83.7164 101.76 88.1015 114.663 87.6904 120.072C87.2793 125.481 85.3969 131.612 78.8841 131.987C74.0085 132.239 68.2891 116.754 68.2891 116.754Z" fill="#FFC533"/>
<path d="M73.2728 127.133C72.7175 126.346 72.2198 125.517 71.7366 124.688C71.2534 123.858 70.8062 123 70.3662 122.142C69.9263 121.283 69.5368 120.411 69.1762 119.509C68.8008 118.618 68.5039 117.696 68.2891 116.754C68.693 117.627 69.1257 118.485 69.5584 119.336L70.8567 121.904C71.275 122.762 71.7005 123.62 72.1044 124.493C72.5083 125.366 72.9122 126.238 73.2728 127.133Z" fill="#263238"/>
<path d="M71.6063 119.372C72.3275 118.55 73.1786 117.785 73.972 117.006C74.7653 116.227 75.5731 115.463 76.3881 114.706C78.0181 113.181 79.6577 111.676 81.307 110.191C81.7613 109.787 82.2157 109.376 82.6773 108.979C83.1389 108.582 83.7159 108.186 84.1991 107.76C84.2072 107.756 84.2163 107.755 84.2251 107.756C84.2339 107.758 84.2421 107.762 84.2484 107.769C84.2547 107.775 84.2589 107.783 84.2604 107.792C84.2619 107.801 84.2607 107.81 84.2568 107.818C83.8602 108.193 83.5356 108.633 83.1317 109.022C82.7278 109.412 82.3239 109.816 81.9128 110.205L79.4894 112.499C77.8594 114.013 76.2294 115.528 74.5562 116.992C73.6113 117.821 72.6809 118.68 71.6712 119.451C71.6609 119.454 71.6501 119.453 71.6401 119.449C71.6301 119.446 71.6213 119.44 71.6146 119.431C71.6079 119.423 71.6036 119.413 71.6021 119.403C71.6007 119.392 71.6021 119.382 71.6063 119.372Z" fill="#263238"/>
<path d="M43.4219 81.1757C43.4219 81.1757 46.2203 88.2943 47.1435 89.1093C48.0667 89.9243 55.921 89.4699 56.0941 88.8208C56.2671 88.1717 52.7836 81.6949 52.7836 81.6949C51.0676 80.8789 49.2224 80.3688 47.331 80.1875C45.9534 80.0609 44.5739 80.4096 43.4219 81.1757Z" fill="#AD6359"/>
<path d="M44.0767 81.6433C44.1921 82.4367 47.4449 87.846 51.7507 87.5791C54.2606 87.4277 52.5513 82.4295 52.5513 82.4295L54.715 75.5993L46.4496 69.2812C46.4496 69.2812 44.0335 81.3115 44.0767 81.6433Z" fill="#AD6359"/>
<path d="M45.5703 73.7746C46.1244 75.5676 47.0409 77.2277 48.2629 78.652C49.485 80.0762 50.9865 81.2343 52.6745 82.0544L54.7228 75.5993L46.4574 69.2812C46.4574 69.2812 46.0535 71.3151 45.5703 73.7746Z" fill="#263238"/>
<path d="M64.4597 66.0006C64.7049 77.7424 57.7017 79.2137 55.1701 79.2642C52.8694 79.3147 45.0728 79.1704 43.5798 67.5152C42.0869 55.86 47.5034 52.0374 52.754 51.6479C58.0046 51.2584 64.2145 54.2516 64.4597 66.0006Z" fill="#AD6359"/>
<path d="M61.7048 65.0563C61.4415 64.9951 61.1815 64.9204 60.9258 64.8327C60.6506 64.7861 60.3976 64.6521 60.2046 64.4504C60.155 64.372 60.1324 64.2796 60.1402 64.1871C60.148 64.0947 60.1858 64.0073 60.2479 63.9384C60.3898 63.8221 60.56 63.7454 60.7412 63.7163C60.9223 63.6872 61.108 63.7065 61.2792 63.7725C61.6501 63.8558 61.9767 64.0744 62.1952 64.3855C62.2428 64.4613 62.2665 64.5497 62.2634 64.6391C62.2602 64.7285 62.2303 64.815 62.1775 64.8872C62.1246 64.9595 62.0513 65.0142 61.9671 65.0443C61.8828 65.0745 61.7914 65.0786 61.7048 65.0563Z" fill="#263238"/>
<path d="M53.6624 64.6947C53.9313 64.6764 54.1988 64.6403 54.4629 64.5866C54.752 64.5887 55.0336 64.4948 55.2635 64.3197C55.3197 64.2475 55.3502 64.1587 55.3502 64.0673C55.3502 63.9758 55.3197 63.887 55.2635 63.8148C55.1402 63.6769 54.9821 63.5746 54.8057 63.5188C54.6294 63.463 54.4412 63.4556 54.261 63.4975C53.915 63.5323 53.5916 63.6851 53.345 63.9302C53.282 63.9928 53.2391 64.0727 53.2216 64.1597C53.2042 64.2467 53.213 64.337 53.2471 64.419C53.2811 64.501 53.3388 64.571 53.4127 64.6201C53.4867 64.6692 53.5736 64.6952 53.6624 64.6947Z" fill="#263238"/>
<path d="M55.1202 67.7813C55.1202 67.7813 55.0552 67.7812 55.0552 67.8462C55.0552 68.6467 54.8821 69.5627 54.1465 69.7935V69.8368C55.0408 69.7575 55.2283 68.5458 55.1202 67.7813Z" fill="#263238"/>
<path d="M54.4485 66.9094C53.1647 66.7507 52.9339 69.3183 54.1168 69.4698C55.2996 69.6213 55.5088 67.0464 54.4485 66.9094Z" fill="#263238"/>
<path d="M53.9302 67.0027C53.6921 67.1253 53.4469 67.3633 53.2089 67.3633C52.9709 67.3633 52.6824 67.0749 52.4877 66.8008C52.4877 66.8008 52.4444 66.8008 52.4372 66.8008C52.3867 67.2912 52.531 67.8105 53.0502 67.9331C53.5695 68.0557 53.9157 67.6374 54.0816 67.1542C54.0672 67.0965 54.0239 66.9522 53.9302 67.0027Z" fill="#263238"/>
<path d="M59.9451 67.8613C59.9451 67.8613 60.0028 67.9046 60.0028 67.9407C59.8947 68.734 59.9091 69.6572 60.6087 69.9962C60.6087 69.9962 60.6087 70.0467 60.6087 70.0395C59.7288 69.8303 59.7216 68.597 59.9451 67.8613Z" fill="#263238"/>
<path d="M60.7373 67.1038C62.0283 67.1038 61.8768 69.7074 60.6796 69.6786C59.4823 69.6497 59.6554 67.0749 60.7373 67.1038Z" fill="#263238"/>
<path d="M61.2801 67.3063C61.4748 67.4506 61.6623 67.7102 61.9075 67.7391C62.1528 67.7679 62.4124 67.5083 62.6288 67.2559C62.6288 67.2559 62.672 67.2559 62.6648 67.2559C62.6648 67.7463 62.4629 68.2512 61.9436 68.3161C61.4243 68.381 61.2224 67.941 61.1286 67.4434C61.107 67.3785 61.1863 67.2414 61.2801 67.3063Z" fill="#263238"/>
<path d="M58.6685 71.3023C58.6685 71.3023 58.7335 72.5067 58.6685 73.0693C58.6685 73.1198 58.5315 73.1342 58.3368 73.1342C57.8473 73.182 57.354 73.095 56.9104 72.8827C56.4667 72.6705 56.0895 72.3409 55.8197 71.9297C55.7836 71.872 55.8629 71.8216 55.9134 71.8576C56.5888 72.406 57.4241 72.7199 58.2935 72.7519C58.344 72.6005 58.106 70.6892 58.1925 70.6892C58.6257 70.7653 59.0474 70.8962 59.4475 71.0787C59.3681 68.5688 58.8921 66.0877 58.8561 63.585C58.8611 63.5688 58.8712 63.5547 58.8848 63.5447C58.8984 63.5347 58.9149 63.5293 58.9318 63.5293C58.9487 63.5293 58.9652 63.5347 58.9788 63.5447C58.9924 63.5547 59.0025 63.5688 59.0075 63.585C59.5985 66.2268 59.927 68.9204 59.9884 71.6268C60.0028 71.9297 58.8849 71.4177 58.6685 71.3023Z" fill="#263238"/>
<path d="M58.0052 72.801C57.6903 73.1813 57.283 73.4743 56.8224 73.6521C56.5645 73.7354 56.2869 73.7354 56.029 73.6521C55.4665 73.4862 55.4665 72.9309 55.5891 72.5125C55.6575 72.2792 55.7519 72.0542 55.8703 71.8418C56.4603 72.3828 57.2089 72.7192 58.0052 72.801Z" fill="#263238"/>
<path d="M56.8224 73.6532C56.5645 73.7365 56.2869 73.7365 56.029 73.6532C55.4665 73.4873 55.4665 72.932 55.5891 72.5137C55.8928 72.5375 56.1796 72.6628 56.4033 72.8696C56.6271 73.0763 56.7747 73.3524 56.8224 73.6532Z" fill="#FF9ABB"/>
<path d="M43.4862 67.724C44.7844 67.724 48.3618 64.3198 48.7945 58.0522C48.7945 58.0522 48.0156 63.6562 47.5468 64.4568C47.0779 65.2574 49.5446 62.5455 49.9701 57.4968C51.5021 58.7239 53.2024 59.7246 55.0188 60.4684C57.37 61.2617 58.8342 61.3194 59.0145 61.1896C59.1948 61.0598 55.7328 59.7471 54.8457 58.5859C54.8457 58.5859 61.0411 61.882 63.955 62.2642C64.2939 62.3075 65.0729 55.362 60.7022 52.1669C56.3314 48.9718 48.9892 51.7774 46.9986 53.5372C46.9986 53.5372 44.7123 53.7392 42.0725 56.9559C39.4328 60.1726 42.0798 67.7312 43.4862 67.724Z" fill="#263238"/>
<path d="M50.1357 56.8543C50.1357 56.71 49.9049 56.71 49.9121 56.8543C49.9538 59.1487 49.514 61.4263 48.6211 63.5402C48.6211 63.5402 48.6644 63.5907 48.6788 63.5402C49.739 61.3981 50.4603 59.2849 50.1357 56.8543Z" fill="#263238"/>
<path d="M58.0835 61.486C54.7009 60.9018 51.8304 59.6757 49.6955 56.8989C49.6522 56.8412 49.5513 56.8989 49.5945 56.9566C51.3111 59.957 54.7514 61.3345 58.0691 61.6158C58.134 61.623 58.1557 61.5004 58.0835 61.486Z" fill="#263238"/>
<path d="M45.5719 67.5812C45.5719 67.5812 43.2567 63.7514 41.5329 64.5592C39.8092 65.367 41.3887 70.7907 43.2927 71.6418C43.5288 71.7686 43.788 71.8463 44.0549 71.8702C44.3217 71.8941 44.5907 71.8637 44.8455 71.7808C45.1002 71.6979 45.3356 71.5642 45.5373 71.3878C45.739 71.2115 45.9029 70.9961 46.019 70.7546L45.5719 67.5812Z" fill="#AD6359"/>
<path d="M42.0215 66.0938C42.0215 66.0938 42.0215 66.1298 42.0215 66.1442C43.3558 66.7861 43.9905 68.0988 44.4088 69.4475C44.3382 69.3049 44.2375 69.1793 44.1135 69.0796C43.9895 68.9798 43.8453 68.9082 43.6909 68.8698C43.5365 68.8313 43.3756 68.827 43.2193 68.857C43.063 68.887 42.9152 68.9507 42.786 69.0436C42.786 69.0436 42.786 69.123 42.786 69.1157C43.0309 69.0558 43.2883 69.0728 43.5232 69.1644C43.7581 69.256 43.9591 69.4179 44.0987 69.6278C44.3284 69.9839 44.5194 70.3635 44.6684 70.7602C44.7261 70.8828 44.9497 70.8323 44.9137 70.688C45.0723 68.9282 43.8823 66.3967 42.0215 66.0938Z" fill="#263238"/>
<path d="M55.7556 87.1613L49.2644 107.306C49.0048 107.89 49.2644 108.402 49.8631 108.438L60.4292 109.159C60.7535 109.157 61.0704 109.062 61.3425 108.886C61.6147 108.709 61.8308 108.459 61.9655 108.164L68.4566 88.0268C68.5344 87.9177 68.5802 87.789 68.589 87.6553C68.5977 87.5215 68.569 87.388 68.5061 87.2697C68.4432 87.1514 68.3485 87.0529 68.2328 86.9853C68.117 86.9178 67.9848 86.8838 67.8508 86.8873L57.2846 86.166C56.9622 86.1723 56.6479 86.2689 56.3776 86.4448C56.1074 86.6207 55.8918 86.869 55.7556 87.1613Z" fill="#37474F"/>
<path d="M57.0095 87.2336L50.5184 107.378C50.2587 107.962 50.5184 108.474 51.117 108.51L61.6831 109.231C62.007 109.227 62.3232 109.132 62.595 108.956C62.8668 108.78 63.0833 108.53 63.2194 108.236L69.7105 88.0919C69.7859 87.9833 69.8299 87.856 69.8379 87.7241C69.8458 87.5921 69.8174 87.4605 69.7556 87.3437C69.6938 87.2268 69.6011 87.1292 69.4876 87.0614C69.374 86.9937 69.2441 86.9584 69.1119 86.9595L58.5385 86.2383C58.2161 86.2445 57.9018 86.3411 57.6315 86.5171C57.3613 86.693 57.1457 86.9413 57.0095 87.2336Z" fill="#455A64"/>
<path d="M59.8376 88.3597C59.8213 88.5355 59.7533 88.7026 59.6422 88.8398C59.5311 88.9771 59.3819 89.0784 59.2133 89.1309C59.0447 89.1835 58.8643 89.185 58.6949 89.1352C58.5255 89.0854 58.3746 88.9866 58.2613 88.8512C58.1479 88.7158 58.0772 88.5499 58.058 88.3743C58.0388 88.1988 58.0721 88.0215 58.1535 87.8648C58.2349 87.7081 58.3609 87.579 58.5155 87.4938C58.6702 87.4086 58.8466 87.3711 59.0226 87.386C59.1402 87.396 59.2547 87.4291 59.3594 87.4835C59.4642 87.538 59.5571 87.6126 59.6329 87.7031C59.7086 87.7936 59.7657 87.8982 59.8009 88.0109C59.836 88.1236 59.8485 88.2421 59.8376 88.3597Z" fill="#263238"/>
<path d="M15.6619 132.036C20.2778 132.671 26.0261 129.086 40.9414 118.196C43.0113 116.696 36.2966 99.2631 34.003 100.763C31.1181 102.646 20.3572 110.579 19.6432 111.257C13.6208 116.991 12.5317 131.611 15.6619 132.036Z" fill="#AD6359"/>
<path d="M28.6797 106.036C28.6797 106.036 32.9278 100.072 36.1301 97.6337C39.5136 95.1824 43.4413 93.5886 47.5762 92.9889C52.0406 92.3326 63.3064 93.8328 63.4434 97.1505C63.5588 100.158 52.1272 98.0448 52.1272 98.0448C52.1272 98.0448 64.143 98.2756 63.6237 101.918C63.1044 105.56 49.9707 102.351 49.9707 102.351C49.9707 102.351 62.3111 102.87 61.1787 106.541C60.3277 109.318 48.2613 107.082 48.2613 107.082C48.2613 107.082 58.8708 107.601 58.1135 110.493C57.2768 113.689 46.0183 112.325 46.0183 112.325C42.8593 119.35 38.3299 121.334 35.041 122.423C34.2765 122.69 28.6797 106.036 28.6797 106.036Z" fill="#AD6359"/>
<path d="M48.001 97.6981C49.4435 97.6981 50.8427 97.6404 52.2563 97.7413C53.6699 97.8423 55.0763 97.9938 56.4683 98.2246C58.2965 98.5008 60.0871 98.9847 61.8055 99.667C58.6681 98.6934 53.6266 98.2246 52.213 98.1452C50.7994 98.0659 49.4074 97.8711 48.001 97.7702C47.9649 97.7485 47.9721 97.6981 48.001 97.6981Z" fill="#263238"/>
<path d="M47.5763 102.775C49.3794 102.826 51.1825 102.775 52.9784 102.934C54.7743 103.093 56.462 103.338 58.2435 103.59C58.3805 103.59 58.3228 103.677 58.1858 103.663C56.3971 103.482 54.731 103.453 52.9352 103.295C51.1393 103.136 49.329 102.912 47.5691 102.819C47.5114 102.819 47.5186 102.775 47.5763 102.775Z" fill="#263238"/>
<path d="M46.3648 107.068C49.1348 107.073 51.8971 107.361 54.6086 107.927C54.7456 107.927 54.6591 108.035 54.5221 108.013C51.7886 107.674 49.6465 107.386 46.3648 107.155C46.3143 107.162 46.3071 107.076 46.3648 107.068Z" fill="#263238"/>
<path d="M28.68 103.664L34.5942 125.085C34.5942 125.085 18.8207 134.367 15.3371 131.908C11.8535 129.448 14.1326 117.086 18.0778 112.369C19.6862 110.408 28.68 103.664 28.68 103.664Z" fill="#FFC533"/>
<path d="M28.8737 104.378L28.6429 103.656H28.7006C27.2077 104.875 25.7147 106.08 24.2434 107.306C22.772 108.532 21.2935 109.758 19.9159 111.056C19.2048 111.686 18.5351 112.36 17.9109 113.076C17.3167 113.811 16.7858 114.595 16.3241 115.42C15.3992 117.112 14.7492 118.94 14.3984 120.836C14.5509 118.899 15.0749 117.008 15.9419 115.268C16.3775 114.393 16.9046 113.566 17.5142 112.802C18.1388 112.055 18.8135 111.351 19.5337 110.696C20.9761 109.397 22.4186 108.186 23.9765 107.003C25.5344 105.82 27.0634 104.702 28.6646 103.635H28.7078V103.685L28.8737 104.378Z" fill="#263238"/>
<path d="M25.2171 108.98C25.5777 110.033 25.8446 111.144 26.1475 112.19C26.4504 113.235 26.7317 114.353 27.0058 115.413C27.5467 117.577 28.0804 119.741 28.5925 121.905C28.7295 122.496 28.8665 123.095 28.9964 123.686C29.1262 124.278 29.1911 124.977 29.3281 125.612C29.3281 125.617 29.3272 125.621 29.3254 125.626C29.3236 125.63 29.3209 125.634 29.3176 125.637C29.3142 125.641 29.3103 125.643 29.3059 125.645C29.3015 125.647 29.2968 125.648 29.2921 125.648C29.2873 125.648 29.2827 125.647 29.2783 125.645C29.2739 125.643 29.2699 125.641 29.2666 125.637C29.2632 125.634 29.2606 125.63 29.2588 125.626C29.2569 125.621 29.256 125.617 29.256 125.612C29.1118 125.085 28.8882 124.573 28.7367 124.054C28.5853 123.535 28.4266 122.958 28.2823 122.409C28.0011 121.335 27.7198 120.246 27.4457 119.178C26.8976 117.015 26.3566 114.851 25.8806 112.687C25.6065 111.454 25.3036 110.228 25.1017 108.987C25.1007 108.972 25.1059 108.957 25.116 108.945C25.1262 108.934 25.1405 108.927 25.1558 108.926C25.1711 108.925 25.1861 108.93 25.1976 108.94C25.2091 108.95 25.2161 108.965 25.2171 108.98Z" fill="#263238"/>
<path d="M34.5935 125.085C34.6945 125.287 34.6873 125.085 34.6657 124.991C34.644 124.897 34.3988 123.83 34.1752 123.181C34.1752 123.116 34.0526 123 34.0887 123.231C34.2227 123.858 34.3912 124.477 34.5935 125.085Z" fill="#263238"/>
</svg>
