<svg width="300" height="300" viewBox="0 0 300 300" fill="none" xmlns="http://www.w3.org/2000/svg">
<path d="M170.091 286.708H142.461L147.771 258.227V245.812H164.775V258.227L170.091 286.708Z" fill="#9A9898"/>
<path d="M165.517 244.176H147.031V245.808H165.517V244.176Z" fill="#C7C7C7"/>
<path d="M156.272 258.19C155.766 258.196 155.264 258.101 154.796 257.91C154.328 257.718 153.903 257.435 153.546 257.076C153.19 256.717 152.909 256.291 152.721 255.821C152.532 255.352 152.44 254.849 152.45 254.344C152.45 253.328 152.853 252.355 153.571 251.637C154.289 250.919 155.263 250.516 156.278 250.516C157.293 250.516 158.267 250.919 158.985 251.637C159.703 252.355 160.106 253.328 160.106 254.344C160.115 254.85 160.022 255.353 159.832 255.823C159.643 256.293 159.361 256.72 159.004 257.079C158.646 257.437 158.22 257.721 157.751 257.912C157.281 258.102 156.778 258.197 156.272 258.19Z" fill="white"/>
<path d="M154.646 257.134L155.084 256.324C155.252 256.024 155.414 255.724 155.582 255.418C155.79 255.545 156.029 255.612 156.272 255.612C156.516 255.612 156.755 255.545 156.962 255.418C157.28 256.018 157.562 256.552 157.904 257.128C157.408 257.412 156.845 257.559 156.272 257.554C155.703 257.557 155.143 257.413 154.646 257.134Z" fill="#C7C7C7"/>
<path d="M156.906 253.25L157.89 251.6C158.362 251.88 158.755 252.275 159.033 252.748C159.311 253.221 159.465 253.757 159.48 254.306H157.548C157.535 254.091 157.469 253.883 157.357 253.699C157.245 253.515 157.091 253.361 156.906 253.25Z" fill="#C7C7C7"/>
<path d="M153.074 254.274C153.093 253.725 153.251 253.19 153.534 252.719C153.816 252.248 154.213 251.856 154.688 251.58L155.672 253.236C155.486 253.343 155.329 253.493 155.214 253.674C155.099 253.854 155.03 254.06 155.012 254.274H153.074Z" fill="#C7C7C7"/>
<path d="M156.28 255.198C156.168 255.2 156.057 255.179 155.953 255.136C155.849 255.094 155.755 255.031 155.676 254.952C155.597 254.872 155.535 254.778 155.493 254.674C155.452 254.569 155.431 254.458 155.434 254.346C155.434 254.122 155.523 253.906 155.682 253.748C155.84 253.589 156.055 253.5 156.28 253.5C156.504 253.5 156.719 253.589 156.878 253.748C157.037 253.906 157.126 254.122 157.126 254.346C157.127 254.458 157.107 254.569 157.065 254.673C157.023 254.776 156.961 254.871 156.882 254.95C156.803 255.029 156.709 255.092 156.606 255.135C156.503 255.177 156.392 255.199 156.28 255.198Z" fill="#C7C7C7"/>
<path d="M200.591 286.708H172.961L178.277 258.227V245.812H195.281V258.227L200.591 286.708Z" fill="#9A9898"/>
<path d="M196.021 244.176H177.535V245.808H196.021V244.176Z" fill="#C7C7C7"/>
<path d="M186.774 258.183C186.268 258.189 185.766 258.094 185.297 257.903C184.829 257.712 184.403 257.428 184.046 257.07C183.689 256.711 183.408 256.284 183.219 255.815C183.03 255.345 182.937 254.843 182.946 254.337C182.985 253.347 183.406 252.411 184.12 251.724C184.834 251.038 185.786 250.654 186.777 250.654C187.767 250.654 188.72 251.038 189.434 251.724C190.148 252.411 190.569 253.347 190.608 254.337C190.617 254.843 190.524 255.346 190.334 255.816C190.145 256.286 189.863 256.713 189.506 257.072C189.148 257.431 188.722 257.714 188.253 257.905C187.783 258.095 187.28 258.19 186.774 258.183Z" fill="white"/>
<path d="M185.148 257.126L185.586 256.316C185.748 256.016 185.916 255.716 186.084 255.41C186.292 255.537 186.531 255.604 186.774 255.604C187.018 255.604 187.257 255.537 187.464 255.41C187.782 256.01 188.064 256.544 188.406 257.12C187.909 257.399 187.348 257.546 186.777 257.546C186.207 257.546 185.646 257.399 185.148 257.12V257.126Z" fill="#C7C7C7"/>
<path d="M187.408 253.248L188.392 251.598C188.864 251.878 189.257 252.273 189.535 252.746C189.813 253.219 189.967 253.755 189.982 254.304H188.05C188.035 254.089 187.969 253.882 187.857 253.698C187.745 253.514 187.592 253.36 187.408 253.248Z" fill="#C7C7C7"/>
<path d="M183.594 254.266C183.613 253.717 183.771 253.182 184.053 252.711C184.336 252.24 184.733 251.848 185.208 251.572L186.186 253.228C186.001 253.336 185.844 253.486 185.729 253.667C185.615 253.848 185.545 254.053 185.526 254.266H183.594Z" fill="#C7C7C7"/>
<path d="M186.78 255.188C186.668 255.19 186.556 255.169 186.453 255.126C186.349 255.084 186.255 255.021 186.176 254.942C186.097 254.862 186.035 254.768 185.993 254.664C185.952 254.56 185.931 254.448 185.934 254.336C185.937 254.115 186.026 253.904 186.181 253.748C186.337 253.591 186.547 253.501 186.768 253.496C186.993 253.496 187.21 253.585 187.37 253.743C187.531 253.901 187.623 254.117 187.626 254.342C187.627 254.453 187.605 254.564 187.563 254.667C187.521 254.77 187.458 254.863 187.38 254.942C187.301 255.021 187.207 255.083 187.104 255.125C187.001 255.168 186.891 255.189 186.78 255.188Z" fill="#C7C7C7"/>
<path opacity="0.5" d="M69.4258 208.195V186.769C69.4258 181.915 73.5178 176.107 74.3998 172.573C75.2818 169.039 73.7038 162.121 77.9338 159.019C82.1638 155.917 85.2178 158.185 89.4958 153.895C93.7738 149.605 102.99 143.731 109.17 149.851C115.35 155.971 106.542 164.347 105.282 166.141C104.022 167.935 105.228 172.141 101.682 175.591C99.2158 177.991 94.1758 177.013 91.1578 179.485C88.8238 181.399 88.0258 186.205 84.3658 187.843C80.7058 189.481 76.6558 188.827 74.7118 190.675C69.9118 195.199 70.2598 206.815 70.2598 208.171L69.4258 208.195Z" fill="#EBEBEB"/>
<path opacity="0.5" d="M93.3945 208.195V197.641C93.3945 192.781 99.2025 192.709 100.085 189.175C100.967 185.641 101.207 181.435 105.371 178.243C109.535 175.051 112.967 175.843 114.815 174.085C117.299 171.739 118.001 169.375 120.503 166.315C123.665 162.457 129.449 162.859 131.213 165.955C133.787 170.473 128.723 173.917 127.463 175.711C126.203 177.505 129.197 182.989 125.663 186.457C123.197 188.857 118.157 187.885 115.139 190.357C112.805 192.265 112.955 195.247 109.295 196.885C105.635 198.523 102.743 195.799 98.6445 197.761C95.7525 199.141 94.2405 206.815 94.2405 208.171L93.3945 208.195Z" fill="#EBEBEB"/>
<path d="M56.161 286.705H95.293V236.413H56.161L56.161 286.705Z" fill="#9A9898"/>
<path opacity="0.4" d="M56.161 286.705H95.293V236.413H56.161L56.161 286.705Z" fill="white"/>
<path d="M56.161 237.766H95.293V236.422H56.161V237.766Z" fill="#9A9898"/>
<path d="M86.0033 244.258H91.6133V239.728H86.0033V244.258Z" fill="#9A9898"/>
<path d="M77.2767 244.258H82.8867V239.728H77.2767V244.258Z" fill="#9A9898"/>
<path d="M68.556 244.258H74.166V239.728H68.556V244.258Z" fill="#9A9898"/>
<path d="M59.8255 244.258H65.4355V239.728H59.8255V244.258Z" fill="#9A9898"/>
<path d="M59.8301 240.084V242.292L62.2601 244.26H65.0021L59.8301 240.084Z" fill="white"/>
<path d="M77.2812 239.732V239.78L82.8252 244.262H82.8912V243.2L78.5892 239.732H77.2812Z" fill="white"/>
<path d="M77.2812 241.881V242.433L79.5372 244.263H80.2273L77.2812 241.881Z" fill="white"/>
<path d="M86.002 239.84V240.386L90.802 244.262H91.48L86.002 239.84Z" fill="white"/>
<path d="M61.5547 239.732L65.4427 242.87V242.312L62.2447 239.732H61.5547Z" fill="white"/>
<path d="M79.2623 209.23H84.5543L86.4143 236.416H77.4023L79.2623 209.23Z" fill="#9A9898"/>
<path d="M78.6641 218.035H85.1621L84.9101 214.459H78.9101L78.6641 218.035Z" fill="#C7C7C7"/>
<path d="M78.7562 209.23H85.0742V208.168H78.7562V209.23Z" fill="#C7C7C7"/>
<path d="M67.2565 209.23H72.5485L74.4025 236.416H65.3965L67.2565 209.23Z" fill="#9A9898"/>
<path d="M66.6523 218.035H73.1503L72.9043 214.459H66.8983L66.6523 218.035Z" fill="#C7C7C7"/>
<path d="M66.7445 209.23H73.0625V208.168H66.7445V209.23Z" fill="#C7C7C7"/>
<path d="M91.2741 209.23H96.5601L98.4201 236.416H89.4141L91.2741 209.23Z" fill="#9A9898"/>
<path d="M90.6699 218.035H97.1679L96.9219 214.459H90.9159L90.6699 218.035Z" fill="#C7C7C7"/>
<path d="M90.764 209.23H97.082V208.168H90.764V209.23Z" fill="#C7C7C7"/>
<path d="M95.2894 286.705H111.441V236.413H95.2894V286.705Z" fill="#9A9898"/>
<path opacity="0.2" d="M95.2894 286.705H111.441V236.413H95.2894V286.705Z" fill="white"/>
<path d="M95.2894 237.766H111.441V236.422H95.2894V237.766Z" fill="#9A9898"/>
<path d="M100.558 244.258H106.168V239.728H100.558V244.258Z" fill="#9A9898"/>
<path d="M100.562 240.66V242.88L102.272 244.26H105.014L100.562 240.66Z" fill="white"/>
<path opacity="0.5" d="M81.3223 208.198C81.3223 200.998 78.6043 195.106 79.6003 190.048C80.5963 184.99 86.7103 183.448 87.8863 180.076C89.0623 176.704 86.9383 166.792 90.8023 161.476C94.6663 156.16 105.412 157.678 109.75 154.426C112.714 152.206 115.066 147.79 119.104 145.888C123.04 144.04 127.504 145.672 129.994 144.58C133.696 142.942 140.542 137.23 145.984 143.224C149.644 147.25 148.108 155.062 140.02 157.228C137.836 157.828 134.62 158.842 133.108 160.078C129.958 162.682 129.202 166.078 124.66 167.44C117.976 169.426 115.444 167.89 112.102 170.374C109.342 172.426 109.84 178.282 107.044 180.724C104.248 183.166 98.4103 183.124 96.0583 184.684C93.7063 186.244 93.4303 188.47 90.3883 190.684C88.9303 191.752 85.5883 191.716 84.6763 193.168C82.7083 196.36 82.2763 201.922 82.2763 208.168L81.3223 208.198Z" fill="#9A9898"/>
<path d="M101.739 286.705H117.891V245.371H101.739V286.705Z" fill="#9A9898"/>
<path opacity="0.4" d="M101.739 286.705H117.891V245.371H101.739V286.705Z" fill="white"/>
<path d="M101.739 246.715H117.891V245.371H101.739V246.715Z" fill="#9A9898"/>
<path d="M105.128 260.23H114.512V249.244H105.128V260.23Z" fill="#9A9898"/>
<path d="M108.434 249.238L114.506 254.14V251.926L111.176 249.238H108.434Z" fill="white"/>
<path d="M105.254 249.238L114.506 256.708V256.156L105.938 249.238H105.254Z" fill="white"/>
<path d="M105.123 255.273V255.825L110.577 260.229H111.261L105.123 255.273Z" fill="white"/>
<path d="M49.7003 286.705H101.738V245.371H49.7003L49.7003 286.705Z" fill="#9A9898"/>
<path opacity="0.6" d="M49.7003 286.705H101.738V245.371H49.7003L49.7003 286.705Z" fill="white"/>
<path d="M49.7003 246.715H101.738V245.371H49.7003V246.715Z" fill="#9A9898"/>
<path d="M88.9676 260.23H98.3516V249.244H88.9676V260.23Z" fill="#9A9898"/>
<path d="M77.0027 260.23H86.3867V249.244H77.0027V260.23Z" fill="#9A9898"/>
<path d="M65.0496 260.23H74.4336V249.244H65.0496V260.23Z" fill="#9A9898"/>
<path d="M53.0965 260.23H62.4805V249.244H53.0965V260.23Z" fill="#9A9898"/>
<path d="M74.4289 259.517L65.0449 251.939V254.153L72.5629 260.225H74.4289V259.517Z" fill="white"/>
<path d="M58.9609 249.238L62.4829 252.082V249.868L61.6969 249.238H58.9609Z" fill="white"/>
<path d="M84.7817 260.227L77.0117 253.951V256.165L82.0457 260.227H84.7817Z" fill="white"/>
<path d="M68.4297 249.238L74.4357 254.086V251.878L71.1717 249.238H68.4297Z" fill="white"/>
<path d="M88.9902 249.238L98.3442 256.792V255.682L90.3642 249.238H88.9902Z" fill="white"/>
<path d="M53.0918 251.035V252.145L62.4818 259.723V258.613L53.0918 251.035Z" fill="white"/>
<path d="M98.3449 258.892L88.9609 251.314V251.866L98.3449 259.45V258.892Z" fill="white"/>
<path d="M85.6992 249.238L86.3892 249.796V249.238H85.6992Z" fill="white"/>
<path d="M96.9648 249.238L98.3448 250.354V249.802L97.6488 249.238H96.9648Z" fill="white"/>
<path d="M53.0918 255.816V256.368L57.8678 260.226H58.5518L53.0918 255.816Z" fill="white"/>
<path d="M86.3957 259.224L77.0117 251.646V252.204L86.3957 259.782V259.224Z" fill="white"/>
<path d="M73.332 249.238L74.436 250.132V249.574L74.022 249.238H73.332Z" fill="white"/>
<path d="M30.0195 286.706H49.6995V245.372L30.0195 237.668V286.706Z" fill="#9A9898"/>
<path opacity="0.6" d="M30.0195 286.706H49.6995V245.372L30.0195 237.668V286.706Z" fill="white"/>
<path d="M49.6995 245.372V246.716L30.0195 241.088V237.668L49.6995 245.372Z" fill="#9A9898"/>
<path d="M29.6126 263.242H117.891V262.408H29.6126V263.242Z" fill="#9A9898"/>
<path d="M29.6126 266.055H117.891V265.221H29.6126V266.055Z" fill="#9A9898"/>
<path d="M116.391 265.211H116.895V263.237H116.391V265.211Z" fill="#9A9898"/>
<path d="M114.105 265.211H114.609V263.237H114.105V265.211Z" fill="#9A9898"/>
<path d="M111.82 265.211H112.324V263.237H111.82V265.211Z" fill="#9A9898"/>
<path d="M109.541 265.211H110.045V263.237H109.541V265.211Z" fill="#9A9898"/>
<path d="M107.256 265.211H107.76V263.237H107.256V265.211Z" fill="#9A9898"/>
<path d="M104.971 265.211H105.475V263.237H104.971V265.211Z" fill="#9A9898"/>
<path d="M102.685 265.211H103.189V263.237H102.685V265.211Z" fill="#9A9898"/>
<path d="M100.4 265.211H100.904V263.237H100.4V265.211Z" fill="#9A9898"/>
<path d="M98.1151 265.211H98.6191V263.237H98.1151V265.211Z" fill="#9A9898"/>
<path d="M95.8397 265.211H96.3438V263.237H95.8397V265.211Z" fill="#9A9898"/>
<path d="M93.5585 265.211H94.0625V263.237H93.5585V265.211Z" fill="#9A9898"/>
<path d="M91.2733 265.211H91.7773V263.237H91.2733V265.211Z" fill="#9A9898"/>
<path d="M88.9882 265.211H89.4922V263.237H88.9882V265.211Z" fill="#9A9898"/>
<path d="M86.6991 265.211H87.2031V263.237H86.6991V265.211Z" fill="#9A9898"/>
<path d="M84.4179 265.211H84.9219V263.237H84.4179V265.211Z" fill="#9A9898"/>
<path d="M82.1386 265.211H82.6426V263.237H82.1386V265.211Z" fill="#9A9898"/>
<path d="M79.8534 265.211H80.3574V263.237H79.8534V265.211Z" fill="#9A9898"/>
<path d="M77.5741 265.211H78.0781V263.237H77.5741V265.211Z" fill="#9A9898"/>
<path d="M75.2773 265.211H75.7812V263.237H75.2773V265.211Z" fill="#9A9898"/>
<path d="M73.0038 265.211H73.5078V263.237H73.0038V265.211Z" fill="#9A9898"/>
<path d="M70.7187 265.211H71.2227V263.237H70.7187V265.211Z" fill="#9A9898"/>
<path d="M68.4335 265.211H68.9375V263.237H68.4335V265.211Z" fill="#9A9898"/>
<path d="M66.1523 265.211H66.6562V263.237H66.1523V265.211Z" fill="#9A9898"/>
<path d="M63.8632 265.211H64.3672V263.237H63.8632V265.211Z" fill="#9A9898"/>
<path d="M61.5819 265.211H62.0859V263.237H61.5819V265.211Z" fill="#9A9898"/>
<path d="M59.3065 265.211H59.8105V263.237H59.3065V265.211Z" fill="#9A9898"/>
<path d="M57.0214 265.211H57.5254V263.237H57.0214V265.211Z" fill="#9A9898"/>
<path d="M54.7362 265.211H55.2402V263.237H54.7362V265.211Z" fill="#9A9898"/>
<path d="M52.4413 265.211H52.9453V263.237H52.4413V265.211Z" fill="#9A9898"/>
<path d="M50.1659 265.211H50.6699V263.237H50.1659V265.211Z" fill="#9A9898"/>
<path d="M47.8866 265.211H48.3906V263.237H47.8866V265.211Z" fill="#9A9898"/>
<path d="M45.6015 265.211H46.1055V263.237H45.6015V265.211Z" fill="#9A9898"/>
<path d="M43.3202 265.211H43.8242V263.237H43.3202V265.211Z" fill="#9A9898"/>
<path d="M41.0351 265.211H41.5391V263.237H41.0351V265.211Z" fill="#9A9898"/>
<path d="M38.7499 265.211H39.2539V263.237H38.7499V265.211Z" fill="#9A9898"/>
<path d="M36.4647 265.211H36.9688V263.237H36.4647V265.211Z" fill="#9A9898"/>
<path d="M34.1796 265.211H34.6836V263.237H34.1796V265.211Z" fill="#9A9898"/>
<path d="M31.8983 265.211H32.4023V263.237H31.8983V265.211Z" fill="#9A9898"/>
<path d="M29.6132 265.211H30.1172V263.237H29.6132V265.211Z" fill="#9A9898"/>
<path d="M40.6211 286.702H42.7931V254.62C42.7931 254.481 42.8481 254.349 42.946 254.251C43.0439 254.153 43.1767 254.098 43.3151 254.098H44.6591V251.92H43.3151C42.6001 251.922 41.9148 252.207 41.4098 252.713C40.9047 253.219 40.6211 253.905 40.6211 254.62V286.702Z" fill="#9A9898"/>
<path opacity="0.1" d="M40.6211 286.702H42.7931V254.62C42.7931 254.481 42.8481 254.349 42.946 254.251C43.0439 254.153 43.1767 254.098 43.3151 254.098H44.6591V251.92H43.3151C42.6001 251.922 41.9148 252.207 41.4098 252.713C40.9047 253.219 40.6211 253.905 40.6211 254.62V286.702Z" fill="black"/>
<g opacity="0.1">
<path d="M43.7366 254.1C43.6347 253.377 43.6347 252.644 43.7366 251.922C43.8384 252.644 43.8384 253.377 43.7366 254.1Z" fill="black"/>
<path d="M42.7892 256.071C42.0688 256.173 41.3376 256.173 40.6172 256.071C41.3376 255.969 42.0688 255.969 42.7892 256.071Z" fill="black"/>
<path d="M42.7892 257.125C42.0686 257.224 41.3378 257.224 40.6172 257.125C41.3376 257.023 42.0688 257.023 42.7892 257.125Z" fill="black"/>
<path d="M42.7892 258.178C42.0688 258.28 41.3376 258.28 40.6172 258.178C41.3378 258.079 42.0686 258.079 42.7892 258.178Z" fill="black"/>
<path d="M42.7892 259.229C42.0688 259.331 41.3376 259.331 40.6172 259.229C41.3376 259.127 42.0688 259.127 42.7892 259.229Z" fill="black"/>
<path d="M42.7892 260.289C42.0688 260.391 41.3376 260.391 40.6172 260.289C41.3376 260.187 42.0688 260.187 42.7892 260.289Z" fill="black"/>
<path d="M42.7892 261.34C42.0688 261.442 41.3376 261.442 40.6172 261.34C41.338 261.244 42.0684 261.244 42.7892 261.34Z" fill="black"/>
<path d="M42.7892 262.393C42.0688 262.495 41.3376 262.495 40.6172 262.393C41.3376 262.291 42.0688 262.291 42.7892 262.393Z" fill="black"/>
<path d="M42.7892 263.448C42.0688 263.55 41.3376 263.55 40.6172 263.448C41.3376 263.346 42.0688 263.346 42.7892 263.448Z" fill="black"/>
<path d="M42.7892 264.502C42.0684 264.598 41.338 264.598 40.6172 264.502C41.3376 264.4 42.0688 264.4 42.7892 264.502Z" fill="black"/>
<path d="M42.7892 265.553C42.0688 265.655 41.3376 265.655 40.6172 265.553C41.3376 265.451 42.0688 265.451 42.7892 265.553Z" fill="black"/>
<path d="M42.7892 266.608C42.0688 266.71 41.3376 266.71 40.6172 266.608C41.3376 266.506 42.0688 266.506 42.7892 266.608Z" fill="black"/>
<path d="M42.7892 267.666C42.0686 267.765 41.3378 267.765 40.6172 267.666C41.3376 267.564 42.0688 267.564 42.7892 267.666Z" fill="black"/>
<path d="M42.7892 268.715C42.0688 268.817 41.3376 268.817 40.6172 268.715C41.3378 268.616 42.0686 268.616 42.7892 268.715Z" fill="black"/>
<path d="M42.7892 269.772C42.0688 269.874 41.3376 269.874 40.6172 269.772C41.3376 269.67 42.0688 269.67 42.7892 269.772Z" fill="black"/>
<path d="M42.7892 270.827C42.0686 270.925 41.3378 270.925 40.6172 270.827C41.3376 270.724 42.0688 270.724 42.7892 270.827Z" fill="black"/>
<path d="M42.7892 271.879C42.0688 271.981 41.3376 271.981 40.6172 271.879C41.3378 271.78 42.0686 271.78 42.7892 271.879Z" fill="black"/>
<path d="M42.7892 272.936C42.0688 273.038 41.3376 273.038 40.6172 272.936C41.3376 272.834 42.0688 272.834 42.7892 272.936Z" fill="black"/>
<path d="M42.7892 273.991C42.0688 274.093 41.3376 274.093 40.6172 273.991C41.3376 273.889 42.0688 273.889 42.7892 273.991Z" fill="black"/>
<path d="M42.7892 275.041C42.0688 275.143 41.3376 275.143 40.6172 275.041C41.338 274.945 42.0684 274.945 42.7892 275.041Z" fill="black"/>
<path d="M42.7892 276.1C42.0688 276.202 41.3376 276.202 40.6172 276.1C41.3376 275.998 42.0688 275.998 42.7892 276.1Z" fill="black"/>
<path d="M42.7892 277.155C42.0688 277.257 41.3376 277.257 40.6172 277.155C41.3376 277.053 42.0688 277.053 42.7892 277.155Z" fill="black"/>
<path d="M42.7892 278.209C42.0684 278.305 41.338 278.305 40.6172 278.209C41.3376 278.107 42.0688 278.107 42.7892 278.209Z" fill="black"/>
<path d="M42.7892 279.254C42.0688 279.356 41.3376 279.356 40.6172 279.254C41.3376 279.152 42.0688 279.152 42.7892 279.254Z" fill="black"/>
<path d="M42.7892 280.319C42.0688 280.421 41.3376 280.421 40.6172 280.319C41.3376 280.217 42.0688 280.217 42.7892 280.319Z" fill="black"/>
<path d="M42.7892 281.393C42.0686 281.492 41.3378 281.492 40.6172 281.393C41.3376 281.291 42.0688 281.291 42.7892 281.393Z" fill="black"/>
<path d="M42.7892 282.426C42.0688 282.528 41.3376 282.528 40.6172 282.426C41.3378 282.327 42.0686 282.327 42.7892 282.426Z" fill="black"/>
<path d="M42.7892 283.473C42.0688 283.575 41.3376 283.575 40.6172 283.473C41.3376 283.371 42.0688 283.371 42.7892 283.473Z" fill="black"/>
<path d="M42.7892 284.528C42.0686 284.627 41.3378 284.627 40.6172 284.528C41.3376 284.426 42.0688 284.426 42.7892 284.528Z" fill="black"/>
<path d="M42.7892 285.594C42.0688 285.696 41.3376 285.696 40.6172 285.594C41.3378 285.495 42.0686 285.495 42.7892 285.594Z" fill="black"/>
<path d="M43.0291 254.178C42.5605 253.622 42.1708 253.004 41.8711 252.342C42.3408 252.897 42.7306 253.515 43.0291 254.178Z" fill="black"/>
<path d="M42.8009 254.508C42.0983 254.324 41.4241 254.046 40.7969 253.68C41.5043 253.86 42.1829 254.139 42.8129 254.508H42.8009Z" fill="black"/>
<path d="M42.7892 254.994C42.0721 255.119 41.3414 255.145 40.6172 255.072C41.3336 254.941 42.0652 254.915 42.7892 254.994Z" fill="black"/>
</g>
<path d="M35.0742 286.702H37.2462V254.62C37.2462 254.481 37.3012 254.349 37.3991 254.251C37.497 254.153 37.6298 254.098 37.7682 254.098H39.1062V251.92H37.7982C37.0832 251.922 36.398 252.207 35.8929 252.713C35.3879 253.219 35.1042 253.905 35.1042 254.62L35.0742 286.702Z" fill="#9A9898"/>
<path opacity="0.1" d="M35.0742 286.702H37.2462V254.62C37.2462 254.481 37.3012 254.349 37.3991 254.251C37.497 254.153 37.6298 254.098 37.7682 254.098H39.1062V251.92H37.7982C37.0832 251.922 36.398 252.207 35.8929 252.713C35.3879 253.219 35.1042 253.905 35.1042 254.62L35.0742 286.702Z" fill="black"/>
<g opacity="0.1">
<path d="M38.1897 254.1C38.0878 253.377 38.0878 252.644 38.1897 251.922C38.2915 252.644 38.2915 253.377 38.1897 254.1Z" fill="black"/>
<path d="M37.2423 256.071C36.5219 256.173 35.7907 256.173 35.0703 256.071C35.7907 255.969 36.5219 255.969 37.2423 256.071Z" fill="black"/>
<path d="M37.2423 257.125C36.5217 257.224 35.7909 257.224 35.0703 257.125C35.7907 257.023 36.5219 257.023 37.2423 257.125Z" fill="black"/>
<path d="M37.2423 258.178C36.5219 258.28 35.7907 258.28 35.0703 258.178C35.7909 258.079 36.5217 258.079 37.2423 258.178Z" fill="black"/>
<path d="M37.2423 259.229C36.5219 259.331 35.7907 259.331 35.0703 259.229C35.7907 259.127 36.5219 259.127 37.2423 259.229Z" fill="black"/>
<path d="M37.2423 260.289C36.5219 260.391 35.7907 260.391 35.0703 260.289C35.7907 260.187 36.5219 260.187 37.2423 260.289Z" fill="black"/>
<path d="M37.2423 261.34C36.5219 261.442 35.7907 261.442 35.0703 261.34C35.7911 261.244 36.5215 261.244 37.2423 261.34Z" fill="black"/>
<path d="M37.2423 262.393C36.5219 262.495 35.7907 262.495 35.0703 262.393C35.7907 262.291 36.5219 262.291 37.2423 262.393Z" fill="black"/>
<path d="M37.2423 263.448C36.5219 263.55 35.7907 263.55 35.0703 263.448C35.7907 263.346 36.5219 263.346 37.2423 263.448Z" fill="black"/>
<path d="M37.2423 264.502C36.5215 264.598 35.7911 264.598 35.0703 264.502C35.7907 264.4 36.5219 264.4 37.2423 264.502Z" fill="black"/>
<path d="M37.2423 265.553C36.5219 265.655 35.7907 265.655 35.0703 265.553C35.7907 265.451 36.5219 265.451 37.2423 265.553Z" fill="black"/>
<path d="M37.2423 266.608C36.5219 266.71 35.7907 266.71 35.0703 266.608C35.7907 266.506 36.5219 266.506 37.2423 266.608Z" fill="black"/>
<path d="M37.2423 267.666C36.5217 267.765 35.7909 267.765 35.0703 267.666C35.7907 267.564 36.5219 267.564 37.2423 267.666Z" fill="black"/>
<path d="M37.2423 268.715C36.5219 268.817 35.7907 268.817 35.0703 268.715C35.7909 268.616 36.5217 268.616 37.2423 268.715Z" fill="black"/>
<path d="M37.2423 269.772C36.5219 269.874 35.7907 269.874 35.0703 269.772C35.7907 269.67 36.5219 269.67 37.2423 269.772Z" fill="black"/>
<path d="M37.2423 270.827C36.5217 270.925 35.7909 270.925 35.0703 270.827C35.7907 270.724 36.5219 270.724 37.2423 270.827Z" fill="black"/>
<path d="M37.2423 271.879C36.5219 271.981 35.7907 271.981 35.0703 271.879C35.7909 271.78 36.5217 271.78 37.2423 271.879Z" fill="black"/>
<path d="M37.2423 272.936C36.5219 273.038 35.7907 273.038 35.0703 272.936C35.7907 272.834 36.5219 272.834 37.2423 272.936Z" fill="black"/>
<path d="M37.2423 273.991C36.5219 274.093 35.7907 274.093 35.0703 273.991C35.7907 273.889 36.5219 273.889 37.2423 273.991Z" fill="black"/>
<path d="M37.2423 275.041C36.5219 275.143 35.7907 275.143 35.0703 275.041C35.7911 274.945 36.5215 274.945 37.2423 275.041Z" fill="black"/>
<path d="M37.2423 276.1C36.5219 276.202 35.7907 276.202 35.0703 276.1C35.7907 275.998 36.5219 275.998 37.2423 276.1Z" fill="black"/>
<path d="M37.2423 277.155C36.5219 277.257 35.7907 277.257 35.0703 277.155C35.7907 277.053 36.5219 277.053 37.2423 277.155Z" fill="black"/>
<path d="M37.2423 278.209C36.5215 278.305 35.7911 278.305 35.0703 278.209C35.7907 278.107 36.5219 278.107 37.2423 278.209Z" fill="black"/>
<path d="M37.2423 279.254C36.5219 279.356 35.7907 279.356 35.0703 279.254C35.7907 279.152 36.5219 279.152 37.2423 279.254Z" fill="black"/>
<path d="M37.2423 280.319C36.5219 280.421 35.7907 280.421 35.0703 280.319C35.7907 280.217 36.5219 280.217 37.2423 280.319Z" fill="black"/>
<path d="M37.2423 281.393C36.5217 281.492 35.7909 281.492 35.0703 281.393C35.7907 281.291 36.5219 281.291 37.2423 281.393Z" fill="black"/>
<path d="M37.2423 282.426C36.5219 282.528 35.7907 282.528 35.0703 282.426C35.7909 282.327 36.5217 282.327 37.2423 282.426Z" fill="black"/>
<path d="M37.2423 283.473C36.5219 283.575 35.7907 283.575 35.0703 283.473C35.7907 283.371 36.5219 283.371 37.2423 283.473Z" fill="black"/>
<path d="M37.2423 284.528C36.5217 284.627 35.7909 284.627 35.0703 284.528C35.7907 284.426 36.5219 284.426 37.2423 284.528Z" fill="black"/>
<path d="M37.2423 285.594C36.5219 285.696 35.7907 285.696 35.0703 285.594C35.7909 285.495 36.5217 285.495 37.2423 285.594Z" fill="black"/>
<path d="M37.4822 254.178C37.0136 253.622 36.6239 253.004 36.3242 252.342C36.7939 252.897 37.1837 253.515 37.4822 254.178Z" fill="black"/>
<path d="M37.2582 254.508C36.5515 254.325 35.8732 254.047 35.2422 253.68C35.9493 253.861 36.6277 254.14 37.2582 254.508Z" fill="black"/>
<path d="M37.2423 254.994C36.5253 255.119 35.7945 255.145 35.0703 255.072C35.7867 254.941 36.5183 254.915 37.2423 254.994Z" fill="black"/>
</g>
<path d="M104.396 286.705H125.852V273.613H104.396V286.705Z" fill="#9A9898"/>
<path opacity="0.4" d="M104.396 286.705H125.852V273.613H104.396V286.705Z" fill="white"/>
<path d="M104.396 274.961H125.852V273.617H104.396V274.961Z" fill="#9A9898"/>
<path d="M116.558 281.465H122.168V276.935H116.558V281.465Z" fill="#9A9898"/>
<path d="M107.843 281.465H113.453V276.935H107.843V281.465Z" fill="#9A9898"/>
<path d="M107.838 276.926V276.98L113.388 281.456H113.448V280.4L109.146 276.926H107.838Z" fill="white"/>
<path d="M107.838 279.078V279.63L110.1 281.454H110.784L107.838 279.078Z" fill="white"/>
<path d="M116.562 277.037V277.589L121.357 281.459H122.041L116.562 277.037Z" fill="white"/>
<path d="M125.852 286.705H142.004V273.613H125.852V286.705Z" fill="#9A9898"/>
<path opacity="0.2" d="M125.852 286.705H142.004V273.613H125.852V286.705Z" fill="white"/>
<path d="M125.852 274.961H142.004V273.617H125.852V274.961Z" fill="#9A9898"/>
<path d="M131.12 281.465H136.73V276.935H131.12V281.465Z" fill="#9A9898"/>
<path d="M131.119 277.863V280.077L132.829 281.457H135.577L131.119 277.863Z" fill="white"/>
<path d="M132.963 257.711H134.889L135.567 273.623H132.291L132.963 257.711Z" fill="#9A9898"/>
<path d="M132.78 257.711H135.078V257.093H132.78V257.711Z" fill="#9A9898"/>
<path d="M128.594 257.711H130.514L131.192 273.623H127.916L128.594 257.711Z" fill="#9A9898"/>
<path d="M128.401 257.711H130.699V257.093H128.401V257.711Z" fill="#9A9898"/>
<path d="M137.328 257.711H139.254L139.932 273.623H136.656L137.328 257.711Z" fill="#9A9898"/>
<path d="M137.141 257.711H139.439V257.093H137.141V257.711Z" fill="#9A9898"/>
<path d="M26.9985 79.7944C26.6745 79.7944 26.6445 79.1344 26.9985 79.0864C28.5525 78.8944 30.1125 77.5024 31.6605 77.2864C33.1955 77.1804 34.7021 76.8195 36.1185 76.2184C38.4345 75.0604 39.8685 72.7384 42.2625 71.6224C46.4625 69.6664 50.7825 70.5064 54.8625 72.2224C57.2822 73.3071 59.9552 73.6996 62.5845 73.3564C64.9845 73.0564 67.2885 72.3964 69.6645 72.0544C71.782 71.6688 73.9598 71.7734 76.0305 72.3604C78.1605 73.0504 79.9965 74.3884 82.0005 75.3604C84.6465 76.6384 87.2565 76.4224 90.1005 76.5004C92.1525 76.5604 96.4425 77.8564 96.4425 79.2424C96.4785 80.1964 31.0785 79.7944 26.9985 79.7944Z" fill="#EBEBEB"/>
<path d="M114.601 218.238C114.271 218.238 114.241 217.584 114.601 217.53C116.155 217.338 117.709 215.946 119.263 215.73C120.798 215.626 122.305 215.265 123.721 214.662C126.031 213.504 127.471 211.182 129.865 210.066C134.065 208.11 138.385 208.95 142.465 210.666C144.887 211.75 147.562 212.141 150.193 211.794C152.593 211.494 154.903 210.834 157.279 210.492C159.394 210.106 161.57 210.211 163.639 210.798C165.775 211.488 167.605 212.826 169.639 213.798C172.279 215.076 174.895 214.86 177.739 214.944C179.791 215.004 184.081 216.294 184.081 217.68C184.057 218.628 118.651 218.238 114.601 218.238Z" fill="#EBEBEB"/>
<path d="M273.147 182.226C270.285 182.226 198.795 181.728 178.599 181.728C177.189 181.728 178.971 179.28 179.751 179.112C182.235 178.566 184.821 178.512 187.341 178.278C189.831 178.045 192.273 177.438 194.583 176.478C196.569 175.638 198.549 174.678 200.703 174.33C204.861 173.682 208.503 175.932 212.415 176.928C213.599 177.27 214.842 177.361 216.063 177.194C217.284 177.028 218.457 176.608 219.507 175.962C221.307 174.876 222.951 173.562 224.835 172.626C228.446 170.849 232.385 169.837 236.405 169.652C240.425 169.467 244.44 170.114 248.199 171.552C249.987 172.245 251.698 173.121 253.305 174.168C255.213 175.422 256.857 177.018 258.771 178.254C262.971 180.996 268.239 180.102 272.859 181.674C273.111 181.746 273.399 182.226 273.147 182.226Z" fill="#EBEBEB"/>
<path d="M140.163 98.4934C136.371 98.4934 72.6329 98.9134 68.6309 98.7814C68.3429 98.7814 68.1869 98.3494 68.4689 98.2114C70.9949 96.9574 73.8689 97.2094 76.4849 96.3274C78.0269 95.8054 78.9749 94.7974 80.0489 93.6394C80.9364 92.628 82.0839 91.8789 83.3669 91.4734C84.5367 91.1233 85.7774 91.084 86.9669 91.3594C88.2569 91.6714 89.3669 92.4094 90.6149 92.8774C93.6749 94.0294 96.6509 92.9314 98.8409 90.6694C100.641 88.8034 102.441 87.0394 104.841 86.0314C105.842 85.5809 106.926 85.3405 108.024 85.325C109.122 85.3095 110.211 85.5193 111.225 85.9414C113.565 87.0034 115.167 89.1334 117.363 90.4174C119.967 91.9354 123.081 91.5754 125.955 92.0374C128.829 92.4994 131.037 94.9174 133.563 96.3094C134.384 96.8392 135.334 97.1339 136.311 97.1614C136.875 97.1614 137.427 96.9934 137.985 96.9274C138.849 96.8194 139.677 96.8434 140.259 97.5694C140.439 97.7434 140.397 98.4934 140.163 98.4934Z" fill="#EBEBEB"/>
<path d="M270.169 154.369C266.377 154.369 202.639 154.789 198.637 154.663C198.349 154.663 198.193 154.231 198.475 154.063C201.001 152.815 203.875 153.067 206.491 152.179C208.033 151.663 208.981 150.649 210.055 149.491C210.944 148.483 212.091 147.737 213.373 147.331C214.542 146.978 215.784 146.939 216.973 147.217C218.263 147.523 219.373 148.267 220.621 148.729C223.681 149.887 226.657 148.789 228.847 146.521C230.647 144.655 232.447 142.891 234.847 141.889C235.847 141.436 236.931 141.194 238.029 141.179C239.128 141.163 240.218 141.374 241.231 141.799C243.571 142.861 245.173 144.991 247.369 146.269C249.973 147.793 253.087 147.433 255.961 147.889C258.835 148.345 261.043 150.769 263.569 152.167C264.391 152.695 265.341 152.989 266.317 153.019C266.881 153.019 267.433 152.851 267.991 152.779C268.855 152.671 269.683 152.695 270.265 153.421C270.445 153.625 270.415 154.369 270.169 154.369Z" fill="#EBEBEB"/>
<path d="M250.503 38.9952H171.489C171.171 38.9952 171.051 38.6532 171.375 38.5032C174.201 37.1712 177.375 37.5192 180.303 36.5952C182.025 36.0552 183.105 34.9572 184.317 33.6972C185.325 32.5993 186.613 31.7966 188.043 31.3752C189.352 31.0104 190.735 30.9959 192.051 31.3332C193.479 31.7052 194.709 32.5332 196.065 33.0972C199.437 34.4472 202.761 33.3012 205.233 30.8352C207.279 28.8072 209.283 26.8932 212.025 25.8372C213.146 25.358 214.354 25.115 215.573 25.1233C216.792 25.1315 217.997 25.3909 219.111 25.8852C221.679 27.0852 223.407 29.4852 225.813 30.9852C228.663 32.7312 232.125 32.4012 235.305 32.9772C238.485 33.5532 241.131 34.9272 243.897 36.5292C244.787 37.132 245.824 37.4805 246.897 37.5372C247.523 37.4962 248.145 37.4221 248.763 37.3152C249.729 37.2132 250.641 37.2612 251.271 38.0772C251.451 38.2692 252.363 38.9952 250.503 38.9952Z" fill="#EBEBEB"/>
<path d="M29.6152 286.708C106.739 286.342 193.259 286.336 270.383 286.708C193.259 287.074 106.739 287.074 29.6152 286.708Z" fill="#263238"/>
<path d="M161.46 197.849L138.594 197.843V188.441L161.466 188.453L161.46 197.849Z" fill="#FFC533"/>
<path d="M161.471 173.617H138.605V175.405H161.471V173.617Z" fill="#FFC533"/>
<path d="M128.326 229.378L138.556 229.384L138.586 202.006H161.458L161.428 229.378L171.658 229.384L149.974 263.116L128.326 229.378Z" fill="#FFC533"/>
<path d="M161.471 184.729L138.605 184.723V178.633L161.465 178.639L161.471 184.729Z" fill="#FFC533"/>
<path d="M240.827 143.656H224.771V150.256H240.827V143.656Z" fill="#FFC533"/>
<path d="M240.827 133.25H224.771V134.51H240.827V133.25Z" fill="#FFC533"/>
<path d="M217.559 170.11L224.747 170.116L224.765 153.178H240.827L240.803 170.11L247.991 170.116L232.763 193.804L217.559 170.11Z" fill="#FFC533"/>
<path d="M240.827 136.781H224.771V141.053H240.827V136.781Z" fill="#FFC533"/>
<path d="M75.2669 52.9727H59.2109V59.5727H75.2669V52.9727Z" fill="#FFC533"/>
<path d="M75.2669 42.5723H59.2109V43.8323H75.2669V42.5723Z" fill="#FFC533"/>
<path d="M51.998 79.432L59.186 79.438L59.204 62.5H75.266L75.242 79.432L82.43 79.438L67.202 103.126L51.998 79.432Z" fill="#FFC533"/>
<path d="M75.2669 46.0938H59.2109V50.3657H75.2669V46.0938Z" fill="#FFC533"/>
<path d="M220.465 223.115L215.257 205.895C215.094 205.422 214.789 205.012 214.382 204.722C213.976 204.431 213.488 204.275 212.989 204.275H155.281C153.053 204.275 150.916 203.39 149.341 201.815C147.766 200.239 146.881 198.103 146.881 195.875V175.631H152.881V195.881C152.881 196.517 153.134 197.128 153.584 197.578C154.034 198.028 154.644 198.281 155.281 198.281H212.995C214.774 198.281 216.507 198.846 217.944 199.894C219.382 200.942 220.449 202.419 220.993 204.113L226.195 221.399L220.465 223.115Z" fill="#263238"/>
<path d="M161.465 168.648H138.521V175.416H161.465V168.648Z" fill="#455A64"/>
<path d="M158.795 175.41H141.035V179.994H158.795V175.41Z" fill="#455A64"/>
<path d="M158.801 176.556L141.035 177.096V175.41H158.801V176.556Z" fill="#37474F"/>
<path d="M222.834 111.765C222.774 112.149 222.702 112.527 222.624 112.905C220.576 123.525 216.212 133.563 209.844 142.305C201.343 154.001 189.602 162.95 176.071 168.045C162.54 173.141 147.812 174.159 133.708 170.975C119.604 167.791 106.743 160.544 96.7129 150.13C86.6831 139.716 79.9249 126.59 77.2736 112.377C77.2708 112.341 77.2708 112.305 77.2736 112.269C77.2709 112.241 77.2709 112.213 77.2736 112.185C77.2736 109.749 85.4276 110.253 98.6096 109.383C111.81 108.723 130.002 106.695 150.114 104.145C170.226 101.595 188.442 101.361 201.624 103.611C213.936 105.525 221.868 109.605 222.834 111.765Z" fill="#FFC533"/>
<path opacity="0.6" d="M222.834 111.765C222.774 112.149 222.702 112.527 222.624 112.905C220.576 123.525 216.212 133.563 209.844 142.305C201.343 154.001 189.602 162.95 176.071 168.045C162.54 173.141 147.812 174.159 133.708 170.975C119.604 167.791 106.743 160.544 96.7129 150.13C86.6831 139.716 79.9249 126.59 77.2736 112.377C77.2708 112.341 77.2708 112.305 77.2736 112.269C77.2709 112.241 77.2709 112.213 77.2736 112.185C77.2736 109.749 85.4276 110.253 98.6096 109.383C111.81 108.723 130.002 106.695 150.114 104.145C170.226 101.595 188.442 101.361 201.624 103.611C213.936 105.525 221.868 109.605 222.834 111.765Z" fill="black"/>
<path d="M222.936 112.197C222.935 112.332 222.908 112.465 222.854 112.589C222.8 112.713 222.722 112.824 222.624 112.917C221.01 114.531 213.276 114.225 201.624 114.999C188.424 115.653 170.232 117.681 150.114 120.231C129.996 122.781 111.792 123.015 98.6096 120.759C85.7996 118.797 77.7596 114.471 77.2736 112.377C77.2708 112.341 77.2708 112.305 77.2736 112.269C77.2709 112.241 77.2709 112.213 77.2736 112.185C77.2736 109.749 85.4276 110.253 98.6096 109.383C111.81 108.723 130.002 106.695 150.114 104.145C170.226 101.595 188.442 101.361 201.624 103.611C213.96 105.525 221.892 109.611 222.858 111.765C222.914 111.902 222.94 112.049 222.936 112.197Z" fill="#FFC533"/>
<path opacity="0.5" d="M222.936 112.197C222.935 112.332 222.908 112.465 222.854 112.589C222.8 112.713 222.722 112.824 222.624 112.917C221.01 114.531 213.276 114.225 201.624 114.999C188.424 115.653 170.232 117.681 150.114 120.231C129.996 122.781 111.792 123.015 98.6096 120.759C85.7996 118.797 77.7596 114.471 77.2736 112.377C77.2708 112.341 77.2708 112.305 77.2736 112.269C77.2709 112.241 77.2709 112.213 77.2736 112.185C77.2736 109.749 85.4276 110.253 98.6096 109.383C111.81 108.723 130.002 106.695 150.114 104.145C170.226 101.595 188.442 101.361 201.624 103.611C213.96 105.525 221.892 109.611 222.858 111.765C222.914 111.902 222.94 112.049 222.936 112.197Z" fill="black"/>
<path opacity="0.2" d="M137.169 118.323C128.867 119.332 120.492 119.607 112.143 119.145C106.575 118.869 100.989 118.593 95.5045 117.507C94.0645 117.315 81.5845 114.429 85.6045 112.107C86.9628 111.667 88.3771 111.422 89.8045 111.381C92.5885 111.177 95.3665 111.111 98.1505 111.027C95.5465 111.459 92.5585 111.501 89.8465 111.849C88.4874 111.928 87.1451 112.19 85.8565 112.629C83.6725 113.607 90.8785 115.803 91.5985 115.983C98.3113 117.776 105.21 118.782 112.155 118.983C120.471 119.181 128.955 118.527 137.175 118.383L137.169 118.323Z" fill="black"/>
<path opacity="0.2" d="M169.089 114.684C165.842 115.353 162.548 115.772 159.237 115.938C153.837 116.628 148.185 117.846 142.785 117.738C148.185 116.598 153.723 116.322 159.213 115.74C162.441 115.23 165.897 114.54 169.089 114.678V114.684Z" fill="black"/>
<path opacity="0.2" d="M207.306 106.035C208.59 106.251 217.338 108.321 214.872 110.397C213.756 111.081 212.424 111.099 211.176 111.267C208.98 111.459 206.79 111.483 204.576 111.609C198.012 111.921 191.49 112.875 184.944 113.409C180.618 113.751 176.064 114.183 171.828 114.333L175.08 113.853C182.68 112.921 190.32 112.231 198 111.783C202.374 111.591 206.766 111.345 211.098 110.799C212.298 110.631 213.534 110.547 214.548 110.001C215.388 109.515 213.792 108.705 213.348 108.447C211.494 107.391 209.148 106.833 207.27 106.047L207.306 106.035Z" fill="black"/>
<path opacity="0.2" d="M104.082 110.586C116.532 109.386 128.958 108.042 141.39 106.716C161.97 104.082 183.078 101.148 203.67 105.234V105.288C187.176 102.75 170.388 103.932 153.87 105.468C137.334 107.172 120.66 110.148 104.118 110.586H104.082Z" fill="black"/>
<path opacity="0.2" d="M172.199 105.955C177.981 105.382 183.8 105.277 189.599 105.643C193.457 105.817 197.333 105.823 201.179 106.309C203.327 106.651 205.877 106.783 207.821 107.899C209.129 109.399 204.035 109.357 203.303 109.471C201.407 109.513 199.295 109.741 197.507 109.591L203.267 108.991C204.623 108.799 206.225 108.805 207.467 108.241C207.454 108.276 207.454 108.314 207.467 108.349C205.667 107.455 203.219 107.221 201.131 106.855C199.231 106.591 197.319 106.365 195.395 106.177C187.739 105.373 179.831 106.285 172.259 105.943L172.199 105.955Z" fill="black"/>
<path opacity="0.2" d="M141.168 108.554C144.432 107.936 147.741 107.587 151.062 107.51C156.528 107.024 162.204 106.01 167.604 106.268C162.138 107.252 156.606 107.33 151.08 107.702C147.834 108.104 144.36 108.746 141.168 108.554Z" fill="black"/>
<path opacity="0.2" d="M92.4653 113.221C92.2313 112.543 94.4093 112.333 94.8653 112.231C99.3533 111.583 103.865 111.559 108.395 111.331C117.395 110.527 126.353 109.339 135.395 109.117V109.177C124.655 110.749 113.795 110.935 102.995 112.039C99.8513 112.315 96.6893 112.321 93.5573 112.687C93.2279 112.721 92.907 112.812 92.6093 112.957C92.5657 112.975 92.53 113.008 92.509 113.05C92.488 113.092 92.4831 113.14 92.4953 113.185L92.4473 113.221H92.4653Z" fill="black"/>
<path opacity="0.2" d="M194.322 109.855C179.514 111.253 158.922 112.855 144.366 114.463C133.962 115.501 123.498 116.233 113.034 116.023C106.77 115.795 100.434 115.561 94.332 114.013C96.27 114.289 98.478 114.721 100.536 114.877C115.11 116.137 129.768 115.159 144.336 114.139C160.962 112.813 177.732 110.203 194.322 109.855Z" fill="black"/>
<path d="M149.997 173.073C130.299 173.073 111.409 165.248 97.4811 151.321C83.5532 137.393 75.7285 118.502 75.7285 98.8051C75.7285 79.108 83.5532 60.2177 97.4811 46.2897C111.409 32.3617 130.299 24.5371 149.997 24.5371C152.025 24.5371 154.065 24.6211 156.051 24.7831C175.162 26.3425 192.93 35.2333 205.635 49.5949C218.341 63.9564 224.999 82.6755 224.217 101.835C223.435 120.994 215.273 139.108 201.439 152.386C187.605 165.664 169.172 173.077 149.997 173.073ZM149.997 25.1371C134.298 25.0944 119.003 30.1078 106.377 39.4351C97.8023 45.7275 90.6921 53.8017 85.5345 63.1029C80.3768 72.404 77.2941 82.7115 76.4982 93.3171C75.7022 103.923 77.2119 114.575 80.9235 124.542C84.635 134.508 90.4604 143.553 97.9994 151.055C105.538 158.557 114.612 164.337 124.597 167.999C134.582 171.662 145.242 173.118 155.843 172.27C166.445 171.422 176.737 168.288 186.012 163.084C195.288 157.881 203.327 150.73 209.576 142.125C217.269 131.548 222.006 119.113 223.302 106.099C224.598 93.0853 222.405 79.9608 216.95 68.0745C211.494 56.1882 202.973 45.9686 192.261 38.4657C181.548 30.9629 169.032 26.4474 155.997 25.3831C154.029 25.1971 152.013 25.1371 149.997 25.1371Z" fill="#263238"/>
<path d="M165.971 133.718C165.041 136.208 166.571 136.31 166.697 137.318C166.823 138.326 166.697 140.318 163.697 143.318C160.697 146.318 155.723 145.718 154.697 146.918C153.671 148.118 151.901 153.446 149.417 155.204C146.933 156.962 146.513 155.93 142.991 156.656C139.469 157.382 136.757 161.996 135.719 164.174C134.681 166.352 135.929 169.976 133.445 170.084C130.961 170.192 129.845 164.798 127.535 161.9C125.225 159.002 124.535 156.404 123.809 152.99C123.083 149.576 124.223 142.418 123.809 139.622C123.395 136.826 115.937 131.822 113.243 128.438C110.549 125.054 106.799 118.196 107.027 115.898C107.34 113.686 108.444 111.663 110.135 110.204C111.377 109.268 110.861 108.752 111.065 107.924C111.269 107.096 112.307 106.886 112.517 105.854C112.727 104.822 111.917 101.708 110.861 101.192C109.805 100.676 109.097 102.434 108.461 102.122C107.825 101.81 105.977 99.638 105.251 99.428C104.525 99.218 104.735 100.778 103.697 98.828C102.659 96.878 102.143 91.892 101.297 91.028C100.451 90.164 99.8454 92.48 97.8774 91.028C95.9094 89.576 95.0814 86.786 94.2774 86.372C93.4734 85.958 92.3094 86.474 91.4574 84.818C90.6054 83.162 92.2074 80.156 91.4574 80.462C90.7074 80.768 89.0994 83.156 88.6854 80.876C88.2714 78.596 90.7554 70.934 90.3414 66.788C90.0188 62.4254 91.4335 58.1121 94.2774 54.788C94.2774 54.788 94.6914 52.514 95.1054 51.062C95.5194 49.61 104.435 43.796 105.473 42.14C105.901 41.2133 106.147 40.2133 106.199 39.194C118.886 29.8427 134.239 24.8099 149.999 24.836C152.027 24.836 154.037 24.918 156.029 25.082C156.095 25.178 156.161 25.268 156.233 25.358C157.133 26.498 158.099 27.224 160.721 28.19C163.343 29.156 163.967 30.398 163.415 31.436C162.863 32.474 161.969 32.678 160.931 32.75C159.893 32.822 158.927 32.264 157.823 32.954C156.719 33.644 155.609 37.376 154.163 37.58C152.717 37.784 150.155 34.268 149.603 33.23C149.051 32.192 150.845 29.984 149.999 28.946C149.153 27.908 147.671 28.118 145.319 27.914C142.967 27.71 137.519 28.604 137.723 29.498C137.927 30.392 145.733 29.36 145.943 31.16C146.153 32.96 140.213 35.996 139.199 35.714C138.185 35.432 136.799 33.644 135.263 33.44C133.727 33.236 132.497 34.472 131.543 34.61C130.589 34.748 129.461 33.578 128.009 33.854C126.557 34.13 126.209 35.372 125.453 35.858C124.697 36.344 122.897 36.338 122.693 37.442C122.489 38.546 124.973 39.17 125.591 39.842C126.209 40.514 124.835 42.884 125.453 43.364C126.071 43.844 129.941 40.466 130.913 39.638C131.885 38.81 132.713 35.216 134.777 35.282C136.841 35.348 137.543 38.882 138.233 39.218C138.923 39.554 140.441 38.39 142.721 38.876C145.001 39.362 146.585 44.33 147.005 45.848C147.425 47.366 148.385 48.89 147.557 49.514C146.729 50.138 142.997 49.1 142.517 48.128C142.037 47.156 145.001 45.728 144.791 45.368C144.581 45.008 142.859 44.54 141.959 45.08C141.059 45.62 140.651 46.748 139.685 47.024C138.719 47.3 136.157 44.402 135.485 45.224C134.813 46.046 136.175 48.68 136.865 49.298C137.555 49.916 140.117 50.264 140.321 50.954C140.525 51.644 138.593 53.162 136.247 53.03C133.901 52.898 131.963 51.092 131.069 51.83C130.175 52.568 130.649 54.59 130.031 55.286C129.413 55.982 126.023 55.49 124.367 57.284C122.711 59.078 121.967 61.772 120.293 63.284C118.619 64.796 117.893 62.87 115.667 65.012C113.441 67.154 113.111 71.918 113.039 73.574C112.967 75.23 113.039 76.574 112.487 76.334C111.935 76.094 111.173 74.678 110.969 73.778C110.765 72.878 111.455 71.378 111.455 70.808C111.455 70.238 108.275 67.424 106.409 67.148C104.543 66.872 102.887 68.39 101.507 69.5C100.127 70.61 97.6374 70.394 96.7434 71.3C95.8494 72.206 95.1534 80.138 95.8434 82.004C96.5334 83.87 97.4334 83.87 99.6414 82.904C101.849 81.938 100.607 80.072 101.921 80.504C102.511 80.7246 103.02 81.1206 103.378 81.6387C103.736 82.1568 103.927 82.7721 103.925 83.402C103.925 84.512 101.303 87.134 101.645 87.896C101.987 88.658 104.273 87.752 105.377 88.1C106.481 88.448 107.033 89.138 106.685 91.97C106.337 94.802 106.547 97.01 108.209 97.97C109.871 98.93 110.795 96.626 111.521 96.938C112.247 97.25 113.285 98.906 114.317 98.798C115.349 98.69 114.839 97.766 116.807 97.142C118.775 96.518 118.049 96.11 118.463 94.862C118.877 93.614 120.119 92.582 121.463 93.206C122.807 93.83 121.877 94.76 121.979 95.798C122.081 96.836 124.463 96.938 126.329 97.556C128.195 98.174 129.233 97.556 132.929 98.798C136.625 100.04 136.865 103.772 138.419 104.396C139.973 105.02 145.157 103.982 148.883 106.676C152.609 109.37 151.577 114.338 153.443 115.79C155.309 117.242 162.251 119.21 164.939 119.726C167.627 120.242 168.047 118.382 170.225 118.898C172.403 119.414 173.645 120.038 174.371 123.044C175.001 125.69 166.901 131.234 165.971 133.718Z" fill="#FFC533"/>
<path d="M110.299 80.7472C110.371 81.3472 112.099 81.5812 114.169 82.7512C116.239 83.9212 117.001 87.3772 118.105 87.3112C119.209 87.2452 118.867 85.6552 119.305 85.2412C119.743 84.8272 120.409 83.9272 119.305 83.0272C118.201 82.1272 117.121 80.1952 115.105 79.9192C113.089 79.6432 112.741 78.8152 111.847 78.8872C111.615 78.8847 111.386 78.9338 111.175 79.031C110.965 79.1282 110.779 79.2711 110.63 79.4492C110.482 79.6273 110.376 79.8363 110.318 80.0608C110.261 80.2853 110.254 80.5198 110.299 80.7472Z" fill="#FFC533"/>
<path d="M121.704 86.5441C121.392 87.3901 121.704 87.9961 123.912 88.5481C126.12 89.1001 128.196 87.9961 127.512 87.5461C126.828 87.0961 125.784 87.3061 126.198 86.5441C126.612 85.7821 126.468 84.6841 124.674 84.8881C122.88 85.0921 121.98 85.7941 121.704 86.5441Z" fill="#FFC533"/>
<path d="M129.437 86.7835C128.681 86.8915 128.237 88.2055 129.023 89.0335C129.809 89.8615 129.779 89.7235 130.679 89.0335C131.579 88.3435 132.959 87.9955 132.611 87.3055C132.263 86.6155 130.199 86.6695 129.437 86.7835Z" fill="#FFC533"/>
<path d="M135.442 89.6045C135.784 88.5665 137.518 89.6045 138.274 90.6905C139.03 91.7765 138.688 93.3845 138.274 94.5605C137.86 95.7365 137.584 97.1105 136.618 96.5585C135.652 96.0065 136.69 94.3505 136.552 93.3845C136.414 92.4185 135.166 90.4505 135.442 89.6045Z" fill="#FFC533"/>
<path d="M165.212 31.9905C164.852 32.8545 166.526 33.1905 167.492 33.7185C168.458 34.2465 169.22 34.6125 169.772 33.7185C170.324 32.8245 169.568 31.7805 168.806 31.5765C168.044 31.3725 165.56 31.1625 165.212 31.9905Z" fill="#FFC533"/>
<path d="M178.262 40.0709C178.898 40.7429 179.99 40.6229 180.746 41.5889C181.502 42.5549 181.232 44.2109 182.198 44.6969C183.164 45.1829 183.854 44.6969 183.926 44.0069C183.998 43.3169 182.546 41.6069 182.684 41.2409C182.822 40.8749 184.682 41.7269 185.084 42.7589C185.486 43.7909 184.664 45.2489 185.636 45.5249C186.608 45.8009 186.392 44.5589 186.806 44.2829C187.22 44.0069 188.12 44.1449 188.054 43.3169C187.728 42.0446 187.008 40.9083 185.996 40.0709C185.102 39.4709 184.406 38.7569 182.888 38.4089C181.37 38.0609 179.918 38.3429 179.162 38.9609C178.406 39.5789 177.872 39.6569 178.262 40.0709Z" fill="#FFC533"/>
<path d="M208.14 53.087C208.096 53.3661 207.959 53.6221 207.75 53.813C206.298 54.851 204.57 51.257 202.572 50.567C200.574 49.877 199.668 47.321 199.254 47.873C198.84 48.425 198.978 49.187 198.36 50.087C197.742 50.987 196.836 50.777 196.422 52.487C196.008 54.197 198.36 57.389 197.808 58.427C197.256 59.465 196.56 59.117 195.456 59.027C194.352 58.937 194.562 59.927 193.11 59.513C191.658 59.099 192.9 57.299 190.62 55.157C188.34 53.015 187.584 52.607 188.07 51.635C188.556 50.663 187.86 49.289 188.898 49.151C189.936 49.013 190.764 50.531 191.454 50.951C192.144 51.371 193.038 50.123 193.11 49.019C193.182 47.915 190.71 46.397 189.792 45.539C188.874 44.681 188.826 41.561 189.192 40.937C189.558 40.313 190.572 40.523 190.848 39.005C191.01 38.111 189.594 36.605 188.4 35.543C195.976 40.1641 202.662 46.1061 208.14 53.087Z" fill="#FFC533"/>
<path d="M218.46 115.003C218.67 112.789 217.566 112.651 218.67 108.577C219.774 104.503 217.47 100.177 216.666 99.253C215.862 98.329 214.044 98.653 212.592 99.529C211.14 100.405 212.178 101.119 211.212 101.467C210.246 101.815 209.274 101.257 208.38 101.329C207.486 101.401 206.652 103.675 204.72 103.609C202.788 103.543 201.54 100.777 200.094 98.809C198.648 96.841 195.672 95.599 194.694 93.181C193.716 90.763 195.588 87.037 195.174 84.181C194.76 81.325 192.894 81.967 192.552 80.383C192.21 78.799 192.828 79.555 193.308 78.031C193.788 76.507 192.756 75.685 193.722 73.063C194.688 70.441 196.416 69.121 196.002 67.951C195.588 66.781 194.28 64.843 194.202 63.463C194.124 62.083 195.516 62.149 198.138 60.217C200.76 58.285 201.456 58.417 203.454 59.113C204.893 59.643 206.371 60.0583 207.876 60.355C209.076 60.559 210.642 63.601 211.122 63.463C211.602 63.325 211.674 62.425 211.884 61.111C212.013 60.5415 212.312 60.0246 212.742 59.629C220.536 72.1303 224.423 86.6733 223.903 101.396C223.384 116.119 218.482 130.352 209.826 142.273C216.888 131.533 218.256 117.211 218.46 115.003Z" fill="#FFC533"/>
<path opacity="0.1" d="M223.963 98.804C223.989 114.43 219.043 129.659 209.839 142.286C202.899 151.814 193.793 159.556 183.271 164.87C192.43 159.635 200.378 152.521 206.593 143.996C216.138 130.899 221.139 115.04 220.832 98.8365C220.526 82.6331 214.929 66.9744 204.895 54.248C199.375 47.2392 192.648 41.2733 185.029 36.632C175.15 30.6202 164 27.0076 152.473 26.084C150.473 25.924 148.453 25.842 146.413 25.838C140.393 25.8347 134.396 26.5599 128.551 27.998C135.505 25.8964 142.73 24.831 149.995 24.836C152.023 24.836 154.033 24.918 156.025 25.082C167.486 25.9985 178.573 29.5907 188.395 35.57C195.973 40.1819 202.665 46.1135 208.153 53.084C209.811 55.1851 211.351 57.3764 212.767 59.648C220.108 71.387 223.988 84.9587 223.963 98.804Z" fill="black"/>
<g opacity="0.5">
<path d="M126.945 33.8555C118.545 40.7315 110.637 48.1955 104.715 57.2915C96.2488 70.1135 92.5828 85.3775 92.4808 100.635C92.4148 109.035 94.2808 117.213 97.1788 125.235C101.379 136.257 107.163 146.727 115.953 155.067C103.845 150.801 94.6828 140.205 88.5208 129.213C83.8048 120.597 80.7748 110.673 80.5948 100.665C80.3668 87.5735 83.1748 74.2115 89.7868 62.7755C97.7908 48.8195 111.591 38.2355 126.945 33.8555Z" fill="white"/>
<path d="M194.068 151.712C203.74 141.158 210.682 121.712 213.64 107.738C215.848 122.018 207.298 144.812 194.068 151.712Z" fill="white"/>
</g>
<path d="M220.842 228.089L230.502 225.203H266.622C267.618 225.203 268.574 225.599 269.278 226.303C269.982 227.008 270.378 227.963 270.378 228.959V282.959C270.378 283.956 269.983 284.912 269.278 285.617C268.574 286.322 267.619 286.72 266.622 286.721H221.916C220.919 286.72 219.964 286.322 219.26 285.617C218.556 284.912 218.16 283.956 218.16 282.959V231.695C218.16 230.885 218.42 230.097 218.904 229.448C219.387 228.798 220.067 228.322 220.842 228.089Z" fill="#FFC533"/>
<path d="M230.514 225.206H237.714L241.362 218.87C241.454 218.709 241.588 218.575 241.749 218.482C241.911 218.389 242.094 218.341 242.28 218.342H260.28C260.443 218.342 260.605 218.379 260.752 218.452C260.899 218.524 261.027 218.63 261.126 218.76C261.225 218.89 261.293 219.041 261.324 219.202C261.356 219.363 261.349 219.528 261.306 219.686L259.794 225.206L270.348 230.186V215.96C270.348 215.196 270.044 214.464 269.504 213.924C268.964 213.384 268.231 213.08 267.468 213.08H239.166C238.66 213.08 238.163 213.214 237.725 213.466C237.287 213.719 236.923 214.082 236.67 214.52L230.514 225.206Z" fill="#FFC533"/>
<path d="M218.078 224.217L228.863 220.996L227.713 217.144L216.928 220.366L218.078 224.217Z" fill="#FFC533"/>
<path opacity="0.3" d="M218.078 224.217L228.863 220.996L227.713 217.144L216.928 220.366L218.078 224.217Z" fill="black"/>
<path d="M220.629 228.142L228.977 225.648L227.69 221.342L219.343 223.836L220.629 228.142Z" fill="#FFC533"/>
<path opacity="0.3" d="M220.629 228.142L228.977 225.648L227.69 221.342L219.343 223.836L220.629 228.142Z" fill="black"/>
<path opacity="0.1" d="M219.65 224.937L228.152 222.945L227.678 221.367L219.332 223.857L219.65 224.937Z" fill="black"/>
<g opacity="0.1">
<path d="M260.813 271.207C260.897 271.29 260.964 271.389 261.01 271.498C261.055 271.607 261.079 271.724 261.079 271.843C261.079 271.961 261.055 272.078 261.01 272.187C260.964 272.296 260.897 272.395 260.813 272.479C260.644 272.647 260.416 272.742 260.177 272.742C259.939 272.742 259.71 272.647 259.541 272.479L252.941 265.879H235.637L229.037 272.479C228.867 272.646 228.639 272.74 228.401 272.743C228.223 272.742 228.049 272.69 227.902 272.591C227.754 272.492 227.638 272.351 227.57 272.187C227.502 272.023 227.485 271.842 227.519 271.667C227.554 271.493 227.639 271.332 227.765 271.207L234.425 264.547V247.381L227.765 240.721C227.606 240.55 227.52 240.324 227.524 240.091C227.528 239.858 227.622 239.636 227.787 239.471C227.952 239.306 228.175 239.211 228.408 239.207C228.641 239.203 228.867 239.29 229.037 239.449L235.715 246.127H252.881L259.559 239.449C259.73 239.29 259.955 239.203 260.189 239.207C260.422 239.211 260.644 239.306 260.809 239.471C260.974 239.636 261.068 239.858 261.073 240.091C261.077 240.324 260.99 240.55 260.831 240.721L254.159 247.393V264.535L260.813 271.207Z" fill="black"/>
</g>
<path d="M83.5979 102.277C83.5979 102.277 79.6079 130.045 79.8719 132.685C80.1359 135.325 83.4059 160.921 83.4059 160.921C83.4059 160.921 90.7139 159.349 92.8259 158.083C94.3439 157.177 99.7139 152.545 99.7139 152.545C99.7139 152.545 90.5699 134.695 89.8319 131.077C89.0939 127.459 88.5839 109.897 87.7199 106.363C87.4283 105.304 86.8982 104.326 86.1702 103.503C85.4422 102.681 84.5357 102.035 83.5199 101.617" fill="#37474F"/>
<path opacity="0.1" d="M97.2418 147.657V154.623L97.0318 154.797V147.231C97.1038 147.375 97.1998 147.519 97.2418 147.657ZM91.2778 135.057V158.793C91.8088 158.611 92.3228 158.382 92.8138 158.109C93.0658 157.959 93.4138 157.701 93.8578 157.377V140.691C93.5878 140.121 93.3178 139.551 93.0598 138.993C93.0598 138.927 92.9938 138.849 92.9578 138.783C92.4418 137.667 91.9558 136.593 91.5238 135.603L91.2778 135.057ZM87.8878 107.385V159.843C87.9568 159.822 88.0269 159.804 88.0978 159.789V108.189H87.9958C87.9598 107.885 87.9238 107.609 87.8878 107.361V107.385ZM82.1278 112.785V150.963L82.1818 151.347C82.2898 152.235 82.3978 153.099 82.5058 153.921C82.6498 155.085 82.7878 156.159 82.9078 157.101C82.9078 157.173 82.9078 157.239 82.9078 157.311C83.0938 158.781 83.2318 159.903 83.3098 160.491C83.3458 160.785 83.3698 160.941 83.3698 160.941L84.6898 160.647V102.207H84.6178C84.2607 101.97 83.8808 101.769 83.4838 101.607L83.5558 102.207V102.279C83.5558 102.279 83.5558 102.321 83.5558 102.411C83.5078 102.783 83.3398 103.941 83.1058 105.591C83.0038 106.353 82.8778 107.223 82.7518 108.171C82.6258 109.119 82.4638 110.223 82.3078 111.345C82.3078 111.417 82.3078 111.489 82.3078 111.561C82.2418 111.951 82.1998 112.353 82.1278 112.755V112.785ZM83.3278 160.491C83.3638 160.785 83.3878 160.941 83.3878 160.941L84.7078 160.647L85.3678 160.491H83.3278ZM82.9018 157.101C82.9018 157.173 82.9018 157.239 82.9018 157.311H93.9178L94.1938 157.101H82.9018ZM82.1998 151.317C82.3078 152.205 82.4158 153.069 82.5238 153.891H98.1238C99.0478 153.111 99.7078 152.541 99.7078 152.541C99.7078 152.541 99.4738 152.091 99.1078 151.341L82.1998 151.317ZM81.7678 147.927C81.7678 147.993 81.7678 148.065 81.7678 148.131H97.4758C97.4398 148.065 97.4098 147.999 97.3738 147.927H81.7678ZM81.0418 142.167C81.1498 143.013 81.2578 143.877 81.3658 144.753H95.8258C95.4178 143.913 94.9978 143.043 94.5838 142.167H81.0418ZM80.6158 138.783C80.6158 138.849 80.6158 138.921 80.6158 138.993H93.0598C93.0598 138.927 92.9938 138.849 92.9578 138.783H80.6158ZM79.9258 133.029C79.9798 133.557 80.0818 134.457 80.2258 135.603H91.5418L91.2958 135.033C90.9778 134.301 90.6958 133.623 90.4798 133.029H79.9258ZM80.0398 129.843H89.6398C89.6398 129.777 89.6398 129.711 89.6098 129.639H80.0398C80.0278 129.711 80.0278 129.777 80.0218 129.843H80.0398ZM80.3938 126.459H89.3458C89.2858 125.655 89.2198 124.791 89.1658 123.879H80.6818C80.5738 124.803 80.4718 125.649 80.3998 126.459H80.3938ZM81.0958 120.699H88.9558C88.9558 120.627 88.9558 120.561 88.9558 120.495H81.1558C81.0958 120.567 81.0898 120.633 81.0778 120.699H81.0958ZM81.5398 117.315H88.7398C88.6858 116.439 88.6318 115.575 88.5718 114.735H81.8638C81.7498 115.587 81.6358 116.451 81.5218 117.315H81.5398ZM82.3138 111.561H88.3498C88.3498 111.489 88.3498 111.417 88.3498 111.345H82.3498C82.3138 111.417 82.3018 111.489 82.2958 111.561H82.3138ZM82.7818 108.171H88.0138C87.9778 107.875 87.9418 107.605 87.9058 107.361C87.8458 106.953 87.7858 106.617 87.7198 106.359C87.6569 106.098 87.5768 105.842 87.4798 105.591H83.1358C83.0158 106.353 82.8898 107.223 82.7638 108.171H82.7818ZM83.5858 102.411H84.9658L84.7318 102.249V102.207H83.5798V102.279C83.5798 102.279 83.5858 102.321 83.5678 102.411H83.5858Z" fill="#030402"/>
<path d="M49.4243 231.705C49.4243 231.705 36.9923 253.689 36.9803 253.701C34.9823 258.135 33.3143 262.059 32.6363 264.171C32.6326 264.181 32.6326 264.191 32.6363 264.201C32.4229 264.678 32.3223 265.197 32.3423 265.719C32.3416 265.733 32.3416 265.747 32.3423 265.761C33.2603 267.249 68.2283 284.241 69.6443 284.421C71.0603 284.601 71.6963 280.575 70.8443 278.835C69.9923 277.095 59.5583 264.603 59.5583 264.603L71.7623 242.523L49.4243 231.705Z" fill="#B77C55"/>
<path d="M69.0883 284.299C67.6723 284.113 33.2623 267.253 32.3503 265.765C32.3503 265.765 32.3503 265.765 32.3503 265.723C32.3298 265.204 32.4283 264.687 32.6383 264.211V264.175C33.3163 262.063 34.9903 258.139 36.9823 253.705C36.9823 253.705 39.0763 249.865 39.9103 248.527L62.1523 260.023L59.5543 264.607C59.5543 264.607 69.4723 276.967 70.3063 278.713C71.1403 280.459 70.5103 284.485 69.0883 284.299Z" fill="#FFC533"/>
<path d="M70.0343 282.268C64.2383 279.1 40.5503 266.86 34.5803 264.166C34.5263 264.166 34.5143 264.166 34.5803 264.208C40.2623 267.472 64.0463 279.52 70.0103 282.364C70.1123 282.424 70.1543 282.334 70.0343 282.268Z" fill="white"/>
<path d="M61.8788 264.645C59.7908 263.025 56.7788 261.927 54.1628 262.659C54.0668 262.689 54.1088 262.833 54.1628 262.845C56.7383 263.27 59.2607 263.97 61.6868 264.933C61.725 264.959 61.7717 264.968 61.8167 264.959C61.8617 264.95 61.9013 264.923 61.9268 264.885C61.9522 264.847 61.9615 264.8 61.9525 264.755C61.9435 264.71 61.917 264.671 61.8788 264.645Z" fill="#263238"/>
<path d="M63.0022 266.509C60.9142 264.889 57.9082 263.785 55.2922 264.523C55.1902 264.553 55.2322 264.697 55.2922 264.709C57.8675 265.135 60.3898 265.835 62.8162 266.797C62.8544 266.822 62.9008 266.83 62.9453 266.82C62.9897 266.811 63.0285 266.784 63.0532 266.746C63.0779 266.708 63.0864 266.661 63.0768 266.617C63.0672 266.572 63.0404 266.534 63.0022 266.509Z" fill="#263238"/>
<path d="M64.2014 268.372C62.1134 266.752 59.1014 265.648 56.4914 266.386C56.3894 266.386 56.4314 266.56 56.4914 266.572C59.0689 266.997 61.5933 267.697 64.0214 268.66C64.0596 268.684 64.1057 268.692 64.1496 268.682C64.1935 268.671 64.2316 268.644 64.2554 268.606C64.2793 268.568 64.287 268.522 64.2769 268.478C64.2668 268.434 64.2396 268.396 64.2014 268.372Z" fill="#263238"/>
<path d="M41.3651 258.763C39.4931 256.201 35.503 259.111 37.381 261.679C39.259 264.247 43.2431 261.331 41.3651 258.763Z" fill="white"/>
<path opacity="0.1" d="M61.5527 265.533L64.0607 281.175C67.2107 282.741 69.3887 283.773 69.7247 283.827C71.1527 284.049 71.8847 279.993 71.0867 278.223C70.4807 276.873 64.4447 269.181 61.5527 265.533Z" fill="black"/>
<path d="M70.9102 282.845C71.4082 283.409 70.1962 285.431 69.6562 285.371C69.1162 285.311 31.2202 265.571 30.6562 265.091C30.0922 264.611 31.5142 262.421 32.3302 262.691C33.1462 262.961 70.9102 282.845 70.9102 282.845Z" fill="#263238"/>
<path d="M39.0781 248.468L64.1341 261.848C64.1341 261.848 96.5461 214.802 97.2061 202.934C98.0821 186.578 84.1201 134.654 84.1201 134.654L61.8061 134.504C61.8061 134.504 70.8601 187.904 70.1281 197.012C69.7441 201.776 39.0781 248.468 39.0781 248.468Z" fill="#263238"/>
<path d="M66.3159 256.669C65.0259 255.739 53.1519 248.869 44.1159 244.459C44.0559 244.429 44.0139 244.519 44.0679 244.555C46.8159 246.355 64.5399 256.075 66.2679 256.765C66.3099 256.801 66.3759 256.711 66.3159 256.669Z" fill="#37474F"/>
<path d="M73.2004 185.605C72.1684 177.805 71.0284 170.005 69.7324 162.205C68.4364 154.405 67.0504 146.605 65.4184 138.841C65.2204 137.893 65.0104 136.951 64.8184 136.003C64.8152 135.988 64.8092 135.973 64.8005 135.961C64.7919 135.948 64.7808 135.937 64.768 135.929C64.7552 135.921 64.7409 135.915 64.7258 135.912C64.7108 135.909 64.6954 135.91 64.6804 135.913C64.6654 135.916 64.6512 135.922 64.6386 135.931C64.626 135.939 64.6152 135.95 64.6068 135.963C64.5985 135.976 64.5927 135.99 64.5899 136.005C64.5871 136.02 64.5872 136.036 64.5904 136.051C65.9644 143.737 67.3804 151.417 68.6404 159.127C69.9004 166.837 71.0824 174.553 72.1384 182.287C72.4024 184.201 72.6544 186.121 72.9004 188.035C73.2182 190.021 73.4186 192.025 73.5004 194.035C73.5362 195.942 73.2125 197.839 72.5464 199.627C71.8378 201.374 70.9785 203.056 69.9784 204.655C65.9524 211.471 47.1184 243.265 46.6504 244.129C46.6504 244.189 46.6984 244.249 46.7344 244.189C51.0664 237.469 65.2864 214.003 69.3724 207.079C71.2144 203.953 73.3264 200.785 73.9324 197.143C74.5264 193.333 73.7164 189.367 73.2004 185.605Z" fill="#37474F"/>
<path d="M66.795 246.471C66.795 246.471 66.543 271.881 66.543 271.899C66.681 276.765 66.885 281.019 67.197 283.215C67.1942 283.227 67.1942 283.239 67.197 283.251C67.212 283.771 67.3476 284.28 67.593 284.739V284.769C69.069 285.711 107.943 285.771 109.299 285.315C110.655 284.859 109.473 280.959 107.961 279.753C106.449 278.547 91.575 271.869 91.575 271.869V246.471H66.795Z" fill="#B77C55"/>
<path d="M66.597 266.688C66.597 266.688 66.543 271.884 66.543 271.902C66.681 276.768 66.885 281.022 67.197 283.218C67.1942 283.23 67.1942 283.242 67.197 283.254C67.2708 283.764 67.4037 284.263 67.593 284.742V284.772C69.069 285.714 107.943 285.774 109.299 285.318C110.655 284.862 109.473 280.962 107.961 279.756C106.449 278.55 91.575 271.872 91.575 271.872V266.574L66.597 266.688Z" fill="#FFC533"/>
<path d="M108.946 283.741C102.346 283.459 75.6881 282.961 69.1421 283.189C69.0881 283.189 69.0881 283.225 69.1421 283.231C75.6821 283.645 102.34 283.933 108.946 283.831C109.084 283.843 109.084 283.747 108.946 283.741Z" fill="white"/>
<path d="M93.8375 271.54C91.2455 271.012 88.0595 271.354 86.0375 273.172C85.9595 273.238 86.0375 273.352 86.1455 273.322C88.6422 272.566 91.2129 272.079 93.8135 271.87C93.8527 271.866 93.8893 271.848 93.9168 271.82C93.9443 271.792 93.961 271.755 93.9639 271.715C93.9667 271.676 93.9556 271.637 93.9325 271.605C93.9094 271.573 93.8757 271.55 93.8375 271.54Z" fill="#263238"/>
<path d="M95.6929 272.706C93.1069 272.178 89.9209 272.52 87.8929 274.338C87.8149 274.404 87.8929 274.518 88.0009 274.488C90.4998 273.732 93.0724 273.245 95.6749 273.036C95.7139 273.031 95.7499 273.013 95.7767 272.984C95.8035 272.955 95.8193 272.918 95.8214 272.879C95.8236 272.839 95.8119 272.801 95.7884 272.769C95.7649 272.738 95.7311 272.715 95.6929 272.706Z" fill="#263238"/>
<path d="M97.5484 273.867C94.9564 273.333 91.7704 273.681 89.7484 275.499C89.6704 275.565 89.7484 275.679 89.8564 275.649C92.3556 274.895 94.9282 274.41 97.5304 274.203C97.575 274.205 97.6186 274.19 97.6518 274.16C97.685 274.13 97.705 274.088 97.7074 274.044C97.7098 273.999 97.6944 273.956 97.6645 273.922C97.6347 273.889 97.5929 273.869 97.5484 273.867Z" fill="#263238"/>
<path d="M109.981 283.88C110.683 284.162 110.485 286.514 109.981 286.694C109.477 286.874 66.7508 285.932 66.0248 285.758C65.2988 285.584 65.6168 282.98 66.4628 282.86C67.3088 282.74 109.981 283.88 109.981 283.88Z" fill="#263238"/>
<path d="M72.8331 275.337C70.0191 273.867 67.7271 278.241 70.5531 279.711C73.3791 281.181 75.6531 276.807 72.8331 275.337Z" fill="white"/>
<path d="M83.8039 134.6C83.6599 135.062 75.6559 156.998 74.8999 157.346C74.0479 157.742 92.5819 188.882 93.6799 203.348C94.3819 212.6 93.0079 267.74 93.0079 267.74H65.8939C65.8939 267.74 67.2019 217.91 67.8019 202.994C68.0419 197.21 49.2019 168.41 48.9619 150.482C48.8899 144.83 52.9519 134.504 52.9519 134.504L83.8039 134.6Z" fill="#263238"/>
<path d="M67.9686 202.598C67.9686 202.358 67.7826 202.28 67.7646 202.526C67.1646 210.596 67.0086 218.624 66.6186 226.712C66.2286 234.8 66.4566 236.714 66.0966 244.778C65.8926 249.344 66.0966 256.694 65.9766 261.26C65.9766 261.332 66.0846 261.344 66.0906 261.26C66.9366 253.208 67.9626 207.17 67.9686 202.598Z" fill="#37474F"/>
<path d="M93.6725 203.689C93.6379 201.697 93.4554 199.709 93.1265 197.743C92.7518 195.833 92.1911 193.964 91.4525 192.163C89.9525 188.389 88.1825 184.711 86.4905 181.015C84.7985 177.319 83.0285 173.551 81.2225 169.855C80.2065 167.779 79.1845 165.705 78.1565 163.633C77.1125 161.539 75.9905 159.481 74.8985 157.417C74.8964 157.407 74.8918 157.397 74.8852 157.388C74.8785 157.379 74.87 157.372 74.8602 157.367C74.8504 157.362 74.8396 157.359 74.8286 157.359C74.8177 157.359 74.8068 157.362 74.7969 157.366C74.787 157.371 74.7783 157.378 74.7715 157.387C74.7647 157.395 74.7599 157.405 74.7575 157.416C74.7552 157.427 74.7553 157.438 74.7579 157.448C74.7605 157.459 74.7655 157.469 74.7725 157.477C76.5065 161.209 78.2225 164.947 79.9625 168.679C81.7025 172.411 83.4005 176.149 85.1105 179.893C86.8205 183.637 88.4705 187.261 90.0545 190.987C90.8425 192.761 91.4885 194.595 91.9865 196.471C92.4329 198.409 92.698 200.383 92.7785 202.369C93.0425 207.001 93.1685 211.645 93.6245 216.259C93.6282 216.27 93.6351 216.279 93.6442 216.286C93.6533 216.292 93.6643 216.296 93.6755 216.296C93.6867 216.296 93.6976 216.292 93.7068 216.286C93.7159 216.279 93.7228 216.27 93.7265 216.259C93.8645 212.077 93.7985 207.865 93.6725 203.689Z" fill="#37474F"/>
<path d="M91.0335 262.406C89.4555 262.202 77.4495 261.806 67.3995 262.214C67.3889 262.218 67.3798 262.225 67.3733 262.234C67.3668 262.243 67.3633 262.254 67.3633 262.265C67.3633 262.277 67.3668 262.288 67.3733 262.297C67.3798 262.306 67.3889 262.313 67.3995 262.316C70.6695 262.61 89.1735 262.736 91.0155 262.52C91.0815 262.514 91.1055 262.412 91.0335 262.406Z" fill="#37474F"/>
<path d="M78.6317 156.158C75.7278 156.89 72.8931 157.874 70.1597 159.098C70.1483 159.102 70.1377 159.108 70.1287 159.116C70.1196 159.124 70.1122 159.134 70.107 159.144C70.1017 159.155 70.0986 159.167 70.0978 159.179C70.0971 159.191 70.0987 159.203 70.1027 159.215C70.1066 159.226 70.1128 159.237 70.1208 159.246C70.1288 159.255 70.1385 159.262 70.1494 159.267C70.1602 159.273 70.172 159.276 70.1841 159.277C70.1962 159.277 70.2083 159.276 70.2197 159.272C73.0637 158.378 75.9557 157.544 78.7457 156.5C78.7681 156.492 78.7889 156.48 78.8068 156.465C78.8247 156.449 78.8393 156.43 78.8499 156.409C78.8605 156.388 78.8668 156.365 78.8685 156.341C78.8702 156.318 78.8672 156.294 78.8597 156.272C78.8522 156.249 78.8404 156.228 78.8249 156.211C78.8093 156.193 78.7905 156.178 78.7693 156.167C78.7481 156.157 78.7251 156.151 78.7015 156.149C78.6778 156.147 78.6541 156.15 78.6317 156.158Z" fill="#37474F"/>
<path d="M81.3718 137.576C81.3718 137.48 81.2098 137.444 81.1978 137.576C80.8859 140.605 80.4213 143.617 79.8058 146.6C79.5358 147.992 77.6098 155.6 75.2338 154.814C74.8378 154.682 74.6698 154.256 74.6698 153.614C74.76 152.812 74.9495 152.024 75.2338 151.268C75.6718 149.672 76.0558 148.064 76.3618 146.438C76.9588 143.413 77.2403 140.335 77.2018 137.252C77.2018 137.231 77.1935 137.211 77.1789 137.197C77.1643 137.182 77.1444 137.174 77.1238 137.174C77.1031 137.174 77.0832 137.182 77.0686 137.197C77.054 137.211 77.0458 137.231 77.0458 137.252C76.6857 141.497 76.0038 145.71 75.0058 149.852C74.4958 151.838 73.1698 154.772 75.2458 155.3C77.3218 155.828 79.2778 150.89 79.6798 149.528C80.7573 145.634 81.3261 141.616 81.3718 137.576Z" fill="#37474F"/>
<path d="M75.2771 155.03C75.0084 155.532 74.7719 156.051 74.5691 156.584C74.3692 156.99 74.2451 157.429 74.2031 157.88C74.2031 157.97 74.3171 157.988 74.3711 157.934C74.66 157.57 74.8945 157.166 75.0671 156.734C75.3011 156.254 75.5471 155.78 75.7691 155.294C75.7865 155.262 75.7973 155.226 75.8009 155.19C75.8046 155.153 75.801 155.116 75.7904 155.081C75.7798 155.046 75.7624 155.014 75.7392 154.985C75.716 154.957 75.6874 154.933 75.6551 154.916C75.5899 154.881 75.5134 154.873 75.4425 154.895C75.3716 154.916 75.3121 154.965 75.2771 155.03Z" fill="#37474F"/>
<path d="M70.7387 210.556C70.8827 206.704 71.3087 202.666 70.0427 198.946C69.3548 197.128 68.5283 195.364 67.5707 193.672C66.6347 191.86 65.7127 190.038 64.8047 188.206C61.2047 180.892 57.7727 173.464 54.7247 165.892C53.157 162.276 52.0464 158.479 51.4187 154.588C50.9478 150.476 51.2119 146.314 52.1987 142.294C52.4327 141.292 52.6727 140.296 52.9487 139.294C52.9487 139.222 52.8587 139.18 52.8347 139.252C51.5529 143.046 50.8412 147.009 50.7227 151.012C50.7473 154.846 51.4376 158.647 52.7627 162.244C54.0587 166.03 55.6907 169.708 57.2927 173.368C58.9447 177.144 60.6607 180.89 62.4407 184.606C64.2407 188.302 66.1007 191.938 67.9727 195.58C68.9401 197.312 69.6419 199.178 70.0547 201.118C70.3445 203.127 70.4189 205.16 70.2767 207.184C69.9587 215.71 69.2267 246.856 69.1187 255.358C69.1187 256.438 69.1187 257.518 69.0767 258.598C69.0767 258.694 69.2207 258.706 69.2267 258.598C69.7427 250.138 70.4327 219.052 70.7387 210.556Z" fill="#37474F"/>
<path d="M64.6653 140.129C64.6653 140.063 64.5693 140.075 64.5633 140.129C64.2453 142.475 64.0653 144.929 62.9313 147.041C61.8933 148.991 60.0753 150.251 58.1313 151.133C56.9791 151.62 55.8014 152.045 54.6033 152.405C54.5193 152.435 54.5373 152.567 54.6033 152.549C56.8473 152.081 59.1273 151.559 61.0713 150.299C63.1593 148.955 64.2333 146.795 64.5753 144.383C64.7535 142.972 64.7837 141.546 64.6653 140.129Z" fill="#37474F"/>
<path d="M51.6019 136.317C51.6559 136.425 87.3079 146.139 87.7099 145.881C87.7459 145.881 89.2219 145.065 89.5099 142.281C89.5939 141.525 88.5799 138.267 88.5559 135.855C88.4719 127.413 88.8019 111.729 86.5099 103.305C85.9099 101.037 81.0139 98.4448 78.3379 100.089C66.3019 107.523 51.5179 136.203 51.6019 136.317Z" fill="#EBEBEB"/>
<path d="M80.1477 99.4547C80.1477 99.4547 78.8217 117.455 78.3477 119.525C78.0177 120.989 73.9797 135.665 71.8977 146.273C71.0097 150.815 71.4237 157.967 71.4237 157.967C71.4237 157.967 59.0097 153.935 55.2237 151.367C53.0037 149.849 48.0957 143.405 48.0957 143.405C48.0957 143.405 55.9557 125.945 60.4077 119.405C64.8597 112.865 73.3977 101.525 77.3817 99.8687C79.2057 99.0947 80.1477 99.4547 80.1477 99.4547Z" fill="#455A64"/>
<path opacity="0.1" d="M78.9597 99.4062V114.736H78.9057C78.8517 115.282 78.8037 115.792 78.7557 116.272V99.4422L78.9597 99.4062ZM72.9957 103.366V141.07C73.1457 140.38 73.3017 139.684 73.4577 138.994C73.4577 138.922 73.4937 138.85 73.5117 138.784C73.7577 137.722 74.0097 136.654 74.2617 135.604L74.8617 133.03L75.5457 130.288V100.99C75.1077 101.338 74.6337 101.746 74.1477 102.19C74.0757 102.25 73.9977 102.322 73.9257 102.394C73.6437 102.706 73.3197 103.03 72.9957 103.366ZM69.6057 107.14V157.354L69.8157 157.426V106.894C69.7437 106.978 69.6777 107.062 69.6057 107.14ZM63.8457 114.532V155.29C64.7337 155.626 65.6097 155.95 66.4257 156.244V111.094C66.3657 111.178 66.2997 111.268 66.2337 111.346L66.0717 111.562C65.3037 112.558 64.5597 113.554 63.8457 114.532ZM60.4617 119.332V153.976L60.6717 154.06V119.008C60.6057 119.11 60.5277 119.206 60.4617 119.308V119.332ZM56.3037 126.484C55.7697 127.492 55.2357 128.536 54.7017 129.58V150.982C54.8697 151.126 55.0257 151.24 55.1697 151.342L55.2117 151.372C55.8783 151.815 56.5716 152.215 57.2877 152.572V124.636C56.9577 125.224 56.6337 125.842 56.3037 126.46V126.484ZM51.3177 136.498V147.412L51.5277 147.664V136.036C51.4557 136.204 51.3837 136.33 51.3177 136.474V136.498ZM48.1377 143.314C48.1265 143.347 48.1125 143.38 48.0957 143.41C48.1124 143.424 48.1267 143.44 48.1377 143.458V143.314ZM68.7657 157.114L69.3957 157.324H71.4057C71.4057 157.258 71.4057 157.186 71.4057 157.114H68.7657ZM55.1697 151.36L55.2117 151.39C55.8783 151.833 56.5716 152.233 57.2877 152.59C58.1937 153.034 59.2257 153.502 60.3237 153.958H71.3277C71.3277 153.154 71.3277 152.278 71.3817 151.384L55.1697 151.36ZM51.7737 147.97C51.8397 148.036 51.8997 148.102 51.9597 148.174H71.6157C71.6157 148.108 71.6157 148.036 71.6157 147.97H51.7737ZM48.0957 143.404C48.1124 143.418 48.1267 143.434 48.1377 143.452C48.2517 143.608 48.6297 144.1 49.1637 144.772H72.2097C72.3777 143.926 72.5577 143.062 72.7497 142.186H48.6537C48.3897 142.75 48.2157 143.146 48.1377 143.308C48.1265 143.341 48.1125 143.374 48.0957 143.404ZM50.1237 139.012H73.4577C73.4577 138.94 73.4937 138.868 73.5117 138.802H50.2257L50.1237 139.012ZM51.7317 135.604H74.2617L74.8617 133.03H52.9797C52.5477 133.912 52.1277 134.776 51.7317 135.604ZM54.5577 129.844H75.6837L75.7377 129.64H54.6657L54.5577 129.844ZM56.3037 126.46H76.5477L77.2137 123.88H57.7017L57.2877 124.636C56.9577 125.224 56.6337 125.842 56.3037 126.46ZM59.5497 120.7H78.0477C78.0477 120.628 78.0837 120.562 78.1017 120.496H59.6877L59.5497 120.7ZM61.8417 117.316H78.6417C78.6777 116.992 78.7137 116.644 78.7557 116.272C78.8037 115.792 78.8517 115.282 78.9057 114.736H63.6957C63.0477 115.624 62.4057 116.494 61.8417 117.316ZM66.0417 111.562H79.2057V111.346H66.2337L66.0417 111.562ZM68.7237 108.172H79.4397C79.5117 107.284 79.5837 106.42 79.6497 105.592H70.9377C70.5597 106.012 70.1877 106.45 69.8157 106.894C69.7437 106.978 69.6777 107.062 69.6057 107.14L68.7237 108.172ZM74.1237 102.208C74.0517 102.268 73.9737 102.34 73.9017 102.412H78.9117V102.208H74.1237Z" fill="#030402"/>
<path d="M83.9565 108.682C81.9405 108.202 80.2485 102.916 80.1465 100.072C80.1465 99.8738 80.8965 98.9438 82.0785 97.0718C82.7925 95.9318 83.5605 94.6718 84.1785 93.4238L90.9165 99.1538C89.7077 100.463 88.6639 101.916 87.8085 103.48C87.7278 103.65 87.6616 103.827 87.6105 104.008C87.6088 104.038 87.6088 104.068 87.6105 104.098C87.2565 105.124 85.9005 109.144 83.9565 108.682Z" fill="#B77C55"/>
<path d="M86.7086 105.202C86.8406 105.28 86.9786 105.34 87.1106 105.406C87.3266 104.854 87.4886 104.368 87.5726 104.092C87.5709 104.062 87.5709 104.032 87.5726 104.002C87.6237 103.821 87.6899 103.644 87.7706 103.474C88.626 101.91 89.6698 100.458 90.8786 99.148L84.1406 93.418C84.0086 93.676 83.8766 93.928 83.7326 94.192C82.9826 97.006 82.0886 102.754 86.7086 105.202Z" fill="#263238"/>
<path d="M86.1568 85.5614C84.1948 88.0694 82.5269 96.8593 83.8469 99.4753C85.7549 103.255 90.4469 105.361 94.0469 102.709C97.5509 100.135 99.5189 88.6393 97.8989 86.1013C95.5409 82.3693 89.0608 81.8534 86.1568 85.5614Z" fill="#B77C55"/>
<path d="M92.2445 93.918C92.2445 93.918 92.1905 93.918 92.1905 93.954C92.0585 94.554 91.8065 95.196 91.2305 95.256V95.292C91.8965 95.364 92.2145 94.494 92.2445 93.918Z" fill="#263238"/>
<path d="M91.8787 93.1718C90.9607 92.8598 90.4027 94.7258 91.2787 95.0138C92.1547 95.3018 92.6527 93.4298 91.8787 93.1718Z" fill="#263238"/>
<path d="M95.5585 94.9219C95.5585 94.9219 95.6005 94.9639 95.5585 94.9879C95.3725 95.5579 95.2525 96.2479 95.7145 96.5959C95.1205 96.3499 95.2885 95.4379 95.5585 94.9219Z" fill="#263238"/>
<path d="M96.262 94.4696C97.216 94.6736 96.7361 96.5636 95.8541 96.3716C94.9721 96.1796 95.47 94.3016 96.262 94.4696Z" fill="#263238"/>
<path d="M91.2397 92.5833C91.4709 92.7164 91.7092 92.8366 91.9537 92.9432C92.1875 93.1042 92.4684 93.1824 92.7517 93.1653C92.8396 93.1419 92.9175 93.0907 92.9737 93.0193C93.03 92.9479 93.0616 92.8601 93.0637 92.7693C93.0374 92.5897 92.9641 92.4203 92.8514 92.2781C92.7387 92.1359 92.5905 92.0259 92.4217 91.9592C92.0988 91.773 91.7182 91.7131 91.3537 91.7913C91.2723 91.8143 91.1993 91.8605 91.1435 91.9242C91.0878 91.988 91.0517 92.0665 91.0396 92.1502C91.0276 92.234 91.04 92.3195 91.0756 92.3964C91.1111 92.4732 91.1681 92.5381 91.2397 92.5833Z" fill="#263238"/>
<path d="M97.4368 93.1179C97.1908 92.9979 96.9868 92.8479 96.7528 92.7099C96.5188 92.5719 96.2668 92.4459 96.1528 92.1519C96.1249 92.0654 96.1262 91.9721 96.1566 91.8864C96.187 91.8008 96.2447 91.7275 96.3208 91.6779C96.4861 91.6037 96.6682 91.5746 96.8484 91.5935C97.0286 91.6125 97.2006 91.6789 97.3468 91.7859C97.6782 91.9565 97.9331 92.2457 98.0608 92.5959C98.0881 92.6791 98.0898 92.7686 98.0657 92.8528C98.0416 92.937 97.9928 93.012 97.9256 93.0682C97.8585 93.1244 97.776 93.1592 97.6888 93.168C97.6017 93.1769 97.5139 93.1594 97.4368 93.1179Z" fill="#263238"/>
<path d="M89.9697 98.8363C90.0657 99.0103 90.1497 99.2383 90.3537 99.3163C90.5706 99.3751 90.7971 99.3894 91.0197 99.3583C91.0197 99.3583 91.0497 99.3583 91.0197 99.3943C90.9028 99.4826 90.7643 99.5381 90.6188 99.555C90.4732 99.5719 90.3257 99.5495 90.1917 99.4903C90.0826 99.4243 89.9954 99.3277 89.941 99.2124C89.8865 99.0971 89.8673 98.9684 89.8857 98.8423C89.9037 98.8063 89.9517 98.8063 89.9697 98.8363Z" fill="#263238"/>
<path d="M91.0895 97.2859C91.1668 97.5584 91.3001 97.8118 91.4809 98.0298C91.6617 98.2478 91.886 98.4256 92.1395 98.5519C92.3606 98.6656 92.5971 98.7465 92.8415 98.7919C92.886 98.8082 92.9324 98.8183 92.9796 98.8219H93.1115C93.1443 98.8244 93.1771 98.8165 93.2051 98.7992C93.2331 98.782 93.255 98.7563 93.2675 98.7259C93.2703 98.706 93.2703 98.6858 93.2675 98.6659V98.6179C93.4115 98.1739 93.5735 97.4839 93.5735 97.4839C93.7115 97.6159 94.4255 98.2339 94.4855 97.9999C95.0355 95.9758 95.3793 93.9012 95.5115 91.8079C95.5115 91.7936 95.5059 91.7798 95.4957 91.7697C95.4856 91.7596 95.4719 91.7539 95.4575 91.7539C95.4432 91.7539 95.4295 91.7596 95.4194 91.7697C95.4092 91.7798 95.4035 91.7936 95.4035 91.8079C94.8875 93.6679 94.7075 95.6119 94.2035 97.4959C93.9493 97.2709 93.6644 97.0831 93.3575 96.9379C93.2915 96.9379 93.0755 98.2759 92.9975 98.4679C92.6221 98.3972 92.2648 98.2512 91.9472 98.0388C91.6296 97.8264 91.3583 97.5519 91.1495 97.2319C91.1255 97.2079 91.0655 97.2079 91.0895 97.2859Z" fill="#263238"/>
<path d="M83.6119 92.4346C85.6999 93.3346 87.7099 91.1686 87.9319 88.9426C87.9319 88.9426 93.3619 91.6906 95.2339 87.2146C95.4697 88.0043 95.8801 88.7309 96.4347 89.3406C96.9894 89.9502 97.674 90.4274 98.4379 90.7366L98.2639 92.4766C98.9059 92.5126 100.112 91.0666 99.1399 89.2666C99.5261 87.8307 99.3457 86.3012 98.6359 84.9946C98.3205 84.4438 97.8525 83.996 97.2882 83.7053C96.7239 83.4147 96.0875 83.2936 95.4559 83.3566C94.7154 82.2918 93.5903 81.5561 92.3179 81.3046C91.651 81.1836 90.9647 81.2239 90.3165 81.4222C89.6683 81.6205 89.077 81.9711 88.5919 82.4446C88.5919 82.4446 85.5919 81.9946 84.3919 83.8306C84.0487 84.3465 83.818 84.9288 83.7146 85.5398C83.6112 86.1507 83.6376 86.7765 83.7919 87.3766C83.7919 87.3766 82.8079 87.9106 82.5919 89.7466C82.3999 90.9286 82.9819 92.1586 83.6119 92.4346Z" fill="#263238"/>
<path d="M95.2461 86.7637C95.1582 87.1494 95.0315 87.5254 94.8681 87.8857C94.7136 88.2468 94.5118 88.5857 94.2681 88.8937C93.8127 89.5185 93.1372 89.9473 92.3781 90.0937C91.6101 90.2004 90.8278 90.1286 90.0921 89.8837C89.7261 89.7397 89.3481 89.6257 88.9881 89.4637C88.6281 89.3017 88.2801 89.1217 87.9141 88.9597C88.2441 89.1757 88.5921 89.3737 88.9281 89.5897C89.2641 89.8057 89.6601 89.9197 90.0261 90.0877C90.7901 90.3799 91.6156 90.4749 92.4261 90.3637C93.2464 90.2043 93.9708 89.7278 94.4421 89.0377C94.8992 88.3605 95.176 87.5777 95.2461 86.7637Z" fill="#263238"/>
<path d="M97.2556 90.4375C96.7043 90.0083 96.2296 89.489 95.8516 88.9015C95.6696 88.6143 95.5282 88.3034 95.4316 87.9775C95.3334 87.6394 95.275 87.291 95.2576 86.9395C95.1677 87.2947 95.1554 87.6651 95.2216 88.0255C95.2842 88.3903 95.4188 88.7391 95.6176 89.0515C95.8089 89.3645 96.0501 89.6442 96.3316 89.8794C96.607 90.1148 96.9191 90.3033 97.2556 90.4375Z" fill="#263238"/>
<path d="M85.3439 93.2152C85.3439 93.2152 84.4439 89.8612 82.9859 90.0892C81.5279 90.3172 81.5339 94.7032 82.7639 95.7532C82.913 95.8984 83.0899 96.0119 83.2841 96.0869C83.4782 96.1618 83.6855 96.1967 83.8935 96.1894C84.1015 96.1821 84.3059 96.1328 84.4943 96.0445C84.6827 95.9561 84.8513 95.8305 84.9899 95.6752L85.3439 93.2152Z" fill="#B77C55"/>
<path d="M83.0151 91.3438C83.0151 91.3438 82.9791 91.3437 83.0151 91.3797C83.393 91.777 83.683 92.2496 83.866 92.7665C84.049 93.2834 84.1209 93.8331 84.0771 94.3797C84.0562 94.2583 84.009 94.143 83.9389 94.0417C83.8688 93.9404 83.7774 93.8557 83.6711 93.7934C83.5648 93.7311 83.4462 93.6928 83.3235 93.6811C83.2009 93.6694 83.0772 93.6846 82.9611 93.7258C82.9546 93.7286 82.9492 93.7332 82.9453 93.739C82.9415 93.7449 82.9395 93.7517 82.9395 93.7588C82.9395 93.7658 82.9415 93.7726 82.9453 93.7785C82.9492 93.7843 82.9546 93.789 82.9611 93.7918C83.1572 93.7991 83.3462 93.867 83.502 93.9863C83.6579 94.1056 83.7728 94.2703 83.8311 94.4578C83.9197 94.7671 83.976 95.0848 83.9991 95.4058C83.9991 95.5078 84.1911 95.5198 84.1971 95.4058C84.6831 94.1158 84.3411 91.9677 83.0151 91.3438Z" fill="#263238"/>
<path d="M73.4939 107.598C72.0539 118.032 72.8939 137.178 74.8439 140.406C76.5599 143.256 87.2339 148.95 93.3299 151.938C95.3159 152.904 102.126 137.796 99.9299 136.872C96.9719 135.618 86.2559 130.53 85.9199 129.87C85.5839 129.21 82.6739 115.134 80.0219 107.208C77.6399 100.02 74.0339 103.65 73.4939 107.598Z" fill="#B77C55"/>
<path d="M101.816 136.809C106.436 137.781 107.474 138.741 111.812 137.493C114.656 136.671 116.402 138.135 114.176 140.265C110.576 143.751 104.318 143.751 102.176 143.127L101.816 136.809Z" fill="#B77C55"/>
<path d="M148.051 160.345L138.925 156.037L103.201 150.601C102.713 150.527 102.216 150.55 101.737 150.668C101.258 150.786 100.807 150.998 100.409 151.29C100.012 151.583 99.6765 151.95 99.4214 152.373C99.1664 152.795 98.997 153.263 98.923 153.751L90.823 207.151C90.6749 208.138 90.924 209.142 91.5156 209.946C92.1072 210.749 92.9931 211.284 93.979 211.435L138.175 218.137C138.664 218.211 139.162 218.189 139.642 218.07C140.121 217.952 140.573 217.74 140.971 217.447C141.369 217.154 141.705 216.785 141.96 216.362C142.216 215.939 142.385 215.47 142.459 214.981L150.145 164.311C150.267 163.513 150.129 162.697 149.752 161.983C149.375 161.269 148.779 160.695 148.051 160.345Z" fill="#FFC533"/>
<path opacity="0.6" d="M148.051 160.345L138.925 156.037L103.201 150.601C102.713 150.527 102.216 150.55 101.737 150.668C101.258 150.786 100.807 150.998 100.409 151.29C100.012 151.583 99.6765 151.95 99.4214 152.373C99.1664 152.795 98.997 153.263 98.923 153.751L90.823 207.151C90.6749 208.138 90.924 209.142 91.5156 209.946C92.1072 210.749 92.9931 211.284 93.979 211.435L138.175 218.137C138.664 218.211 139.162 218.189 139.642 218.07C140.121 217.952 140.573 217.74 140.971 217.447C141.369 217.154 141.705 216.785 141.96 216.362C142.216 215.939 142.385 215.47 142.459 214.981L150.145 164.311C150.267 163.513 150.129 162.697 149.752 161.983C149.375 161.269 148.779 160.695 148.051 160.345Z" fill="white"/>
<path d="M138.922 156.041L131.794 154.961L129.136 148.151C129.067 147.977 128.954 147.824 128.808 147.708C128.661 147.592 128.487 147.517 128.302 147.491L110.482 144.785C110.319 144.763 110.153 144.779 109.998 144.832C109.842 144.885 109.701 144.972 109.585 145.088C109.469 145.204 109.381 145.346 109.328 145.501C109.276 145.657 109.26 145.822 109.282 145.985L109.954 151.673L98.7695 155.015L100.906 140.945C101.022 140.193 101.433 139.517 102.047 139.067C102.661 138.617 103.429 138.429 104.182 138.545L132.202 142.793C132.702 142.868 133.173 143.075 133.568 143.391C133.963 143.707 134.268 144.121 134.452 144.593L138.922 156.041Z" fill="#FFC533"/>
<path opacity="0.6" d="M138.922 156.041L131.794 154.961L129.136 148.151C129.067 147.977 128.954 147.824 128.808 147.708C128.661 147.592 128.487 147.517 128.302 147.491L110.482 144.785C110.319 144.763 110.153 144.779 109.998 144.832C109.842 144.885 109.701 144.972 109.585 145.088C109.469 145.204 109.381 145.346 109.328 145.501C109.276 145.657 109.26 145.822 109.282 145.985L109.954 151.673L98.7695 155.015L100.906 140.945C101.022 140.193 101.433 139.517 102.047 139.067C102.661 138.617 103.429 138.429 104.182 138.545L132.202 142.793C132.702 142.868 133.173 143.075 133.568 143.391C133.963 143.707 134.268 144.121 134.452 144.593L138.922 156.041Z" fill="white"/>
<path d="M153.066 153.315L142.887 148.512L141.171 152.147L151.351 156.951L153.066 153.315Z" fill="#FFC533"/>
<path opacity="0.3" d="M153.066 153.315L142.887 148.512L141.171 152.147L151.351 156.951L153.066 153.315Z" fill="black"/>
<path d="M150.168 156.386L142.289 152.668L140.371 156.732L148.25 160.45L150.168 156.386Z" fill="#FFC533"/>
<path opacity="0.3" d="M150.168 156.386L142.289 152.668L140.371 156.732L148.25 160.45L150.168 156.386Z" fill="black"/>
<path opacity="0.1" d="M149.704 157.402L141.598 154.162L142.3 152.668L150.184 156.388L149.704 157.402Z" fill="black"/>
<g opacity="0.4">
<path d="M102.071 196.975C101.975 197.044 101.895 197.132 101.834 197.233C101.772 197.334 101.732 197.446 101.715 197.563C101.697 197.68 101.703 197.799 101.733 197.913C101.762 198.028 101.814 198.135 101.885 198.229C101.956 198.326 102.046 198.407 102.149 198.469C102.252 198.531 102.366 198.572 102.485 198.589C102.72 198.619 102.958 198.559 103.151 198.421L110.687 192.871L127.775 195.463L133.331 202.999C133.472 203.19 133.683 203.318 133.918 203.354C134.153 203.39 134.393 203.331 134.585 203.191C134.68 203.121 134.761 203.033 134.822 202.932C134.884 202.83 134.925 202.718 134.942 202.601C134.96 202.484 134.955 202.364 134.926 202.249C134.898 202.135 134.847 202.026 134.777 201.931L129.191 194.347L131.765 177.373L139.349 171.787C139.451 171.72 139.538 171.632 139.605 171.53C139.671 171.428 139.717 171.313 139.738 171.193C139.759 171.073 139.756 170.95 139.728 170.831C139.7 170.712 139.648 170.6 139.576 170.502C139.503 170.404 139.412 170.321 139.306 170.26C139.201 170.198 139.084 170.159 138.963 170.144C138.842 170.129 138.719 170.138 138.602 170.172C138.484 170.206 138.375 170.264 138.281 170.341L130.679 175.945L113.693 173.401L108.095 165.793C107.953 165.6 107.741 165.472 107.505 165.436C107.268 165.4 107.027 165.459 106.835 165.601C106.642 165.743 106.514 165.955 106.478 166.191C106.442 166.428 106.501 166.668 106.643 166.861L112.241 174.457L109.667 191.401L102.071 196.975Z" fill="#FFC533"/>
</g>
<path d="M88.6035 136.804C88.6035 136.804 94.5375 135.838 99.5655 136.384C103.04 136.768 110.51 138.436 114.806 147.946C115.826 150.202 115.676 154.138 112.676 151.06C110.54 148.87 109.85 146.86 108.38 145.792C108.38 145.792 107.594 150.778 105.296 151.708C103.287 152.527 101.222 153.199 99.1155 153.718C98.9304 153.355 98.7701 152.98 98.6355 152.596C98.6355 152.596 96.4035 153.262 93.1995 151.756L88.6035 136.804Z" fill="#B77C55"/>
<path d="M102.829 137.305C104.071 138.655 106.657 141.553 107.941 144.661C109.375 148.117 111.199 155.149 108.643 156.181C106.765 156.937 105.829 154.309 105.829 154.309C105.829 154.309 105.973 157.375 104.125 157.687C102.445 157.975 101.845 155.887 101.845 155.887C101.845 155.887 101.611 157.759 99.9426 157.723C97.9326 157.675 98.7426 153.757 96.7566 151.945C96.3066 151.555 102.829 137.305 102.829 137.305Z" fill="#B77C55"/>
<path d="M104.042 145.558C105.524 148.198 106.165 151.227 105.878 154.24C105.878 154.318 105.806 154.348 105.8 154.276C105.556 151.312 104.951 148.389 104 145.57C104 145.57 104.036 145.54 104.042 145.558Z" fill="#263238"/>
<path d="M100.602 147.107C101.298 148.451 102.492 152.507 101.916 155.885C101.916 155.963 101.838 155.993 101.832 155.921C101.746 152.949 101.321 149.996 100.566 147.119C100.566 147.119 100.59 147.089 100.602 147.107Z" fill="#263238"/>
<path d="M73.9469 139.436C76.4189 144.836 91.5689 152.318 91.5689 152.318L97.6589 134.918C97.6589 134.918 86.4209 130.118 86.1269 129.518C85.5269 128.21 82.8269 112.586 79.6229 105.416C76.9229 99.4156 73.6529 102.656 72.8669 109.244C71.9129 117.176 73.0769 137.522 73.9469 139.436Z" fill="#455A64"/>
<path opacity="0.1" d="M97.2478 134.755V136.099L97.0378 136.699V134.659L97.2478 134.755ZM91.2838 132.133V152.173L91.5718 152.317L91.9258 151.321L93.0358 148.135L93.1078 147.931L93.8638 145.783V133.285L93.2638 133.033L91.2838 132.133ZM87.8938 130.549V150.349L88.1038 150.463V130.651L87.8938 130.549ZM82.1338 112.837V146.923C82.6618 147.271 83.1958 147.607 83.7178 147.931L84.0538 148.135L84.7198 148.537V123.499C84.5218 122.623 84.3178 121.699 84.0898 120.703C84.0898 120.637 84.0898 120.571 84.0478 120.499C83.8078 119.467 83.5618 118.405 83.2978 117.319C83.0878 116.461 82.8718 115.597 82.6498 114.739C82.4818 114.097 82.3138 113.461 82.1338 112.837ZM78.7558 103.837V144.553C78.8218 144.607 78.8878 144.661 78.9598 144.709V104.137C78.8938 104.023 78.8278 103.921 78.7558 103.807V103.837ZM72.9958 108.193V133.051H73.1098C73.1818 133.987 73.2598 134.851 73.3378 135.625C73.4758 137.017 73.6198 138.121 73.7638 138.805C73.7638 138.883 73.7638 138.949 73.8118 139.015C73.8468 139.168 73.8929 139.319 73.9498 139.465C74.3674 140.301 74.9141 141.067 75.5698 141.733V102.571C74.8258 103.075 74.1658 104.131 73.6618 105.571C73.3768 106.412 73.162 107.275 73.0198 108.151L72.9958 108.193ZM89.6458 151.339L91.2838 152.191L91.5718 152.335L91.9258 151.339H89.6458ZM83.7178 147.949L84.0538 148.153H93.0538L93.1258 147.949H83.7178ZM76.0138 142.189C76.8754 143.036 77.7913 143.826 78.7558 144.553C78.8218 144.607 78.8878 144.661 78.9598 144.709L79.0378 144.775H94.2058L95.1058 142.189H76.0138ZM73.7638 138.805C73.7638 138.883 73.7638 138.949 73.8118 139.015H96.2338L96.3058 138.805H73.7638ZM73.1098 133.051C73.1818 133.987 73.2598 134.851 73.3378 135.625H97.4218L97.6558 134.947L97.2478 134.773L97.0378 134.683L93.8638 133.303L93.2638 133.051H73.1098ZM72.8818 129.661C72.8818 129.727 72.8818 129.799 72.8818 129.865H86.5618C86.4298 129.787 86.3278 129.715 86.2498 129.661H72.8818ZM72.6178 123.901C72.6178 124.771 72.6778 125.635 72.7138 126.481H85.3678C85.1998 125.719 85.0078 124.855 84.8038 123.901H72.6178ZM72.5338 120.517V120.721H84.0898C84.0898 120.655 84.0898 120.589 84.0478 120.517H72.5338ZM72.5338 117.337H83.3338C83.1238 116.479 82.9078 115.615 82.6858 114.757H72.5398C72.5158 115.567 72.5098 116.407 72.5098 117.319L72.5338 117.337ZM72.6898 111.583H81.8038C81.8038 111.517 81.7558 111.439 81.7378 111.367H72.6718C72.6718 111.421 72.6658 111.493 72.6658 111.565L72.6898 111.583ZM73.0438 108.193H80.7238C80.3998 107.257 80.0638 106.393 79.7218 105.613H73.6618C73.3777 106.448 73.163 107.305 73.0198 108.175L73.0438 108.193ZM75.8638 102.433H77.3218C77.0945 102.311 76.841 102.245 76.583 102.242C76.3249 102.239 76.07 102.298 75.8398 102.415L75.8638 102.433Z" fill="#030402"/>
<path d="M93.4811 134.865C92.8811 135.987 91.1591 140.811 90.7331 142.035C90.3071 143.259 88.8011 148.203 88.4531 149.433C88.4531 149.487 88.5431 149.511 88.5611 149.433C89.0351 148.233 93.3611 136.107 93.5411 134.859C93.5471 134.859 93.4931 134.835 93.4811 134.865Z" fill="#263238"/>
<path d="M72.5073 112.252C73.0413 120.772 72.9033 129.742 73.6533 138.232C72.8373 133.966 72.7893 129.598 72.5733 125.266C72.4593 120.928 72.3873 116.59 72.5073 112.252Z" fill="#263238"/>
<path d="M71.8204 113.541C72.1217 114.509 72.3523 115.498 72.5104 116.499C71.9592 115.617 71.7165 114.576 71.8204 113.541Z" fill="#263238"/>
</svg>
