<svg width="14" height="14" viewBox="0 0 14 14" fill="none" xmlns="http://www.w3.org/2000/svg">
<path d="M11.4997 3.01338L2.49971 3.01338C2.40859 3.01366 2.31927 3.03879 2.24137 3.08606C2.16348 3.13334 2.09994 3.20096 2.05762 3.28165C2.01529 3.36235 1.99577 3.45306 2.00116 3.54402C2.00655 3.63498 2.03665 3.72275 2.08821 3.79788L6.58821 10.2979C6.77471 10.5674 7.22371 10.5674 7.41071 10.2979L11.9107 3.79788C11.9628 3.7229 11.9933 3.63509 11.999 3.54398C12.0047 3.45286 11.9853 3.36194 11.943 3.28107C11.9006 3.20021 11.8369 3.1325 11.7587 3.0853C11.6806 3.03811 11.591 3.01323 11.4997 3.01338Z" fill="#FFB600"/>
</svg>
