<svg width="56" height="56" viewBox="0 0 56 56" fill="none" xmlns="http://www.w3.org/2000/svg">
<g clip-path="url(#clip0_216_123)">
<path d="M43.75 5.25H12.25C10.8003 5.25 9.625 6.42525 9.625 7.875V49.875C9.625 51.3247 10.8003 52.5 12.25 52.5H43.75C45.1997 52.5 46.375 51.3247 46.375 49.875V7.875C46.375 6.42525 45.1997 5.25 43.75 5.25Z" fill="#697489"/>
<path d="M43.75 7H14C12.5503 7 11.375 8.17525 11.375 9.625V49.875C11.375 51.3247 12.5503 52.5 14 52.5H43.75C45.1997 52.5 46.375 51.3247 46.375 49.875V9.625C46.375 8.17525 45.1997 7 43.75 7Z" fill="#5B6677"/>
<path d="M42.875 8.75V49H13.125V8.75H42.875Z" fill="#FAFAF0"/>
<path d="M31.5 4.375V3.5C31.5 3.03587 31.3156 2.59075 30.9874 2.26256C30.6592 1.93437 30.2141 1.75 29.75 1.75H26.25C25.7859 1.75 25.3408 1.93437 25.0126 2.26256C24.6844 2.59075 24.5 3.03587 24.5 3.5V4.375H22.75C22.0538 4.375 21.3861 4.65156 20.8938 5.14384C20.4016 5.63613 20.125 6.30381 20.125 7V9.625H35.875V7C35.875 6.30381 35.5984 5.63613 35.1062 5.14384C34.6139 4.65156 33.9462 4.375 33.25 4.375H31.5Z" fill="#FFD25A"/>
<path d="M17.5 40.25H21.875V44.625H17.5V40.25Z" fill="#8DC1FF"/>
<path d="M17.5 31.5H21.875V35.875H17.5V31.5Z" fill="#8DC1FF"/>
<path d="M17.5 22.75H21.875V27.125H17.5V22.75Z" fill="#8DC1FF"/>
<path d="M17.5 14H21.875V18.375H17.5V14Z" fill="#8DC1FF"/>
<path d="M1.75 17.5V44.7125C1.75123 46.3986 2.20447 48.0535 3.0625 49.5049H4.8125C5.67053 48.0535 6.12376 46.3986 6.125 44.7125V17.5H1.75Z" fill="#F9F7DE"/>
<path d="M4.8125 49.5005C5.66978 48.0504 6.12298 46.3971 6.125 44.7125V17.5H3.5V44.7125C3.50202 46.3971 3.95522 48.0504 4.8125 49.5005Z" fill="#EFEBBD"/>
<path d="M1.75 35.875H6.125V42H1.75V35.875Z" fill="#697489"/>
<path d="M3.5 35.875H6.125V42H3.5V35.875Z" fill="#5B6677"/>
<path d="M3.9375 12.25C4.22477 12.25 4.50922 12.3066 4.77462 12.4165C5.04002 12.5264 5.28117 12.6876 5.4843 12.8907C5.68742 13.0938 5.84855 13.335 5.95849 13.6004C6.06842 13.8658 6.125 14.1502 6.125 14.4375V17.5H1.75V14.4375C1.75 13.8573 1.98047 13.3009 2.3907 12.8907C2.80094 12.4805 3.35734 12.25 3.9375 12.25Z" fill="#FFE682"/>
<path d="M3.50009 16.1876V17.5001H6.12509V14.4376C6.12381 14.3043 6.11034 14.1713 6.08484 14.0404C5.76914 13.9786 5.44365 13.9878 5.13195 14.0674C4.82026 14.1469 4.53017 14.2949 4.28273 14.5004C4.03528 14.706 3.83668 14.964 3.70131 15.2559C3.56594 15.5477 3.49721 15.866 3.50009 16.1876Z" fill="#FFD25A"/>
<path d="M31.5 35H54.25V54.25H31.5V35Z" fill="#FACD8C"/>
<path d="M33.25 36.75H54.25V54.25H33.25V36.75Z" fill="#EBB978"/>
<path d="M45.0625 40.25L42.875 38.5L40.6875 40.25V35H45.0625V40.25Z" fill="#C88970"/>
<path d="M40.6875 36.75V40.25L42.875 38.5L45.0625 40.25V36.75H40.6875Z" fill="#BA6B4C"/>
<path d="M38.5 30.625H26.25C26.0179 30.625 25.7954 30.7172 25.6313 30.8813C25.4672 31.0454 25.375 31.2679 25.375 31.5C25.375 31.7321 25.4672 31.9546 25.6313 32.1187C25.7954 32.2828 26.0179 32.375 26.25 32.375H38.5C38.7321 32.375 38.9546 32.2828 39.1187 32.1187C39.2828 31.9546 39.375 31.7321 39.375 31.5C39.375 31.2679 39.2828 31.0454 39.1187 30.8813C38.9546 30.7172 38.7321 30.625 38.5 30.625Z" fill="black"/>
<path d="M21.875 39.375H17.5C17.2679 39.375 17.0454 39.4672 16.8813 39.6313C16.7172 39.7954 16.625 40.0179 16.625 40.25V44.625C16.625 44.8571 16.7172 45.0796 16.8813 45.2437C17.0454 45.4078 17.2679 45.5 17.5 45.5H21.875C22.1071 45.5 22.3296 45.4078 22.4937 45.2437C22.6578 45.0796 22.75 44.8571 22.75 44.625V40.25C22.75 40.0179 22.6578 39.7954 22.4937 39.6313C22.3296 39.4672 22.1071 39.375 21.875 39.375ZM21 43.75H18.375V41.125H21V43.75Z" fill="black"/>
<path d="M21.875 30.625H17.5C17.2679 30.625 17.0454 30.7172 16.8813 30.8813C16.7172 31.0454 16.625 31.2679 16.625 31.5V35.875C16.625 36.1071 16.7172 36.3296 16.8813 36.4937C17.0454 36.6578 17.2679 36.75 17.5 36.75H21.875C22.1071 36.75 22.3296 36.6578 22.4937 36.4937C22.6578 36.3296 22.75 36.1071 22.75 35.875V31.5C22.75 31.2679 22.6578 31.0454 22.4937 30.8813C22.3296 30.7172 22.1071 30.625 21.875 30.625ZM21 35H18.375V32.375H21V35Z" fill="black"/>
<path d="M38.5 13.125H26.25C26.0179 13.125 25.7954 13.2172 25.6313 13.3813C25.4672 13.5454 25.375 13.7679 25.375 14C25.375 14.2321 25.4672 14.4546 25.6313 14.6187C25.7954 14.7828 26.0179 14.875 26.25 14.875H38.5C38.7321 14.875 38.9546 14.7828 39.1187 14.6187C39.2828 14.4546 39.375 14.2321 39.375 14C39.375 13.7679 39.2828 13.5454 39.1187 13.3813C38.9546 13.2172 38.7321 13.125 38.5 13.125Z" fill="black"/>
<path d="M26.25 19.25H35C35.2321 19.25 35.4546 19.1578 35.6187 18.9937C35.7828 18.8296 35.875 18.6071 35.875 18.375C35.875 18.1429 35.7828 17.9204 35.6187 17.7563C35.4546 17.5922 35.2321 17.5 35 17.5H26.25C26.0179 17.5 25.7954 17.5922 25.6313 17.7563C25.4672 17.9204 25.375 18.1429 25.375 18.375C25.375 18.6071 25.4672 18.8296 25.6313 18.9937C25.7954 19.1578 26.0179 19.25 26.25 19.25Z" fill="black"/>
<path d="M38.5 21.875H26.25C26.0179 21.875 25.7954 21.9672 25.6313 22.1313C25.4672 22.2954 25.375 22.5179 25.375 22.75C25.375 22.9821 25.4672 23.2046 25.6313 23.3687C25.7954 23.5328 26.0179 23.625 26.25 23.625H38.5C38.7321 23.625 38.9546 23.5328 39.1187 23.3687C39.2828 23.2046 39.375 22.9821 39.375 22.75C39.375 22.5179 39.2828 22.2954 39.1187 22.1313C38.9546 21.9672 38.7321 21.875 38.5 21.875Z" fill="black"/>
<path d="M26.25 28H35C35.2321 28 35.4546 27.9078 35.6187 27.7437C35.7828 27.5796 35.875 27.3571 35.875 27.125C35.875 26.8929 35.7828 26.6704 35.6187 26.5063C35.4546 26.3422 35.2321 26.25 35 26.25H26.25C26.0179 26.25 25.7954 26.3422 25.6313 26.5063C25.4672 26.6704 25.375 26.8929 25.375 27.125C25.375 27.3571 25.4672 27.5796 25.6313 27.7437C25.7954 27.9078 26.0179 28 26.25 28Z" fill="black"/>
<path d="M21.875 21.875H17.5C17.2679 21.875 17.0454 21.9672 16.8813 22.1313C16.7172 22.2954 16.625 22.5179 16.625 22.75V27.125C16.625 27.3571 16.7172 27.5796 16.8813 27.7437C17.0454 27.9078 17.2679 28 17.5 28H21.875C22.1071 28 22.3296 27.9078 22.4937 27.7437C22.6578 27.5796 22.75 27.3571 22.75 27.125V22.75C22.75 22.5179 22.6578 22.2954 22.4937 22.1313C22.3296 21.9672 22.1071 21.875 21.875 21.875ZM21 26.25H18.375V23.625H21V26.25Z" fill="black"/>
<path d="M21.875 13.125H17.5C17.2679 13.125 17.0454 13.2172 16.8813 13.3813C16.7172 13.5454 16.625 13.7679 16.625 14V18.375C16.625 18.6071 16.7172 18.8296 16.8813 18.9937C17.0454 19.1578 17.2679 19.25 17.5 19.25H21.875C22.1071 19.25 22.3296 19.1578 22.4937 18.9937C22.6578 18.8296 22.75 18.6071 22.75 18.375V14C22.75 13.7679 22.6578 13.5454 22.4937 13.3813C22.3296 13.2172 22.1071 13.125 21.875 13.125ZM21 17.5H18.375V14.875H21V17.5Z" fill="black"/>
<path d="M3.9375 11.375C3.12527 11.375 2.34632 11.6977 1.77199 12.272C1.19766 12.8463 0.875 13.6253 0.875 14.4375V44.7125C0.879605 47.0089 1.64932 49.2383 3.0625 51.0484V52.5C3.0625 52.7321 3.15469 52.9546 3.31878 53.1187C3.48288 53.2828 3.70544 53.375 3.9375 53.375C4.16956 53.375 4.39212 53.2828 4.55622 53.1187C4.72031 52.9546 4.8125 52.7321 4.8125 52.5V51.044C6.22477 49.2351 6.99442 47.0074 7 44.7125V14.4375C7 13.6253 6.67734 12.8463 6.10301 12.272C5.52868 11.6977 4.74973 11.375 3.9375 11.375ZM5.25 44.7125C5.24789 46.3222 4.79307 47.8989 3.9375 49.2625C3.08193 47.8989 2.62711 46.3222 2.625 44.7125V42.875H5.25V44.7125ZM5.25 41.125H2.625V36.75H5.25V41.125ZM5.25 35H2.625V18.375H5.25V35ZM5.25 16.625H2.625V14.4375C2.625 14.0894 2.76328 13.7556 3.00942 13.5094C3.25556 13.2633 3.5894 13.125 3.9375 13.125C4.2856 13.125 4.61944 13.2633 4.86558 13.5094C5.11172 13.7556 5.25 14.0894 5.25 14.4375V16.625Z" fill="black"/>
<path d="M54.25 34.125H47.25V7.875C47.25 6.94674 46.8812 6.0565 46.2249 5.40013C45.5685 4.74375 44.6783 4.375 43.75 4.375H35.5408C34.9091 3.81428 34.0946 3.50317 33.25 3.5H32.375C32.375 2.80381 32.0984 2.13613 31.6062 1.64384C31.1139 1.15156 30.4462 0.875 29.75 0.875H26.25C25.5538 0.875 24.8861 1.15156 24.3938 1.64384C23.9016 2.13613 23.625 2.80381 23.625 3.5H22.75C21.9054 3.50317 21.0909 3.81428 20.4592 4.375H12.25C11.3217 4.375 10.4315 4.74375 9.77513 5.40013C9.11875 6.0565 8.75 6.94674 8.75 7.875V49.875C8.75 50.8033 9.11875 51.6935 9.77513 52.3499C10.4315 53.0062 11.3217 53.375 12.25 53.375H30.625V54.25C30.625 54.4821 30.7172 54.7046 30.8813 54.8687C31.0454 55.0328 31.2679 55.125 31.5 55.125H54.25C54.4821 55.125 54.7046 55.0328 54.8687 54.8687C55.0328 54.7046 55.125 54.4821 55.125 54.25V35C55.125 34.7679 55.0328 34.5454 54.8687 34.3813C54.7046 34.2172 54.4821 34.125 54.25 34.125ZM43.75 6.125C44.2141 6.125 44.6592 6.30937 44.9874 6.63756C45.3156 6.96575 45.5 7.41087 45.5 7.875V34.125H43.75V8.75C43.75 8.51794 43.6578 8.29538 43.4937 8.13128C43.3296 7.96719 43.1071 7.875 42.875 7.875H36.75V7C36.7463 6.70421 36.7045 6.41013 36.6258 6.125H43.75ZM44.1875 35.875V38.4291L43.4219 37.8166C43.2667 37.6924 43.0738 37.6247 42.875 37.6247C42.6762 37.6247 42.4833 37.6924 42.3281 37.8166L41.5625 38.4291V35.875H44.1875ZM21 7C21 6.53587 21.1844 6.09075 21.5126 5.76256C21.8408 5.43437 22.2859 5.25 22.75 5.25H24.5C24.7321 5.25 24.9546 5.15781 25.1187 4.99372C25.2828 4.82962 25.375 4.60706 25.375 4.375V3.5C25.375 3.26794 25.4672 3.04538 25.6313 2.88128C25.7954 2.71719 26.0179 2.625 26.25 2.625H29.75C29.9821 2.625 30.2046 2.71719 30.3687 2.88128C30.5328 3.04538 30.625 3.26794 30.625 3.5V4.375C30.625 4.60706 30.7172 4.82962 30.8813 4.99372C31.0454 5.15781 31.2679 5.25 31.5 5.25H33.25C33.7141 5.25 34.1593 5.43437 34.4874 5.76256C34.8156 6.09075 35 6.53587 35 7V8.75H21V7ZM30.625 51.625H12.25C11.7859 51.625 11.3408 51.4406 11.0126 51.1124C10.6844 50.7842 10.5 50.3391 10.5 49.875V7.875C10.5 7.41087 10.6844 6.96575 11.0126 6.63756C11.3408 6.30937 11.7859 6.125 12.25 6.125H19.3743C19.2955 6.41013 19.2537 6.70421 19.25 7V7.875H13.125C12.8929 7.875 12.6704 7.96719 12.5063 8.13128C12.3422 8.29538 12.25 8.51794 12.25 8.75V49C12.25 49.2321 12.3422 49.4546 12.5063 49.6187C12.6704 49.7828 12.8929 49.875 13.125 49.875H30.625V51.625ZM30.625 35H26.25C26.0179 35 25.7954 35.0922 25.6313 35.2563C25.4672 35.4204 25.375 35.6429 25.375 35.875C25.375 36.1071 25.4672 36.3296 25.6313 36.4937C25.7954 36.6578 26.0179 36.75 26.25 36.75H30.625V39.375H26.25C26.0179 39.375 25.7954 39.4672 25.6313 39.6313C25.4672 39.7954 25.375 40.0179 25.375 40.25C25.375 40.4821 25.4672 40.7046 25.6313 40.8687C25.7954 41.0328 26.0179 41.125 26.25 41.125H30.625V43.75H26.25C26.0179 43.75 25.7954 43.8422 25.6313 44.0063C25.4672 44.1704 25.375 44.3929 25.375 44.625C25.375 44.8571 25.4672 45.0796 25.6313 45.2437C25.7954 45.4078 26.0179 45.5 26.25 45.5H30.625V48.125H14V9.625H19.25C19.25 9.85706 19.3422 10.0796 19.5063 10.2437C19.6704 10.4078 19.8929 10.5 20.125 10.5H35.875C36.1071 10.5 36.3296 10.4078 36.4937 10.2437C36.6578 10.0796 36.75 9.85706 36.75 9.625H42V34.125H31.5C31.2679 34.125 31.0454 34.2172 30.8813 34.3813C30.7172 34.5454 30.625 34.7679 30.625 35ZM53.375 53.375H32.375V35.875H39.8125V40.25C39.8124 40.4149 39.859 40.5764 39.9467 40.716C40.0345 40.8556 40.1599 40.9675 40.3085 41.039C40.4571 41.1104 40.6228 41.1384 40.7866 41.1197C40.9505 41.101 41.1057 41.0364 41.2344 40.9334L42.875 39.6209L44.5156 40.9334C44.6443 41.0364 44.7995 41.101 44.9634 41.1197C45.1272 41.1384 45.2929 41.1104 45.4415 41.039C45.5901 40.9675 45.7155 40.8556 45.8033 40.716C45.891 40.5764 45.9376 40.4149 45.9375 40.25V35.875H53.375V53.375Z" fill="black"/>
<path d="M40.25 46.375H35C34.7679 46.375 34.5454 46.4672 34.3813 46.6313C34.2172 46.7954 34.125 47.0179 34.125 47.25C34.125 47.4821 34.2172 47.7046 34.3813 47.8687C34.5454 48.0328 34.7679 48.125 35 48.125H40.25C40.4821 48.125 40.7046 48.0328 40.8687 47.8687C41.0328 47.7046 41.125 47.4821 41.125 47.25C41.125 47.0179 41.0328 46.7954 40.8687 46.6313C40.7046 46.4672 40.4821 46.375 40.25 46.375Z" fill="black"/>
<path d="M40.25 49.875H35C34.7679 49.875 34.5454 49.9672 34.3813 50.1313C34.2172 50.2954 34.125 50.5179 34.125 50.75C34.125 50.9821 34.2172 51.2046 34.3813 51.3687C34.5454 51.5328 34.7679 51.625 35 51.625H40.25C40.4821 51.625 40.7046 51.5328 40.8687 51.3687C41.0328 51.2046 41.125 50.9821 41.125 50.75C41.125 50.5179 41.0328 50.2954 40.8687 50.1313C40.7046 49.9672 40.4821 49.875 40.25 49.875Z" fill="black"/>
</g>
<defs>
<clipPath id="clip0_216_123">
<rect width="56" height="56" fill="white"/>
</clipPath>
</defs>
</svg>
