<svg width="48" height="48" viewBox="0 0 48 48" fill="none" xmlns="http://www.w3.org/2000/svg">
<rect width="48" height="48" rx="24" fill="#FFC533"/>
<path d="M24.4993 33H20.5733C19.8567 33 19.1638 32.7434 18.6199 32.2768C18.0761 31.8102 17.7172 31.1643 17.6083 30.456L16.3533 22.304C16.3095 22.019 16.3278 21.7279 16.407 21.4506C16.4862 21.1733 16.6245 20.9164 16.8123 20.6976C17 20.4788 17.2329 20.3031 17.495 20.1827C17.757 20.0623 18.0419 20 18.3303 20H29.6693C29.9577 20 30.2426 20.0623 30.5047 20.1827C30.7667 20.3031 30.9996 20.4788 31.1874 20.6976C31.3752 20.9164 31.5134 21.1733 31.5926 21.4506C31.6718 21.7279 31.6901 22.019 31.6463 22.304L31.3833 24.012M27.9993 31H33.9993M30.9993 28V34" stroke="#2C2C2C" stroke-width="2" stroke-linecap="round" stroke-linejoin="round"/>
<path d="M21 23V18C21 17.2044 21.3161 16.4413 21.8787 15.8787C22.4413 15.3161 23.2044 15 24 15C24.7956 15 25.5587 15.3161 26.1213 15.8787C26.6839 16.4413 27 17.2044 27 18V23" stroke="#2C2C2C" stroke-width="2" stroke-linecap="round" stroke-linejoin="round"/>
</svg>
