<svg width="56" height="56" viewBox="0 0 56 56" fill="none" xmlns="http://www.w3.org/2000/svg">
<g clip-path="url(#clip0_197_11477)">
<path d="M30.6328 34.5623H25.3828V31.6923C26.2324 31.8498 27.1074 31.9373 27.9991 31.9373C28.9003 31.9373 29.7753 31.849 30.6328 31.6836V31.6923V34.5623Z" fill="#AAB2BD"/>
<path d="M28.0087 16.1875C28.9721 16.1963 29.75 16.9741 29.75 17.9375C29.75 18.9 28.9625 19.6875 28 19.6875C27.0375 19.6875 26.25 18.9 26.25 17.9375C26.25 16.9741 27.0375 16.1875 28 16.1875H28.0087Z" fill="#F04545"/>
<path d="M28.0087 16.1875H28C27.0375 16.1875 26.25 16.9741 26.25 17.9375C26.25 18.9 27.0375 19.6875 28 19.6875C28.9625 19.6875 29.75 18.9 29.75 17.9375C29.75 16.9741 28.9712 16.1962 28.0087 16.1875ZM39.375 17.9375V17.9462C39.375 20.0113 38.8237 21.9537 37.8438 23.625C35.8838 27.0287 32.2087 29.3125 28 29.3125C23.8 29.3125 20.125 27.0366 18.165 23.6425C17.185 21.9713 16.625 20.02 16.625 17.9462V17.9375C16.625 13.72 18.9175 10.0441 22.3212 8.085C23.9925 7.11375 25.935 6.5625 28 6.5625H28.0087C30.0825 6.5625 32.025 7.1225 33.6962 8.09375C35.4287 9.09125 36.8638 10.535 37.8612 12.2675C38.8237 13.9388 39.375 15.8725 39.375 17.9375Z" fill="#69D6F4"/>
<path d="M42 17.9375C42 24.7712 37.1087 30.4587 30.6337 31.6838C29.7762 31.8491 28.9012 31.9375 28 31.9375C27.1075 31.9375 26.2325 31.8491 25.3837 31.6925C18.9 30.4666 14 24.7791 14 17.9375C14 10.2025 20.265 3.9375 28 3.9375C35.735 3.9375 42 10.2025 42 17.9375ZM39.375 17.9462V17.9375C39.375 15.8725 38.8237 13.9388 37.8612 12.2675C36.8638 10.5359 35.4296 9.09125 33.6962 8.09375C32.025 7.1225 30.0825 6.5625 28.0087 6.5625H28C25.935 6.5625 23.9925 7.11375 22.3212 8.085C18.9175 10.0441 16.625 13.72 16.625 17.9375V17.9462C16.625 20.02 17.185 21.9713 18.165 23.6425C20.125 27.0366 23.8 29.3125 28 29.3125C32.2087 29.3125 35.8838 27.0287 37.8438 23.625C38.8237 21.9538 39.375 20.0112 39.375 17.9462Z" fill="#969FAA"/>
<path d="M45.5 34.5625C45.5 33.5991 46.2875 32.8125 47.25 32.8125H50.75C51.7125 32.8125 52.5 33.5991 52.5 34.5625V38.0625H45.5V34.5625Z" fill="#CCD1D9"/>
<path d="M45.5 46.8125V50.3125H42V48.5625V36.3125V34.5625H45.5V38.0625V46.8125Z" fill="#CCD1D9"/>
<path d="M45.5 38.0625H52.5V46.8125H45.5V38.0625Z" fill="#CCD1D9"/>
<path d="M16.6259 36.3125V48.5625H14.0009H13.9922V36.3125H14.0009H16.6259Z" fill="#AAB2BD"/>
<path d="M39.375 36.3125H42V48.5625H39.375V36.3125Z" fill="#AAB2BD"/>
<path d="M55.125 34.5625V50.3125H52.5V46.8125V38.0625V34.5625H55.125Z" fill="#CCD1D9"/>
<path d="M45.5 50.3125V46.8125H52.5V50.3125C52.5 51.275 51.7125 52.0625 50.75 52.0625H47.25C46.2875 52.0625 45.5 51.275 45.5 50.3125Z" fill="#CCD1D9"/>
<path d="M13.9922 48.5625V50.3125H10.4922V46.8125V38.0625V34.5625H13.9922V36.3125V48.5625Z" fill="#CCD1D9"/>
<path d="M39.375 48.5625V50.3125H16.625V48.5625V36.3125V34.5625H25.3837H30.6337H39.375V36.3125V48.5625Z" fill="#AAB2BD"/>
<path d="M3.5 46.8125V50.3125H0.875V34.5625H3.5V38.0625V46.8125Z" fill="#CCD1D9"/>
<path d="M10.4912 46.8125V50.3125C10.4912 51.275 9.70375 52.0625 8.74125 52.0625H5.25C4.2875 52.0625 3.5 51.275 3.5 50.3125V46.8125H10.4912Z" fill="#CCD1D9"/>
<path d="M10.9912 38.25V34.75C10.9912 33.7875 10.2037 33 9.24125 33H5.75C4.7875 33 4 33.7875 4 34.75V38.25H10.9912Z" fill="#CCD1D9"/>
<path d="M3.5 38.0625H10.4912V46.8125H3.5V38.0625Z" fill="#CCD1D9"/>
<path d="M50.7487 52.936H47.2539C45.8067 52.936 44.6289 51.7583 44.6289 50.311V34.561C44.6289 33.1138 45.8067 31.936 47.2539 31.936H50.7487C52.1959 31.936 53.3737 33.1138 53.3737 34.561V50.311C53.3737 51.7583 52.1959 52.936 50.7487 52.936ZM47.2539 33.686C46.7709 33.686 46.3789 34.078 46.3789 34.561V50.311C46.3789 50.794 46.7709 51.186 47.2539 51.186H50.7487C51.2317 51.186 51.6237 50.794 51.6237 50.311V34.561C51.6237 34.078 51.2317 33.686 50.7487 33.686H47.2539Z" fill="black"/>
<path d="M52.4987 38.936H45.5039C45.02 38.936 44.6289 38.5449 44.6289 38.061C44.6289 37.5772 45.02 37.186 45.5039 37.186H52.4987C52.9825 37.186 53.3737 37.5772 53.3737 38.061C53.3737 38.5449 52.9825 38.936 52.4987 38.936Z" fill="black"/>
<path d="M52.4987 47.686H45.5039C45.02 47.686 44.6289 47.2949 44.6289 46.811C44.6289 46.3272 45.02 45.936 45.5039 45.936H52.4987C52.9825 45.936 53.3737 46.3272 53.3737 46.811C53.3737 47.2949 52.9825 47.686 52.4987 47.686Z" fill="black"/>
<path d="M55.1267 35.436H52.5C52.0161 35.436 51.625 35.0449 51.625 34.561C51.625 34.0772 52.0161 33.686 52.5 33.686H55.1267C55.6106 33.686 56.0017 34.0772 56.0017 34.561C56.0017 35.0449 55.6106 35.436 55.1267 35.436Z" fill="black"/>
<path d="M55.1259 51.186H52.5C52.0161 51.186 51.625 50.7949 51.625 50.311C51.625 49.8272 52.0161 49.436 52.5 49.436H55.1259C55.6097 49.436 56.0009 49.8272 56.0009 50.311C56.0009 50.7949 55.6097 51.186 55.1259 51.186Z" fill="black"/>
<path d="M55.125 51.186C54.6411 51.186 54.25 50.7949 54.25 50.311V34.561C54.25 34.0772 54.6411 33.686 55.125 33.686C55.6089 33.686 56 34.0772 56 34.561V50.311C56 50.7949 55.6089 51.186 55.125 51.186Z" fill="black"/>
<path d="M45.5065 51.186H42.0039C41.52 51.186 41.1289 50.7949 41.1289 50.311C41.1289 49.8272 41.52 49.436 42.0039 49.436H45.5065C45.9904 49.436 46.3815 49.8272 46.3815 50.311C46.3815 50.7949 45.9904 51.186 45.5065 51.186Z" fill="black"/>
<path d="M45.5057 35.436H42.0039C41.52 35.436 41.1289 35.0449 41.1289 34.561C41.1289 34.0772 41.52 33.686 42.0039 33.686H45.5057C45.9895 33.686 46.3807 34.0772 46.3807 34.561C46.3807 35.0449 45.9895 35.436 45.5057 35.436Z" fill="black"/>
<path d="M42.0039 51.186C41.52 51.186 41.1289 50.7949 41.1289 50.311V34.561C41.1289 34.0772 41.52 33.686 42.0039 33.686C42.4878 33.686 42.8789 34.0772 42.8789 34.561V50.311C42.8789 50.7949 42.4878 51.186 42.0039 51.186Z" fill="black"/>
<path d="M42.0028 37.186H39.377C38.8931 37.186 38.502 36.7949 38.502 36.311C38.502 35.8272 38.8931 35.436 39.377 35.436H42.0028C42.4867 35.436 42.8778 35.8272 42.8778 36.311C42.8778 36.7949 42.4867 37.186 42.0028 37.186Z" fill="black"/>
<path d="M42.0028 49.436H39.377C38.8931 49.436 38.502 49.0449 38.502 48.561C38.502 48.0772 38.8931 47.686 39.377 47.686H42.0028C42.4867 47.686 42.8778 48.0772 42.8778 48.561C42.8778 49.0449 42.4867 49.436 42.0028 49.436Z" fill="black"/>
<path d="M8.7467 52.936H5.25195C3.8047 52.936 2.62695 51.7583 2.62695 50.311V34.561C2.62695 33.1138 3.8047 31.936 5.25195 31.936H8.7467C10.194 31.936 11.3717 33.1138 11.3717 34.561V50.311C11.3717 51.7583 10.194 52.936 8.7467 52.936ZM5.25195 33.686C4.76895 33.686 4.37695 34.078 4.37695 34.561V50.311C4.37695 50.794 4.76895 51.186 5.25195 51.186H8.7467C9.2297 51.186 9.6217 50.794 9.6217 50.311V34.561C9.6217 34.078 9.2297 33.686 8.7467 33.686H5.25195Z" fill="black"/>
<path d="M10.4967 38.936H3.50195C3.01808 38.936 2.62695 38.5449 2.62695 38.061C2.62695 37.5772 3.01808 37.186 3.50195 37.186H10.4967C10.9806 37.186 11.3717 37.5772 11.3717 38.061C11.3717 38.5449 10.9806 38.936 10.4967 38.936Z" fill="black"/>
<path d="M10.4967 47.686H3.50195C3.01808 47.686 2.62695 47.2949 2.62695 46.811C2.62695 46.3272 3.01808 45.936 3.50195 45.936H10.4967C10.9806 45.936 11.3717 46.3272 11.3717 46.811C11.3717 47.2949 10.9806 47.686 10.4967 47.686Z" fill="black"/>
<path d="M3.50175 35.436H0.875C0.391125 35.436 0 35.0449 0 34.561C0 34.0772 0.391125 33.686 0.875 33.686H3.50175C3.98562 33.686 4.37675 34.0772 4.37675 34.561C4.37675 35.0449 3.98562 35.436 3.50175 35.436Z" fill="black"/>
<path d="M3.50087 51.186H0.875C0.391125 51.186 0 50.7949 0 50.311C0 49.8272 0.391125 49.436 0.875 49.436H3.50087C3.98475 49.436 4.37587 49.8272 4.37587 50.311C4.37587 50.7949 3.98475 51.186 3.50087 51.186Z" fill="black"/>
<path d="M0.875 51.186C0.391125 51.186 0 50.7949 0 50.311V34.561C0 34.0772 0.391125 33.686 0.875 33.686C1.35888 33.686 1.75 34.0772 1.75 34.561V50.311C1.75 50.7949 1.35888 51.186 0.875 51.186Z" fill="black"/>
<path d="M13.9968 51.186H10.4941C10.0103 51.186 9.61914 50.7949 9.61914 50.311C9.61914 49.8272 10.0103 49.436 10.4941 49.436H13.9968C14.4806 49.436 14.8718 49.8272 14.8718 50.311C14.8718 50.7949 14.4806 51.186 13.9968 51.186Z" fill="black"/>
<path d="M13.9959 35.436H10.4941C10.0103 35.436 9.61914 35.0449 9.61914 34.561C9.61914 34.0772 10.0103 33.686 10.4941 33.686H13.9959C14.4798 33.686 14.8709 34.0772 14.8709 34.561C14.8709 35.0449 14.4798 35.436 13.9959 35.436Z" fill="black"/>
<path d="M13.9961 51.186C13.5122 51.186 13.1211 50.7949 13.1211 50.311V34.561C13.1211 34.0772 13.5122 33.686 13.9961 33.686C14.48 33.686 14.8711 34.0772 14.8711 34.561V50.311C14.8711 50.7949 14.48 51.186 13.9961 51.186Z" fill="black"/>
<path d="M16.6239 37.186H13.998C13.5142 37.186 13.123 36.7949 13.123 36.311C13.123 35.8272 13.5142 35.436 13.998 35.436H16.6239C17.1078 35.436 17.4989 35.8272 17.4989 36.311C17.4989 36.7949 17.1078 37.186 16.6239 37.186Z" fill="black"/>
<path d="M16.6239 49.436H13.998C13.5142 49.436 13.123 49.0449 13.123 48.561C13.123 48.0772 13.5142 47.686 13.998 47.686H16.6239C17.1078 47.686 17.4989 48.0772 17.4989 48.561C17.4989 49.0449 17.1078 49.436 16.6239 49.436Z" fill="black"/>
<path d="M39.3767 51.186H16.625C16.1411 51.186 15.75 50.7949 15.75 50.311V34.561C15.75 34.0772 16.1411 33.686 16.625 33.686H39.3767C39.8606 33.686 40.2517 34.0772 40.2517 34.561V50.311C40.2517 50.7949 39.8606 51.186 39.3767 51.186ZM17.5 49.436H38.5017V35.436H17.5V49.436Z" fill="black"/>
<path d="M30.6406 35.4358C30.1568 35.4358 29.7656 35.0447 29.7656 34.5608V31.6899C29.7656 31.2061 30.1568 30.8149 30.6406 30.8149C31.1245 30.8149 31.5156 31.2061 31.5156 31.6899V34.5608C31.5156 35.0447 31.1236 35.4358 30.6406 35.4358Z" fill="black"/>
<path d="M25.3906 35.4359C24.9068 35.4359 24.5156 35.0448 24.5156 34.5609V31.6953C24.5156 31.2114 24.9068 30.8203 25.3906 30.8203C25.8745 30.8203 26.2656 31.2114 26.2656 31.6953V34.5609C26.2656 35.0448 25.8736 35.4359 25.3906 35.4359Z" fill="black"/>
<path d="M28 32.8145C19.7978 32.8145 13.125 26.1417 13.125 17.9395C13.125 9.7372 19.7978 3.06445 28 3.06445C36.2022 3.06445 42.875 9.7372 42.875 17.9395C42.875 26.1417 36.2022 32.8145 28 32.8145ZM28 4.81445C20.7629 4.81445 14.875 10.7023 14.875 17.9395C14.875 25.1766 20.7629 31.0645 28 31.0645C35.2371 31.0645 41.125 25.1766 41.125 17.9395C41.125 10.7023 35.2371 4.81445 28 4.81445Z" fill="black"/>
<path d="M28 30.1895C21.245 30.1895 15.75 24.6945 15.75 17.9395C15.75 11.1845 21.245 5.68945 28 5.68945C34.755 5.68945 40.25 11.1845 40.25 17.9395C40.25 24.6945 34.755 30.1895 28 30.1895ZM28 7.43945C22.2101 7.43945 17.5 12.1496 17.5 17.9395C17.5 23.7293 22.2101 28.4395 28 28.4395C33.7899 28.4395 38.5 23.7293 38.5 17.9395C38.5 12.1496 33.7899 7.43945 28 7.43945Z" fill="black"/>
<path d="M28 20.5645C26.5527 20.5645 25.375 19.3867 25.375 17.9395C25.375 16.4922 26.5527 15.3145 28 15.3145C29.4472 15.3145 30.625 16.4922 30.625 17.9395C30.625 19.3867 29.4472 20.5645 28 20.5645ZM28 17.0645C27.517 17.0645 27.125 17.4565 27.125 17.9395C27.125 18.4225 27.517 18.8145 28 18.8145C28.483 18.8145 28.875 18.4225 28.875 17.9395C28.875 17.4565 28.483 17.0645 28 17.0645Z" fill="black"/>
<path d="M28.0156 8.3267C27.5317 8.3267 27.1406 7.93558 27.1406 7.4517V6.56445C27.1406 6.08058 27.5317 5.68945 28.0156 5.68945C28.4995 5.68945 28.8906 6.08058 28.8906 6.56445V7.4517C28.8906 7.9347 28.4986 8.3267 28.0156 8.3267Z" fill="black"/>
<path d="M22.7657 9.73288C22.4638 9.73288 22.1698 9.57626 22.0079 9.29626L21.5634 8.52888C21.321 8.11063 21.4637 7.57513 21.8819 7.33363C22.2993 7.09038 22.8348 7.23476 23.0772 7.65213L23.5217 8.41951C23.764 8.83776 23.6214 9.37326 23.2032 9.61476C23.0649 9.69526 22.9144 9.73288 22.7657 9.73288Z" fill="black"/>
<path d="M18.9201 13.5768C18.7722 13.5768 18.6217 13.5392 18.4843 13.4596L17.7161 13.0168C17.297 12.7762 17.1526 12.2407 17.395 11.8224C17.6347 11.4033 18.1711 11.2581 18.5893 11.5013L19.3576 11.9441C19.7767 12.1847 19.9211 12.7202 19.6787 13.1384C19.5177 13.4193 19.2228 13.5768 18.9201 13.5768Z" fill="black"/>
<path d="M37.8752 24.5204C37.7264 24.5204 37.5759 24.4828 37.4377 24.4023L36.6694 23.9578C36.2512 23.7163 36.1077 23.1808 36.3509 22.7626C36.5907 22.3434 37.1253 22.1982 37.5462 22.4441L38.3144 22.8886C38.7327 23.1301 38.8762 23.6656 38.6329 24.0838C38.4719 24.3647 38.1779 24.5204 37.8752 24.5204Z" fill="black"/>
<path d="M17.5162 18.8267H16.6289C16.145 18.8267 15.7539 18.4355 15.7539 17.9517C15.7539 17.4678 16.145 17.0767 16.6289 17.0767H17.5162C18 17.0767 18.3912 17.4678 18.3912 17.9517C18.3912 18.4355 17.9992 18.8267 17.5162 18.8267Z" fill="black"/>
<path d="M39.4029 18.8267H38.5156C38.0318 18.8267 37.6406 18.4355 37.6406 17.9517C37.6406 17.4678 38.0318 17.0767 38.5156 17.0767H39.4029C39.8867 17.0767 40.2779 17.4678 40.2779 17.9517C40.2779 18.4355 39.8867 18.8267 39.4029 18.8267Z" fill="black"/>
<path d="M18.1552 24.5187C17.8524 24.5187 17.5584 24.3612 17.3966 24.0812C17.1551 23.6621 17.2986 23.1275 17.7168 22.886L18.4842 22.4432C18.9033 22.2017 19.4371 22.3461 19.6794 22.7635C19.9209 23.1826 19.7774 23.7173 19.3592 23.9588L18.5918 24.4015C18.4536 24.482 18.3039 24.5187 18.1552 24.5187Z" fill="black"/>
<path d="M37.1102 13.5766C36.8084 13.5766 36.5144 13.42 36.3525 13.14C36.1101 12.7217 36.2527 12.1862 36.671 11.9447L37.4384 11.5002C37.8557 11.2579 38.3921 11.4014 38.6336 11.8187C38.876 12.237 38.7334 12.7725 38.3151 13.014L37.5477 13.4585C37.4104 13.539 37.259 13.5766 37.1102 13.5766Z" fill="black"/>
<path d="M33.2654 9.73278C33.1175 9.73278 32.967 9.69516 32.8296 9.61553C32.4105 9.37491 32.2661 8.8394 32.5076 8.42115L32.9504 7.65203C33.1919 7.23291 33.7265 7.08766 34.1456 7.33091C34.5648 7.57153 34.7091 8.10703 34.4676 8.52528L34.0249 9.2944C33.8621 9.57528 33.5673 9.73278 33.2654 9.73278Z" fill="black"/>
<path d="M28.0156 17.0644C27.5317 17.0644 27.1406 16.6733 27.1406 16.1894V10.0767C27.1406 9.59279 27.5317 9.20166 28.0156 9.20166C28.4995 9.20166 28.8906 9.59279 28.8906 10.0767V16.1894C28.8906 16.6733 28.4986 17.0644 28.0156 17.0644Z" fill="black"/>
<path d="M28 22.3267C27.5161 22.3267 27.125 21.9356 27.125 21.4517V19.6895C27.125 19.2056 27.5161 18.8145 28 18.8145C28.4839 18.8145 28.875 19.2056 28.875 19.6895V21.4517C28.875 21.9347 28.4839 22.3267 28 22.3267Z" fill="black"/>
<path d="M30.6387 25.8286H25.3887C24.9048 25.8286 24.5137 25.4375 24.5137 24.9536C24.5137 24.4697 24.9048 24.0786 25.3887 24.0786H30.6387C31.1225 24.0786 31.5137 24.4697 31.5137 24.9536C31.5137 25.4375 31.1217 25.8286 30.6387 25.8286Z" fill="#FFEAA7"/>
</g>
<defs>
<clipPath id="clip0_197_11477">
<rect width="56" height="56" fill="white"/>
</clipPath>
</defs>
</svg>
