<svg width="56" height="56" viewBox="0 0 56 56" fill="none" xmlns="http://www.w3.org/2000/svg">
<path d="M43.75 42.875C43.75 44.2674 43.1969 45.6027 42.2123 46.5873C41.2277 47.5719 39.8924 48.125 38.5 48.125H17.5C16.1076 48.125 14.7723 47.5719 13.7877 46.5873C12.8031 45.6027 12.25 44.2674 12.25 42.875V21H43.75V42.875Z" fill="#4CA757"/>
<path d="M17.5 13.125H38.5C39.8924 13.125 41.2277 13.6781 42.2123 14.6627C43.1969 15.6473 43.75 16.9826 43.75 18.375V21H12.25V18.375C12.25 16.9826 12.8031 15.6473 13.7877 14.6627C14.7723 13.6781 16.1076 13.125 17.5 13.125Z" fill="#119035"/>
<path d="M15.3125 48.125H40.6875C42.3789 48.125 43.75 49.4961 43.75 51.1875C43.75 52.8789 42.3789 54.25 40.6875 54.25H15.3125C13.6211 54.25 12.25 52.8789 12.25 51.1875C12.25 49.4961 13.6211 48.125 15.3125 48.125Z" fill="#119035"/>
<path d="M28 28.875L24.8833 33.551C24.5071 34.1151 24.2911 34.7708 24.2584 35.448C24.2256 36.1253 24.3772 36.7987 24.6972 37.3966C25.0171 37.9944 25.4933 38.4942 26.075 38.8426C26.6566 39.191 27.322 39.375 28 39.375C28.6781 39.375 29.3434 39.191 29.9251 38.8426C30.5068 38.4942 30.983 37.9944 31.3029 37.3966C31.6228 36.7987 31.7745 36.1253 31.7417 35.448C31.7089 34.7708 31.4929 34.1151 31.1168 33.551L28 28.875Z" fill="#F0BE6E"/>
<path d="M27.9998 40.9064C27.0446 40.9063 26.1074 40.647 25.288 40.1561C24.4686 39.6652 23.7977 38.9612 23.347 38.1191C22.8962 37.2769 22.6824 36.3282 22.7285 35.3742C22.7745 34.4201 23.0785 33.4964 23.6082 32.7015L26.7258 28.0255C26.8657 27.8158 27.0551 27.6438 27.2774 27.5249C27.4996 27.406 27.7478 27.3438 27.9998 27.3438C28.2519 27.3438 28.5001 27.406 28.7223 27.5249C28.9445 27.6438 29.134 27.8158 29.2738 28.0255L32.3915 32.7015C32.9212 33.4964 33.2252 34.4201 33.2712 35.3742C33.3172 36.3282 33.1035 37.2769 32.6527 38.1191C32.2019 38.9612 31.5311 39.6652 30.7117 40.1561C29.8923 40.647 28.955 40.9063 27.9998 40.9064ZM29.8426 34.3999L27.9998 31.6357L26.1571 34.3999C25.9348 34.7334 25.8071 35.121 25.7878 35.5214C25.7685 35.9218 25.8581 36.3199 26.0473 36.6733C26.2364 37.0267 26.5179 37.3221 26.8618 37.5281C27.2057 37.7341 27.599 37.8428 27.9998 37.8428C28.4007 37.8428 28.794 37.7341 29.1379 37.5281C29.4817 37.3221 29.7632 37.0267 29.9524 36.6733C30.1415 36.3199 30.2312 35.9218 30.2119 35.5214C30.1925 35.121 30.0649 34.7334 29.8426 34.3999Z" fill="#2C2C2C"/>
<path d="M10.718 18.375C10.7203 16.6909 11.3484 15.0678 12.4802 13.8208C13.6121 12.5738 15.167 11.7919 16.843 11.627V3.28125H14.8742C14.4681 3.28125 14.0786 3.11992 13.7915 2.83276C13.5043 2.54559 13.343 2.15611 13.343 1.75C13.343 1.34389 13.5043 0.954408 13.7915 0.667243C14.0786 0.380078 14.4681 0.21875 14.8742 0.21875H41.1242C41.5303 0.21875 41.9198 0.380078 42.207 0.667243C42.4941 0.954408 42.6555 1.34389 42.6555 1.75C42.6555 2.15611 42.4941 2.54559 42.207 2.83276C41.9198 3.11992 41.5303 3.28125 41.1242 3.28125H39.1555V11.627C40.8314 11.7919 42.3863 12.5738 43.5182 13.8208C44.6501 15.0678 45.2781 16.6909 45.2805 18.375V42.875C45.2799 44.6041 44.616 46.2672 43.4255 47.5212C44.2012 48.0951 44.7759 48.8994 45.0673 49.8192C45.3588 50.7391 45.3523 51.7275 45.0486 52.6435C44.7449 53.5594 44.1596 54.3559 43.3763 54.9194C42.593 55.4829 41.6517 55.7845 40.6867 55.7812H15.3117C14.3468 55.7845 13.4055 55.4829 12.6221 54.9194C11.8388 54.3559 11.2535 53.5594 10.9499 52.6435C10.6462 51.7275 10.6396 50.7391 10.9311 49.8192C11.2226 48.8994 11.7972 48.0951 12.573 47.5212C11.3825 46.2672 10.7185 44.6041 10.718 42.875V18.375ZM36.093 3.28125H19.9055V11.5937H26.468V9.625C26.468 9.21889 26.6293 8.82941 26.9165 8.54224C27.2036 8.25508 27.5931 8.09375 27.9992 8.09375C28.4053 8.09375 28.7948 8.25508 29.082 8.54224C29.3691 8.82941 29.5305 9.21889 29.5305 9.625V11.5937H36.093V3.28125ZM15.3117 52.7187H40.6867C41.0928 52.7187 41.4823 52.5574 41.7695 52.2703C42.0566 51.9831 42.218 51.5936 42.218 51.1875C42.218 50.7814 42.0566 50.3919 41.7695 50.1047C41.4823 49.8176 41.0928 49.6562 40.6867 49.6562H15.3117C14.9056 49.6562 14.5161 49.8176 14.229 50.1047C13.9418 50.3919 13.7805 50.7814 13.7805 51.1875C13.7805 51.5936 13.9418 51.9831 14.229 52.2703C14.5161 52.5574 14.9056 52.7187 15.3117 52.7187ZM13.7805 42.875C13.7816 43.8609 14.1738 44.8061 14.8709 45.5033C15.5681 46.2004 16.5133 46.5926 17.4992 46.5937H38.4992C39.4851 46.5926 40.4303 46.2004 41.1275 45.5033C41.8246 44.8061 42.2168 43.8609 42.218 42.875V22.5312H13.7805V42.875ZM13.7805 19.4687H42.218V18.375C42.2168 17.3891 41.8246 16.4439 41.1275 15.7467C40.4303 15.0496 39.4851 14.6574 38.4992 14.6562H17.4992C16.5133 14.6574 15.5681 15.0496 14.8709 15.7467C14.1738 16.4439 13.7816 17.3891 13.7805 18.375V19.4687Z" fill="#2C2C2C"/>
</svg>
