<svg width="52" height="53" viewBox="0 0 52 53" fill="none" xmlns="http://www.w3.org/2000/svg">
<g clip-path="url(#clip0_197_11713)">
<path d="M1.625 34.7812H50.375V48.0312H1.625V34.7812Z" fill="#AAB2BD"/>
<path d="M12.1875 48.0312L11.375 51.3438H4.875L4.0625 48.0312H12.1875Z" fill="#838F9B"/>
<path d="M47.9375 48.0312L47.125 51.3438H40.625L39.8125 48.0312H47.9375Z" fill="#838F9B"/>
<path d="M1.625 38.0938H11.375V44.7188H1.625V38.0938Z" fill="#FCD770"/>
<path d="M40.625 38.0938H50.375V44.7188H40.625V38.0938Z" fill="#FCD770"/>
<path d="M32.5 44.7188C34.2949 44.7188 35.75 43.2357 35.75 41.4062C35.75 39.5768 34.2949 38.0938 32.5 38.0938C30.7051 38.0938 29.25 39.5768 29.25 41.4062C29.25 43.2357 30.7051 44.7188 32.5 44.7188Z" fill="#A0D468"/>
<path d="M19.5 44.7188C21.2949 44.7188 22.75 43.2357 22.75 41.4062C22.75 39.5768 21.2949 38.0938 19.5 38.0938C17.7051 38.0938 16.25 39.5768 16.25 41.4062C16.25 43.2357 17.7051 44.7188 19.5 44.7188Z" fill="#A0D468"/>
<path d="M47.125 23.1875H4.875L1.625 34.7812H50.375L47.125 23.1875Z" fill="#CCD1D9"/>
<path d="M38.9837 23.1875C38.7644 18.2022 36.5625 17.9703 36.5625 13.25C36.5625 13.25 35.7662 13.1175 34.8156 13.4984C34.2225 8.70359 31.6875 9.70563 31.6875 1.65625C31.6875 1.65625 26 1.65625 26 12.4219V14.0781C26 3.3125 20.3125 3.3125 20.3125 3.3125C20.3125 10.5503 18.2569 10.4675 17.42 13.8711C16.3719 13.25 15.4375 13.25 15.4375 13.25C15.4375 17.9703 13.2356 18.2022 13.0163 23.1875C13.0081 23.4525 13 23.7258 13 24.0156C13 24.7195 13.065 25.3655 13.195 25.97C13.6987 28.4709 15.2019 30.1189 17.2169 30.9139L17.3956 30.9884V31.0133C19.6706 31.2783 22.2788 31.4356 25.0738 31.4605C25.0494 31.4605 25.025 31.4605 25.0006 31.4522C23.7331 31.3942 22.5956 30.8477 21.7588 29.9947C20.865 29.0838 20.3125 27.825 20.3125 26.4338C20.3125 25.3986 20.6213 24.3883 21.2063 23.5436L22.2219 22.0612L26 16.5625L29.7781 22.0612L30.7938 23.5436C31.3788 24.3883 31.6875 25.3986 31.6875 26.4338C31.6875 29.1334 29.6156 31.328 26.9994 31.4522C26.975 31.4605 26.9506 31.4605 26.9262 31.4605C29.6562 31.4356 32.2156 31.2783 34.45 31.0381C34.4581 31.0298 34.4662 31.0298 34.4662 31.0298C36.6437 30.2845 38.285 28.5952 38.805 25.9617C38.935 25.3655 39 24.7113 39 24.0156C39 23.7258 38.9919 23.4525 38.9837 23.1875Z" fill="#FF826E"/>
<path d="M29.25 28.9181C29.25 28.3881 29.0956 27.883 28.795 27.4523L26 23.378L23.205 27.4523C22.9044 27.883 22.75 28.3881 22.75 28.9181C22.75 30.2348 23.7331 31.328 25.0006 31.4522C23.7331 31.3942 22.5956 30.8477 21.7588 29.9947C20.865 29.0837 20.3125 27.825 20.3125 26.4337C20.3125 25.3986 20.6213 24.3883 21.2063 23.5436L22.2219 22.0612L26 16.5625L29.7781 22.0612L30.7938 23.5436C31.3788 24.3883 31.6875 25.3986 31.6875 26.4337C31.6875 29.1334 29.6156 31.328 26.9994 31.4522C28.2669 31.328 29.25 30.2348 29.25 28.9181Z" fill="#FC6E51"/>
<path d="M29.25 28.9181C29.25 30.2348 28.2669 31.3279 26.9994 31.4521C26.975 31.4604 26.9506 31.4604 26.9262 31.4604C26.91 31.4604 26.8856 31.4604 26.8694 31.4604C26.585 31.4687 26.2925 31.4687 26 31.4687C25.7075 31.4687 25.415 31.4687 25.1306 31.4604C25.1144 31.4604 25.09 31.4604 25.0738 31.4604C25.0494 31.4604 25.025 31.4604 25.0006 31.4521C23.7331 31.3279 22.75 30.2348 22.75 28.9181C22.75 28.3881 22.9044 27.8829 23.205 27.4523L26 23.3779L28.795 27.4523C29.0956 27.8829 29.25 28.3881 29.25 28.9181Z" fill="#E9573F"/>
<path d="M17.3956 31.0135C12.3337 30.4421 8.9375 29.3738 8.9375 28.1565C8.9375 27.3201 10.5462 26.5499 13.195 25.9702C13.6988 28.4712 15.2019 30.1191 17.2169 30.9141L17.3956 30.9887V31.0135Z" fill="#E6E9ED"/>
<path d="M38.8055 25.9619C41.4543 26.5499 43.063 27.32 43.063 28.1564C43.063 29.3904 39.6018 30.4586 34.4668 31.03C36.6443 30.2847 38.2855 28.5954 38.8055 25.9619Z" fill="#E6E9ED"/>
<path d="M51.1875 34.7812L47.7376 22.3594H39.7313C39.5306 20.2327 38.9651 18.9566 38.4483 17.8196C37.8722 16.5509 37.375 15.4561 37.375 13.25V12.5486L36.6966 12.4326C36.6576 12.426 36.1579 12.3507 35.4689 12.4666C35.1618 10.9428 34.6442 10.0145 34.1396 9.11931C33.3328 7.69328 32.5 6.21839 32.5 1.65625V0.828125H31.6875C31.4706 0.828125 27.2732 0.919218 25.7416 7.19641C23.9476 2.56222 20.5083 2.48438 20.3125 2.48438H19.5V3.3125C19.5 7.87464 18.6672 9.34953 17.8612 10.7764C17.5305 11.3619 17.1933 11.9656 16.9122 12.7415C16.0826 12.4343 15.4562 12.4219 15.4375 12.4219H14.625V13.25C14.625 15.4561 14.1278 16.5509 13.5517 17.8196C13.0349 18.9566 12.4694 20.2327 12.2688 22.3594H4.26237L0.844188 34.5543L0.8125 48.8594H3.42794L4.24044 52.1719H12.0096L12.8221 48.8594H39.1779L39.9904 52.1719H47.7596L48.5721 48.8594H51.1875V34.7812ZM39.3835 26.9563C41.3278 27.454 42.0623 27.9459 42.2272 28.1596C41.9356 28.6001 40.4503 29.1881 37.9072 29.6817C38.5677 28.914 39.065 27.9989 39.3835 26.9563ZM15.0264 18.5144C15.5472 17.3691 16.0826 16.189 16.2175 14.228C17.4029 14.609 19.5 15.9538 19.5 20.7031H21.125C21.125 16.6693 19.7576 14.6023 18.3641 13.5407C18.6079 12.792 18.9174 12.2264 19.2701 11.602C20.0793 10.1702 20.9885 8.55867 21.112 4.3137C22.5014 4.81223 25.1875 6.72272 25.1875 14.0781H26.8125V12.4219C26.8125 5.05984 29.5035 3.15184 30.8888 2.65745C31.0115 6.90325 31.9215 8.51312 32.7308 9.94661C33.2345 10.8385 33.6765 11.6252 33.9235 13.0314C33.6968 13.1647 33.4693 13.3187 33.2443 13.5133C31.6721 14.8698 30.875 17.2888 30.875 20.7031H32.5C32.5 17.8593 33.1118 15.818 34.2696 14.7978C34.7994 14.3307 35.3576 14.151 35.7736 14.0864C35.8922 16.1344 36.4406 17.3426 36.9736 18.5152C37.5976 19.8899 38.1875 21.1876 38.1875 24.0156C38.1875 27.1343 36.79 29.333 34.2566 30.2224C33.2239 30.3359 32.0978 30.4319 30.8791 30.5023C31.8801 29.4465 32.5 28.0122 32.5 26.4313C32.5 25.2214 32.1401 24.0587 31.46 23.0683L26 15.1183L20.5408 23.0683C19.8599 24.0587 19.5 25.2214 19.5 26.4313C19.5 28.0122 20.1199 29.4465 21.1209 30.5023C19.8778 30.4303 18.7322 30.3317 17.6824 30.215L17.5102 30.1413C15.1263 29.2013 13.8125 27.0259 13.8125 24.0156C13.8125 21.1876 14.4024 19.8899 15.0264 18.5144ZM30.0625 28.9148C30.0625 28.2175 29.8553 27.5476 29.4629 26.9778L26 21.9345L22.5371 26.9778C22.1455 27.5476 21.9375 28.2175 21.9375 28.9148C21.4329 28.2167 21.125 27.3629 21.125 26.4313C21.125 25.5626 21.3834 24.7286 21.8717 24.0181L26 18.0068L30.1291 24.0189C30.6166 24.7286 30.875 25.5626 30.875 26.4313C30.875 27.3629 30.5671 28.2167 30.0625 28.9148ZM25.1761 30.6323C24.2808 30.5893 23.5625 29.839 23.5625 28.9156C23.5625 28.5604 23.6681 28.2192 23.868 27.9285L26 24.8239L28.132 27.9285C28.3319 28.2184 28.4375 28.5595 28.4375 28.9156C28.4375 29.839 27.7192 30.5893 26.8239 30.6323C26.5484 30.6348 26.2819 30.6406 26 30.6406C25.7181 30.6406 25.4516 30.6348 25.1761 30.6323ZM14.0757 29.6783C11.5432 29.1856 10.0636 28.6001 9.77275 28.1596C9.9385 27.9467 10.6738 27.454 12.623 26.9555C12.9415 27.9906 13.4225 28.9132 14.0757 29.6783ZM5.48763 24.0156H12.1875C12.1875 24.4719 12.2151 24.915 12.2671 25.3431C9.45912 26.0528 8.125 26.953 8.125 28.1562C8.125 31.8025 21.2981 32.2406 25.1339 32.2903C25.1745 32.2911 25.2135 32.2969 25.2549 32.2969H26.7451C26.7857 32.2969 26.8255 32.2911 26.8661 32.2903C30.7019 32.2406 43.875 31.8025 43.875 28.1562C43.875 26.9522 42.5401 26.0512 39.7304 25.3423C39.7824 24.9141 39.8125 24.4736 39.8125 24.0156H46.5124L49.2984 33.9531H2.70237L5.48763 24.0156ZM2.4375 38.9219H10.5625V43.8906H2.4375V38.9219ZM10.7404 50.5156H5.50956L5.10331 48.8594H11.1467L10.7404 50.5156ZM46.4904 50.5156H41.2596L40.8533 48.8594H46.8967L46.4904 50.5156ZM2.4375 47.2031V45.5469H12.1875V37.2656H2.4375V35.6094H49.5625V37.2656H39.8125V45.5469H49.5625V47.2031H2.4375ZM49.5625 38.9219V43.8906H41.4375V38.9219H49.5625Z" fill="black"/>
<path d="M32.5 37.2656C30.2599 37.2656 28.4375 39.1231 28.4375 41.4062C28.4375 43.6894 30.2599 45.5469 32.5 45.5469C34.7401 45.5469 36.5625 43.6894 36.5625 41.4062C36.5625 39.1231 34.7401 37.2656 32.5 37.2656ZM32.5 43.8906C31.1561 43.8906 30.0625 42.776 30.0625 41.4062C30.0625 40.328 30.7442 39.4171 31.6875 39.0742V42.2344H33.3125V39.0742C34.2558 39.4171 34.9375 40.328 34.9375 41.4062C34.9375 42.776 33.8439 43.8906 32.5 43.8906Z" fill="black"/>
<path d="M19.5 37.2656C17.2599 37.2656 15.4375 39.1231 15.4375 41.4062C15.4375 43.6894 17.2599 45.5469 19.5 45.5469C21.7401 45.5469 23.5625 43.6894 23.5625 41.4062C23.5625 39.1231 21.7401 37.2656 19.5 37.2656ZM19.5 43.8906C18.1561 43.8906 17.0625 42.776 17.0625 41.4062C17.0625 40.328 17.7442 39.4171 18.6875 39.0742V42.2344H20.3125V39.0742C21.2558 39.4171 21.9375 40.328 21.9375 41.4062C21.9375 42.776 20.8439 43.8906 19.5 43.8906Z" fill="black"/>
<path d="M46.3125 40.5781H47.9375V42.2344H46.3125V40.5781Z" fill="black"/>
<path d="M43.0625 40.5781H44.6875V42.2344H43.0625V40.5781Z" fill="black"/>
<path d="M4.0625 40.5781H5.6875V42.2344H4.0625V40.5781Z" fill="black"/>
<path d="M7.3125 40.5781H8.9375V42.2344H7.3125V40.5781Z" fill="black"/>
</g>
<defs>
<clipPath id="clip0_197_11713">
<rect width="52" height="53" fill="white"/>
</clipPath>
</defs>
</svg>
