<svg width="102" height="25" viewBox="0 0 102 25" fill="none" xmlns="http://www.w3.org/2000/svg">
<g clip-path="url(#clip0_197_13327)">
<path d="M8.24228 7.33992L1.86228 8.26492L1.74928 8.28792C1.57822 8.33333 1.42227 8.42333 1.29737 8.54872C1.17247 8.67412 1.08308 8.83041 1.03834 9.00165C0.993598 9.17289 0.995105 9.35293 1.04271 9.5234C1.09031 9.69386 1.18229 9.84864 1.30928 9.97192L5.93128 14.4709L4.84128 20.8259L4.82828 20.9359C4.81781 21.1128 4.85454 21.2894 4.93473 21.4474C5.01491 21.6055 5.13566 21.7394 5.28461 21.8354C5.43356 21.9315 5.60537 21.9862 5.78243 21.994C5.95949 22.0018 6.13544 21.9625 6.29228 21.8799L11.9983 18.8799L17.6913 21.8799L17.7913 21.9259C17.9563 21.9909 18.1357 22.0109 18.311 21.9837C18.4863 21.9565 18.6513 21.8832 18.7889 21.7712C18.9265 21.6592 19.0318 21.5127 19.0941 21.3466C19.1564 21.1804 19.1734 21.0008 19.1433 20.8259L18.0523 14.4709L22.6763 9.97092L22.7543 9.88592C22.8657 9.74869 22.9388 9.58438 22.966 9.40972C22.9932 9.23506 22.9737 9.0563 22.9094 8.89165C22.845 8.72701 22.7382 8.58235 22.5998 8.47244C22.4613 8.36252 22.2962 8.29126 22.1213 8.26592L15.7413 7.33992L12.8893 1.55992C12.8068 1.39246 12.679 1.25144 12.5205 1.15283C12.3619 1.05422 12.179 1.00195 11.9923 1.00195C11.8056 1.00195 11.6226 1.05422 11.4641 1.15283C11.3056 1.25144 11.1778 1.39246 11.0953 1.55992L8.24228 7.33992Z" fill="#FFD952"/>
</g>
<g clip-path="url(#clip1_197_13327)">
<path d="M34.2423 7.33992L27.8623 8.26492L27.7493 8.28792C27.5782 8.33333 27.4223 8.42333 27.2974 8.54872C27.1725 8.67412 27.0831 8.83041 27.0383 9.00165C26.9936 9.17289 26.9951 9.35293 27.0427 9.5234C27.0903 9.69386 27.1823 9.84864 27.3093 9.97192L31.9313 14.4709L30.8413 20.8259L30.8283 20.9359C30.8178 21.1128 30.8545 21.2894 30.9347 21.4474C31.0149 21.6055 31.1357 21.7394 31.2846 21.8354C31.4336 21.9315 31.6054 21.9862 31.7824 21.994C31.9595 22.0018 32.1354 21.9625 32.2923 21.8799L37.9983 18.8799L43.6913 21.8799L43.7913 21.9259C43.9563 21.9909 44.1357 22.0109 44.311 21.9837C44.4863 21.9565 44.6513 21.8832 44.7889 21.7712C44.9265 21.6592 45.0318 21.5127 45.0941 21.3466C45.1564 21.1804 45.1734 21.0008 45.1433 20.8259L44.0523 14.4709L48.6763 9.97092L48.7543 9.88592C48.8657 9.74869 48.9388 9.58438 48.966 9.40972C48.9932 9.23506 48.9737 9.0563 48.9094 8.89165C48.845 8.72701 48.7382 8.58235 48.5998 8.47244C48.4613 8.36252 48.2962 8.29126 48.1213 8.26592L41.7413 7.33992L38.8893 1.55992C38.8068 1.39246 38.679 1.25144 38.5205 1.15283C38.3619 1.05422 38.179 1.00195 37.9923 1.00195C37.8056 1.00195 37.6226 1.05422 37.4641 1.15283C37.3056 1.25144 37.1778 1.39246 37.0953 1.55992L34.2423 7.33992Z" fill="#FFD952"/>
</g>
<g clip-path="url(#clip2_197_13327)">
<path d="M60.2423 7.33992L53.8623 8.26492L53.7493 8.28792C53.5782 8.33333 53.4223 8.42333 53.2974 8.54872C53.1725 8.67412 53.0831 8.83041 53.0383 9.00165C52.9936 9.17289 52.9951 9.35293 53.0427 9.5234C53.0903 9.69386 53.1823 9.84864 53.3093 9.97192L57.9313 14.4709L56.8413 20.8259L56.8283 20.9359C56.8178 21.1128 56.8545 21.2894 56.9347 21.4474C57.0149 21.6055 57.1357 21.7394 57.2846 21.8354C57.4336 21.9315 57.6054 21.9862 57.7824 21.994C57.9595 22.0018 58.1354 21.9625 58.2923 21.8799L63.9983 18.8799L69.6913 21.8799L69.7913 21.9259C69.9563 21.9909 70.1357 22.0109 70.311 21.9837C70.4863 21.9565 70.6513 21.8832 70.7889 21.7712C70.9265 21.6592 71.0318 21.5127 71.0941 21.3466C71.1564 21.1804 71.1734 21.0008 71.1433 20.8259L70.0523 14.4709L74.6763 9.97092L74.7543 9.88592C74.8657 9.74869 74.9388 9.58438 74.966 9.40972C74.9932 9.23506 74.9737 9.0563 74.9094 8.89165C74.845 8.72701 74.7382 8.58235 74.5998 8.47244C74.4613 8.36252 74.2962 8.29126 74.1213 8.26592L67.7413 7.33992L64.8893 1.55992C64.8068 1.39246 64.679 1.25144 64.5205 1.15283C64.3619 1.05422 64.179 1.00195 63.9923 1.00195C63.8056 1.00195 63.6226 1.05422 63.4641 1.15283C63.3056 1.25144 63.1778 1.39246 63.0953 1.55992L60.2423 7.33992Z" fill="#FFD952"/>
</g>
<g clip-path="url(#clip3_197_13327)">
<path d="M86.2423 7.33992L79.8623 8.26492L79.7493 8.28792C79.5782 8.33333 79.4223 8.42333 79.2974 8.54872C79.1725 8.67412 79.0831 8.83041 79.0383 9.00165C78.9936 9.17289 78.9951 9.35293 79.0427 9.5234C79.0903 9.69386 79.1823 9.84864 79.3093 9.97192L83.9313 14.4709L82.8413 20.8259L82.8283 20.9359C82.8178 21.1128 82.8545 21.2894 82.9347 21.4474C83.0149 21.6055 83.1357 21.7394 83.2846 21.8354C83.4336 21.9315 83.6054 21.9862 83.7824 21.994C83.9595 22.0018 84.1354 21.9625 84.2923 21.8799L89.9983 18.8799L95.6913 21.8799L95.7913 21.9259C95.9563 21.9909 96.1357 22.0109 96.311 21.9837C96.4863 21.9565 96.6513 21.8832 96.7889 21.7712C96.9265 21.6592 97.0318 21.5127 97.0941 21.3466C97.1564 21.1804 97.1734 21.0008 97.1433 20.8259L96.0523 14.4709L100.676 9.97092L100.754 9.88592C100.866 9.74869 100.939 9.58438 100.966 9.40972C100.993 9.23506 100.974 9.0563 100.909 8.89165C100.845 8.72701 100.738 8.58235 100.6 8.47244C100.461 8.36252 100.296 8.29126 100.121 8.26592L93.7413 7.33992L90.8893 1.55992C90.8068 1.39246 90.679 1.25144 90.5205 1.15283C90.3619 1.05422 90.179 1.00195 89.9923 1.00195C89.8056 1.00195 89.6226 1.05422 89.4641 1.15283C89.3056 1.25144 89.1778 1.39246 89.0953 1.55992L86.2423 7.33992Z" fill="#FFD952"/>
</g>
<defs>
<clipPath id="clip0_197_13327">
<rect width="24" height="24" fill="white"/>
</clipPath>
<clipPath id="clip1_197_13327">
<rect width="24" height="24" fill="white" transform="translate(26 1)"/>
</clipPath>
<clipPath id="clip2_197_13327">
<rect width="24" height="24" fill="white" transform="translate(52)"/>
</clipPath>
<clipPath id="clip3_197_13327">
<rect width="24" height="24" fill="white" transform="translate(78)"/>
</clipPath>
</defs>
</svg>
