<svg width="25" height="24" viewBox="0 0 25 24" fill="none" xmlns="http://www.w3.org/2000/svg">
<path d="M12 21C15.843 21 19 17.9001 19 13.9215C19 12.9449 18.951 11.8981 18.419 10.2707C17.887 8.64335 17.7801 8.4334 17.2178 7.4283C16.9775 9.47888 15.6918 10.3339 15.3651 10.5894C15.3651 10.3234 14.5877 7.3846 13.4084 5.62568C12.2506 3.9 10.6761 2.76807 9.753 2C9.753 3.45825 9.35027 5.62615 8.773 6.731C8.1962 7.83537 8.08793 7.87575 7.36693 8.6975C6.6464 9.51925 6.31553 9.77338 5.7126 10.7709C5.11013 11.7684 5 13.0969 5 14.0735C5 18.0521 8.157 21 12 21Z" stroke="#FFB600" stroke-width="2" stroke-linejoin="round"/>
</svg>
