<svg width="48" height="48" viewBox="0 0 48 48" fill="none" xmlns="http://www.w3.org/2000/svg">
<rect x="0.5" y="0.5" width="47" height="47" rx="23.5" fill="white" stroke="url(#paint0_linear_181_10906)"/>
<path d="M32.4004 32L28.4004 28M16.4004 23C16.4004 23.9193 16.5815 24.8295 16.9332 25.6788C17.285 26.5281 17.8006 27.2997 18.4506 27.9497C19.1007 28.5998 19.8723 29.1154 20.7216 29.4672C21.5709 29.8189 22.4811 30 23.4004 30C24.3196 30 25.2299 29.8189 26.0792 29.4672C26.9285 29.1154 27.7001 28.5998 28.3501 27.9497C29.0001 27.2997 29.5158 26.5281 29.8675 25.6788C30.2193 24.8295 30.4004 23.9193 30.4004 23C30.4004 22.0807 30.2193 21.1705 29.8675 20.3212C29.5158 19.4719 29.0001 18.7003 28.3501 18.0503C27.7001 17.4002 26.9285 16.8846 26.0792 16.5328C25.2299 16.1811 24.3196 16 23.4004 16C22.4811 16 21.5709 16.1811 20.7216 16.5328C19.8723 16.8846 19.1007 17.4002 18.4506 18.0503C17.8006 18.7003 17.285 19.4719 16.9332 20.3212C16.5815 21.1705 16.4004 22.0807 16.4004 23Z" stroke="url(#paint1_linear_181_10906)" stroke-width="2" stroke-linecap="round" stroke-linejoin="round"/>
<defs>
<linearGradient id="paint0_linear_181_10906" x1="9.23077" y1="9.76744" x2="42.4385" y2="51.2226" gradientUnits="userSpaceOnUse">
<stop stop-color="#FFD366"/>
<stop offset="1" stop-color="#FFB600"/>
</linearGradient>
<linearGradient id="paint1_linear_181_10906" x1="19.4773" y1="19.2558" x2="30.5466" y2="33.0742" gradientUnits="userSpaceOnUse">
<stop stop-color="#FFD366"/>
<stop offset="1" stop-color="#FFB600"/>
</linearGradient>
</defs>
</svg>
