<svg width="25" height="24" viewBox="0 0 25 24" fill="none" xmlns="http://www.w3.org/2000/svg">
<path d="M19.8992 19L15.8624 15M3.75195 10C3.75195 10.9193 3.93468 11.8295 4.2897 12.6788C4.64472 13.5281 5.16508 14.2997 5.82107 14.9497C6.47706 15.5998 7.25584 16.1154 8.11294 16.4672C8.97003 16.8189 9.88866 17 10.8164 17C11.7441 17 12.6627 16.8189 13.5198 16.4672C14.3769 16.1154 15.1557 15.5998 15.8117 14.9497C16.4677 14.2997 16.988 13.5281 17.343 12.6788C17.6981 11.8295 17.8808 10.9193 17.8808 10C17.8808 9.08075 17.6981 8.1705 17.343 7.32122C16.988 6.47194 16.4677 5.70026 15.8117 5.05025C15.1557 4.40024 14.3769 3.88463 13.5198 3.53284C12.6627 3.18106 11.7441 3 10.8164 3C9.88866 3 8.97003 3.18106 8.11294 3.53284C7.25584 3.88463 6.47706 4.40024 5.82107 5.05025C5.16508 5.70026 4.64472 6.47194 4.2897 7.32122C3.93468 8.1705 3.75195 9.08075 3.75195 10Z" stroke="#FFB600" stroke-width="2" stroke-linecap="round" stroke-linejoin="round"/>
</svg>
