<svg width="330" height="332" viewBox="0 0 330 332" fill="none" xmlns="http://www.w3.org/2000/svg">
<g filter="url(#filter0_d_1151_1532)">
<rect x="92" y="154" width="60" height="24" rx="12" fill="white"/>
</g>
<path d="M102.428 171V162.06H104.108L107.84 170.124L107.396 170.208V162.06H108.74V171H107.06L103.352 162.888L103.772 162.792V171H102.428ZM101.468 166.992V166.056H109.7V166.992H101.468ZM112.276 171V163.26H110.56V162.06H113.68V171H112.276ZM116.003 172.764V172.104C116.267 172.04 116.471 171.916 116.615 171.732C116.759 171.556 116.847 171.312 116.879 171H116.243V169.44H117.623V170.46C117.623 171.1 117.487 171.616 117.215 172.008C116.943 172.4 116.539 172.652 116.003 172.764ZM122.389 171.144C121.917 171.144 121.473 171.06 121.057 170.892C120.641 170.716 120.281 170.472 119.977 170.16C119.673 169.848 119.457 169.472 119.329 169.032L120.517 168.576C120.669 169 120.917 169.324 121.261 169.548C121.605 169.772 121.981 169.884 122.389 169.884C122.725 169.884 123.021 169.808 123.277 169.656C123.533 169.504 123.733 169.296 123.877 169.032C124.029 168.768 124.105 168.468 124.105 168.132C124.105 167.788 124.029 167.488 123.877 167.232C123.733 166.968 123.533 166.764 123.277 166.62C123.021 166.468 122.725 166.392 122.389 166.392C122.053 166.392 121.745 166.468 121.465 166.62C121.185 166.772 120.981 166.976 120.853 167.232L119.713 166.98L120.409 162.06H125.173V163.26H120.961L121.501 162.672L120.985 166.44L120.541 166.14C120.781 165.804 121.073 165.56 121.417 165.408C121.761 165.256 122.153 165.18 122.593 165.18C123.177 165.18 123.685 165.312 124.117 165.576C124.557 165.832 124.897 166.184 125.137 166.632C125.385 167.072 125.509 167.572 125.509 168.132C125.509 168.7 125.373 169.212 125.101 169.668C124.829 170.124 124.457 170.484 123.985 170.748C123.521 171.012 122.989 171.144 122.389 171.144ZM130.492 171.144C129.78 171.144 129.156 170.952 128.62 170.568C128.084 170.176 127.664 169.636 127.36 168.948C127.064 168.252 126.916 167.444 126.916 166.524C126.916 165.596 127.064 164.788 127.36 164.1C127.664 163.412 128.08 162.876 128.608 162.492C129.144 162.108 129.768 161.916 130.48 161.916C131.192 161.916 131.812 162.108 132.34 162.492C132.876 162.876 133.292 163.416 133.588 164.112C133.892 164.8 134.044 165.604 134.044 166.524C134.044 167.444 133.896 168.252 133.6 168.948C133.304 169.636 132.888 170.176 132.352 170.568C131.824 170.952 131.204 171.144 130.492 171.144ZM130.492 169.848C130.932 169.848 131.312 169.712 131.632 169.44C131.952 169.168 132.2 168.784 132.376 168.288C132.552 167.792 132.64 167.204 132.64 166.524C132.64 165.844 132.552 165.256 132.376 164.76C132.2 164.264 131.952 163.88 131.632 163.608C131.312 163.336 130.928 163.2 130.48 163.2C130.04 163.2 129.66 163.336 129.34 163.608C129.02 163.88 128.772 164.264 128.596 164.76C128.42 165.256 128.332 165.844 128.332 166.524C128.332 167.196 128.42 167.784 128.596 168.288C128.772 168.784 129.02 169.168 129.34 169.44C129.668 169.712 130.052 169.848 130.492 169.848ZM139.081 171.144C138.369 171.144 137.745 170.952 137.209 170.568C136.673 170.176 136.253 169.636 135.949 168.948C135.653 168.252 135.505 167.444 135.505 166.524C135.505 165.596 135.653 164.788 135.949 164.1C136.253 163.412 136.669 162.876 137.197 162.492C137.733 162.108 138.357 161.916 139.069 161.916C139.781 161.916 140.401 162.108 140.929 162.492C141.465 162.876 141.881 163.416 142.177 164.112C142.481 164.8 142.633 165.604 142.633 166.524C142.633 167.444 142.485 168.252 142.189 168.948C141.893 169.636 141.477 170.176 140.941 170.568C140.413 170.952 139.793 171.144 139.081 171.144ZM139.081 169.848C139.521 169.848 139.901 169.712 140.221 169.44C140.541 169.168 140.789 168.784 140.965 168.288C141.141 167.792 141.229 167.204 141.229 166.524C141.229 165.844 141.141 165.256 140.965 164.76C140.789 164.264 140.541 163.88 140.221 163.608C139.901 163.336 139.517 163.2 139.069 163.2C138.629 163.2 138.249 163.336 137.929 163.608C137.609 163.88 137.361 164.264 137.185 164.76C137.009 165.256 136.921 165.844 136.921 166.524C136.921 167.196 137.009 167.784 137.185 168.288C137.361 168.784 137.609 169.168 137.929 169.44C138.257 169.712 138.641 169.848 139.081 169.848Z" fill="black"/>
<g filter="url(#filter1_d_1151_1532)">
<rect x="240" y="101" width="60" height="24" rx="12" fill="white"/>
</g>
<path d="M250.428 118V109.06H252.108L255.84 117.124L255.396 117.208V109.06H256.74V118H255.06L251.352 109.888L251.772 109.792V118H250.428ZM249.468 113.992V113.056H257.7V113.992H249.468ZM260.276 118V110.26H258.56V109.06H261.68V118H260.276ZM264.003 119.764V119.104C264.267 119.04 264.471 118.916 264.615 118.732C264.759 118.556 264.847 118.312 264.879 118H264.243V116.44H265.623V117.46C265.623 118.1 265.487 118.616 265.215 119.008C264.943 119.4 264.539 119.652 264.003 119.764ZM267.701 118L271.517 110.26H267.221V109.06H272.993V110.26L269.237 118H267.701ZM276.799 118.144C276.327 118.144 275.883 118.06 275.467 117.892C275.051 117.716 274.691 117.472 274.387 117.16C274.083 116.848 273.867 116.472 273.739 116.032L274.927 115.576C275.079 116 275.327 116.324 275.671 116.548C276.015 116.772 276.391 116.884 276.799 116.884C277.135 116.884 277.431 116.808 277.687 116.656C277.943 116.504 278.143 116.296 278.287 116.032C278.439 115.768 278.515 115.468 278.515 115.132C278.515 114.788 278.439 114.488 278.287 114.232C278.143 113.968 277.943 113.764 277.687 113.62C277.431 113.468 277.135 113.392 276.799 113.392C276.463 113.392 276.155 113.468 275.875 113.62C275.595 113.772 275.391 113.976 275.263 114.232L274.123 113.98L274.819 109.06H279.583V110.26H275.371L275.911 109.672L275.395 113.44L274.951 113.14C275.191 112.804 275.483 112.56 275.827 112.408C276.171 112.256 276.563 112.18 277.003 112.18C277.587 112.18 278.095 112.312 278.527 112.576C278.967 112.832 279.307 113.184 279.547 113.632C279.795 114.072 279.919 114.572 279.919 115.132C279.919 115.7 279.783 116.212 279.511 116.668C279.239 117.124 278.867 117.484 278.395 117.748C277.931 118.012 277.399 118.144 276.799 118.144ZM284.902 118.144C284.19 118.144 283.566 117.952 283.03 117.568C282.494 117.176 282.074 116.636 281.77 115.948C281.474 115.252 281.326 114.444 281.326 113.524C281.326 112.596 281.474 111.788 281.77 111.1C282.074 110.412 282.49 109.876 283.018 109.492C283.554 109.108 284.178 108.916 284.89 108.916C285.602 108.916 286.222 109.108 286.75 109.492C287.286 109.876 287.702 110.416 287.998 111.112C288.302 111.8 288.454 112.604 288.454 113.524C288.454 114.444 288.306 115.252 288.01 115.948C287.714 116.636 287.298 117.176 286.762 117.568C286.234 117.952 285.614 118.144 284.902 118.144ZM284.902 116.848C285.342 116.848 285.722 116.712 286.042 116.44C286.362 116.168 286.61 115.784 286.786 115.288C286.962 114.792 287.05 114.204 287.05 113.524C287.05 112.844 286.962 112.256 286.786 111.76C286.61 111.264 286.362 110.88 286.042 110.608C285.722 110.336 285.338 110.2 284.89 110.2C284.45 110.2 284.07 110.336 283.75 110.608C283.43 110.88 283.182 111.264 283.006 111.76C282.83 112.256 282.742 112.844 282.742 113.524C282.742 114.196 282.83 114.784 283.006 115.288C283.182 115.784 283.43 116.168 283.75 116.44C284.078 116.712 284.462 116.848 284.902 116.848Z" fill="black"/>
<g filter="url(#filter2_d_1151_1532)">
<rect x="76" y="281" width="60" height="24" rx="12" fill="white"/>
</g>
<path d="M86.8518 298V289.06H88.5318L92.2638 297.124L91.8198 297.208V289.06H93.1638V298H91.4838L87.7758 289.888L88.1958 289.792V298H86.8518ZM85.8918 293.992V293.056H94.1238V293.992H85.8918ZM96.6999 298V290.26H94.9839V289.06H98.1039V298H96.6999ZM100.427 299.764V299.104C100.691 299.04 100.895 298.916 101.039 298.732C101.183 298.556 101.271 298.312 101.303 298H100.667V296.44H102.047V297.46C102.047 298.1 101.911 298.616 101.639 299.008C101.367 299.4 100.963 299.652 100.427 299.764ZM103.825 298V296.98L106.273 294.364C106.753 293.852 107.129 293.44 107.401 293.128C107.681 292.808 107.881 292.528 108.001 292.288C108.129 292.048 108.193 291.796 108.193 291.532C108.193 291.1 108.061 290.768 107.797 290.536C107.533 290.296 107.193 290.176 106.777 290.176C106.345 290.176 105.973 290.3 105.661 290.548C105.349 290.788 105.133 291.14 105.013 291.604L103.765 291.244C103.861 290.772 104.053 290.364 104.341 290.02C104.629 289.668 104.981 289.396 105.397 289.204C105.821 289.012 106.277 288.916 106.765 288.916C107.333 288.916 107.829 289.024 108.253 289.24C108.677 289.448 109.005 289.74 109.237 290.116C109.477 290.492 109.597 290.928 109.597 291.424C109.597 291.752 109.533 292.072 109.405 292.384C109.285 292.688 109.097 293.012 108.841 293.356C108.585 293.692 108.257 294.072 107.857 294.496L105.697 296.8H109.765V298H103.825ZM114.704 298.144C113.992 298.144 113.368 297.952 112.832 297.568C112.296 297.176 111.876 296.636 111.572 295.948C111.276 295.252 111.128 294.444 111.128 293.524C111.128 292.596 111.276 291.788 111.572 291.1C111.876 290.412 112.292 289.876 112.82 289.492C113.356 289.108 113.98 288.916 114.692 288.916C115.404 288.916 116.024 289.108 116.552 289.492C117.088 289.876 117.504 290.416 117.8 291.112C118.104 291.8 118.256 292.604 118.256 293.524C118.256 294.444 118.108 295.252 117.812 295.948C117.516 296.636 117.1 297.176 116.564 297.568C116.036 297.952 115.416 298.144 114.704 298.144ZM114.704 296.848C115.144 296.848 115.524 296.712 115.844 296.44C116.164 296.168 116.412 295.784 116.588 295.288C116.764 294.792 116.852 294.204 116.852 293.524C116.852 292.844 116.764 292.256 116.588 291.76C116.412 291.264 116.164 290.88 115.844 290.608C115.524 290.336 115.14 290.2 114.692 290.2C114.252 290.2 113.872 290.336 113.552 290.608C113.232 290.88 112.984 291.264 112.808 291.76C112.632 292.256 112.544 292.844 112.544 293.524C112.544 294.196 112.632 294.784 112.808 295.288C112.984 295.784 113.232 296.168 113.552 296.44C113.88 296.712 114.264 296.848 114.704 296.848ZM123.294 298.144C122.582 298.144 121.958 297.952 121.422 297.568C120.886 297.176 120.466 296.636 120.162 295.948C119.866 295.252 119.718 294.444 119.718 293.524C119.718 292.596 119.866 291.788 120.162 291.1C120.466 290.412 120.882 289.876 121.41 289.492C121.946 289.108 122.57 288.916 123.282 288.916C123.994 288.916 124.614 289.108 125.142 289.492C125.678 289.876 126.094 290.416 126.39 291.112C126.694 291.8 126.846 292.604 126.846 293.524C126.846 294.444 126.698 295.252 126.402 295.948C126.106 296.636 125.69 297.176 125.154 297.568C124.626 297.952 124.006 298.144 123.294 298.144ZM123.294 296.848C123.734 296.848 124.114 296.712 124.434 296.44C124.754 296.168 125.002 295.784 125.178 295.288C125.354 294.792 125.442 294.204 125.442 293.524C125.442 292.844 125.354 292.256 125.178 291.76C125.002 291.264 124.754 290.88 124.434 290.608C124.114 290.336 123.73 290.2 123.282 290.2C122.842 290.2 122.462 290.336 122.142 290.608C121.822 290.88 121.574 291.264 121.398 291.76C121.222 292.256 121.134 292.844 121.134 293.524C121.134 294.196 121.222 294.784 121.398 295.288C121.574 295.784 121.822 296.168 122.142 296.44C122.47 296.712 122.854 296.848 123.294 296.848Z" fill="black"/>
<g filter="url(#filter3_d_1151_1532)">
<rect x="4" y="1" width="60" height="24" rx="12" fill="white"/>
</g>
<path d="M14.428 18V9.06H16.108L19.84 17.124L19.396 17.208V9.06H20.74V18H19.06L15.352 9.888L15.772 9.792V18H14.428ZM13.468 13.992V13.056H21.7V13.992H13.468ZM24.2761 18V10.26H22.5601V9.06H25.6801V18H24.2761ZM28.0033 19.764V19.104C28.2673 19.04 28.4713 18.916 28.6153 18.732C28.7593 18.556 28.8473 18.312 28.8793 18H28.2433V16.44H29.6233V17.46C29.6233 18.1 29.4873 18.616 29.2153 19.008C28.9433 19.4 28.5393 19.652 28.0033 19.764ZM34.5808 18.144C33.9568 18.144 33.4088 18.024 32.9368 17.784C32.4728 17.536 32.1128 17.208 31.8568 16.8C31.6008 16.384 31.4728 15.924 31.4728 15.42C31.4728 14.844 31.6288 14.348 31.9408 13.932C32.2608 13.508 32.7088 13.2 33.2848 13.008L33.2248 13.368C32.8008 13.208 32.4648 12.94 32.2168 12.564C31.9768 12.18 31.8568 11.76 31.8568 11.304C31.8568 10.848 31.9728 10.44 32.2048 10.08C32.4448 9.72 32.7688 9.436 33.1768 9.228C33.5928 9.02 34.0608 8.916 34.5808 8.916C35.1088 8.916 35.5768 9.02 35.9848 9.228C36.3928 9.428 36.7128 9.708 36.9448 10.068C37.1848 10.428 37.3048 10.84 37.3048 11.304C37.3048 11.776 37.1808 12.2 36.9328 12.576C36.6928 12.944 36.3648 13.208 35.9488 13.368L35.8888 13.008C36.4648 13.208 36.9128 13.516 37.2328 13.932C37.5528 14.348 37.7128 14.844 37.7128 15.42C37.7128 15.924 37.5808 16.384 37.3168 16.8C37.0608 17.208 36.6968 17.536 36.2248 17.784C35.7528 18.024 35.2048 18.144 34.5808 18.144ZM34.5808 16.944C34.9248 16.944 35.2248 16.88 35.4808 16.752C35.7368 16.616 35.9368 16.432 36.0808 16.2C36.2248 15.968 36.2968 15.696 36.2968 15.384C36.2968 15.072 36.2248 14.8 36.0808 14.568C35.9368 14.336 35.7368 14.156 35.4808 14.028C35.2248 13.9 34.9248 13.836 34.5808 13.836C34.2448 13.836 33.9488 13.9 33.6928 14.028C33.4368 14.156 33.2368 14.336 33.0928 14.568C32.9488 14.8 32.8768 15.072 32.8768 15.384C32.8768 15.696 32.9488 15.968 33.0928 16.2C33.2368 16.432 33.4368 16.616 33.6928 16.752C33.9488 16.88 34.2448 16.944 34.5808 16.944ZM34.5808 12.636C34.8368 12.636 35.0608 12.584 35.2528 12.48C35.4528 12.368 35.6088 12.216 35.7208 12.024C35.8328 11.832 35.8888 11.616 35.8888 11.376C35.8888 11.128 35.8328 10.912 35.7208 10.728C35.6088 10.536 35.4528 10.388 35.2528 10.284C35.0608 10.172 34.8368 10.116 34.5808 10.116C34.3328 10.116 34.1088 10.172 33.9088 10.284C33.7088 10.388 33.5528 10.536 33.4408 10.728C33.3288 10.912 33.2728 11.128 33.2728 11.376C33.2728 11.616 33.3288 11.832 33.4408 12.024C33.5528 12.216 33.7088 12.368 33.9088 12.48C34.1088 12.584 34.3328 12.636 34.5808 12.636ZM42.6791 18.144C41.9671 18.144 41.3431 17.952 40.8071 17.568C40.2711 17.176 39.8511 16.636 39.5471 15.948C39.2511 15.252 39.1031 14.444 39.1031 13.524C39.1031 12.596 39.2511 11.788 39.5471 11.1C39.8511 10.412 40.2671 9.876 40.7951 9.492C41.3311 9.108 41.9551 8.916 42.6671 8.916C43.3791 8.916 43.9991 9.108 44.5271 9.492C45.0631 9.876 45.4791 10.416 45.7751 11.112C46.0791 11.8 46.2311 12.604 46.2311 13.524C46.2311 14.444 46.0831 15.252 45.7871 15.948C45.4911 16.636 45.0751 17.176 44.5391 17.568C44.0111 17.952 43.3911 18.144 42.6791 18.144ZM42.6791 16.848C43.1191 16.848 43.4991 16.712 43.8191 16.44C44.1391 16.168 44.3871 15.784 44.5631 15.288C44.7391 14.792 44.8271 14.204 44.8271 13.524C44.8271 12.844 44.7391 12.256 44.5631 11.76C44.3871 11.264 44.1391 10.88 43.8191 10.608C43.4991 10.336 43.1151 10.2 42.6671 10.2C42.2271 10.2 41.8471 10.336 41.5271 10.608C41.2071 10.88 40.9591 11.264 40.7831 11.76C40.6071 12.256 40.5191 12.844 40.5191 13.524C40.5191 14.196 40.6071 14.784 40.7831 15.288C40.9591 15.784 41.2071 16.168 41.5271 16.44C41.8551 16.712 42.2391 16.848 42.6791 16.848ZM51.2689 18.144C50.5569 18.144 49.9329 17.952 49.3969 17.568C48.8609 17.176 48.4409 16.636 48.1369 15.948C47.8409 15.252 47.6929 14.444 47.6929 13.524C47.6929 12.596 47.8409 11.788 48.1369 11.1C48.4409 10.412 48.8569 9.876 49.3849 9.492C49.9209 9.108 50.5449 8.916 51.2569 8.916C51.9689 8.916 52.5889 9.108 53.1169 9.492C53.6529 9.876 54.0689 10.416 54.3649 11.112C54.6689 11.8 54.8209 12.604 54.8209 13.524C54.8209 14.444 54.6729 15.252 54.3769 15.948C54.0809 16.636 53.6649 17.176 53.1289 17.568C52.6009 17.952 51.9809 18.144 51.2689 18.144ZM51.2689 16.848C51.7089 16.848 52.0889 16.712 52.4089 16.44C52.7289 16.168 52.9769 15.784 53.1529 15.288C53.3289 14.792 53.4169 14.204 53.4169 13.524C53.4169 12.844 53.3289 12.256 53.1529 11.76C52.9769 11.264 52.7289 10.88 52.4089 10.608C52.0889 10.336 51.7049 10.2 51.2569 10.2C50.8169 10.2 50.4369 10.336 50.1169 10.608C49.7969 10.88 49.5489 11.264 49.3729 11.76C49.1969 12.256 49.1089 12.844 49.1089 13.524C49.1089 14.196 49.1969 14.784 49.3729 15.288C49.5489 15.784 49.7969 16.168 50.1169 16.44C50.4449 16.712 50.8289 16.848 51.2689 16.848Z" fill="black"/>
<g filter="url(#filter4_d_1151_1532)">
<rect x="266" y="301" width="60" height="24" rx="12" fill="white"/>
</g>
<path d="M280.428 318V309.06H282.108L285.84 317.124L285.396 317.208V309.06H286.74V318H285.06L281.352 309.888L281.772 309.792V318H280.428ZM279.468 313.992V313.056H287.7V313.992H279.468ZM289.496 318L292.556 314.04L292.796 314.196C292.684 314.316 292.56 314.412 292.424 314.484C292.296 314.556 292.156 314.608 292.004 314.64C291.86 314.672 291.704 314.688 291.536 314.688C291 314.688 290.52 314.568 290.096 314.328C289.672 314.08 289.336 313.744 289.088 313.32C288.848 312.888 288.728 312.4 288.728 311.856C288.728 311.288 288.86 310.784 289.124 310.344C289.388 309.904 289.748 309.556 290.204 309.3C290.66 309.044 291.18 308.916 291.764 308.916C292.356 308.916 292.876 309.044 293.324 309.3C293.78 309.556 294.136 309.908 294.392 310.356C294.656 310.796 294.788 311.3 294.788 311.868C294.788 312.172 294.756 312.472 294.692 312.768C294.628 313.064 294.516 313.372 294.356 313.692C294.196 314.004 293.972 314.348 293.684 314.724L291.188 318H289.496ZM291.764 313.5C292.076 313.5 292.352 313.428 292.592 313.284C292.832 313.14 293.024 312.944 293.168 312.696C293.312 312.448 293.384 312.164 293.384 311.844C293.384 311.516 293.312 311.228 293.168 310.98C293.024 310.724 292.828 310.528 292.58 310.392C292.34 310.248 292.068 310.176 291.764 310.176C291.46 310.176 291.184 310.248 290.936 310.392C290.696 310.528 290.504 310.724 290.36 310.98C290.216 311.228 290.144 311.516 290.144 311.844C290.144 312.164 290.212 312.448 290.348 312.696C290.492 312.944 290.688 313.14 290.936 313.284C291.184 313.428 291.46 313.5 291.764 313.5ZM299.679 318.144C298.967 318.144 298.343 317.952 297.807 317.568C297.271 317.176 296.851 316.636 296.547 315.948C296.251 315.252 296.103 314.444 296.103 313.524C296.103 312.596 296.251 311.788 296.547 311.1C296.851 310.412 297.267 309.876 297.795 309.492C298.331 309.108 298.955 308.916 299.667 308.916C300.379 308.916 300.999 309.108 301.527 309.492C302.063 309.876 302.479 310.416 302.775 311.112C303.079 311.8 303.231 312.604 303.231 313.524C303.231 314.444 303.083 315.252 302.787 315.948C302.491 316.636 302.075 317.176 301.539 317.568C301.011 317.952 300.391 318.144 299.679 318.144ZM299.679 316.848C300.119 316.848 300.499 316.712 300.819 316.44C301.139 316.168 301.387 315.784 301.563 315.288C301.739 314.792 301.827 314.204 301.827 313.524C301.827 312.844 301.739 312.256 301.563 311.76C301.387 311.264 301.139 310.88 300.819 310.608C300.499 310.336 300.115 310.2 299.667 310.2C299.227 310.2 298.847 310.336 298.527 310.608C298.207 310.88 297.959 311.264 297.783 311.76C297.607 312.256 297.519 312.844 297.519 313.524C297.519 314.196 297.607 314.784 297.783 315.288C297.959 315.784 298.207 316.168 298.527 316.44C298.855 316.712 299.239 316.848 299.679 316.848ZM308.269 318.144C307.557 318.144 306.933 317.952 306.397 317.568C305.861 317.176 305.441 316.636 305.137 315.948C304.841 315.252 304.693 314.444 304.693 313.524C304.693 312.596 304.841 311.788 305.137 311.1C305.441 310.412 305.857 309.876 306.385 309.492C306.921 309.108 307.545 308.916 308.257 308.916C308.969 308.916 309.589 309.108 310.117 309.492C310.653 309.876 311.069 310.416 311.365 311.112C311.669 311.8 311.821 312.604 311.821 313.524C311.821 314.444 311.673 315.252 311.377 315.948C311.081 316.636 310.665 317.176 310.129 317.568C309.601 317.952 308.981 318.144 308.269 318.144ZM308.269 316.848C308.709 316.848 309.089 316.712 309.409 316.44C309.729 316.168 309.977 315.784 310.153 315.288C310.329 314.792 310.417 314.204 310.417 313.524C310.417 312.844 310.329 312.256 310.153 311.76C309.977 311.264 309.729 310.88 309.409 310.608C309.089 310.336 308.705 310.2 308.257 310.2C307.817 310.2 307.437 310.336 307.117 310.608C306.797 310.88 306.549 311.264 306.373 311.76C306.197 312.256 306.109 312.844 306.109 313.524C306.109 314.196 306.197 314.784 306.373 315.288C306.549 315.784 306.797 316.168 307.117 316.44C307.445 316.712 307.829 316.848 308.269 316.848Z" fill="black"/>
<g filter="url(#filter5_d_1151_1532)">
<rect x="140" y="70" width="60" height="24" rx="12" fill="white"/>
</g>
<path d="M150.428 87V78.06H152.108L155.84 86.124L155.396 86.208V78.06H156.74V87H155.06L151.352 78.888L151.772 78.792V87H150.428ZM149.468 82.992V82.056H157.7V82.992H149.468ZM160.276 87V79.26H158.56V78.06H161.68V87H160.276ZM164.003 88.764V88.104C164.267 88.04 164.471 87.916 164.615 87.732C164.759 87.556 164.847 87.312 164.879 87H164.243V85.44H165.623V86.46C165.623 87.1 165.487 87.616 165.215 88.008C164.943 88.4 164.539 88.652 164.003 88.764ZM170.389 87.144C169.917 87.144 169.473 87.06 169.057 86.892C168.641 86.716 168.281 86.472 167.977 86.16C167.673 85.848 167.457 85.472 167.329 85.032L168.517 84.576C168.669 85 168.917 85.324 169.261 85.548C169.605 85.772 169.981 85.884 170.389 85.884C170.725 85.884 171.021 85.808 171.277 85.656C171.533 85.504 171.733 85.296 171.877 85.032C172.029 84.768 172.105 84.468 172.105 84.132C172.105 83.788 172.029 83.488 171.877 83.232C171.733 82.968 171.533 82.764 171.277 82.62C171.021 82.468 170.725 82.392 170.389 82.392C170.053 82.392 169.745 82.468 169.465 82.62C169.185 82.772 168.981 82.976 168.853 83.232L167.713 82.98L168.409 78.06H173.173V79.26H168.961L169.501 78.672L168.985 82.44L168.541 82.14C168.781 81.804 169.073 81.56 169.417 81.408C169.761 81.256 170.153 81.18 170.593 81.18C171.177 81.18 171.685 81.312 172.117 81.576C172.557 81.832 172.897 82.184 173.137 82.632C173.385 83.072 173.509 83.572 173.509 84.132C173.509 84.7 173.373 85.212 173.101 85.668C172.829 86.124 172.457 86.484 171.985 86.748C171.521 87.012 170.989 87.144 170.389 87.144ZM178.492 87.144C177.78 87.144 177.156 86.952 176.62 86.568C176.084 86.176 175.664 85.636 175.36 84.948C175.064 84.252 174.916 83.444 174.916 82.524C174.916 81.596 175.064 80.788 175.36 80.1C175.664 79.412 176.08 78.876 176.608 78.492C177.144 78.108 177.768 77.916 178.48 77.916C179.192 77.916 179.812 78.108 180.34 78.492C180.876 78.876 181.292 79.416 181.588 80.112C181.892 80.8 182.044 81.604 182.044 82.524C182.044 83.444 181.896 84.252 181.6 84.948C181.304 85.636 180.888 86.176 180.352 86.568C179.824 86.952 179.204 87.144 178.492 87.144ZM178.492 85.848C178.932 85.848 179.312 85.712 179.632 85.44C179.952 85.168 180.2 84.784 180.376 84.288C180.552 83.792 180.64 83.204 180.64 82.524C180.64 81.844 180.552 81.256 180.376 80.76C180.2 80.264 179.952 79.88 179.632 79.608C179.312 79.336 178.928 79.2 178.48 79.2C178.04 79.2 177.66 79.336 177.34 79.608C177.02 79.88 176.772 80.264 176.596 80.76C176.42 81.256 176.332 81.844 176.332 82.524C176.332 83.196 176.42 83.784 176.596 84.288C176.772 84.784 177.02 85.168 177.34 85.44C177.668 85.712 178.052 85.848 178.492 85.848ZM187.081 87.144C186.369 87.144 185.745 86.952 185.209 86.568C184.673 86.176 184.253 85.636 183.949 84.948C183.653 84.252 183.505 83.444 183.505 82.524C183.505 81.596 183.653 80.788 183.949 80.1C184.253 79.412 184.669 78.876 185.197 78.492C185.733 78.108 186.357 77.916 187.069 77.916C187.781 77.916 188.401 78.108 188.929 78.492C189.465 78.876 189.881 79.416 190.177 80.112C190.481 80.8 190.633 81.604 190.633 82.524C190.633 83.444 190.485 84.252 190.189 84.948C189.893 85.636 189.477 86.176 188.941 86.568C188.413 86.952 187.793 87.144 187.081 87.144ZM187.081 85.848C187.521 85.848 187.901 85.712 188.221 85.44C188.541 85.168 188.789 84.784 188.965 84.288C189.141 83.792 189.229 83.204 189.229 82.524C189.229 81.844 189.141 81.256 188.965 80.76C188.789 80.264 188.541 79.88 188.221 79.608C187.901 79.336 187.517 79.2 187.069 79.2C186.629 79.2 186.249 79.336 185.929 79.608C185.609 79.88 185.361 80.264 185.185 80.76C185.009 81.256 184.921 81.844 184.921 82.524C184.921 83.196 185.009 83.784 185.185 84.288C185.361 84.784 185.609 85.168 185.929 85.44C186.257 85.712 186.641 85.848 187.081 85.848Z" fill="black"/>
<defs>
<filter id="filter0_d_1151_1532" x="88" y="153" width="68" height="32" filterUnits="userSpaceOnUse" color-interpolation-filters="sRGB">
<feFlood flood-opacity="0" result="BackgroundImageFix"/>
<feColorMatrix in="SourceAlpha" type="matrix" values="0 0 0 0 0 0 0 0 0 0 0 0 0 0 0 0 0 0 127 0" result="hardAlpha"/>
<feOffset dy="3"/>
<feGaussianBlur stdDeviation="2"/>
<feComposite in2="hardAlpha" operator="out"/>
<feColorMatrix type="matrix" values="0 0 0 0 0.0560709 0 0 0 0 0.143435 0 0 0 0 0.0808355 0 0 0 0.24 0"/>
<feBlend mode="normal" in2="BackgroundImageFix" result="effect1_dropShadow_1151_1532"/>
<feBlend mode="normal" in="SourceGraphic" in2="effect1_dropShadow_1151_1532" result="shape"/>
</filter>
<filter id="filter1_d_1151_1532" x="236" y="100" width="68" height="32" filterUnits="userSpaceOnUse" color-interpolation-filters="sRGB">
<feFlood flood-opacity="0" result="BackgroundImageFix"/>
<feColorMatrix in="SourceAlpha" type="matrix" values="0 0 0 0 0 0 0 0 0 0 0 0 0 0 0 0 0 0 127 0" result="hardAlpha"/>
<feOffset dy="3"/>
<feGaussianBlur stdDeviation="2"/>
<feComposite in2="hardAlpha" operator="out"/>
<feColorMatrix type="matrix" values="0 0 0 0 0.0560709 0 0 0 0 0.143435 0 0 0 0 0.0808355 0 0 0 0.24 0"/>
<feBlend mode="normal" in2="BackgroundImageFix" result="effect1_dropShadow_1151_1532"/>
<feBlend mode="normal" in="SourceGraphic" in2="effect1_dropShadow_1151_1532" result="shape"/>
</filter>
<filter id="filter2_d_1151_1532" x="72" y="280" width="68" height="32" filterUnits="userSpaceOnUse" color-interpolation-filters="sRGB">
<feFlood flood-opacity="0" result="BackgroundImageFix"/>
<feColorMatrix in="SourceAlpha" type="matrix" values="0 0 0 0 0 0 0 0 0 0 0 0 0 0 0 0 0 0 127 0" result="hardAlpha"/>
<feOffset dy="3"/>
<feGaussianBlur stdDeviation="2"/>
<feComposite in2="hardAlpha" operator="out"/>
<feColorMatrix type="matrix" values="0 0 0 0 0.0560709 0 0 0 0 0.143435 0 0 0 0 0.0808355 0 0 0 0.24 0"/>
<feBlend mode="normal" in2="BackgroundImageFix" result="effect1_dropShadow_1151_1532"/>
<feBlend mode="normal" in="SourceGraphic" in2="effect1_dropShadow_1151_1532" result="shape"/>
</filter>
<filter id="filter3_d_1151_1532" x="0" y="0" width="68" height="32" filterUnits="userSpaceOnUse" color-interpolation-filters="sRGB">
<feFlood flood-opacity="0" result="BackgroundImageFix"/>
<feColorMatrix in="SourceAlpha" type="matrix" values="0 0 0 0 0 0 0 0 0 0 0 0 0 0 0 0 0 0 127 0" result="hardAlpha"/>
<feOffset dy="3"/>
<feGaussianBlur stdDeviation="2"/>
<feComposite in2="hardAlpha" operator="out"/>
<feColorMatrix type="matrix" values="0 0 0 0 0.0560709 0 0 0 0 0.143435 0 0 0 0 0.0808355 0 0 0 0.24 0"/>
<feBlend mode="normal" in2="BackgroundImageFix" result="effect1_dropShadow_1151_1532"/>
<feBlend mode="normal" in="SourceGraphic" in2="effect1_dropShadow_1151_1532" result="shape"/>
</filter>
<filter id="filter4_d_1151_1532" x="262" y="300" width="68" height="32" filterUnits="userSpaceOnUse" color-interpolation-filters="sRGB">
<feFlood flood-opacity="0" result="BackgroundImageFix"/>
<feColorMatrix in="SourceAlpha" type="matrix" values="0 0 0 0 0 0 0 0 0 0 0 0 0 0 0 0 0 0 127 0" result="hardAlpha"/>
<feOffset dy="3"/>
<feGaussianBlur stdDeviation="2"/>
<feComposite in2="hardAlpha" operator="out"/>
<feColorMatrix type="matrix" values="0 0 0 0 0.0560709 0 0 0 0 0.143435 0 0 0 0 0.0808355 0 0 0 0.24 0"/>
<feBlend mode="normal" in2="BackgroundImageFix" result="effect1_dropShadow_1151_1532"/>
<feBlend mode="normal" in="SourceGraphic" in2="effect1_dropShadow_1151_1532" result="shape"/>
</filter>
<filter id="filter5_d_1151_1532" x="136" y="69" width="68" height="32" filterUnits="userSpaceOnUse" color-interpolation-filters="sRGB">
<feFlood flood-opacity="0" result="BackgroundImageFix"/>
<feColorMatrix in="SourceAlpha" type="matrix" values="0 0 0 0 0 0 0 0 0 0 0 0 0 0 0 0 0 0 127 0" result="hardAlpha"/>
<feOffset dy="3"/>
<feGaussianBlur stdDeviation="2"/>
<feComposite in2="hardAlpha" operator="out"/>
<feColorMatrix type="matrix" values="0 0 0 0 0.0560709 0 0 0 0 0.143435 0 0 0 0 0.0808355 0 0 0 0.35 0"/>
<feBlend mode="normal" in2="BackgroundImageFix" result="effect1_dropShadow_1151_1532"/>
<feBlend mode="normal" in="SourceGraphic" in2="effect1_dropShadow_1151_1532" result="shape"/>
</filter>
</defs>
</svg>
