<svg width="64" height="65" viewBox="0 0 64 65" fill="none" xmlns="http://www.w3.org/2000/svg">
<circle cx="32" cy="32.5" r="32" fill="#D9D9D9"/>
<mask id="mask0_1151_1437" style="mask-type:alpha" maskUnits="userSpaceOnUse" x="0" y="0" width="64" height="64">
<circle cx="32" cy="32" r="32" fill="#D9D9D9"/>
</mask>
<g mask="url(#mask0_1151_1437)">
<path d="M47.4 47.7909L43.371 46.7999L42 46.9999L41.419 46.3159L38.964 45.7109H25.036L22.581 46.3159L22 46.9999L20.629 46.7999L16.605 47.7929C14.4349 48.3283 12.5067 49.5752 11.1282 51.3347C9.74971 53.0942 9.00044 55.2648 9 57.4999V57.8329L16 67.9999H48L55 57.8329V57.4999C55.0003 55.2651 54.2519 53.0946 52.8744 51.3348C51.4969 49.5749 49.5695 48.3273 47.4 47.7909Z" fill="#246FBE"/>
<path d="M47.4 47.7909L43.371 46.7999L42 46.9999L41.419 46.3159L38.964 45.7109H29.569L27.036 46.7109L22.05 47.9409L21.881 47.9829L18.605 48.7909C16.4345 49.3263 14.5061 50.5736 13.1276 52.3335C11.7491 54.0934 11 56.2644 11 58.4999V58.8339L14.278 65.4999L16 67.9999H48L55 57.8329V57.4999C55.0003 55.2651 54.2519 53.0946 52.8744 51.3348C51.4969 49.5749 49.5695 48.3273 47.4 47.7909Z" fill="#00508C"/>
<path d="M36.0822 45V35.667H27.9162V45L25.0352 45.711C25.2108 47.4358 26.0202 49.0341 27.3068 50.1964C28.5933 51.3586 30.2654 52.002 31.9992 52.002C33.7329 52.002 35.405 51.3586 36.6915 50.1964C37.9781 49.0341 38.7875 47.4358 38.9632 45.711L36.0822 45Z" fill="#FFCA9F"/>
<path d="M32 11C35.1826 11 38.2348 12.2643 40.4853 14.5147C42.7357 16.7652 44 19.8174 44 23V29H20V23C20 19.8174 21.2643 16.7652 23.5147 14.5147C25.7652 12.2643 28.8174 11 32 11Z" fill="#00508C"/>
<path d="M41 26.333H43.667C44.4406 26.333 45.1826 26.6403 45.7296 27.1874C46.2767 27.7344 46.584 28.4764 46.584 29.25C46.584 29.6331 46.5086 30.0124 46.362 30.3663C46.2154 30.7202 46.0005 31.0418 45.7296 31.3126C45.4588 31.5835 45.1372 31.7984 44.7833 31.945C44.4294 32.0916 44.0501 32.167 43.667 32.167H41V26.333Z" fill="#FFCA99"/>
<path d="M23 32.167H20.333C19.5595 32.1667 18.8178 31.8593 18.271 31.3123C17.7242 30.7653 17.417 30.0235 17.417 29.25C17.417 28.4764 17.7243 27.7344 18.2714 27.1874C18.8184 26.6403 19.5604 26.333 20.334 26.333H23V32.167Z" fill="#FFCA99"/>
<path d="M36.082 19.333H27.916C26.3688 19.333 24.8849 19.9477 23.7908 21.0417C22.6967 22.1358 22.082 23.6197 22.082 25.167V33.083C22.082 35.7132 23.1269 38.2356 24.9867 40.0954C26.8465 41.9552 29.3689 43 31.999 43C33.3013 43 34.5909 42.7435 35.7941 42.2451C36.9973 41.7467 38.0905 41.0163 39.0114 40.0954C39.9323 39.1745 40.6628 38.0813 41.1611 36.8781C41.6595 35.6749 41.916 34.3853 41.916 33.083V25.167C41.916 24.4009 41.7651 23.6422 41.4719 22.9344C41.1788 22.2266 40.749 21.5835 40.2073 21.0417C39.6656 20.5 39.0224 20.0703 38.3146 19.7771C37.6068 19.4839 36.8482 19.333 36.082 19.333Z" fill="#FFDBBB"/>
<path d="M32.001 63.666C33.2894 63.666 34.334 62.6215 34.334 61.333C34.334 60.0445 33.2894 59 32.001 59C30.7125 59 29.668 60.0445 29.668 61.333C29.668 62.6215 30.7125 63.666 32.001 63.666Z" fill="#FFE657"/>
<path d="M37.958 31C36.9083 31 35.9015 30.583 35.1593 29.8407C34.417 29.0985 34 28.0917 34 27.042C34 26.5004 34.2151 25.981 34.5981 25.5981C34.981 25.2151 35.5004 25 36.042 25H39.875C40.1432 25 40.4087 25.0528 40.6564 25.1554C40.9042 25.2581 41.1293 25.4085 41.3189 25.5981C41.5085 25.7877 41.6589 26.0128 41.7616 26.2606C41.8642 26.5083 41.917 26.7738 41.917 27.042C41.9167 28.0918 41.4995 29.0985 40.7571 29.8408C40.0147 30.583 39.0078 31 37.958 31Z" fill="#00508C"/>
<path d="M26.041 31C24.9912 31 23.9844 30.583 23.2419 29.8408C22.4995 29.0985 22.0823 28.0918 22.082 27.042C22.082 26.5004 22.2972 25.981 22.6801 25.5981C23.0631 25.2151 23.5825 25 24.124 25H27.957C28.2252 25 28.4907 25.0528 28.7385 25.1554C28.9862 25.2581 29.2113 25.4085 29.4009 25.5981C29.5906 25.7877 29.741 26.0128 29.8436 26.2606C29.9462 26.5083 29.999 26.7738 29.999 27.042C29.999 28.0917 29.582 29.0985 28.8398 29.8407C28.0975 30.583 27.0908 31 26.041 31Z" fill="#00508C"/>
<path d="M55 57.833H48V68H55C55.9792 64.7364 55.9948 61.2593 55.045 57.987L55 57.833Z" fill="#FFCA9F"/>
<path d="M8.99996 57.833H16V68H8.99996C8.02077 64.7364 8.00515 61.2593 8.95496 57.987L8.99996 57.833Z" fill="#FFE5CE"/>
<path d="M11 57.833L10.955 57.987C10.0051 61.2593 10.0208 64.7364 11 68H16V57.833H11Z" fill="#FFCA9F"/>
<path d="M56.0056 57.708L56.0006 57.692V57.5C56.0044 55.04 55.1819 52.6501 53.665 50.7134C52.1482 48.7768 50.0249 47.4057 47.6356 46.82L37.0836 44.22V42.736C38.8292 41.8166 40.293 40.4413 41.3194 38.7563C42.3458 37.0714 42.8964 35.1399 42.9126 33.167H43.6676C44.5879 33.1685 45.4792 32.8453 46.1845 32.2541C46.8898 31.663 47.3639 30.8419 47.5232 29.9355C47.6825 29.0291 47.5168 28.0956 47.0554 27.2994C46.5939 26.5032 45.8663 25.8954 45.0006 25.583V23C45.0006 19.5522 43.631 16.2456 41.193 13.8076C38.755 11.3696 35.4484 10 32.0006 10C28.5528 10 25.2462 11.3696 22.8082 13.8076C20.3703 16.2456 19.0006 19.5522 19.0006 23V25.583C18.135 25.8954 17.4073 26.5032 16.9459 27.2994C16.4844 28.0956 16.3188 29.0291 16.4781 29.9355C16.6374 30.8419 17.1114 31.663 17.8168 32.2541C18.5221 32.8453 19.4134 33.1685 20.3336 33.167H21.0886C21.1049 35.1399 21.6555 37.0714 22.6819 38.7563C23.7083 40.4413 25.172 41.8166 26.9176 42.736V44.217L16.3656 46.817C13.9759 47.4028 11.8522 48.7744 10.3353 50.7116C8.81841 52.6489 7.99621 55.0395 8.00063 57.5V57.691V57.708C6.99446 61.1649 7.01078 64.8392 8.04763 68.287C8.10913 68.4923 8.23493 68.6724 8.40651 68.8007C8.57808 68.9291 8.78635 68.9989 9.00063 69H55.0006C55.2158 69 55.4252 68.9306 55.5977 68.8022C55.7703 68.6738 55.8969 68.4931 55.9586 68.287C56.9955 64.8392 57.0118 61.1649 56.0056 57.708ZM27.9586 24H24.1256C23.808 24.0039 23.493 24.0586 23.1926 24.162C23.4236 23.0797 24.0186 22.1092 24.8784 21.4125C25.7383 20.7157 26.8109 20.3347 27.9176 20.333H36.0836C37.1903 20.3347 38.263 20.7157 39.1228 21.4125C39.9826 22.1092 40.5776 23.0797 40.8086 24.162C40.5083 24.0586 40.1933 24.0039 39.8756 24H36.0426C35.4213 24.003 34.8158 24.1963 34.3077 24.5539C33.7995 24.9114 33.4132 25.4161 33.2006 26H30.8106C30.5975 25.4146 30.2096 24.9087 29.6995 24.551C29.1894 24.1933 28.5817 24.0009 27.9586 24ZM29.0006 27.042C28.9864 27.8172 28.6684 28.5559 28.1151 29.0991C27.5619 29.6423 26.8175 29.9466 26.0421 29.9466C25.2668 29.9466 24.5224 29.6423 23.9691 29.0991C23.4158 28.5559 23.0979 27.8172 23.0836 27.042C23.0839 26.7657 23.1938 26.5008 23.3891 26.3055C23.5845 26.1101 23.8494 26.0003 24.1256 26H27.9586C28.2349 26.0003 28.4998 26.1101 28.6951 26.3055C28.8905 26.5008 29.0004 26.7657 29.0006 27.042ZM36.0426 26H39.8756C40.1519 26.0003 40.4168 26.1101 40.6121 26.3055C40.8075 26.5008 40.9174 26.7657 40.9176 27.042C40.9034 27.8172 40.5854 28.5559 40.0321 29.0991C39.4789 29.6423 38.7345 29.9466 37.9591 29.9466C37.1838 29.9466 36.4394 29.6423 35.8861 29.0991C35.3328 28.5559 35.0149 27.8172 35.0006 27.042C35.0009 26.7657 35.1108 26.5008 35.3061 26.3055C35.5015 26.1101 35.7664 26.0003 36.0426 26ZM45.5836 29.25C45.5834 29.7582 45.3814 30.2455 45.0222 30.6049C44.663 30.9643 44.1758 31.1665 43.6676 31.167H42.9176V27.333H43.6676C44.1758 27.3335 44.663 27.5357 45.0222 27.8951C45.3814 28.2545 45.5834 28.7418 45.5836 29.25ZM21.0836 31.167H20.3336C19.8252 31.167 19.3376 30.965 18.9781 30.6055C18.6186 30.246 18.4166 29.7584 18.4166 29.25C18.4166 28.7416 18.6186 28.254 18.9781 27.8945C19.3376 27.535 19.8252 27.333 20.3336 27.333H21.0836V31.167ZM21.0836 25.167V25.333H21.0006V23C21.0006 20.0826 22.1596 17.2847 24.2225 15.2218C26.2854 13.1589 29.0832 12 32.0006 12C34.918 12 37.7159 13.1589 39.7788 15.2218C41.8417 17.2847 43.0006 20.0826 43.0006 23V25.333H42.9176V25.167C42.9155 23.3552 42.1948 21.6181 40.9137 20.337C39.6325 19.0558 37.8955 18.3351 36.0836 18.333H27.9176C26.1058 18.3351 24.3688 19.0558 23.0876 20.337C21.8064 21.6181 21.0857 23.3552 21.0836 25.167ZM23.0836 33.083V31C23.7516 31.5071 24.538 31.8353 25.3683 31.9536C26.1986 32.0718 27.0453 31.9763 27.8284 31.6759C28.6114 31.3755 29.3048 30.8802 29.8429 30.237C30.3811 29.5937 30.7462 28.8238 30.9036 28H33.1006C33.2581 28.8238 33.6232 29.5937 34.1613 30.237C34.6995 30.8802 35.3929 31.3755 36.1759 31.6759C36.9589 31.9763 37.8057 32.0718 38.636 31.9536C39.4663 31.8353 40.2526 31.5071 40.9206 31V33.086C40.9206 35.4509 39.9812 37.719 38.3089 39.3913C36.6366 41.0635 34.3686 42.003 32.0036 42.003C29.6387 42.003 27.3706 41.0635 25.6984 39.3913C24.0261 37.719 23.0866 35.4509 23.0866 33.086L23.0836 33.083ZM28.1566 45.971C28.3738 45.9176 28.5668 45.7929 28.7047 45.6168C28.8427 45.4408 28.9176 45.2236 28.9176 45V43.549C30.929 44.1503 33.0723 44.1503 35.0836 43.549V45C35.0836 45.2236 35.1586 45.4408 35.2966 45.6168C35.4345 45.7929 35.6275 45.9176 35.8446 45.971L37.7986 46.453C37.4818 47.7522 36.7379 48.9074 35.6862 49.7334C34.6345 50.5595 33.3359 51.0085 31.9986 51.0085C30.6613 51.0085 29.3628 50.5595 28.3111 49.7334C27.2594 48.9074 26.5155 47.7522 26.1986 46.453L28.1566 45.971ZM24.2476 46.935C24.6772 48.6664 25.6739 50.2043 27.079 51.3034C28.4841 52.4025 30.2167 52.9997 32.0006 52.9997C33.7846 52.9997 35.5171 52.4025 36.9223 51.3034C38.3274 50.2043 39.3241 48.6664 39.7536 46.935L41.2356 47.301C39.9186 53.457 33.6646 57.038 32.0006 57.888C30.3366 57.038 24.0826 53.457 22.7656 47.301L24.2476 46.935ZM33.3336 61.335C33.3332 61.5986 33.2547 61.8561 33.108 62.075C32.9613 62.294 32.753 62.4645 32.5094 62.5651C32.2658 62.6657 31.9978 62.6918 31.7393 62.6401C31.4809 62.5885 31.2436 62.4614 31.0574 62.2749C30.8711 62.0884 30.7444 61.8508 30.6931 61.5923C30.6418 61.3338 30.6683 61.0659 30.7693 60.8224C30.8702 60.579 31.0411 60.3709 31.2603 60.2245C31.4794 60.0781 31.7371 60 32.0006 60C32.354 60.0005 32.6927 60.1411 32.9426 60.391C33.1925 60.6409 33.3331 60.9796 33.3336 61.333V61.335ZM15.0006 67H9.76163C9.08315 64.3199 9.08315 61.5131 9.76163 58.833H15.0006V67ZM47.0006 57.833V67H17.0006V57.833C17.0006 57.5678 16.8953 57.3134 16.7077 57.1259C16.5202 56.9384 16.2658 56.833 16.0006 56.833H10.0286C10.1658 54.9397 10.8994 53.1385 12.1242 51.6882C13.349 50.2379 15.002 49.2131 16.8456 48.761L20.8246 47.78C22.0936 53.622 26.9836 57.287 29.7246 58.916C29.2376 59.3734 28.8992 59.9665 28.7534 60.6186C28.6077 61.2706 28.6612 61.9514 28.9072 62.5726C29.1531 63.1939 29.5801 63.7268 30.1327 64.1024C30.6853 64.4779 31.338 64.6787 32.0061 64.6787C32.6743 64.6787 33.327 64.4779 33.8796 64.1024C34.4322 63.7268 34.8592 63.1939 35.1051 62.5726C35.351 61.9514 35.4046 61.2706 35.2588 60.6186C35.1131 59.9665 34.7747 59.3734 34.2876 58.916C37.0226 57.287 41.9136 53.622 43.1876 47.78L47.1656 48.761C49.0093 49.2131 50.6622 50.2379 51.887 51.6882C53.1119 53.1385 53.8455 54.9397 53.9826 56.833H48.0006C47.7354 56.833 47.4811 56.9384 47.2935 57.1259C47.106 57.3134 47.0006 57.5678 47.0006 57.833ZM54.2396 67H49.0006V58.833H54.2386C54.9174 61.513 54.9178 64.3199 54.2396 67Z" fill="black"/>
<path d="M33 34V31C33 30.7348 32.8946 30.4804 32.7071 30.2929C32.5196 30.1054 32.2652 30 32 30C31.7348 30 31.4804 30.1054 31.2929 30.2929C31.1054 30.4804 31 30.7348 31 31V34C31 34.2652 31.1054 34.5196 31.2929 34.7071C31.4804 34.8946 31.7348 35 32 35C32.2652 35 32.5196 34.8946 32.7071 34.7071C32.8946 34.5196 33 34.2652 33 34Z" fill="black"/>
</g>
</svg>
