<svg width="64" height="65" viewBox="0 0 64 65" fill="none" xmlns="http://www.w3.org/2000/svg">
<circle cx="32" cy="32.5" r="32" fill="#D9D9D9"/>
<mask id="mask0_1151_1399" style="mask-type:alpha" maskUnits="userSpaceOnUse" x="0" y="0" width="64" height="64">
<circle cx="32" cy="32" r="32" fill="#D9D9D9"/>
</mask>
<g mask="url(#mask0_1151_1399)">
<path d="M20 10H32C35.1826 10 38.2348 11.2643 40.4853 13.5147C42.7357 15.7652 44 18.8174 44 22V27H29C26.6131 27 24.3239 26.0518 22.636 24.364C20.9482 22.6761 20 20.3869 20 18V10Z" fill="#374948"/>
<path d="M22 20V12H34C36.6936 11.9984 39.3086 12.9078 41.42 14.5805C40.2998 13.1529 38.8696 11.9986 37.2377 11.2051C35.6057 10.4115 33.8147 9.99945 32 10H20V18C20 19.4212 20.3374 20.822 20.9844 22.0874C21.6313 23.3527 22.5694 24.4465 23.7215 25.2786C22.6025 23.7461 21.9996 21.8976 22 20Z" fill="#546362"/>
<path d="M31 42H33C35.6264 42 38.2272 42.5173 40.6537 43.5224C43.0802 44.5275 45.285 46.0007 47.1421 47.8579C48.9993 49.715 50.4725 51.9198 51.4776 54.3463C52.4827 56.7728 53 59.3736 53 62V69H11V62C11 56.6957 13.1071 51.6086 16.8579 47.8579C20.6086 44.1071 25.6957 42 31 42Z" fill="#C79C7A"/>
<path d="M33.5 42.0254C28.2862 42.1526 23.3285 44.3127 19.6853 48.0446C16.0421 51.7766 14.0018 56.7847 14 62.0001V69.0001H53V62.0001C52.9982 56.7847 50.9579 51.7766 47.3147 48.0446C43.6715 44.3127 38.7138 42.1526 33.5 42.0254Z" fill="#BE8C64"/>
<path d="M44 51V45.305C40.738 43.1459 36.9118 41.9963 33 42H31C27.0882 41.9963 23.262 43.1459 20 45.305V51C20 54.2456 18.9473 57.4036 17 60V69H47V60C45.0527 57.4036 44 54.2456 44 51Z" fill="#66A5FA"/>
<path d="M44 51V45.305C40.8996 43.2584 37.288 42.121 33.5744 42.0215C28.4867 42.1202 23.6298 44.1622 20 47.7286V51C20 54.2455 18.9473 57.4035 17 60V69H47V60C45.0527 57.4035 44 54.2455 44 51Z" fill="#4D8CED"/>
<path d="M35.9995 42.2505V35H27.9995V42.2505C26.6395 42.4576 25.304 42.8022 24.0137 43.2792C24.0809 45.3523 24.9517 47.3181 26.442 48.7608C27.9323 50.2035 29.9252 51.0102 31.9995 51.0102C34.0737 51.0102 36.0666 50.2035 37.5569 48.7608C39.0472 47.3181 39.918 45.3523 39.9853 43.2792C38.6949 42.8022 37.3595 42.4576 35.9995 42.2505Z" fill="#BE8C64"/>
<path d="M33.8 41.4L36 39.75V35H28V39.75L30.2 41.4C30.7193 41.7895 31.3509 42 32 42C32.6491 42 33.2807 41.7895 33.8 41.4Z" fill="#B77C55"/>
<path d="M40 24H42C42.7956 24 43.5587 24.3161 44.1213 24.8787C44.6839 25.4413 45 26.2044 45 27C45 27.7956 44.6839 28.5587 44.1213 29.1213C43.5587 29.6839 42.7956 30 42 30H40V24Z" fill="#B77C55"/>
<path d="M25 30H22C21.2044 30 20.4413 29.6839 19.8787 29.1213C19.3161 28.5587 19 27.7956 19 27C19 26.2044 19.3161 25.4413 19.8787 24.8787C20.4413 24.3161 21.2044 24 22 24H25V30Z" fill="#B77C55"/>
<path d="M23 23.3719V31C23 31.9315 23.2169 32.8501 23.6334 33.6833C24.05 34.5164 24.6548 35.2411 25.4 35.8L30.2 39.4C30.7193 39.7895 31.3509 40 32 40C32.6491 40 33.2807 39.7895 33.8 39.4L38.6 35.8C39.3452 35.2411 39.95 34.5164 40.3666 33.6833C40.7831 32.8501 41 31.9315 41 31V23.3719C41 22.6665 40.861 21.9679 40.5911 21.3162C40.3211 20.6644 39.9254 20.0722 39.4266 19.5734C38.9278 19.0746 38.3356 18.6789 37.6838 18.4089C37.0321 18.1389 36.3335 18 35.6281 18H28.3719C26.9472 18 25.5808 18.566 24.5734 19.5734C23.566 20.5808 23 21.9472 23 23.3719Z" fill="#BE8C64"/>
<path d="M40.3359 42.3423C39.2514 41.9405 38.1357 41.6287 37 41.41V38.2494L39.1992 36.6C40.0668 35.9463 40.7713 35.1005 41.2572 34.1289C41.7431 33.1573 41.9974 32.0863 42 31C42.7682 31.0038 43.5211 30.7852 44.1678 30.3706C44.8146 29.9559 45.3274 29.363 45.6446 28.6633C45.9618 27.9636 46.0697 27.1871 45.9553 26.4274C45.841 25.6678 45.5092 24.9575 45 24.3822V22C44.9961 18.5534 43.6252 15.249 41.1881 12.8119C38.751 10.3748 35.4466 9.00389 32 9H20C19.7348 9 19.4804 9.10536 19.2929 9.29289C19.1054 9.48043 19 9.73478 19 10V18C19.0013 19.8717 19.5312 21.7049 20.5287 23.2886C19.6631 23.6301 18.9439 24.2631 18.4951 25.0782C18.0464 25.8934 17.8963 26.8396 18.0707 27.7536C18.245 28.6677 18.733 29.4922 19.4504 30.0848C20.1677 30.6775 21.0695 31.0012 22 31C22.0025 32.0864 22.2567 33.1574 22.7426 34.129C23.2286 35.1006 23.9331 35.9464 24.8008 36.6L27 38.2491V41.41C22.2139 42.329 17.8979 44.8879 14.795 48.646C11.6921 52.4041 9.9965 57.1264 10 62V69C10 69.2652 10.1054 69.5196 10.2929 69.7071C10.4804 69.8946 10.7348 70 11 70H53C53.2652 70 53.5196 69.8946 53.7071 69.7071C53.8946 69.5196 54 69.2652 54 69V62C53.9837 57.7245 52.6682 53.5549 50.2279 50.0442C47.7875 46.5335 44.3377 43.8475 40.3359 42.3423ZM46 68H18V60.3271C19.9441 57.6049 20.9926 54.3451 21 51V45.8862C21.7026 45.4459 22.4335 45.0524 23.1879 44.7084C23.5787 46.7593 24.6726 48.6097 26.2812 49.9407C27.8897 51.2716 29.9121 51.9999 32 51.9999C34.0878 51.9999 36.1102 51.2716 37.7187 49.9407C39.3273 48.6097 40.4212 46.7593 40.812 44.7084C41.5665 45.0524 42.2974 45.4459 43 45.8862V51C43.0074 54.3451 44.0559 57.6049 46 60.3271V68ZM42 29V25C42.5304 25 43.0391 25.2107 43.4142 25.5858C43.7893 25.9609 44 26.4696 44 27C44 27.5304 43.7893 28.0391 43.4142 28.4142C43.0391 28.7893 42.5304 29 42 29ZM21 11H32C34.9164 11.0033 37.7123 12.1633 39.7745 14.2255C41.8367 16.2877 42.9967 19.0836 43 22V23.142C42.6741 23.0521 42.338 23.0044 42 23H41.9811C41.8857 21.3788 41.1751 19.8551 39.9944 18.7401C38.8137 17.625 37.2519 17.0026 35.6279 17H28.3721C26.9069 17.0019 25.487 17.5078 24.3508 18.4329C23.2145 19.3579 22.4311 20.6457 22.1321 22.08C21.3924 20.8475 21.0011 19.4374 21 18V11ZM20 27C20.0006 26.4698 20.2115 25.9614 20.5865 25.5865C20.9614 25.2115 21.4698 25.0006 22 25V29C21.4698 28.9994 20.9614 28.7885 20.5865 28.4135C20.2115 28.0386 20.0006 27.5302 20 27ZM24 31V23.3721C24.0013 22.2129 24.4623 21.1016 25.2819 20.2819C26.1016 19.4623 27.2129 19.0012 28.3721 19H35.6279C36.7871 19.0012 37.8984 19.4623 38.7181 20.2819C39.5377 21.1016 39.9988 22.2129 40 23.3721V31C39.9981 31.7759 39.8165 32.5408 39.4695 33.2347C39.1225 33.9287 38.6195 34.5329 38 35L33.2 38.6C32.8519 38.855 32.4315 38.9924 32 38.9924C31.5685 38.9924 31.1482 38.855 30.8 38.6L26 35C25.3804 34.533 24.8773 33.9288 24.5303 33.2348C24.1834 32.5408 24.0018 31.7759 24 31ZM28.1543 43.2388C28.3899 43.2018 28.6045 43.0819 28.7596 42.9008C28.9146 42.7196 28.9999 42.489 29 42.2505V39.7492L29.6006 40.1992C30.2927 40.7187 31.1347 40.9995 32 40.9995C32.8654 40.9995 33.7073 40.7187 34.3994 40.1992L35 39.7492V42.2504C35.0001 42.4889 35.0854 42.7195 35.2404 42.9007C35.3955 43.0818 35.6101 43.2017 35.8457 43.2387C36.8891 43.4062 37.9172 43.658 38.9199 43.9915C38.6839 45.6588 37.8538 47.1847 36.5824 48.2888C35.3111 49.3929 33.6838 50.0008 31.9999 50.0008C30.316 50.0008 28.6888 49.3929 27.4174 48.2888C26.146 47.1847 25.3159 45.6588 25.0799 43.9915C26.0827 43.658 27.1109 43.4063 28.1543 43.2388ZM12 62C12.0108 59.1876 12.6441 56.4125 13.8543 53.8739C15.0646 51.3352 16.8219 49.096 19 47.3169V51C18.9938 54.0282 18.0119 56.9737 16.2 59.4C16.0702 59.5731 16 59.7836 16 60V68H12V62ZM52 68H48V60C48 59.7836 47.9298 59.5731 47.8 59.4C45.9881 56.9737 45.0062 54.0282 45 51V47.3169C47.1781 49.096 48.9354 51.3352 50.1457 53.8739C51.3559 56.4125 51.9892 59.1876 52 62V68Z" fill="black"/>
<path d="M28.3746 54H27.6246C26.8226 54.001 26.0538 54.32 25.4867 54.887C24.9196 55.4541 24.6006 56.2229 24.5996 57.0249V62.5749C24.6006 63.3769 24.9196 64.1458 25.4867 64.7129C26.0537 65.28 26.8226 65.599 27.6246 65.6H28.3746C29.1766 65.599 29.9454 65.28 30.5125 64.713C31.0795 64.1459 31.3986 63.3771 31.3996 62.5752V57.0252C31.3987 56.2232 31.0797 55.4543 30.5126 54.8872C29.9455 54.32 29.1766 54.001 28.3746 54ZM29.3996 62.5752C29.3992 62.8469 29.291 63.1073 29.0989 63.2994C28.9068 63.4915 28.6463 63.5996 28.3746 63.6H27.6246C27.3529 63.5996 27.0925 63.4915 26.9003 63.2994C26.7082 63.1073 26.6001 62.8469 26.5996 62.5752V57.0252C26.6 56.7534 26.708 56.4929 26.9002 56.3007C27.0923 56.1085 27.3528 56.0004 27.6246 56H28.3746C28.6463 56.0004 28.9068 56.1085 29.0989 56.3006C29.2911 56.4927 29.3992 56.7532 29.3996 57.0249V62.5752Z" fill="black"/>
<path d="M38.3996 63.6H36.9996V55C36.9996 54.7901 36.9336 54.5856 36.8109 54.4153C36.6881 54.245 36.5149 54.1177 36.3158 54.0513C36.1167 53.9849 35.9018 53.9829 35.7014 54.0455C35.5011 54.1081 35.3255 54.2321 35.1996 54.4L34.7196 55.04C34.5888 55.2134 34.4196 55.3542 34.2253 55.4514C34.031 55.5485 33.8168 55.5994 33.5996 55.6C33.3344 55.6 33.08 55.7054 32.8925 55.8929C32.705 56.0804 32.5996 56.3348 32.5996 56.6C32.5996 56.8652 32.705 57.1196 32.8925 57.3071C33.08 57.4946 33.3344 57.6 33.5996 57.6C34.0826 57.5994 34.5598 57.4959 34.9996 57.2963V63.6H33.5996C33.3344 63.6 33.08 63.7054 32.8925 63.8929C32.705 64.0804 32.5996 64.3348 32.5996 64.6C32.5996 64.8652 32.705 65.1196 32.8925 65.3071C33.08 65.4946 33.3344 65.6 33.5996 65.6H38.3996C38.6648 65.6 38.9192 65.4946 39.1067 65.3071C39.2943 65.1196 39.3996 64.8652 39.3996 64.6C39.3996 64.3348 39.2943 64.0804 39.1067 63.8929C38.9192 63.7054 38.6648 63.6 38.3996 63.6Z" fill="black"/>
</g>
</svg>
