<svg width="64" height="65" viewBox="0 0 64 65" fill="none" xmlns="http://www.w3.org/2000/svg">
<circle cx="32" cy="32.5" r="32" fill="#D9D9D9"/>
<mask id="mask0_1151_1475" style="mask-type:alpha" maskUnits="userSpaceOnUse" x="0" y="0" width="64" height="64">
<circle cx="32" cy="32" r="32" fill="#D9D9D9"/>
</mask>
<g mask="url(#mask0_1151_1475)">
<path d="M46 49.451L36.5 47V40H27.5V47L18 49.451C16.2822 49.8945 14.7607 50.8964 13.6745 52.2992C12.5884 53.7019 11.9993 55.4259 12 57.2V69H52V57.2C52.0007 55.4259 51.4116 53.7019 50.3255 52.2992C49.2393 50.8964 47.7178 49.8945 46 49.451Z" fill="#7D7282"/>
<path d="M46 49.451L36.5 47V40H30.5V49L21 51.451C19.2822 51.8945 17.7607 52.8964 16.6745 54.2992C15.5884 55.7019 14.9993 57.4259 15 59.2V69H52V57.2C52.0007 55.4259 51.4116 53.7019 50.3255 52.2992C49.2393 50.8964 47.7178 49.8945 46 49.451Z" fill="#695F6E"/>
<path d="M23 49.5V52L32 55L41 52V49.5C41 48.3065 40.5259 47.1619 39.682 46.318C38.8381 45.4741 37.6935 45 36.5 45H27.5C26.3065 45 25.1619 45.4741 24.318 46.318C23.4741 47.1619 23 48.3065 23 49.5Z" fill="#F4FCFF"/>
<path d="M36.5 45H30.5V49L23 50.935V52L32 55L41 52V49.5C41 48.3065 40.5259 47.1619 39.682 46.318C38.8381 45.4741 37.6935 45 36.5 45Z" fill="#E3F7FF"/>
<path d="M27.5 40V47L32 55L36.5 47V40H27.5Z" fill="#FFCFBE"/>
<path d="M32.0003 55L36.5003 47V40H30.5003V49L28.8633 49.423L32.0003 55Z" fill="#F9BBA5"/>
<path d="M22 23V13C22 11.9391 22.4214 10.9217 23.1716 10.1716C23.9217 9.42143 24.9391 9 26 9H38C39.0609 9 40.0783 9.42143 40.8284 10.1716C41.5786 10.9217 42 11.9391 42 13V23H22Z" fill="#7D7282"/>
<path d="M25 23V15C25 14.2044 25.3161 13.4413 25.8787 12.8787C26.4413 12.3161 27.2044 12 28 12H38C39.0609 12 40.0783 12.4214 40.8284 13.1716C41.5786 13.9217 42 14.9391 42 16V23H25Z" fill="#695F6E"/>
<path d="M22 18H42V23H22V18Z" fill="#FF838B"/>
<path d="M22 27V31.1C22.0001 35.5177 23.7552 39.7543 26.879 42.878C27.5514 43.5507 28.3498 44.0843 29.2284 44.4484C30.1071 44.8125 31.0489 44.9999 32 45C32.951 45 33.8928 44.8127 34.7715 44.4488C35.6501 44.0849 36.4485 43.5515 37.121 42.879C38.6679 41.3322 39.8949 39.4958 40.7321 37.4748C41.5692 35.4537 42.0001 33.2876 42 31.1V27H22Z" fill="#FFDCD2"/>
<path d="M28.879 42.879C29.9936 43.9904 31.4406 44.7078 33 44.922C34.5594 44.7078 36.0064 43.9904 37.121 42.879C38.6679 41.3322 39.8949 39.4958 40.7321 37.4748C41.5692 35.4537 42.0001 33.2876 42 31.1V27H24V31.1C23.9999 33.2876 24.4308 35.4537 25.2679 37.4748C26.1051 39.4958 27.3321 41.3322 28.879 42.879Z" fill="#FFCFBE"/>
<path d="M36.909 50.8997L32 52.9997V54.9997L36.909 57.0997C37.1369 57.1973 37.3854 57.237 37.6324 57.2151C37.8793 57.1933 38.117 57.1105 38.3242 56.9743C38.5313 56.8381 38.7015 56.6526 38.8194 56.4346C38.9373 56.2165 38.9994 55.9726 39 55.7247V52.2747C38.9994 52.0267 38.9373 51.7828 38.8194 51.5647C38.7015 51.3467 38.5313 51.1612 38.3242 51.025C38.117 50.8888 37.8793 50.806 37.6324 50.7842C37.3854 50.7623 37.1369 50.802 36.909 50.8997Z" fill="#F45F69"/>
<path d="M27.091 50.8997L32 52.9997V54.9997L27.091 57.0997C26.8631 57.1973 26.6146 57.237 26.3676 57.2151C26.1207 57.1933 25.883 57.1105 25.6758 56.9743C25.4687 56.8381 25.2985 56.6526 25.1806 56.4346C25.0627 56.2165 25.0006 55.9726 25 55.7247V52.2747C25.0006 52.0267 25.0627 51.7828 25.1806 51.5647C25.2985 51.3467 25.4687 51.1612 25.6758 51.025C25.883 50.8888 26.1207 50.806 26.3676 50.7842C26.6146 50.7623 26.8631 50.802 27.091 50.8997Z" fill="#F45F69"/>
<path d="M32 56.5C33.3807 56.5 34.5 55.3807 34.5 54C34.5 52.6193 33.3807 51.5 32 51.5C30.6193 51.5 29.5 52.6193 29.5 54C29.5 55.3807 30.6193 56.5 32 56.5Z" fill="#FF838B"/>
<path d="M48 23H16C14.8954 23 14 23.8954 14 25C14 26.1046 14.8954 27 16 27H48C49.1046 27 50 26.1046 50 25C50 23.8954 49.1046 23 48 23Z" fill="#7D7282"/>
<path d="M50 25H18C17.4696 25 16.9609 25.2107 16.5858 25.5858C16.2107 25.9609 16 26.4696 16 27H48C48.5304 27 49.0391 26.7893 49.4142 26.4142C49.7893 26.0391 50 25.5304 50 25Z" fill="#695F6E"/>
<path d="M25 18H42V23H25V18Z" fill="#F45F69"/>
<path d="M46.249 48.482L41.519 47.262C41.1544 46.4495 40.5983 45.7374 39.8984 45.1867C39.1985 44.636 38.3755 44.2632 37.5 44.1V43.888C37.61 43.788 37.723 43.695 37.828 43.588C39.4731 41.9519 40.7772 40.0057 41.665 37.8621C42.5528 35.7185 43.0065 33.4201 43 31.1V28H48C48.7957 28 49.5587 27.6839 50.1213 27.1213C50.6839 26.5587 51 25.7956 51 25C51 24.2044 50.6839 23.4413 50.1213 22.8787C49.5587 22.3161 48.7957 22 48 22H43V13C42.9984 11.6744 42.4711 10.4036 41.5338 9.46622C40.5964 8.52888 39.3256 8.00159 38 8H26C24.6744 8.00159 23.4036 8.52888 22.4662 9.46622C21.5289 10.4036 21.0016 11.6744 21 13V22H16C15.2044 22 14.4413 22.3161 13.8787 22.8787C13.3161 23.4413 13 24.2044 13 25C13 25.7956 13.3161 26.5587 13.8787 27.1213C14.4413 27.6839 15.2044 28 16 28H21V31.1C20.9939 33.4196 21.4478 35.7175 22.3356 37.8605C23.2233 40.0035 24.5273 41.9492 26.172 43.585C26.277 43.69 26.39 43.785 26.5 43.885V44.1C25.6241 44.2636 24.8009 44.6371 24.1009 45.1885C23.401 45.7399 22.8451 46.4527 22.481 47.266L17.751 48.487C15.8191 48.9856 14.1077 50.112 12.8856 51.6891C11.6636 53.2663 11.0003 55.2048 11 57.2V69C11 69.2652 11.1054 69.5196 11.2929 69.7071C11.4804 69.8946 11.7348 70 12 70H52C52.2652 70 52.5196 69.8946 52.7071 69.7071C52.8946 69.5196 53 69.2652 53 69V57.2C53.0008 55.204 52.338 53.2643 51.1159 51.6861C49.8938 50.1079 48.1817 48.9808 46.249 48.482ZM40 49.5V51.279L39.8 51.345C39.6772 51.0368 39.4941 50.7563 39.2613 50.52C39.0286 50.2836 38.7509 50.0962 38.4446 49.9687C38.1384 49.8413 37.8097 49.7763 37.478 49.7778C37.1462 49.7792 36.8182 49.8469 36.513 49.977L35.799 50.283L37.37 47.49C37.4547 47.3405 37.4995 47.1718 37.5 47V46.163C38.22 46.3767 38.852 46.8166 39.3023 47.4177C39.7526 48.0188 39.9973 48.749 40 49.5ZM35.235 52.7L37.303 51.813C37.3792 51.7797 37.4625 51.766 37.5454 51.7731C37.6283 51.7801 37.7081 51.8077 37.7776 51.8534C37.8471 51.8991 37.9041 51.9614 37.9435 52.0346C37.9828 52.1079 38.0033 52.1898 38.003 52.273V55.723C38.0033 55.8062 37.9828 55.8881 37.9435 55.9614C37.9041 56.0346 37.8471 56.0969 37.7776 56.1426C37.7081 56.1883 37.6283 56.2159 37.5454 56.2229C37.4625 56.23 37.3792 56.2163 37.303 56.183L35.236 55.3C35.4109 54.8889 35.5011 54.4468 35.5011 54C35.5011 53.5532 35.4099 53.1111 35.235 52.7ZM28.764 55.3L26.697 56.186C26.6208 56.2193 26.5375 56.233 26.4546 56.2259C26.3717 56.2189 26.2919 56.1913 26.2224 56.1456C26.1529 56.0999 26.0959 56.0376 26.0565 55.9644C26.0172 55.8911 25.9967 55.8092 25.997 55.726V52.276C25.9967 52.1928 26.0172 52.1109 26.0565 52.0376C26.0959 51.9644 26.1529 51.9021 26.2224 51.8564C26.2919 51.8107 26.3717 51.7831 26.4546 51.7761C26.5375 51.769 26.6208 51.7827 26.697 51.816L28.765 52.703C28.5901 53.1141 28.4999 53.5562 28.4999 54.003C28.4999 54.4498 28.5901 54.8919 28.765 55.303L28.764 55.3ZM28.5 46.738V45.214C29.5942 45.7315 30.7896 46 32 46C33.2104 46 34.4058 45.7315 35.5 45.214V46.738L33.248 50.738C32.4456 50.417 31.5504 50.417 30.748 50.738L28.5 46.738ZM23 13C23 12.2044 23.3161 11.4413 23.8787 10.8787C24.4413 10.3161 25.2044 10 26 10H38C38.7956 10 39.5587 10.3161 40.1213 10.8787C40.6839 11.4413 41 12.2044 41 13V17H23V13ZM23 19H41V22H23V19ZM16 26C15.7348 26 15.4804 25.8946 15.2929 25.7071C15.1054 25.5196 15 25.2652 15 25C15 24.7348 15.1054 24.4804 15.2929 24.2929C15.4804 24.1054 15.7348 24 16 24H48C48.2652 24 48.5196 24.1054 48.7071 24.2929C48.8946 24.4804 49 24.7348 49 25C49 25.2652 48.8946 25.5196 48.7071 25.7071C48.5196 25.8946 48.2652 26 48 26H16ZM23 31.1V28H41V31.1C41.0054 33.1569 40.6029 35.1945 39.8157 37.0948C39.0286 38.9951 37.8723 40.7205 36.414 42.171C35.2432 43.3415 33.6555 43.9991 32 43.9991C30.3445 43.9991 28.7568 43.3415 27.586 42.171C26.1277 40.7205 24.9714 38.9951 24.1843 37.0948C23.3971 35.1945 22.9946 33.1569 23 31.1ZM24 49.5C24.0027 48.749 24.2474 48.0188 24.6977 47.4177C25.148 46.8166 25.78 46.3767 26.5 46.163V47C26.4999 47.1716 26.544 47.3404 26.628 47.49L28.2 50.283L27.486 49.977C27.1809 49.8471 26.8529 49.7795 26.5213 49.7781C26.1897 49.7768 25.8611 49.8417 25.555 49.9692C25.2488 50.0966 24.9713 50.284 24.7386 50.5203C24.5059 50.7565 24.3228 51.0369 24.2 51.345L24 51.279V49.5ZM31 68H19V61C19 60.7348 18.8946 60.4804 18.7071 60.2929C18.5196 60.1054 18.2652 60 18 60C17.7348 60 17.4804 60.1054 17.2929 60.2929C17.1054 60.4804 17 60.7348 17 61V68H13V57.2C13.0002 55.6481 13.5161 54.1403 14.4666 52.9136C15.4171 51.6868 16.7483 50.8107 18.251 50.423L22 49.452V49.5V52C22.0002 52.2098 22.0663 52.4142 22.1891 52.5844C22.3118 52.7545 22.485 52.8817 22.684 52.948L24 53.387V55.725C23.9996 56.1389 24.102 56.5464 24.298 56.911C24.494 57.2756 24.7775 57.5858 25.1229 57.8138C25.4684 58.0418 25.8651 58.1804 26.2773 58.2173C26.6896 58.2542 27.1046 58.1881 27.485 58.025L30.09 56.908C30.3711 57.0945 30.6776 57.2397 31 57.339V68ZM30.5 54C30.5 53.7033 30.588 53.4133 30.7528 53.1666C30.9176 52.92 31.1519 52.7277 31.426 52.6142C31.7001 52.5006 32.0017 52.4709 32.2926 52.5288C32.5836 52.5867 32.8509 52.7296 33.0607 52.9393C33.2704 53.1491 33.4133 53.4164 33.4712 53.7074C33.5291 53.9983 33.4993 54.2999 33.3858 54.574C33.2723 54.8481 33.08 55.0824 32.8334 55.2472C32.5867 55.412 32.2967 55.5 32 55.5C31.6022 55.5 31.2206 55.342 30.9393 55.0607C30.658 54.7794 30.5 54.3978 30.5 54ZM51 68H47V61C47 60.7348 46.8946 60.4804 46.7071 60.2929C46.5196 60.1054 46.2652 60 46 60C45.7348 60 45.4804 60.1054 45.2929 60.2929C45.1054 60.4804 45 60.7348 45 61V68H33V57.337C33.3224 57.2377 33.6289 57.0925 33.91 56.906L36.515 58.023C36.8953 58.186 37.3101 58.2521 37.7222 58.2153C38.1343 58.1786 38.5308 58.0401 38.8762 57.8123C39.2216 57.5846 39.5051 57.2746 39.7013 56.9103C39.8974 56.546 40 56.1387 40 55.725V53.387L41.316 52.948C41.515 52.8817 41.6882 52.7545 41.811 52.5844C41.9337 52.4142 41.9998 52.2098 42 52V49.5C42 49.484 42 49.468 42 49.451L45.751 50.419C47.2539 50.8073 48.5852 51.6842 49.5354 52.9117C50.4856 54.1392 51.0008 55.6477 51 57.2V68Z" fill="black"/>
<path d="M32.0009 41.4997C32.491 41.5007 32.9764 41.4048 33.4293 41.2175C33.8822 41.0303 34.2936 40.7555 34.6399 40.4087C34.7354 40.3165 34.8116 40.2062 34.864 40.0841C34.9164 39.9621 34.944 39.8309 34.9452 39.6981C34.9463 39.5654 34.921 39.4337 34.8708 39.3108C34.8205 39.1879 34.7462 39.0762 34.6523 38.9823C34.5584 38.8885 34.4468 38.8142 34.3239 38.7639C34.201 38.7136 34.0693 38.6883 33.9365 38.6895C33.8037 38.6906 33.6725 38.7182 33.5505 38.7706C33.4285 38.823 33.3182 38.8992 33.2259 38.9947C32.9004 39.3185 32.46 39.5003 32.0009 39.5003C31.5418 39.5003 31.1014 39.3185 30.7759 38.9947C30.6837 38.8992 30.5733 38.823 30.4513 38.7706C30.3293 38.7182 30.1981 38.6906 30.0653 38.6895C29.9326 38.6883 29.8009 38.7136 29.678 38.7639C29.5551 38.8142 29.4434 38.8885 29.3495 38.9823C29.2556 39.0762 29.1814 39.1879 29.1311 39.3108C29.0808 39.4337 29.0555 39.5654 29.0567 39.6981C29.0578 39.8309 29.0854 39.9621 29.1378 40.0841C29.1902 40.2062 29.2664 40.3165 29.3619 40.4087C29.7083 40.7555 30.1197 41.0303 30.5726 41.2175C31.0255 41.4048 31.5109 41.5007 32.0009 41.4997Z" fill="black"/>
<path d="M37 32C37.5523 32 38 31.5523 38 31C38 30.4477 37.5523 30 37 30C36.4477 30 36 30.4477 36 31C36 31.5523 36.4477 32 37 32Z" fill="black"/>
<path d="M27 32C27.5523 32 28 31.5523 28 31C28 30.4477 27.5523 30 27 30C26.4477 30 26 30.4477 26 31C26 31.5523 26.4477 32 27 32Z" fill="black"/>
<path d="M31.2935 36.7072C31.4821 36.8894 31.7347 36.9902 31.9969 36.9879C32.2591 36.9856 32.5099 36.8804 32.6953 36.695C32.8807 36.5096 32.9859 36.2588 32.9882 35.9966C32.9905 35.7344 32.8897 35.4818 32.7075 35.2932L32.1455 34.7292L32.9455 32.3162C32.987 32.1914 33.0035 32.0597 32.9941 31.9286C32.9847 31.7975 32.9496 31.6695 32.8907 31.5519C32.8318 31.4343 32.7504 31.3295 32.651 31.2434C32.5516 31.1574 32.4363 31.0917 32.3115 31.0502C32.1868 31.0087 32.0551 30.9922 31.9239 31.0016C31.7928 31.011 31.6648 31.0461 31.5472 31.105C31.4297 31.1639 31.3248 31.2453 31.2388 31.3447C31.1527 31.4441 31.087 31.5594 31.0455 31.6842L30.0455 34.6842C29.9868 34.8603 29.9782 35.0492 30.0208 35.2299C30.0633 35.4106 30.1554 35.5759 30.2865 35.7072L31.2935 36.7072Z" fill="black"/>
</g>
</svg>
