<svg width="60" height="60" viewBox="0 0 60 60" fill="none" xmlns="http://www.w3.org/2000/svg">
<g clip-path="url(#clip0_1184_2000)">
<path fill-rule="evenodd" clip-rule="evenodd" d="M44.5772 40.6028C41.3803 37.2054 38.5996 37.7603 36.1246 37.7882C28.6752 42.4337 17.3717 38.4909 16.2869 28.204C15.4947 16.9857 29.2347 14.7461 30.2274 0C32.337 10.2563 23.8879 17.6132 22.0346 24.4942C20.1167 31.6062 25.6574 34.7375 30.3887 33.9415C32.5917 33.5706 34.6196 32.348 35.637 30.2797C36.5169 28.4918 36.6419 26.0716 35.4732 23.0223C33.753 18.5329 30.2162 13.729 31.6783 7.29113C32.5707 16.4012 45.3174 20.0364 41.2213 31.6886C40.9031 32.4433 40.5202 33.1705 40.0768 33.8625C42.4396 34.7822 44.7571 35.8381 44.5772 40.6028Z" fill="#2C2C2C"/>
<path d="M21.2097 40.2948C21.2097 40.6596 22.3253 40.9876 24.0912 41.2118C21.7182 40.9624 20.1758 40.5584 20.1758 40.1037C20.1758 39.6728 21.56 39.2862 23.7227 39.0352C23.911 39.1455 24.1045 39.2515 24.3022 39.3509C22.4133 39.5751 21.21 39.9147 21.21 40.2948H21.2097Z" fill="#FFB600"/>
<path d="M39.2188 40.1058C39.2188 40.5602 37.6747 40.9645 35.303 41.2138C37.0694 40.9897 38.185 40.6617 38.185 40.2969C38.185 39.8581 36.5866 39.4746 34.1836 39.2583C34.3663 39.1561 34.5448 39.0515 34.7218 38.9395C37.4211 39.1823 39.2185 39.6136 39.2185 40.1058H39.2188Z" fill="#FFB600"/>
<path d="M36.4894 40.2724C36.4894 40.8123 33.4475 41.251 29.6959 41.251C25.9442 41.251 22.9023 40.8123 22.9023 40.2724C22.9023 40.0074 23.6306 39.7672 24.8136 39.5911C24.8957 39.5785 24.9795 39.5659 25.0651 39.5547C24.9869 39.5704 24.9123 39.5867 24.8416 39.6037C24.3197 39.727 24.0183 39.8722 24.0183 40.0285C24.0183 40.4798 26.5607 40.846 29.6959 40.846C32.831 40.846 35.3738 40.4798 35.3738 40.0285C35.3738 39.8517 34.9843 39.6879 34.3259 39.5547C35.656 39.7332 36.4887 39.9873 36.4887 40.27L36.4894 40.2724Z" fill="#FFB600"/>
<path fill-rule="evenodd" clip-rule="evenodd" d="M30.0039 11.0938C29.2292 15.3223 23.3906 21.3681 23.3906 26.8764C23.3906 33.1126 31.6043 35.1196 34.4331 28.6333C36.2878 24.3813 29.9386 17.2448 30.0039 11.0941V11.0938Z" fill="#FFB600"/>
<path d="M32.7094 28.8338C32.5603 28.8505 32.4153 28.7933 32.3748 28.6066C32.3399 28.4442 32.4908 28.2248 32.612 28.0487C33.6916 26.4859 33.2728 24.5682 32.6794 22.9117C32.2581 21.7348 31.8561 20.4071 31.5117 19.3906C32.1708 21.0314 32.9658 22.5244 33.5026 24.1907C33.9165 25.4732 33.9637 26.8654 33.3629 28.1025C33.2281 28.3805 33.0908 28.7913 32.7084 28.8342L32.7094 28.8338Z" fill="white"/>
<path d="M31.9425 30.1685C31.7301 30.3861 31.449 30.4601 31.3138 30.3344C31.1786 30.2087 31.2401 29.9307 31.4535 29.7148C31.6669 29.4988 31.9471 29.4235 32.0822 29.5492C32.2174 29.6749 32.1559 29.9522 31.9425 30.1688V30.1685Z" fill="white"/>
</g>
<path d="M5.20601 57.1908C6.72001 57.9235 8.27384 58.1329 9.77456 57.8843L9.12381 59.5853L4.76775 57.1908C1.48743 57.0992 0 55.058 0 52.441C0 49.3138 1.56712 47.5866 5.0068 47.5866C8.44649 47.5866 10.0136 49.3138 10.0136 52.441C10.0136 55.0711 8.5129 57.1123 5.20601 57.1908ZM2.65613 52.441C2.65613 54.9925 3.30688 56.9291 5.0068 56.9291C6.82625 56.9291 7.35748 54.9925 7.35748 52.441C7.35748 49.968 6.82625 47.8483 5.0068 47.8483C3.04127 47.8483 2.65613 49.968 2.65613 52.441Z" fill="#2C2C2C"/>
<path d="M13.3534 57.1908C12.105 57.1908 10.9496 56.3141 10.9496 54.6654V49.4185H13.6057V55.9608C13.6057 56.445 13.8182 56.6674 14.1237 56.6674C14.7744 56.6674 15.8634 55.6468 16.222 54.1159V49.4185H18.8781V56.9814H16.222V54.9925H16.1689C15.5314 56.4842 14.469 57.1908 13.3534 57.1908Z" fill="#2C2C2C"/>
<path d="M21.4628 49.0521C20.7191 49.0521 20.1347 48.4764 20.1347 47.7436C20.1347 47.0109 20.7191 46.4351 21.4628 46.4351C22.2065 46.4351 22.7908 47.0109 22.7908 47.7436C22.7908 48.4764 22.2065 49.0521 21.4628 49.0521ZM22.7908 56.9814H20.1347V49.4185H22.7908V56.9814Z" fill="#2C2C2C"/>
<path d="M26.7724 56.9814H24.1163V47.796H26.7724V51.9961L31.5004 49.4185V50.9886C30.252 50.6746 27.888 51.5905 27.2771 51.9569V51.9961C28.5919 51.5382 29.8536 51.8915 30.2387 52.7943L32.0183 56.9814H29.3622L27.5958 52.9121C27.4232 52.5195 27.1841 52.2578 26.7724 52.3494V56.9814Z" fill="#2C2C2C"/>
<path d="M35.2025 56.9814H32.5464V49.4185H35.2025V52.9121H35.2158C35.7869 50.4391 37.4603 48.5679 39.1602 49.4185L38.8946 50.9886C36.9689 50.1512 35.7869 51.2241 35.2025 53.6448V56.9814Z" fill="#2C2C2C"/>
<path d="M43.7543 57.1777C41.3107 57.1777 38.96 55.7253 38.96 53.0298C38.96 50.4652 41.2576 49.196 43.4223 49.196C45.3613 49.196 47.2073 50.2035 47.2073 52.1924C47.2073 52.5065 47.1675 52.8467 47.0612 53.213H41.6162C41.6693 55.686 42.413 56.8898 43.502 56.8898C44.3653 56.8898 45.4543 56.1047 46.5831 54.5608L47.1143 56.1309C46.1449 56.8375 44.9363 57.1777 43.7543 57.1777ZM41.6162 52.9513H44.6441C44.684 52.6635 44.7106 52.3887 44.7106 52.1139C44.7106 50.3344 44.0996 49.51 43.409 49.51C42.5989 49.51 41.6693 50.7138 41.6162 52.9513Z" fill="#2C2C2C"/>
<path d="M51.0842 56.9814H48.4281V49.6802H47.2328V49.4185H48.4281V49.1437C48.3351 48.7773 48.2953 48.4502 48.2953 48.1623C48.2953 46.6052 49.5304 46.252 50.9116 46.252C51.642 46.252 52.492 46.409 53.4349 46.7492L52.9037 48.3193C51.7748 47.3642 50.4866 46.8146 49.796 46.8146C49.464 46.8146 49.2648 46.9324 49.2648 47.181C49.2648 47.5735 49.7827 48.3063 51.0842 49.4185H52.5451V49.6802H51.0842V56.9814Z" fill="#2C2C2C"/>
<path d="M54.6903 49.0521C53.9466 49.0521 53.3623 48.4764 53.3623 47.7436C53.3623 47.0109 53.9466 46.4351 54.6903 46.4351C55.4341 46.4351 56.0184 47.0109 56.0184 47.7436C56.0184 48.4764 55.4341 49.0521 54.6903 49.0521ZM56.0184 56.9814H53.3623V49.4185H56.0184V56.9814Z" fill="#2C2C2C"/>
<path d="M60 56.9814H57.3439V47.796H60V56.9814Z" fill="#2C2C2C"/>
<defs>
<clipPath id="clip0_1184_2000">
<rect width="28.3333" height="41.25" fill="white" transform="translate(16.25)"/>
</clipPath>
</defs>
</svg>
