<svg width="24" height="24" viewBox="0 0 24 24" fill="none" xmlns="http://www.w3.org/2000/svg">
<path d="M5.62861 13.6139L4.88445 16.3499L2.16454 16.4066C1.35169 14.9217 0.890625 13.2229 0.890625 11.4176C0.890625 9.67193 1.32171 8.02571 2.08583 6.57617H2.08642L4.5079 7.01339L5.56865 9.38387C5.34664 10.0213 5.22563 10.7056 5.22563 11.4176C5.22572 12.1904 5.36785 12.9308 5.62861 13.6139Z" fill="#FBBB00"/>
<path d="M22.0821 9.45312C22.2048 10.09 22.2688 10.7476 22.2688 11.4198C22.2688 12.1735 22.1884 12.9087 22.0351 13.6178C21.5147 16.031 20.1551 18.1383 18.2715 19.6294L18.2709 19.6289L15.2209 19.4756L14.7893 16.8218C16.0391 16.0999 17.0158 14.9702 17.5304 13.6178H11.8145V9.45312H17.6137H22.0821Z" fill="#518EF8"/>
<path d="M18.271 19.626L18.2715 19.6266C16.4397 21.0767 14.1127 21.9444 11.5795 21.9444C7.50876 21.9444 3.96952 19.7036 2.16406 16.4059L5.62813 13.6133C6.53084 15.986 8.85491 17.675 11.5795 17.675C12.7506 17.675 13.8478 17.3632 14.7893 16.8189L18.271 19.626Z" fill="#28B446"/>
<path d="M18.4031 3.31424L14.9402 6.10631C13.9659 5.50649 12.8141 5.15999 11.5801 5.15999C8.79382 5.15999 6.42629 6.9265 5.5688 9.38429L2.08652 6.57659H2.08594C3.86497 3.19856 7.44884 0.890625 11.5801 0.890625C14.1738 0.890625 16.5519 1.80051 18.4031 3.31424Z" fill="#F14336"/>
</svg>
