<svg width="20" height="20" viewBox="0 0 20 20" fill="none" xmlns="http://www.w3.org/2000/svg">
<path d="M8.33398 10.0007C8.33398 10.4427 8.50958 10.8666 8.82214 11.1792C9.1347 11.4917 9.55862 11.6673 10.0007 11.6673C10.4427 11.6673 10.8666 11.4917 11.1792 11.1792C11.4917 10.8666 11.6673 10.4427 11.6673 10.0007C11.6673 9.55862 11.4917 9.1347 11.1792 8.82214C10.8666 8.50958 10.4427 8.33398 10.0007 8.33398C9.55862 8.33398 9.1347 8.50958 8.82214 8.82214C8.50958 9.1347 8.33398 9.55862 8.33398 10.0007Z" stroke="#2C2C2C" stroke-width="2" stroke-linecap="round" stroke-linejoin="round"/>
<path d="M17.5 10C15.5 13.3333 13 15 10 15C7 15 4.5 13.3333 2.5 10C4.5 6.66667 7 5 10 5C13 5 15.5 6.66667 17.5 10Z" stroke="#2C2C2C" stroke-width="2" stroke-linecap="round" stroke-linejoin="round"/>
</svg>
