<svg width="20" height="18" viewBox="0 0 20 18" fill="none" xmlns="http://www.w3.org/2000/svg">
<g clip-path="url(#clip0_87_1340)">
<path d="M17.5342 2.661L10.2112 0.036C10.0751 -0.012 9.92703 -0.012 9.79086 0.036L2.46794 2.661C2.23678 2.74425 2.08398 2.9535 2.08398 3.1875V6.1875C2.08398 6.37275 2.17978 6.54525 2.33969 6.65025C2.50198 6.75525 2.70623 6.77775 2.88753 6.71325L10.0007 4.164L17.113 6.714C17.1811 6.738 17.2523 6.75 17.3236 6.75C17.4423 6.75 17.5603 6.71625 17.6616 6.65025C17.8215 6.54525 17.9173 6.37275 17.9173 6.1875V3.1875C17.9173 2.9535 17.7645 2.74425 17.5342 2.661Z" fill="#8E8E93"/>
<path d="M17.5342 13.911L10.2112 11.286C10.0751 11.238 9.92703 11.238 9.79086 11.286L2.46794 13.911C2.23678 13.9943 2.08398 14.2035 2.08398 14.4375V17.4375C2.08398 17.6227 2.17978 17.7953 2.33969 17.9003C2.50198 18.006 2.70623 18.0278 2.88753 17.9633L9.99986 15.4132L17.1122 17.9633C17.1811 17.988 17.2523 18 17.3236 18C17.4423 18 17.5603 17.9663 17.6616 17.9003C17.8215 17.7953 17.9173 17.6227 17.9173 17.4375V14.4375C17.9173 14.2035 17.7645 13.9943 17.5342 13.911Z" fill="#C7C7CC"/>
<path d="M17.5342 8.286L10.2112 5.661C10.0751 5.613 9.92703 5.613 9.79086 5.661L2.46794 8.286C2.23678 8.36925 2.08398 8.5785 2.08398 8.8125V11.8125C2.08398 11.9977 2.17978 12.1703 2.33969 12.2753C2.50198 12.381 2.70623 12.4035 2.88753 12.3383L9.99986 9.78825L17.1122 12.3383C17.1811 12.363 17.2523 12.375 17.3236 12.375C17.4423 12.375 17.5603 12.3413 17.6616 12.2753C17.8215 12.1703 17.9173 11.9977 17.9173 11.8125V8.8125C17.9173 8.5785 17.7645 8.36925 17.5342 8.286Z" fill="#AEAEB2"/>
</g>
<defs>
<clipPath id="clip0_87_1340">
<rect width="19" height="18" fill="white" transform="translate(0.5)"/>
</clipPath>
</defs>
</svg>
