<svg width="42" height="42" viewBox="0 0 42 42" fill="none" xmlns="http://www.w3.org/2000/svg">
<path d="M9.1875 32.1562C9.1875 33.2005 9.60234 34.2021 10.3408 34.9405C11.0792 35.6789 12.0807 36.0938 13.125 36.0938H28.875C29.9193 36.0938 30.9208 35.6789 31.6592 34.9405C32.3977 34.2021 32.8125 33.2005 32.8125 32.1562V15.75H9.1875V32.1562Z" fill="#A8A8A3"/>
<path d="M28.875 9.84375H13.125C12.0807 9.84375 11.0792 10.2586 10.3408 10.997C9.60234 11.7354 9.1875 12.737 9.1875 13.7812V15.75H32.8125V13.7812C32.8125 12.737 32.3977 11.7354 31.6592 10.997C30.9208 10.2586 29.9193 9.84375 28.875 9.84375Z" fill="#5E5E5E"/>
<path d="M30.5156 36.0938H11.4844C10.2158 36.0938 9.1875 37.1221 9.1875 38.3906C9.1875 39.6592 10.2158 40.6875 11.4844 40.6875H30.5156C31.7842 40.6875 32.8125 39.6592 32.8125 38.3906C32.8125 37.1221 31.7842 36.0938 30.5156 36.0938Z" fill="#5E5E5E"/>
<path d="M21.001 21.6562L23.3385 25.1633C23.6206 25.5864 23.7826 26.0781 23.8072 26.586C23.8318 27.094 23.718 27.5991 23.4781 28.0474C23.2382 28.4958 22.881 28.8706 22.4448 29.132C22.0085 29.3933 21.5095 29.5313 21.001 29.5312C20.4924 29.5313 19.9934 29.3933 19.5572 29.132C19.1209 28.8706 18.7637 28.4958 18.5238 28.0474C18.2839 27.5991 18.1701 27.094 18.1947 26.586C18.2193 26.0781 18.3813 25.5864 18.6634 25.1633L21.001 21.6562Z" fill="#FFB600"/>
<path d="M20.9991 30.6798C21.7155 30.6797 22.4185 30.4852 23.033 30.1171C23.6476 29.7489 24.1507 29.2209 24.4888 28.5893C24.8269 27.9577 24.9872 27.2462 24.9527 26.5306C24.9182 25.8151 24.6901 25.1223 24.2929 24.5261L21.9546 21.0191C21.8498 20.8618 21.7077 20.7329 21.541 20.6437C21.3743 20.5545 21.1882 20.5078 20.9991 20.5078C20.8101 20.5078 20.624 20.5545 20.4573 20.6437C20.2906 20.7329 20.1485 20.8618 20.0436 21.0191L17.7054 24.5261C17.3082 25.1223 17.0801 25.8151 17.0456 26.5306C17.0111 27.2462 17.1714 27.9577 17.5095 28.5893C17.8476 29.2209 18.3507 29.7489 18.9653 30.1171C19.5798 30.4852 20.2828 30.6797 20.9991 30.6798ZM19.6171 25.7999L20.9991 23.7268L22.3812 25.7999C22.548 26.0501 22.6437 26.3408 22.6582 26.641C22.6727 26.9413 22.6054 27.2399 22.4636 27.505C22.3217 27.77 22.1106 27.9916 21.8527 28.1461C21.5948 28.3005 21.2998 28.3821 20.9991 28.3821C20.6985 28.3821 20.4035 28.3005 20.1456 28.1461C19.8877 27.9916 19.6766 27.77 19.5347 27.505C19.3929 27.2399 19.3256 26.9413 19.3401 26.641C19.3546 26.3408 19.4503 26.0501 19.6171 25.7999Z" fill="black"/>
<path d="M33.9615 13.7813C33.9598 12.5182 33.4887 11.3009 32.6398 10.3656C31.7909 9.43036 30.6248 8.84395 29.3678 8.72025V2.46094H30.8443C31.1489 2.46094 31.441 2.33994 31.6564 2.12457C31.8718 1.90919 31.9928 1.61708 31.9928 1.3125C31.9928 1.00792 31.8718 0.715806 31.6564 0.500432C31.441 0.285058 31.1489 0.164063 30.8443 0.164062H11.1568C10.8523 0.164062 10.5601 0.285058 10.3448 0.500432C10.1294 0.715806 10.0084 1.00792 10.0084 1.3125C10.0084 1.61708 10.1294 1.90919 10.3448 2.12457C10.5601 2.33994 10.8523 2.46094 11.1568 2.46094H12.6334V8.72025C11.3764 8.84395 10.2102 9.43036 9.36135 10.3656C8.51245 11.3009 8.04139 12.5182 8.03965 13.7813V32.1563C8.04005 33.4531 8.53802 34.7004 9.4309 35.6409C8.84908 36.0713 8.4181 36.6745 8.19949 37.3644C7.98088 38.0543 7.9858 38.7957 8.21357 39.4826C8.44133 40.1695 8.88029 40.767 9.46778 41.1896C10.0553 41.6122 10.7613 41.8384 11.485 41.8359H30.5162C31.2399 41.8384 31.9459 41.6122 32.5334 41.1896C33.1209 40.767 33.5598 40.1695 33.7876 39.4826C34.0154 38.7957 34.0203 38.0543 33.8017 37.3644C33.5831 36.6745 33.1521 36.0713 32.5703 35.6409C33.4632 34.7004 33.9611 33.4531 33.9615 32.1563V13.7813ZM14.9303 2.46094H27.0709V8.69531H22.149V7.21875C22.149 6.91417 22.028 6.62206 21.8127 6.40668C21.5973 6.19131 21.3052 6.07031 21.0006 6.07031C20.696 6.07031 20.4039 6.19131 20.1885 6.40668C19.9731 6.62206 19.8522 6.91417 19.8522 7.21875V8.69531H14.9303V2.46094ZM30.5162 39.5391H11.485C11.1804 39.5391 10.8883 39.4181 10.6729 39.2027C10.4575 38.9873 10.3365 38.6952 10.3365 38.3906C10.3365 38.086 10.4575 37.7939 10.6729 37.5786C10.8883 37.3632 11.1804 37.2422 11.485 37.2422H30.5162C30.8208 37.2422 31.1129 37.3632 31.3283 37.5786C31.5437 37.7939 31.6646 38.086 31.6646 38.3906C31.6646 38.6952 31.5437 38.9873 31.3283 39.2027C31.1129 39.4181 30.8208 39.5391 30.5162 39.5391ZM31.6646 32.1563C31.6638 32.8957 31.3697 33.6046 30.8468 34.1275C30.3239 34.6503 29.615 34.9444 28.8756 34.9453H13.1256C12.3861 34.9444 11.6772 34.6503 11.1544 34.1275C10.6315 33.6046 10.3374 32.8957 10.3365 32.1563V16.8984H31.6646V32.1563ZM31.6646 14.6016H10.3365V13.7813C10.3374 13.0418 10.6315 12.3329 11.1544 11.81C11.6772 11.2872 12.3861 10.9931 13.1256 10.9922H28.8756C29.615 10.9931 30.3239 11.2872 30.8468 11.81C31.3697 12.3329 31.6638 13.0418 31.6646 13.7813V14.6016Z" fill="black"/>
</svg>
