<svg width="15" height="15" viewBox="0 0 15 15" fill="none" xmlns="http://www.w3.org/2000/svg">
<g clip-path="url(#clip0_74_952)">
<path d="M5.23211 4.33049L1.49914 4.869L1.43302 4.88239C1.33294 4.90883 1.24169 4.96123 1.16861 5.03423C1.09553 5.10723 1.04323 5.19822 1.01705 5.29791C0.990873 5.39761 0.991754 5.50242 1.01961 5.60167C1.04746 5.70091 1.10128 5.79102 1.17558 5.86279L3.87993 8.48203L3.24217 12.1818L3.23456 12.2458C3.22844 12.3489 3.24993 12.4516 3.29685 12.5436C3.34376 12.6357 3.41442 12.7136 3.50157 12.7695C3.58872 12.8254 3.68924 12.8573 3.79284 12.8619C3.89644 12.8664 3.99939 12.8435 4.09116 12.7954L7.42977 11.0489L10.7608 12.7954L10.8193 12.8222C10.9159 12.8601 11.0208 12.8717 11.1234 12.8558C11.226 12.84 11.3225 12.7973 11.403 12.7321C11.4835 12.6669 11.5451 12.5816 11.5816 12.4849C11.618 12.3882 11.6279 12.2836 11.6103 12.1818L10.972 8.48203L13.6775 5.86221L13.7232 5.81272C13.7884 5.73283 13.8311 5.63717 13.847 5.53549C13.863 5.4338 13.8515 5.32973 13.8139 5.23388C13.7763 5.13802 13.7138 5.05381 13.6328 4.98982C13.5518 4.92582 13.4551 4.88434 13.3528 4.86959L9.61982 4.33049L7.9511 0.965465C7.90281 0.86797 7.82806 0.785871 7.7353 0.728461C7.64255 0.671052 7.53549 0.640625 7.42626 0.640625C7.31702 0.640625 7.20997 0.671052 7.11721 0.728461C7.02446 0.785871 6.9497 0.86797 6.90142 0.965465L5.23211 4.33049Z" fill="url(#paint0_linear_74_952)"/>
</g>
<defs>
<linearGradient id="paint0_linear_74_952" x1="7.42604" y1="0.640625" x2="7.42604" y2="12.8627" gradientUnits="userSpaceOnUse">
<stop stop-color="#FFD45A"/>
<stop offset="1" stop-color="#FFBC00"/>
</linearGradient>
<clipPath id="clip0_74_952">
<rect width="14.0425" height="13.9724" fill="white" transform="translate(0.408203 0.0566406)"/>
</clipPath>
</defs>
</svg>
