<svg width="144" height="32" viewBox="0 0 144 32" fill="none" xmlns="http://www.w3.org/2000/svg">
<g clip-path="url(#clip0_3083_1155)">
<path d="M12.4944 26.2532C16.128 28.0118 19.8572 28.5142 23.4589 27.9176L21.8971 32L11.4426 26.2532C3.56984 26.0334 0 21.1344 0 14.8538C0 7.34838 3.76108 3.20314 12.0163 3.20314C20.2716 3.20314 24.0327 7.34838 24.0327 14.8538C24.0327 21.1658 20.431 26.0648 12.4944 26.2532ZM6.37471 14.8538C6.37471 20.9774 7.93652 25.6251 12.0163 25.6251C16.383 25.6251 17.658 20.9774 17.658 14.8538C17.658 8.91855 16.383 3.83121 12.0163 3.83121C7.29905 3.83121 6.37471 8.91855 6.37471 14.8538Z" fill="#2C2C2C"/>
<path d="M32.0481 26.2532C29.052 26.2532 26.279 24.1492 26.279 20.1923V7.59961H32.6537V23.3013C32.6537 24.4632 33.1637 24.9971 33.8968 24.9971C35.4586 24.9971 38.0722 22.5476 38.9328 18.8734V7.59961H45.3075V25.7507H38.9328V20.9774H38.8053C37.2754 24.5574 34.7255 26.2532 32.0481 26.2532Z" fill="#2C2C2C"/>
<path d="M51.5107 6.72031C49.7257 6.72031 48.3233 5.33857 48.3233 3.57998C48.3233 1.82139 49.7257 0.439647 51.5107 0.439647C53.2956 0.439647 54.698 1.82139 54.698 3.57998C54.698 5.33857 53.2956 6.72031 51.5107 6.72031ZM54.698 25.7507H48.3233V7.59961H54.698V25.7507Z" fill="#2C2C2C"/>
<path d="M64.2539 25.7507H57.8791V3.70559H64.2539V13.7861L75.6008 7.59961V11.368C72.6047 10.6143 66.9312 12.8126 65.465 13.6919V13.7861C68.6205 12.6869 71.6485 13.5348 72.5729 15.7017L76.8439 25.7507H70.4692L66.23 15.9843C65.8157 15.0422 65.2419 14.4141 64.2539 14.634V25.7507Z" fill="#2C2C2C"/>
<path d="M84.4861 25.7507H78.1114V7.59961H84.4861V15.9843H84.518C85.8885 10.0491 89.9046 5.55839 93.9844 7.59961L93.3469 11.368C88.7253 9.35819 85.8885 11.9333 84.4861 17.7429V25.7507Z" fill="#2C2C2C"/>
<path d="M105.01 26.2218C99.1457 26.2218 93.5041 22.736 93.5041 16.2669C93.5041 10.1119 99.0182 7.06575 104.214 7.06575C108.867 7.06575 113.298 9.48381 113.298 14.2571C113.298 15.0108 113.202 15.8273 112.947 16.7066H99.8788C100.006 22.6418 101.791 25.5309 104.405 25.5309C106.477 25.5309 109.09 23.6467 111.799 19.9411L113.074 23.7095C110.748 25.4053 107.847 26.2218 105.01 26.2218ZM99.8788 16.0785H107.146C107.242 15.3876 107.305 14.7282 107.305 14.0687C107.305 9.79784 105.839 7.81943 104.182 7.81943C102.237 7.81943 100.006 10.7085 99.8788 16.0785Z" fill="#2C2C2C"/>
<path d="M122.602 25.7507H116.227V8.22767H113.359V7.59961H116.227V6.94014C116.004 6.06084 115.909 5.27576 115.909 4.58489C115.909 0.84789 118.873 0 122.188 0C123.941 0 125.981 0.376841 128.244 1.19333L126.969 4.96173C124.26 2.66928 121.168 1.35034 119.51 1.35034C118.714 1.35034 118.235 1.63297 118.235 2.22964C118.235 3.17174 119.479 4.93032 122.602 7.59961H126.108V8.22767H122.602V25.7507Z" fill="#2C2C2C"/>
<path d="M131.257 6.72031C129.472 6.72031 128.069 5.33857 128.069 3.57998C128.069 1.82139 129.472 0.439647 131.257 0.439647C133.042 0.439647 134.444 1.82139 134.444 3.57998C134.444 5.33857 133.042 6.72031 131.257 6.72031ZM134.444 25.7507H128.069V7.59961H134.444V25.7507Z" fill="#2C2C2C"/>
<path d="M144 25.7507H137.625V3.70559H144V25.7507Z" fill="#2C2C2C"/>
</g>
<defs>
<clipPath id="clip0_3083_1155">
<rect width="144" height="32" fill="white"/>
</clipPath>
</defs>
</svg>
