<svg width="68" height="99" viewBox="0 0 68 99" fill="none" xmlns="http://www.w3.org/2000/svg">
<path fill-rule="evenodd" clip-rule="evenodd" d="M67.976 97.4467C60.3033 89.2929 53.6298 90.6246 47.6898 90.6917C29.811 101.841 2.68279 92.3782 0.0791073 67.6895C-1.8221 40.7658 31.1539 35.3907 33.5363 0C38.5995 24.6151 18.3216 42.2716 13.8738 58.7861C9.27079 75.8548 22.5683 83.3701 33.9236 81.4596C39.2106 80.5693 44.0776 77.6353 46.5195 72.6714C48.6311 68.3803 48.9312 62.5719 46.1264 55.2536C41.9979 44.4789 33.5095 32.9496 37.0185 17.4987C39.1603 39.3629 69.7523 48.0873 59.9219 76.0526C59.158 77.8638 58.2391 79.6091 57.1748 81.2699C62.8458 83.4772 68.4077 86.0115 67.976 97.4467Z" fill="#2C2C2C"/>
<path d="M11.8914 96.7106C11.8914 97.5862 14.5689 98.3734 18.8072 98.9114C13.112 98.313 9.41016 97.3434 9.41016 96.252C9.41016 95.2179 12.7322 94.29 17.9228 93.6875C18.3747 93.9524 18.8391 94.2066 19.3135 94.4453C14.7801 94.9832 11.8923 95.7983 11.8923 96.7106H11.8914Z" fill="#FFB600"/>
<path d="M55.1178 96.2503C55.1178 97.3409 51.4118 98.3112 45.7199 98.9097C49.959 98.3717 52.6365 97.5845 52.6365 96.7089C52.6365 95.656 48.8005 94.7355 43.0332 94.2164C43.4716 93.9711 43.9 93.7201 44.325 93.4512C50.8032 94.0341 55.1169 95.069 55.1169 96.2503H55.1178Z" fill="#FFB600"/>
<path d="M48.5679 96.6522C48.5679 97.9479 41.2673 99.0009 32.2634 99.0009C23.2595 99.0009 15.959 97.9479 15.959 96.6522C15.959 96.0162 17.7068 95.4398 20.546 95.0172C20.743 94.9869 20.9442 94.9567 21.1496 94.9297C20.9618 94.9673 20.783 95.0065 20.6131 95.0474C19.3607 95.3434 18.6373 95.6916 18.6373 96.0668C18.6373 97.15 24.7391 98.0289 32.2634 98.0289C39.7878 98.0289 45.8904 97.15 45.8904 96.0668C45.8904 95.6426 44.9557 95.2493 43.3756 94.9297C46.5677 95.3581 48.5662 95.9679 48.5662 96.6465L48.5679 96.6522Z" fill="#FFB600"/>
<path fill-rule="evenodd" clip-rule="evenodd" d="M33.0028 26.627C31.1435 36.7755 17.1309 51.2854 17.1309 64.5053C17.1309 79.4722 36.8437 84.2889 43.6329 68.722C48.0842 58.5171 32.846 41.3895 33.0028 26.6278V26.627Z" fill="#FFB600"/>
<path d="M39.4955 69.1989C39.1376 69.2389 38.7897 69.1016 38.6925 68.6536C38.6086 68.2637 38.9708 67.7372 39.2617 67.3145C41.8528 63.5638 40.8477 58.9612 39.4234 54.9857C38.4125 52.1612 37.4476 48.9746 36.6211 46.5352C38.2029 50.4731 40.1108 54.0562 41.3993 58.0555C42.3926 61.1334 42.5058 64.4745 41.0639 67.4437C40.7404 68.1108 40.4109 69.0967 39.493 69.1997L39.4955 69.1989Z" fill="white"/>
<path d="M37.6534 72.402C37.1438 72.9244 36.469 73.1018 36.1445 72.8002C35.8201 72.4985 35.9677 71.8314 36.4798 71.3131C36.992 70.7948 37.6643 70.6141 37.9887 70.9158C38.3132 71.2175 38.1656 71.8829 37.6534 72.4028V72.402Z" fill="white"/>
</svg>
