<svg width="40" height="40" viewBox="0 0 40 40" fill="none" xmlns="http://www.w3.org/2000/svg">
<rect x="0.3" y="0.3" width="39.4" height="39.4" rx="19.7" fill="#F7F6F2" stroke="#A8A8A3" stroke-width="0.6"/>
<path d="M17 19C17 19.7956 17.3161 20.5587 17.8787 21.1213C18.4413 21.6839 19.2044 22 20 22C20.7956 22 21.5587 21.6839 22.1213 21.1213C22.6839 20.5587 23 19.7956 23 19C23 18.2044 22.6839 17.4413 22.1213 16.8787C21.5587 16.3161 20.7956 16 20 16C19.2044 16 18.4413 16.3161 17.8787 16.8787C17.3161 17.4413 17 18.2044 17 19Z" stroke="#A8A8A3" stroke-width="2" stroke-linecap="round" stroke-linejoin="round"/>
<path d="M25.657 24.6572L21.414 28.9002C21.039 29.2748 20.5306 29.4853 20.0005 29.4853C19.4704 29.4853 18.962 29.2748 18.587 28.9002L14.343 24.6572C13.2242 23.5384 12.4623 22.1129 12.1537 20.5611C11.845 19.0092 12.0035 17.4007 12.609 15.9389C13.2145 14.4771 14.2399 13.2277 15.5555 12.3487C16.8711 11.4697 18.4178 11.0005 20 11.0005C21.5822 11.0005 23.1289 11.4697 24.4445 12.3487C25.7601 13.2277 26.7855 14.4771 27.391 15.9389C27.9965 17.4007 28.155 19.0092 27.8463 20.5611C27.5377 22.1129 26.7758 23.5384 25.657 24.6572Z" stroke="#A8A8A3" stroke-width="2" stroke-linecap="round" stroke-linejoin="round"/>
</svg>
