<svg width="80" height="80" viewBox="0 0 80 80" fill="none" xmlns="http://www.w3.org/2000/svg">
<g clip-path="url(#clip0_1073_1302)">
<path fill-rule="evenodd" clip-rule="evenodd" d="M59.4324 54.1371C55.1698 49.6072 51.4623 50.347 48.1623 50.3843C38.2297 56.5782 23.1584 51.3212 21.7119 37.6053C20.6557 22.6476 38.9757 19.6615 40.2993 0C43.1121 13.6751 31.8467 23.4842 29.3756 32.6589C26.8184 42.1415 34.2059 46.3167 40.5144 45.2553C43.4516 44.7607 46.1555 43.1307 47.5121 40.373C48.6853 37.9891 48.852 34.7622 47.2937 30.6964C45.0001 24.7105 40.2844 18.3053 42.2338 9.72151C43.4237 21.8683 60.4192 26.7152 54.9579 42.2514C54.5335 43.2577 54.023 44.2273 53.4318 45.15C56.5823 46.3762 59.6723 47.7841 59.4324 54.1371Z" fill="#2C2C2C"/>
<path d="M28.275 53.7283C28.275 54.2148 29.7625 54.6521 32.1171 54.951C28.9531 54.6185 26.8965 54.0799 26.8965 53.4736C26.8965 52.899 28.7421 52.3836 31.6258 52.0488C31.8768 52.196 32.1348 52.3372 32.3984 52.4698C29.8798 52.7687 28.2754 53.2215 28.2754 53.7283H28.275Z" fill="#FFB600"/>
<path d="M52.2898 53.4721C52.2898 54.0779 50.2309 54.617 47.0688 54.9495C49.4239 54.6506 50.9113 54.2133 50.9113 53.7269C50.9113 53.1419 48.7802 52.6305 45.5762 52.3421C45.8197 52.2058 46.0577 52.0664 46.2938 51.917C49.8928 52.2408 52.2894 52.8158 52.2894 53.4721H52.2898Z" fill="#FFB600"/>
<path d="M48.6493 53.6952C48.6493 54.4151 44.5934 55.0001 39.5912 55.0001C34.5891 55.0001 30.5332 54.4151 30.5332 53.6952C30.5332 53.3419 31.5042 53.0217 33.0816 52.7869C33.191 52.7701 33.3028 52.7533 33.4169 52.7383C33.3125 52.7592 33.2132 52.781 33.1188 52.8037C32.423 52.9681 32.0211 53.1616 32.0211 53.37C32.0211 53.9718 35.411 54.46 39.5912 54.46C43.7714 54.46 47.1618 53.9718 47.1618 53.37C47.1618 53.1343 46.6425 52.9159 45.7647 52.7383C47.5381 52.9763 48.6483 53.3151 48.6483 53.692L48.6493 53.6952Z" fill="#FFB600"/>
<path fill-rule="evenodd" clip-rule="evenodd" d="M40.0033 14.7935C38.9703 20.4315 31.1855 28.4926 31.1855 35.837C31.1855 44.1519 42.1371 46.8279 45.9089 38.1796C48.3818 32.5102 39.9162 22.9949 40.0033 14.7939V14.7935Z" fill="#FFB600"/>
<path d="M43.6106 38.444C43.4117 38.4662 43.2185 38.3899 43.1644 38.1411C43.1179 37.9244 43.3191 37.6319 43.4807 37.3971C44.9202 35.3134 44.3618 32.7564 43.5705 30.5478C43.0089 28.9786 42.4729 27.2083 42.0137 25.853C42.8925 28.0408 43.9524 30.0314 44.6682 32.2532C45.2201 33.9631 45.2829 35.8193 44.4819 37.4689C44.3022 37.8395 44.1191 38.3872 43.6092 38.4444L43.6106 38.444Z" fill="white"/>
<path d="M42.5861 40.2238C42.303 40.5141 41.9281 40.6126 41.7478 40.445C41.5676 40.2774 41.6496 39.9068 41.9341 39.6189C42.2187 39.3309 42.5922 39.2306 42.7724 39.3982C42.9526 39.5657 42.8707 39.9354 42.5861 40.2243V40.2238Z" fill="white"/>
</g>
<path d="M6.94135 76.2516C8.96001 77.2286 11.0318 77.5077 13.0327 77.1763L12.1651 79.4443L6.357 76.2516C1.98324 76.1295 0 73.4079 0 69.9186C0 65.7489 2.08949 63.446 6.67574 63.446C11.262 63.446 13.3515 65.7489 13.3515 69.9186C13.3515 73.4253 11.3505 76.1469 6.94135 76.2516ZM3.54151 69.9186C3.54151 73.3206 4.40918 75.9027 6.67574 75.9027C9.10167 75.9027 9.80997 73.3206 9.80997 69.9186C9.80997 66.6213 9.10167 63.795 6.67574 63.795C4.05502 63.795 3.54151 66.6213 3.54151 69.9186Z" fill="#2C2C2C"/>
<path d="M17.8045 76.2516C16.14 76.2516 14.5994 75.0827 14.5994 72.8845V65.8885H18.141V74.6117C18.141 75.2572 18.4243 75.5538 18.8315 75.5538C19.6992 75.5538 21.1512 74.1929 21.6293 72.1517V65.8885H25.1708V75.9725H21.6293V73.3206H21.5585C20.7085 75.3095 19.2919 76.2516 17.8045 76.2516Z" fill="#2C2C2C"/>
<path d="M28.617 65.4C27.6254 65.4 26.8463 64.6324 26.8463 63.6554C26.8463 62.6784 27.6254 61.9108 28.617 61.9108C29.6087 61.9108 30.3878 62.6784 30.3878 63.6554C30.3878 64.6324 29.6087 65.4 28.617 65.4ZM30.3878 75.9725H26.8463V65.8885H30.3878V75.9725Z" fill="#2C2C2C"/>
<path d="M35.6966 75.9725H32.1551V63.7252H35.6966V69.3254L42.0005 65.8885V67.9821C40.336 67.5634 37.184 68.7846 36.3695 69.2731V69.3254C38.1225 68.7148 39.8047 69.1859 40.3183 70.3897L42.6911 75.9725H39.1496L36.7945 70.5467C36.5643 70.0233 36.2455 69.6744 35.6966 69.7965V75.9725Z" fill="#2C2C2C"/>
<path d="M46.9367 75.9725H43.3952V65.8885H46.9367V70.5467H46.9544C47.7158 67.2493 49.947 64.7545 52.2136 65.8885L51.8594 67.9821C49.2918 66.8655 47.7158 68.2961 46.9367 71.5237V75.9725Z" fill="#2C2C2C"/>
<path d="M58.3391 76.2342C55.0809 76.2342 51.9467 74.2976 51.9467 70.7037C51.9467 67.2842 55.0101 65.5919 57.8964 65.5919C60.4817 65.5919 62.9431 66.9353 62.9431 69.5871C62.9431 70.0058 62.89 70.4594 62.7483 70.9479H55.4882C55.559 74.2453 56.5507 75.8503 58.0027 75.8503C59.1537 75.8503 60.6057 74.8036 62.1108 72.7449L62.8191 74.8385C61.5265 75.7806 59.9151 76.2342 58.3391 76.2342ZM55.4882 70.599H59.5255C59.5786 70.2152 59.6141 69.8488 59.6141 69.4824C59.6141 67.1097 58.7995 66.0106 57.8787 66.0106C56.7986 66.0106 55.559 67.6157 55.4882 70.599Z" fill="#2C2C2C"/>
<path d="M68.1123 75.9725H64.5708V66.2374H62.9771V65.8885H64.5708V65.5221C64.4468 65.0336 64.3937 64.5975 64.3937 64.2137C64.3937 62.1376 66.0405 61.6665 67.8821 61.6665C68.856 61.6665 69.9893 61.8759 71.2465 62.3295L70.5382 64.423C69.0331 63.1494 67.3155 62.4167 66.3947 62.4167C65.952 62.4167 65.6864 62.5737 65.6864 62.9052C65.6864 63.4286 66.377 64.4056 68.1123 65.8885H70.0601V66.2374H68.1123V75.9725Z" fill="#2C2C2C"/>
<path d="M72.9204 65.4C71.9288 65.4 71.1497 64.6324 71.1497 63.6554C71.1497 62.6784 71.9288 61.9108 72.9204 61.9108C73.9121 61.9108 74.6912 62.6784 74.6912 63.6554C74.6912 64.6324 73.9121 65.4 72.9204 65.4ZM74.6912 75.9725H71.1497V65.8885H74.6912V75.9725Z" fill="#2C2C2C"/>
<path d="M80 75.9725H76.4585V63.7252H80V75.9725Z" fill="#2C2C2C"/>
<defs>
<clipPath id="clip0_1073_1302">
<rect width="37.7778" height="55" fill="white" transform="translate(21.666)"/>
</clipPath>
</defs>
</svg>
