<svg width="76" height="76" viewBox="0 0 76 76" fill="none" xmlns="http://www.w3.org/2000/svg">
<g filter="url(#filter0_d_4364_1981)">
<rect x="11" y="8" width="44" height="44" rx="22" fill="white"/>
</g>
<path d="M28 25H27C26.4696 25 25.9609 25.2107 25.5858 25.5858C25.2107 25.9609 25 26.4696 25 27V36C25 36.5304 25.2107 37.0391 25.5858 37.4142C25.9609 37.7893 26.4696 38 27 38H36C36.5304 38 37.0391 37.7893 37.4142 37.4142C37.7893 37.0391 38 36.5304 38 36V35" stroke="#5E5E5E" stroke-width="1.6" stroke-linecap="round" stroke-linejoin="round"/>
<path d="M37 23.0001L40 26.0001M41.385 24.5851C41.7788 24.1913 42.0001 23.6571 42.0001 23.1001C42.0001 22.5431 41.7788 22.009 41.385 21.6151C40.9912 21.2213 40.457 21 39.9 21C39.343 21 38.8088 21.2213 38.415 21.6151L30 30.0001V33.0001H33L41.385 24.5851Z" stroke="#5E5E5E" stroke-width="1.6" stroke-linecap="round" stroke-linejoin="round"/>
<defs>
<filter id="filter0_d_4364_1981" x="0" y="0" width="76" height="76" filterUnits="userSpaceOnUse" color-interpolation-filters="sRGB">
<feFlood flood-opacity="0" result="BackgroundImageFix"/>
<feColorMatrix in="SourceAlpha" type="matrix" values="0 0 0 0 0 0 0 0 0 0 0 0 0 0 0 0 0 0 127 0" result="hardAlpha"/>
<feMorphology radius="8" operator="erode" in="SourceAlpha" result="effect1_dropShadow_4364_1981"/>
<feOffset dx="5" dy="8"/>
<feGaussianBlur stdDeviation="12"/>
<feComposite in2="hardAlpha" operator="out"/>
<feColorMatrix type="matrix" values="0 0 0 0 0.117647 0 0 0 0 0.117647 0 0 0 0 0.117647 0 0 0 0.26 0"/>
<feBlend mode="normal" in2="BackgroundImageFix" result="effect1_dropShadow_4364_1981"/>
<feBlend mode="normal" in="SourceGraphic" in2="effect1_dropShadow_4364_1981" result="shape"/>
</filter>
</defs>
</svg>
