<svg width="40" height="40" viewBox="0 0 40 40" fill="none" xmlns="http://www.w3.org/2000/svg">
<rect x="0.3" y="0.3" width="39.4" height="39.4" rx="19.7" fill="#F7F6F2" stroke="#919191" stroke-width="0.6"/>
<path d="M11 15C11 14.4696 11.2107 13.9609 11.5858 13.5858C11.9609 13.2107 12.4696 13 13 13H27C27.5304 13 28.0391 13.2107 28.4142 13.5858C28.7893 13.9609 29 14.4696 29 15V25C29 25.5304 28.7893 26.0391 28.4142 26.4142C28.0391 26.7893 27.5304 27 27 27H13C12.4696 27 11.9609 26.7893 11.5858 26.4142C11.2107 26.0391 11 25.5304 11 25V15Z" stroke="#919191" stroke-width="2" stroke-linecap="round" stroke-linejoin="round"/>
<path d="M11 15L20 21L29 15" stroke="#919191" stroke-width="2" stroke-linecap="round" stroke-linejoin="round"/>
</svg>
