<svg width="40" height="40" viewBox="0 0 40 40" fill="none" xmlns="http://www.w3.org/2000/svg">
<rect x="0.3" y="0.3" width="39.4" height="39.4" rx="19.7" fill="#F7F6F2" stroke="#A8A8A3" stroke-width="0.6"/>
<path d="M27.4993 20.5722L19.9993 28.0002L12.4993 20.5722C12.0046 20.0908 11.615 19.5122 11.3549 18.8728C11.0948 18.2334 10.9699 17.5471 10.9881 16.8571C11.0062 16.1671 11.1671 15.4883 11.4605 14.8635C11.7539 14.2387 12.1735 13.6814 12.6928 13.2268C13.2122 12.7721 13.82 12.4299 14.4781 12.2217C15.1362 12.0134 15.8303 11.9438 16.5167 12.017C17.2031 12.0902 17.8668 12.3047 18.4662 12.6471C19.0656 12.9894 19.5876 13.4522 19.9993 14.0062C20.4129 13.4562 20.9355 12.9975 21.5344 12.6588C22.1334 12.3201 22.7958 12.1086 23.4803 12.0377C24.1647 11.9668 24.8564 12.0379 25.5121 12.2466C26.1678 12.4553 26.7734 12.7971 27.2909 13.2505C27.8084 13.704 28.2268 14.2595 28.5197 14.8821C28.8127 15.5047 28.9741 16.1811 28.9936 16.8689C29.0132 17.5567 28.8906 18.2412 28.6335 18.8794C28.3763 19.5177 27.9902 20.096 27.4993 20.5782" stroke="#A8A8A3" stroke-width="2" stroke-linecap="round" stroke-linejoin="round"/>
</svg>
