<svg width="120" height="120" viewBox="0 0 120 120" fill="none" xmlns="http://www.w3.org/2000/svg">
<path d="M60 26.5769C63.4931 21.8429 68.3937 18.3332 74.0018 16.549C79.6099 14.7648 85.6387 14.7975 91.2271 16.6423C96.8156 18.4871 101.678 22.0497 105.119 26.8213C108.561 31.5929 110.406 37.3294 110.391 43.2115C110.391 71.1906 82.3958 93.574 60 104.766C37.6042 93.574 9.60947 71.1906 9.60947 43.2115C9.59417 37.3294 11.4391 31.5929 14.8806 26.8213C18.3222 22.0497 23.1844 18.4871 28.7729 16.6423C34.3613 14.7975 40.3901 14.7648 45.9982 16.549C51.6063 18.3332 56.5069 21.8429 60 26.5769Z" fill="#FA668C"/>
<path d="M68.4519 100.078C88.8453 87.9408 110.391 67.7169 110.391 43.1813C110.406 37.3056 108.563 31.5753 105.127 26.8088C101.69 22.0424 96.8341 18.4836 91.2532 16.6408C85.6724 14.798 79.6518 14.7653 74.0513 16.5476C68.4509 18.3298 63.557 21.8358 60.0686 26.5647C58.7106 24.7515 57.1415 23.1064 55.3943 21.6643C53.2665 21.1233 51.0814 20.8405 48.886 20.8221C33.4465 20.8221 19.7589 33.3805 20.9293 48.7711C22.5136 69.6099 48.1591 87.0464 68.4519 100.078Z" fill="#F54F78"/>
<path d="M58.331 108.122C58.8492 108.381 59.4206 108.516 60 108.516C60.5794 108.516 61.1508 108.381 61.669 108.122C87.0367 95.4361 114.141 71.7244 114.141 43.1995C114.131 34.7912 110.784 26.7301 104.834 20.7845C98.8842 14.8389 90.8173 11.4943 82.403 11.4845C78.233 11.475 74.1032 12.2982 70.256 13.9058C66.4089 15.5134 62.9219 17.873 60 20.846C57.0781 17.873 53.5911 15.5134 49.744 13.9058C45.8968 12.2982 41.767 11.475 37.597 11.4845C29.1827 11.4943 21.1158 14.8389 15.166 20.7845C9.2162 26.7301 5.86926 34.7912 5.85938 43.1995C5.85938 71.7244 32.9633 95.4361 58.331 108.122ZM37.597 18.9468C41.3801 18.9447 45.1104 19.835 48.4842 21.5454C51.858 23.2558 54.7802 25.7378 57.0129 28.7897C57.3607 29.2531 57.8117 29.6292 58.3302 29.8883C58.8486 30.1473 59.4203 30.2822 60 30.2822C60.5797 30.2822 61.1514 30.1473 61.6698 29.8883C62.1883 29.6292 62.6393 29.2531 62.9871 28.7897C65.2198 25.7378 68.142 23.2558 71.5158 21.5454C74.8896 19.835 78.6199 18.9447 82.403 18.9468C88.8374 18.9547 95.0059 21.5124 99.5557 26.059C104.106 30.6055 106.665 36.7697 106.673 43.1995C106.673 67.7246 82.8735 88.7199 60 100.578C37.1265 88.7199 13.327 67.7246 13.327 43.1995C13.335 36.7697 15.8945 30.6055 20.4443 26.059C24.9941 21.5124 31.1626 18.9547 37.597 18.9468Z" fill="#2C2C2C"/>
</svg>
