<svg width="40" height="40" viewBox="0 0 40 40" fill="none" xmlns="http://www.w3.org/2000/svg">
<rect x="0.3" y="0.3" width="39.4" height="39.4" rx="19.7" fill="#F7F6F2" stroke="#A8A8A3" stroke-width="0.6"/>
<path d="M20 25V25.01M11 20C11 21.1819 11.2328 22.3522 11.6851 23.4442C12.1374 24.5361 12.8003 25.5282 13.636 26.364C14.4718 27.1997 15.4639 27.8626 16.5558 28.3149C17.6478 28.7672 18.8181 29 20 29C21.1819 29 22.3522 28.7672 23.4442 28.3149C24.5361 27.8626 25.5282 27.1997 26.364 26.364C27.1997 25.5282 27.8626 24.5361 28.3149 23.4442C28.7672 22.3522 29 21.1819 29 20C29 18.8181 28.7672 17.6478 28.3149 16.5558C27.8626 15.4639 27.1997 14.4718 26.364 13.636C25.5282 12.8003 24.5361 12.1374 23.4442 11.6851C22.3522 11.2328 21.1819 11 20 11C18.8181 11 17.6478 11.2328 16.5558 11.6851C15.4639 12.1374 14.4718 12.8003 13.636 13.636C12.8003 14.4718 12.1374 15.4639 11.6851 16.5558C11.2328 17.6478 11 18.8181 11 20Z" stroke="#A8A8A3" stroke-width="2" stroke-linecap="round" stroke-linejoin="round"/>
<path d="M20 21.5002C19.9816 21.1755 20.0692 20.8537 20.2495 20.5832C20.4299 20.3126 20.6933 20.108 21 20.0002C21.3759 19.8564 21.7132 19.6274 21.9856 19.3311C22.2579 19.0348 22.4577 18.6794 22.5693 18.2928C22.6809 17.9061 22.7013 17.4989 22.6287 17.103C22.5562 16.7072 22.3928 16.3336 22.1513 16.0117C21.9099 15.6897 21.597 15.4282 21.2373 15.2478C20.8776 15.0673 20.4809 14.9728 20.0785 14.9717C19.6761 14.9706 19.2789 15.0629 18.9182 15.2414C18.5576 15.4198 18.2432 15.6796 18 16.0002" stroke="#A8A8A3" stroke-width="2" stroke-linecap="round" stroke-linejoin="round"/>
</svg>
