<svg width="21" height="16" viewBox="0 0 21 16" fill="none" xmlns="http://www.w3.org/2000/svg">
<g clip-path="url(#clip0_211_1987)">
<path d="M3.81777 15.9207V14.8617C3.81777 14.4557 3.5656 14.191 3.13338 14.191C2.91731 14.191 2.68319 14.2616 2.5211 14.4911C2.3951 14.2969 2.21504 14.191 1.94491 14.191C1.76477 14.191 1.58479 14.2439 1.44066 14.4381V14.2263H1.0625V15.9207H1.44066V14.9852C1.44066 14.6852 1.60276 14.544 1.85492 14.544C2.10692 14.544 2.23309 14.7028 2.23309 14.9852V15.9207H2.61125V14.9852C2.61125 14.6852 2.79123 14.544 3.02534 14.544C3.27751 14.544 3.40351 14.7028 3.40351 14.9852V15.9207H3.81777ZM9.41812 14.2263H8.80592V13.7145H8.42776V14.2263H8.08561V14.5616H8.42768V15.3383C8.42768 15.7266 8.58977 15.956 9.02199 15.956C9.18409 15.956 9.36406 15.9031 9.49023 15.8325L9.38211 15.5147C9.27407 15.5853 9.14807 15.603 9.058 15.603C8.87794 15.603 8.80592 15.4971 8.80592 15.3206V14.5616H9.41812V14.2263ZM12.6236 14.1909C12.4075 14.1909 12.2635 14.2969 12.1734 14.4381V14.2263H11.7952V15.9207H12.1734V14.9676C12.1734 14.6852 12.2994 14.5264 12.5335 14.5264C12.6055 14.5264 12.6956 14.544 12.7676 14.5617L12.8757 14.2087C12.8036 14.191 12.6956 14.191 12.6236 14.191M7.77946 14.3676C7.59932 14.244 7.34724 14.1911 7.07711 14.1911C6.64497 14.1911 6.35688 14.4029 6.35688 14.7382C6.35688 15.0207 6.57295 15.1795 6.95111 15.2324L7.13117 15.2501C7.32928 15.2854 7.43731 15.3383 7.43731 15.4266C7.43731 15.5501 7.29327 15.6384 7.0411 15.6384C6.78894 15.6384 6.59091 15.5501 6.46483 15.4619L6.28477 15.7443C6.48288 15.8855 6.75301 15.9561 7.02306 15.9561C7.5273 15.9561 7.81548 15.7267 7.81548 15.4089C7.81548 15.1089 7.58136 14.95 7.22116 14.8971L7.0411 14.8794C6.87901 14.8617 6.75301 14.8265 6.75301 14.7206C6.75301 14.597 6.87901 14.5264 7.07711 14.5264C7.29327 14.5264 7.50934 14.6146 7.61737 14.6676L7.77946 14.3676ZM17.8279 14.1911C17.6117 14.1911 17.4677 14.297 17.3776 14.4382V14.2264H16.9994V15.9208H17.3776V14.9677C17.3776 14.6853 17.5037 14.5264 17.7377 14.5264C17.8098 14.5264 17.8999 14.5441 17.9719 14.5617L18.08 14.2088C18.0079 14.1911 17.8999 14.1911 17.8279 14.1911ZM13.0017 15.0736C13.0017 15.5854 13.3619 15.9561 13.9202 15.9561C14.1722 15.9561 14.3523 15.9032 14.5324 15.762L14.3523 15.4619C14.2083 15.5678 14.0642 15.6207 13.9021 15.6207C13.596 15.6207 13.3799 15.4089 13.3799 15.0736C13.3799 14.7559 13.596 14.544 13.9021 14.5264C14.0642 14.5264 14.2083 14.5793 14.3523 14.6853L14.5324 14.3853C14.3523 14.244 14.1722 14.1911 13.9202 14.1911C13.3619 14.1911 13.0017 14.5617 13.0017 15.0736ZM16.4953 15.0736V14.2264H16.1171V14.4382C15.991 14.2794 15.811 14.1911 15.5769 14.1911C15.0907 14.1911 14.7125 14.5617 14.7125 15.0736C14.7125 15.5854 15.0907 15.9561 15.5769 15.9561C15.8289 15.9561 16.0091 15.8679 16.1171 15.709V15.9208H16.4953V15.0736ZM15.1086 15.0736C15.1086 14.7735 15.3067 14.5264 15.6308 14.5264C15.937 14.5264 16.1531 14.7559 16.1531 15.0736C16.1531 15.3736 15.937 15.6207 15.6308 15.6207C15.3067 15.603 15.1086 15.3736 15.1086 15.0736ZM10.5887 14.1911C10.0845 14.1911 9.72426 14.544 9.72426 15.0736C9.72426 15.6031 10.0844 15.9561 10.6067 15.9561C10.8588 15.9561 11.1109 15.8855 11.309 15.7267L11.1289 15.4619C10.9848 15.5678 10.8048 15.6384 10.6247 15.6384C10.3906 15.6384 10.1565 15.5325 10.1024 15.2324H11.381V15.0913C11.3991 14.544 11.075 14.1911 10.5887 14.1911ZM10.5886 14.5087C10.8227 14.5087 10.9848 14.65 11.0208 14.9148H10.1204C10.1564 14.6853 10.3185 14.5087 10.5886 14.5087ZM19.9707 15.0736V13.5557H19.5925V14.4382C19.4665 14.2794 19.2864 14.1911 19.0523 14.1911C18.5661 14.1911 18.1879 14.5617 18.1879 15.0736C18.1879 15.5854 18.5661 15.9561 19.0523 15.9561C19.3044 15.9561 19.4845 15.8679 19.5925 15.709V15.9208H19.9707V15.0736ZM18.5841 15.0736C18.5841 14.7735 18.7822 14.5264 19.1063 14.5264C19.4125 14.5264 19.6286 14.7559 19.6286 15.0736C19.6286 15.3736 19.4125 15.6207 19.1063 15.6207C18.7822 15.603 18.5841 15.3736 18.5841 15.0736ZM5.94254 15.0736V14.2264H5.56437V14.4382C5.43829 14.2794 5.25823 14.1911 5.02412 14.1911C4.53792 14.1911 4.15975 14.5617 4.15975 15.0736C4.15975 15.5854 4.53792 15.9561 5.02412 15.9561C5.27628 15.9561 5.45634 15.8679 5.56437 15.709V15.9208H5.94254V15.0736ZM4.53792 15.0736C4.53792 14.7735 4.73602 14.5264 5.06013 14.5264C5.36627 14.5264 5.58242 14.7559 5.58242 15.0736C5.58242 15.3736 5.36627 15.6207 5.06013 15.6207C4.73602 15.603 4.53792 15.3736 4.53792 15.0736Z" fill="black"/>
<path d="M7.6543 1.35889H13.3268V11.3489H7.6543V1.35889Z" fill="#FF5F00"/>
<path d="M8.01355 6.35409C8.01355 4.32434 8.98595 2.52398 10.4806 1.35904C9.38216 0.511839 7.99559 0 6.48293 0C2.89923 0 0 2.84165 0 6.35409C0 9.86653 2.89923 12.7082 6.48285 12.7082C7.9955 12.7082 9.38208 12.1963 10.4806 11.3491C8.98595 10.2018 8.01355 8.38384 8.01355 6.35409Z" fill="#EB001B"/>
<path d="M20.9786 6.35409C20.9786 9.86645 18.0794 12.7082 14.4958 12.7082C12.9831 12.7082 11.5965 12.1963 10.498 11.3491C12.0107 10.1842 12.9651 8.38384 12.9651 6.35409C12.9651 4.32434 11.9927 2.52398 10.498 1.35904C11.5964 0.511839 12.9831 0 14.4958 0C18.0794 0 20.9786 2.85934 20.9786 6.35409Z" fill="#F79E1B"/>
</g>
<defs>
<clipPath id="clip0_211_1987">
<rect width="21" height="16" fill="white"/>
</clipPath>
</defs>
</svg>
