<svg width="40" height="40" viewBox="0 0 40 40" fill="none" xmlns="http://www.w3.org/2000/svg">
<rect x="0.3" y="0.3" width="39.4" height="39.4" rx="19.7" fill="#F7F6F2" stroke="#A8A8A3" stroke-width="0.6"/>
<path d="M11 18H29M15 23H15.01M19 23H21M11 16C11 15.2044 11.3161 14.4413 11.8787 13.8787C12.4413 13.3161 13.2044 13 14 13H26C26.7956 13 27.5587 13.3161 28.1213 13.8787C28.6839 14.4413 29 15.2044 29 16V24C29 24.7956 28.6839 25.5587 28.1213 26.1213C27.5587 26.6839 26.7956 27 26 27H14C13.2044 27 12.4413 26.6839 11.8787 26.1213C11.3161 25.5587 11 24.7956 11 24V16Z" stroke="#A8A8A3" stroke-width="2" stroke-linecap="round" stroke-linejoin="round"/>
</svg>
