<svg width="40" height="40" viewBox="0 0 40 40" fill="none" xmlns="http://www.w3.org/2000/svg">
<rect x="0.3" y="0.3" width="39.4" height="39.4" rx="19.7" fill="#F7F6F2" stroke="#A8A8A3" stroke-width="0.6"/>
<path d="M24.7 16C24.501 15.4352 24.1374 14.943 23.6563 14.5865C23.1751 14.2301 22.5983 14.0258 22 14H18C17.2044 14 16.4413 14.3161 15.8787 14.8787C15.3161 15.4413 15 16.2044 15 17C15 17.7956 15.3161 18.5587 15.8787 19.1213C16.4413 19.6839 17.2044 20 18 20H22C22.7956 20 23.5587 20.3161 24.1213 20.8787C24.6839 21.4413 25 22.2044 25 23C25 23.7956 24.6839 24.5587 24.1213 25.1213C23.5587 25.6839 22.7956 26 22 26H18C17.4017 25.9742 16.8249 25.7699 16.3437 25.4135C15.8626 25.057 15.499 24.5648 15.3 24M20 11V14M20 26V29" stroke="#2BBD6F" stroke-width="2" stroke-linecap="round" stroke-linejoin="round"/>
</svg>
