<svg width="342" height="97" viewBox="0 0 342 97" fill="none" xmlns="http://www.w3.org/2000/svg">
<mask id="mask0_2121_2342" style="mask-type:alpha" maskUnits="userSpaceOnUse" x="0" y="0" width="342" height="97">
<rect y="0.345215" width="342" height="96" rx="8" fill="#DB6A6A"/>
</mask>
<g mask="url(#mask0_2121_2342)">
<g filter="url(#filter0_d_2121_2342)">
<rect y="0.345215" width="342" height="96" rx="8" fill="#E66F6F"/>
</g>
<path d="M8.03874 34.6732C5.56641 39.9863 4.1648 45.7345 3.91393 51.5893C3.66306 57.4442 4.56786 63.2911 6.57665 68.7963C8.58544 74.3015 11.6589 79.3572 15.6215 83.6746C19.5841 87.992 24.3583 91.4866 29.6715 93.9589C34.9847 96.4313 40.7328 97.8329 46.5877 98.0837C52.4426 98.3346 58.2895 97.4298 63.7947 95.421C69.2999 93.4122 74.3555 90.3388 78.6729 86.3762C82.9904 82.4135 86.485 77.6393 88.9573 72.3261C91.4296 67.013 92.8313 61.2648 93.0821 55.41C93.333 49.5551 92.4282 43.7081 90.4194 38.203C88.4106 32.6978 85.3372 27.6421 81.3745 23.3247C77.4119 19.0073 72.6377 15.5127 67.3245 13.0404C62.0113 10.568 56.2632 9.16642 50.4083 8.91556C44.5535 8.66469 38.7065 9.56948 33.2013 11.5783C27.6961 13.5871 22.6405 16.6605 18.3231 20.6231C14.0057 24.5858 10.5111 29.36 8.03874 34.6732Z" stroke="white" stroke-opacity="0.1" stroke-width="5" stroke-linecap="round" stroke-linejoin="round"/>
<path d="M51.265 76.9357C50.4958 74.7588 49.2999 72.7573 47.7474 71.0485C46.195 69.3396 44.3171 67.9576 42.2238 66.9836C40.1306 66.0096 37.864 65.463 35.5569 65.3759C33.2497 65.2889 30.9484 65.663 28.7877 66.4766M45.2599 36.9532C40.9203 40.4028 31.9293 36.2191 31.7734 30.6777M76.7282 51.5961C72.3886 55.0456 63.3977 50.862 63.2418 45.3206" stroke="white" stroke-opacity="0.1" stroke-width="5" stroke-linecap="round" stroke-linejoin="round"/>
</g>
<defs>
<filter id="filter0_d_2121_2342" x="-8" y="0.345215" width="358" height="128" filterUnits="userSpaceOnUse" color-interpolation-filters="sRGB">
<feFlood flood-opacity="0" result="BackgroundImageFix"/>
<feColorMatrix in="SourceAlpha" type="matrix" values="0 0 0 0 0 0 0 0 0 0 0 0 0 0 0 0 0 0 127 0" result="hardAlpha"/>
<feMorphology radius="16" operator="erode" in="SourceAlpha" result="effect1_dropShadow_2121_2342"/>
<feOffset dy="24"/>
<feGaussianBlur stdDeviation="12"/>
<feComposite in2="hardAlpha" operator="out"/>
<feColorMatrix type="matrix" values="0 0 0 0 0.84 0 0 0 0 0.405391 0 0 0 0 0.405391 0 0 0 0.5 0"/>
<feBlend mode="normal" in2="BackgroundImageFix" result="effect1_dropShadow_2121_2342"/>
<feBlend mode="normal" in="SourceGraphic" in2="effect1_dropShadow_2121_2342" result="shape"/>
</filter>
</defs>
</svg>
