<svg width="20" height="20" viewBox="0 0 20 20" fill="none" xmlns="http://www.w3.org/2000/svg">
<path d="M5.83398 8.056C5.83398 7.46655 6.06814 6.90125 6.48494 6.48445C6.90174 6.06765 7.46704 5.8335 8.05648 5.8335H15.2782C15.57 5.8335 15.859 5.89098 16.1287 6.00267C16.3983 6.11437 16.6433 6.27807 16.8497 6.48445C17.0561 6.69083 17.2198 6.93584 17.3315 7.20548C17.4432 7.47513 17.5007 7.76413 17.5007 8.056V15.2777C17.5007 15.5695 17.4432 15.8585 17.3315 16.1282C17.2198 16.3978 17.0561 16.6428 16.8497 16.8492C16.6433 17.0556 16.3983 17.2193 16.1287 17.331C15.859 17.4427 15.57 17.5002 15.2782 17.5002H8.05648C7.76462 17.5002 7.47562 17.4427 7.20597 17.331C6.93632 17.2193 6.69132 17.0556 6.48494 16.8492C6.27856 16.6428 6.11485 16.3978 6.00316 16.1282C5.89147 15.8585 5.83398 15.5695 5.83398 15.2777V8.056Z" stroke="#2C2C2C" stroke-width="1.5" stroke-linecap="round" stroke-linejoin="round"/>
<path d="M3.34333 13.9475C3.0875 13.8021 2.87471 13.5916 2.72658 13.3374C2.57846 13.0832 2.50028 12.7942 2.5 12.5V4.16667C2.5 3.25 3.25 2.5 4.16667 2.5H12.5C13.125 2.5 13.465 2.82083 13.75 3.33333" stroke="#2C2C2C" stroke-width="1.5" stroke-linecap="round" stroke-linejoin="round"/>
</svg>
