<svg width="24" height="24" viewBox="0 0 24 24" fill="none" xmlns="http://www.w3.org/2000/svg">
<path d="M12.0006 18L10.0006 14L3.00056 10.5C2.90482 10.4561 2.82369 10.3857 2.7668 10.2971C2.70992 10.2084 2.67969 10.1053 2.67969 10C2.67969 9.89468 2.70992 9.79158 2.7668 9.70295C2.82369 9.61431 2.90482 9.54387 3.00056 9.5L21.0006 3L18.0996 11.034M19.0006 18V18.01M21.1216 20.121C21.5412 19.7015 21.827 19.1669 21.9428 18.585C22.0587 18.003 21.9993 17.3997 21.7723 16.8515C21.5452 16.3033 21.1607 15.8347 20.6674 15.505C20.174 15.1753 19.5939 14.9994 19.0006 14.9994C18.4072 14.9994 17.8271 15.1753 17.3338 15.505C16.8404 15.8347 16.4559 16.3033 16.2288 16.8515C16.0018 17.3997 15.9424 18.003 16.0583 18.585C16.1741 19.1669 16.4599 19.7015 16.8796 20.121C17.2976 20.5397 18.0046 21.166 19.0006 22C20.0519 21.11 20.7589 20.4837 21.1216 20.121Z" stroke="#8E8E93" stroke-width="2" stroke-linecap="round" stroke-linejoin="round"/>
</svg>
