<svg width="128" height="128" viewBox="0 0 128 128" fill="none" xmlns="http://www.w3.org/2000/svg">
<path d="M8.00002 44C8.00002 36.8799 10.1114 29.9197 14.0671 23.9995C18.0228 18.0793 23.6453 13.4651 30.2234 10.7404C36.8016 8.0156 44.04 7.30268 51.0233 8.69175C58.0066 10.0808 64.4212 13.5095 69.4559 18.5442C74.4906 23.5789 77.9192 29.9935 79.3083 36.9768C80.6974 43.9601 79.9844 51.1985 77.2597 57.7766C74.5349 64.3548 69.9207 69.9772 64.0005 73.9329C58.0804 77.8887 51.1202 80 44 80H8.00002L16 66.604C10.8161 60.212 7.99109 52.2299 8.00002 44Z" fill="#FF8CC8"/>
<path d="M120 84C120 76.8799 117.889 69.9197 113.933 63.9995C109.977 58.0793 104.355 53.4651 97.7766 50.7404C91.1985 48.0156 83.9601 47.3027 76.9768 48.6917C69.9934 50.0808 63.5789 53.5095 58.5442 58.5442C53.5095 63.5789 50.0808 69.9934 48.6917 76.9768C47.3027 83.9601 48.0156 91.1985 50.7404 97.7766C53.4651 104.355 58.0793 109.977 63.9995 113.933C69.9197 117.889 76.8799 120 84 120H120L112 106.604C117.184 100.212 120.009 92.2299 120 84Z" fill="#F0F0F0"/>
<path d="M56.0002 92.0002C55.9917 85.3625 57.8209 78.8521 61.2849 73.19C64.7489 67.528 69.7126 62.9353 75.6263 59.9207C81.5399 56.9061 88.1725 55.5873 94.7895 56.1104C101.407 56.6334 107.75 58.9779 113.116 62.8842C110.064 58.6679 106.133 55.1643 101.595 52.6152C97.0569 50.066 92.0197 48.532 86.8311 48.1192C81.6424 47.7063 76.426 48.4244 71.5419 50.2239C66.6578 52.0233 62.2223 54.8613 58.5418 58.5418C54.8613 62.2223 52.0233 66.6578 50.2239 71.5419C48.4244 76.426 47.7063 81.6424 48.1192 86.8311C48.532 92.0197 50.066 97.0569 52.6152 101.595C55.1643 106.133 58.6679 110.064 62.8842 113.116C58.4085 106.986 55.9977 99.5907 56.0002 92.0002Z" fill="white"/>
<path d="M18.4 80.0001L24 70.6041C19.0526 64.5064 16.2377 56.9566 15.9852 49.1084C15.7327 41.2602 18.0566 33.5451 22.6018 27.142C27.147 20.7389 33.6635 16 41.1557 13.6492C48.6478 11.2985 56.7036 11.4653 64.092 14.1241C56.9419 9.32643 48.309 7.25047 39.7593 8.27277C31.2097 9.29507 23.3096 13.3479 17.4922 19.6961C11.6748 26.0443 8.32546 34.2673 8.05168 42.8735C7.7779 51.4797 10.5979 59.899 16 66.6041L8 80.0001H18.4Z" fill="#FFB4E3"/>
<path d="M84.0001 102C84.0001 102 65.3321 91.3318 65.3321 80.6678C65.3245 78.4969 65.9818 76.3757 67.2158 74.5896C68.4497 72.8034 70.201 71.438 72.2341 70.6769C74.2673 69.9159 76.4847 69.7957 78.5882 70.3325C80.6917 70.8694 82.5803 72.0375 84.0001 73.6798C85.4199 72.0375 87.3085 70.8694 89.412 70.3325C91.5155 69.7957 93.7329 69.9159 95.7661 70.6769C97.7992 71.438 99.5505 72.8034 100.784 74.5896C102.018 76.3757 102.676 78.4969 102.668 80.6678C102.668 91.3318 84.0001 102 84.0001 102Z" fill="#FF2328"/>
<path d="M90.2241 78.2958C94.6457 78.3099 98.9451 79.7491 102.484 82.3998C102.597 81.8332 102.658 81.2575 102.668 80.6798C102.678 78.5079 102.023 76.385 100.79 74.597C99.5566 72.809 97.8054 71.4416 95.7717 70.6791C93.738 69.9165 91.5195 69.7953 89.4149 70.3318C87.3103 70.8683 85.4205 72.0368 84.0001 73.6798C82.5803 72.0375 80.6917 70.8694 78.5882 70.3326C76.4847 69.7957 74.2673 69.9159 72.2341 70.677C70.201 71.4381 68.4497 72.8035 67.2158 74.5896C65.9818 76.3758 65.3245 78.4969 65.3321 80.6678C65.7764 84.8992 67.749 88.8232 70.8801 91.7038C72.3612 87.7689 75.0055 84.3782 78.461 81.983C81.9166 79.5879 86.0196 78.3017 90.2241 78.2958Z" fill="#FF6C70"/>
<path d="M116.8 106.856C120.975 100.86 123.428 93.8348 123.892 86.5433C124.357 79.2518 122.815 71.9723 119.435 65.4948C116.055 59.0174 110.965 53.5895 104.719 49.8001C98.4717 46.0108 91.3063 44.0048 84 43.9999C84.006 37.7179 82.5324 31.5228 79.6984 25.9163C76.8643 20.3098 72.7497 15.4497 67.6876 11.7295C62.6256 8.00933 56.7584 5.53375 50.5615 4.50326C44.3645 3.47277 38.012 3.91636 32.0184 5.79808C26.0248 7.67981 20.5587 10.9468 16.0628 15.3343C11.5668 19.7219 8.16754 25.1068 6.14021 31.0527C4.11288 36.9986 3.5145 43.3384 4.39356 49.5587C5.27261 55.7789 7.60438 61.7047 11.2 66.8559L4.56799 77.9479C4.20523 78.5549 4.00987 79.2472 4.0018 79.9543C3.99374 80.6614 4.17326 81.358 4.52208 81.9731C4.8709 82.5882 5.37654 83.0999 5.98749 83.4559C6.59844 83.812 7.29286 83.9997 7.99999 83.9999H44C44.0116 94.605 48.2296 104.772 55.7286 112.271C63.2275 119.77 73.3949 123.988 84 124H120C120.707 124 121.402 123.812 122.012 123.456C122.623 123.1 123.129 122.588 123.478 121.973C123.827 121.358 124.006 120.661 123.998 119.954C123.99 119.247 123.795 118.555 123.432 117.948L116.8 106.856ZM44 75.9999H15.048L19.448 68.6559C19.8687 67.9533 20.0636 67.1385 20.0063 66.3216C19.9491 65.5047 19.6425 64.725 19.128 64.0879C14.4993 58.4184 11.9801 51.319 12 43.9999C12 35.513 15.3714 27.3737 21.3726 21.3725C27.3737 15.3714 35.5131 11.9999 44 11.9999C52.4869 11.9999 60.6262 15.3714 66.6274 21.3725C72.6286 27.3737 76 35.513 76 43.9999C76 44.2759 75.956 44.5399 75.948 44.7999C68.2833 46.3866 61.2504 50.181 55.7157 55.7157C50.1811 61.2503 46.3867 68.2833 44.8 75.9479C44.54 75.9559 44.276 75.9999 44 75.9999ZM108.568 108.656L112.952 116H84C77.671 116 71.4841 114.123 66.2217 110.607C60.9594 107.091 56.8578 102.093 54.4358 96.2458C52.0138 90.3986 51.3801 83.9644 52.6149 77.7571C53.8496 71.5497 56.8973 65.8478 61.3726 61.3725C65.8479 56.8972 71.5497 53.8495 77.7571 52.6148C83.9645 51.3801 90.3986 52.0138 96.2459 54.4358C102.093 56.8578 107.091 60.9593 110.607 66.2217C114.123 71.4841 116 77.6709 116 83.9999C116.024 91.317 113.511 98.4162 108.888 104.088C108.373 104.725 108.067 105.505 108.01 106.322C107.952 107.139 108.147 107.953 108.568 108.656Z" fill="#2C2C2C"/>
<path d="M92 66C89.1559 65.9997 86.3743 66.8342 84 68.4C81.6258 66.8342 78.8441 65.9997 76 66C72.1115 66.0053 68.3837 67.5524 65.634 70.302C62.8844 73.0516 61.3373 76.7794 61.332 80.668C61.332 93.292 79.9 104.268 82.016 105.468C82.6203 105.813 83.3041 105.995 84 105.995C84.6959 105.995 85.3798 105.813 85.984 105.468C88.1 104.268 106.668 93.288 106.668 80.668C106.663 76.7794 105.116 73.0516 102.366 70.302C99.6164 67.5524 95.8886 66.0053 92 66ZM84 97.32C78.216 93.588 69.328 86.28 69.328 80.668C69.3302 78.8995 70.0339 77.2041 71.2848 75.9539C72.5357 74.7038 74.2315 74.0011 76 74C76.9493 74.0013 77.8869 74.2087 78.7481 74.6079C79.6093 75.0071 80.3736 75.5885 80.988 76.312C81.3741 76.724 81.8406 77.0524 82.3587 77.2769C82.8768 77.5014 83.4354 77.6172 84 77.6172C84.5647 77.6172 85.1233 77.5014 85.6413 77.2769C86.1594 77.0524 86.6259 76.724 87.012 76.312C87.6265 75.5885 88.3908 75.0071 89.252 74.6079C90.1132 74.2087 91.0508 74.0013 92 74C93.7678 74.0021 95.4626 74.7053 96.7127 75.9554C97.9627 77.2054 98.6659 78.9002 98.668 80.668C98.668 86.128 90.36 93.264 84 97.32Z" fill="#2C2C2C"/>
<path d="M28 32H56C57.0609 32 58.0783 31.5786 58.8284 30.8284C59.5786 30.0783 60 29.0609 60 28C60 26.9391 59.5786 25.9217 58.8284 25.1716C58.0783 24.4214 57.0609 24 56 24H28C26.9391 24 25.9217 24.4214 25.1716 25.1716C24.4214 25.9217 24 26.9391 24 28C24 29.0609 24.4214 30.0783 25.1716 30.8284C25.9217 31.5786 26.9391 32 28 32Z" fill="#2C2C2C"/>
<path d="M40 56H28C26.9391 56 25.9217 56.4214 25.1716 57.1716C24.4214 57.9217 24 58.9391 24 60C24 61.0609 24.4214 62.0783 25.1716 62.8284C25.9217 63.5786 26.9391 64 28 64H40C41.0609 64 42.0783 63.5786 42.8284 62.8284C43.5786 62.0783 44 61.0609 44 60C44 58.9391 43.5786 57.9217 42.8284 57.1716C42.0783 56.4214 41.0609 56 40 56Z" fill="#2C2C2C"/>
<path d="M56 48C57.0609 48 58.0783 47.5786 58.8284 46.8284C59.5786 46.0783 60 45.0609 60 44C60 42.9391 59.5786 41.9217 58.8284 41.1716C58.0783 40.4214 57.0609 40 56 40H24C22.9391 40 21.9217 40.4214 21.1716 41.1716C20.4214 41.9217 20 42.9391 20 44C20 45.0609 20.4214 46.0783 21.1716 46.8284C21.9217 47.5786 22.9391 48 24 48H56Z" fill="#2C2C2C"/>
</svg>
