<svg width="64" height="65" viewBox="0 0 64 65" fill="none" xmlns="http://www.w3.org/2000/svg">
<circle cx="32" cy="32.5" r="32" fill="#D9D9D9"/>
<mask id="mask0_211_1215" style="mask-type:alpha" maskUnits="userSpaceOnUse" x="0" y="0" width="64" height="64">
<circle cx="32" cy="32" r="32" fill="#D9D9D9"/>
</mask>
<g mask="url(#mask0_211_1215)">
<path d="M22.375 46H41.625C42.7741 46 43.9119 46.2263 44.9735 46.6661C46.0351 47.1058 46.9997 47.7503 47.8122 48.5628C48.6247 49.3753 49.2692 50.3399 49.7089 51.4015C50.1487 52.4631 50.375 53.6009 50.375 54.75V65.25H13.625V54.75C13.625 52.4294 14.5469 50.2038 16.1878 48.5628C17.8288 46.9219 20.0544 46 22.375 46Z" fill="#736E6E"/>
<path d="M26.75 47.75H41.625C42.7741 47.75 43.9119 47.9763 44.9735 48.4161C46.0351 48.8558 46.9997 49.5003 47.8122 50.3128C48.6247 51.1253 49.2692 52.0899 49.7089 53.1515C50.1487 54.2131 50.375 55.3509 50.375 56.5V65.25H18V56.5C18 54.1794 18.9219 51.9538 20.5628 50.3128C22.2038 48.6719 24.4294 47.75 26.75 47.75Z" fill="#5B5555"/>
<path d="M31.9991 54.75C34.7155 54.747 37.3793 54.0005 39.7017 52.5915C42.0241 51.1825 43.9165 49.1647 45.174 46.7569C44.057 46.258 42.8474 46.0001 41.6241 46H22.3741C21.1508 46.0001 19.9412 46.258 18.8242 46.7569C20.0816 49.1647 21.9741 51.1825 24.2965 52.5915C26.6189 54.0005 29.2827 54.747 31.9991 54.75Z" fill="#5B5555"/>
<path d="M41.625 46C42.7741 46 43.9119 46.2263 44.9735 46.6661C46.0351 47.1058 46.9997 47.7503 47.8122 48.5628C48.6247 49.3753 49.2692 50.3399 49.7089 51.4015C50.1487 52.4631 50.375 53.6009 50.375 54.75V65.25H25.875V61.75C25.875 57.5728 27.5344 53.5668 30.4881 50.6131C33.4418 47.6594 37.4478 46 41.625 46Z" fill="#494040"/>
<path d="M32.0011 54.75C34.2986 54.7497 36.5648 54.2167 38.6216 53.1928C40.6783 52.1689 42.4696 50.682 43.8548 48.849C42.3385 48.127 40.6805 47.7516 39.0011 47.75H26.7511C24.6488 47.7486 22.617 48.5083 21.0312 49.8885C22.4197 51.419 24.1129 52.6421 26.0021 53.4793C27.8913 54.3166 29.9347 54.7494 32.0011 54.75Z" fill="#494040"/>
<path d="M32.0009 54.75C34.7173 54.747 37.3811 54.0005 39.7035 52.5915C42.0259 51.1825 43.9184 49.1647 45.1758 46.7569C44.0588 46.258 42.8493 46.0001 41.6259 46C38.8088 45.9996 36.0432 46.7552 33.6177 48.1879C31.1921 49.6206 29.1954 51.678 27.8359 54.1454C29.1884 54.5441 30.5909 54.7477 32.0009 54.75Z" fill="#3F3232"/>
<path d="M18.875 28.5V39.875C18.875 43.356 20.2578 46.6944 22.7192 49.1558C25.1806 51.6172 28.519 53 32 53C35.481 53 38.8194 51.6172 41.2808 49.1558C43.7422 46.6944 45.125 43.356 45.125 39.875V28.5H18.875Z" fill="#5B5555"/>
<path d="M42.5 38.2589V37.4565C42.5 36.8686 42.3363 36.2923 42.0272 35.7922C41.7181 35.2921 41.2759 34.8879 40.75 34.625H39V38.293C39.0279 40.6117 38.1944 42.8583 36.6608 44.5976C35.1273 46.3369 33.0028 47.4453 30.6989 47.708C29.4238 47.83 28.1374 47.6843 26.9219 47.2803C25.7064 46.8763 24.5887 46.2229 23.6404 45.362C22.6921 44.501 21.934 43.4515 21.4147 42.2806C20.8955 41.1098 20.6265 39.8433 20.625 38.5625V28.5H18.875V39.875C18.8733 43.24 20.17 46.4758 22.4949 48.9085C24.9803 50.6809 28.0243 51.4914 31.062 51.1896C34.23 50.8301 37.1524 49.3095 39.2648 46.9214C41.3773 44.5332 42.5299 41.4471 42.5 38.2589Z" fill="#494040"/>
<path d="M45.125 34.625V25.875C45.125 22.394 43.7422 19.0556 41.2808 16.5942C38.8194 14.1328 35.481 12.75 32 12.75C28.519 12.75 25.1806 14.1328 22.7192 16.5942C20.2578 19.0556 18.875 22.394 18.875 25.875V38.5625C18.875 41.4633 20.0273 44.2453 22.0785 46.2965C24.1297 48.3477 26.9117 49.5 29.8125 49.5C32.7133 49.5 35.4953 48.3477 37.5465 46.2965C39.5977 44.2453 40.75 41.4633 40.75 38.5625V34.625" fill="#736E6E"/>
<path d="M45.125 27.6252C45.128 25.6662 44.6898 23.7315 43.8431 21.9649C39.511 12.9375 26.239 12.9375 21.9069 21.9649C21.0602 23.7315 20.6221 25.6662 20.625 27.6252V38.5627C20.626 41.3109 21.662 43.9579 23.5267 45.9767C25.3914 47.9955 27.948 49.2379 30.6875 49.4565C33.427 49.2379 35.9836 47.9955 37.8483 45.9767C39.7131 43.9579 40.749 41.3109 40.75 38.5627V34.6252H45.125V27.6252Z" fill="#5B5555"/>
<path d="M23.25 26.75H40.75V34.625H23.25V26.75Z" fill="#FFD2A6"/>
<path d="M23.25 26.75H40.75V25.875C40.75 24.7147 40.2891 23.6019 39.4686 22.7814C38.6481 21.9609 37.5353 21.5 36.375 21.5H27.625C26.4647 21.5 25.3519 21.9609 24.5314 22.7814C23.7109 23.6019 23.25 24.7147 23.25 25.875V26.75Z" fill="#736E6E"/>
<path d="M23.25 34.625L28.5525 33.2994C29.68 33.0176 30.8378 32.875 32 32.875C33.1622 32.875 34.32 33.0176 35.4475 33.2994L40.75 34.625V37.25C40.75 39.5706 39.8281 41.7962 38.1872 43.4372C36.5462 45.0781 34.3206 46 32 46C29.6794 46 27.4538 45.0781 25.8128 43.4372C24.1719 41.7962 23.25 39.5706 23.25 37.25V34.625Z" fill="#736E6E"/>
<path d="M36.8125 31.5625C37.0446 31.5625 37.2671 31.4703 37.4312 31.3062C37.5953 31.1421 37.6875 30.9196 37.6875 30.6875V29.8125C37.6875 29.5804 37.5953 29.3579 37.4312 29.1938C37.2671 29.0297 37.0446 28.9375 36.8125 28.9375C36.5804 28.9375 36.3579 29.0297 36.1938 29.1938C36.0297 29.3579 35.9375 29.5804 35.9375 29.8125V30.6875C35.9375 30.9196 36.0297 31.1421 36.1938 31.3062C36.3579 31.4703 36.5804 31.5625 36.8125 31.5625Z" fill="black"/>
<path d="M27.1875 31.5625C27.4196 31.5625 27.6421 31.4703 27.8062 31.3062C27.9703 31.1421 28.0625 30.9196 28.0625 30.6875V29.8125C28.0625 29.5804 27.9703 29.3579 27.8062 29.1938C27.6421 29.0297 27.4196 28.9375 27.1875 28.9375C26.9554 28.9375 26.7329 29.0297 26.5688 29.1938C26.4047 29.3579 26.3125 29.5804 26.3125 29.8125V30.6875C26.3125 30.9196 26.4047 31.1421 26.5688 31.3062C26.7329 31.4703 26.9554 31.5625 27.1875 31.5625Z" fill="black"/>
<path d="M44.7365 45.65C45.5671 43.8379 45.9981 41.8684 46 39.875V25.875C46 22.162 44.525 18.601 41.8995 15.9755C39.274 13.35 35.713 11.875 32 11.875C28.287 11.875 24.726 13.35 22.1005 15.9755C19.475 18.601 18 22.162 18 25.875V39.875C18.0019 41.8684 18.4329 43.8379 19.2635 45.65C17.3691 46.3056 15.7251 47.5332 14.5583 49.1633C13.3916 50.7933 12.7597 52.7454 12.75 54.75V65.25C12.75 65.4821 12.8422 65.7046 13.0063 65.8687C13.1704 66.0328 13.3929 66.125 13.625 66.125H50.375C50.6071 66.125 50.8296 66.0328 50.9937 65.8687C51.1578 65.7046 51.25 65.4821 51.25 65.25V54.75C51.2403 52.7454 50.6084 50.7933 49.4417 49.1633C48.2749 47.5332 46.6309 46.3056 44.7365 45.65ZM19.75 25.875C19.75 22.6261 21.0406 19.5103 23.3379 17.2129C25.6353 14.9156 28.7511 13.625 32 13.625C35.2489 13.625 38.3647 14.9156 40.6621 17.2129C42.9594 19.5103 44.25 22.6261 44.25 25.875V39.875C44.2526 42.3269 43.5184 44.723 42.1425 46.7525C40.7667 48.782 38.8128 50.3512 36.5342 51.2566C34.2556 52.1621 31.7575 52.3619 29.364 51.8302C26.9704 51.2986 24.7919 50.0599 23.1109 48.275C24.8821 49.5004 26.9549 50.2177 29.1047 50.3492C31.2546 50.4806 33.3993 50.0211 35.3066 49.0205C37.2139 48.02 38.811 46.5165 39.9248 44.673C41.0385 42.8295 41.6265 40.7163 41.625 38.5625V25.875C41.6236 24.483 41.07 23.1485 40.0858 22.1642C39.1015 21.18 37.767 20.6264 36.375 20.625H27.625C26.233 20.6264 24.8985 21.18 23.9142 22.1642C22.93 23.1485 22.3764 24.483 22.375 25.875V37.25C22.3732 38.9857 22.8412 40.6896 23.7296 42.1808C24.6179 43.672 25.8933 44.8949 27.4206 45.7197C28.9478 46.5446 30.6698 46.9406 32.404 46.8658C34.1381 46.791 35.8196 46.2481 37.2701 45.2948C35.9103 46.8075 34.1234 47.872 32.1456 48.3473C30.1679 48.8226 28.0924 48.6865 26.1936 47.9569C24.2949 47.2273 22.6623 45.9386 21.5118 44.2612C20.3612 42.5837 19.7469 40.5966 19.75 38.5625V25.875ZM39.875 27.625V33.5041L35.6601 32.4541C33.2566 31.8565 30.7434 31.8565 28.3399 32.4541L24.125 33.5041V27.625H39.875ZM24.125 25.875C24.125 24.9467 24.4937 24.0565 25.1501 23.4001C25.8065 22.7437 26.6967 22.375 27.625 22.375H36.375C37.3033 22.375 38.1935 22.7437 38.8499 23.4001C39.5063 24.0565 39.875 24.9467 39.875 25.875H24.125ZM28.7625 34.1481C30.8885 33.6199 33.1115 33.6199 35.2375 34.1481L39.875 35.3084V37.25C39.875 39.3386 39.0453 41.3416 37.5685 42.8185C36.0916 44.2953 34.0886 45.125 32 45.125C29.9114 45.125 27.9084 44.2953 26.4315 42.8185C24.9547 41.3416 24.125 39.3386 24.125 37.25V35.3084L28.7625 34.1481ZM25 64.375H14.5V54.75C14.5082 53.0613 15.0561 51.4194 16.0635 50.064C17.071 48.7087 18.4853 47.7109 20.1 47.2162C21.8003 49.9643 24.3962 52.0419 27.45 53.0989C25.8469 55.6996 24.9987 58.6949 25 61.75V64.375ZM49.5 64.375H26.75V61.75C26.7505 58.8485 27.6073 56.0116 29.2131 53.595C32.0199 54.166 34.9343 53.8603 37.5614 52.7193C40.1886 51.5783 42.4014 49.6571 43.9 47.2162C45.5147 47.7109 46.929 48.7087 47.9365 50.064C48.9439 51.4194 49.4918 53.0613 49.5 54.75V64.375Z" fill="black"/>
</g>
</svg>
