<svg width="40" height="40" viewBox="0 0 40 40" fill="none" xmlns="http://www.w3.org/2000/svg">
<rect x="0.3" y="0.3" width="39.4" height="39.4" rx="19.7" fill="#F7F6F2" stroke="#A8A8A3" stroke-width="0.6"/>
<path d="M25 16V13C25 12.7348 24.8946 12.4804 24.7071 12.2929C24.5196 12.1054 24.2652 12 24 12H14C13.4696 12 12.9609 12.2107 12.5858 12.5858C12.2107 12.9609 12 13.4696 12 14M12 14C12 14.5304 12.2107 15.0391 12.5858 15.4142C12.9609 15.7893 13.4696 16 14 16H26C26.2652 16 26.5196 16.1054 26.7071 16.2929C26.8946 16.4804 27 16.7348 27 17V20M12 14V26C12 26.5304 12.2107 27.0391 12.5858 27.4142C12.9609 27.7893 13.4696 28 14 28H26C26.2652 28 26.5196 27.8946 26.7071 27.7071C26.8946 27.5196 27 27.2652 27 27V24" stroke="#A8A8A3" stroke-width="2" stroke-linecap="round" stroke-linejoin="round"/>
<path d="M28 20V24H24C23.4696 24 22.9609 23.7893 22.5858 23.4142C22.2107 23.0391 22 22.5304 22 22C22 21.4696 22.2107 20.9609 22.5858 20.5858C22.9609 20.2107 23.4696 20 24 20H28Z" stroke="#A8A8A3" stroke-width="2" stroke-linecap="round" stroke-linejoin="round"/>
</svg>
