<svg width="40" height="40" viewBox="0 0 40 40" fill="none" xmlns="http://www.w3.org/2000/svg">
<rect x="0.3" y="0.3" width="39.4" height="39.4" rx="19.7" fill="#F7F6F2" stroke="#919191" stroke-width="0.6"/>
<path d="M11 29.0002L12.65 25.2002C11.3877 23.4083 10.8227 21.2172 11.061 19.0383C11.2994 16.8594 12.3248 14.8424 13.9447 13.3657C15.5646 11.8891 17.6677 11.0544 19.8594 11.0183C22.051 10.9822 24.1805 11.7471 25.8482 13.1696C27.5159 14.592 28.6071 16.5742 28.9172 18.7441C29.2272 20.914 28.7347 23.1224 27.5321 24.955C26.3295 26.7875 24.4994 28.1182 22.3854 28.6973C20.2713 29.2764 18.0186 29.0641 16.05 28.1002L11 29.0002Z" stroke="#919191" stroke-width="2" stroke-linecap="round" stroke-linejoin="round"/>
<path d="M17 18C17 18.1326 17.0527 18.2598 17.1464 18.3536C17.2402 18.4473 17.3674 18.5 17.5 18.5C17.6326 18.5 17.7598 18.4473 17.8536 18.3536C17.9473 18.2598 18 18.1326 18 18V17C18 16.8674 17.9473 16.7402 17.8536 16.6464C17.7598 16.5527 17.6326 16.5 17.5 16.5C17.3674 16.5 17.2402 16.5527 17.1464 16.6464C17.0527 16.7402 17 16.8674 17 17V18ZM17 18C17 19.3261 17.5268 20.5979 18.4645 21.5355C19.4021 22.4732 20.6739 23 22 23M22 23H23C23.1326 23 23.2598 22.9473 23.3536 22.8536C23.4473 22.7598 23.5 22.6326 23.5 22.5C23.5 22.3674 23.4473 22.2402 23.3536 22.1464C23.2598 22.0527 23.1326 22 23 22H22C21.8674 22 21.7402 22.0527 21.6464 22.1464C21.5527 22.2402 21.5 22.3674 21.5 22.5C21.5 22.6326 21.5527 22.7598 21.6464 22.8536C21.7402 22.9473 21.8674 23 22 23Z" stroke="#919191" stroke-width="2" stroke-linecap="round" stroke-linejoin="round"/>
</svg>
