<svg width="16" height="22" viewBox="0 0 16 22" fill="none" xmlns="http://www.w3.org/2000/svg">
<path d="M10.166 0.166992C11.6026 0.166992 12.9804 0.737675 13.9962 1.7535C15.012 2.76932 15.5827 4.14707 15.5827 5.58366V20.7503C15.5827 20.9465 15.5295 21.1389 15.4287 21.3072C15.3279 21.4754 15.1834 21.6132 15.0104 21.7057C14.8375 21.7982 14.6427 21.8421 14.4468 21.8325C14.2509 21.823 14.0612 21.7605 13.8981 21.6517L7.99935 17.7192L2.10168 21.6517C1.94709 21.7551 1.76845 21.817 1.58298 21.8314C1.39752 21.8458 1.21147 21.8122 1.04276 21.7339C0.874046 21.6555 0.728358 21.535 0.619725 21.384C0.511092 21.233 0.443175 21.0565 0.422516 20.8717L0.416016 20.7503V5.58366C0.416016 4.14707 0.986699 2.76932 2.00252 1.7535C3.01834 0.737675 4.39609 0.166992 5.83268 0.166992H10.166Z" fill="#FFC533"/>
</svg>
