<svg width="42" height="42" viewBox="0 0 42 42" fill="none" xmlns="http://www.w3.org/2000/svg">
<path d="M33.4688 5.25L20.3438 4.59375L8.53125 5.25V11.8125L20.3438 13.125L33.4688 11.8125V5.25Z" fill="#5E5E5E"/>
<path d="M10.5 5.25037V11.8129L21.0348 13.0565L33.4688 11.8129V5.25037L21.0348 4.62891L10.5 5.25037Z" fill="#919191"/>
<path d="M8.53125 36.75L21 38.0625L33.4688 36.75V30.1875L20.3438 28.875L8.53125 30.1875V36.75Z" fill="#5E5E5E"/>
<path d="M10.5 30.1879V36.7504L21.6562 37.994L33.4688 36.7504V30.1879L21.0348 28.9443L10.5 30.1879Z" fill="#919191"/>
<path d="M8.53125 30.1875V11.8125H33.4688V30.1875H8.53125Z" fill="#FFD366"/>
<path d="M10.5 11.8125H33.4688V30.1875H10.5V11.8125Z" fill="#FFB600"/>
<path d="M8.53125 4.59375H33.4688V6.5625H8.53125V4.59375Z" fill="#919191"/>
<path d="M10.5 34.7812H33.4688V36.75H10.5V34.7812Z" fill="#919191"/>
<path d="M8.53125 34.7812H10.5V36.75H8.53125V34.7812Z" fill="#2C2C2C"/>
<path d="M8.53125 4.59375H10.5V6.5625H8.53125V4.59375Z" fill="#2C2C2C"/>
<path d="M7.21875 2.625H34.7812V5.25H7.21875V2.625Z" fill="#919191"/>
<path d="M7.21875 36.75H34.7812V39.375H7.21875V36.75Z" fill="#919191"/>
<path d="M23.5312 22.9688C23.5312 23.6401 23.2646 24.2839 22.7899 24.7586C22.3152 25.2333 21.6713 25.5 21 25.5C20.3287 25.5 19.6848 25.2333 19.2101 24.7586C18.7354 24.2839 18.4688 23.6401 18.4688 22.9688C18.4688 22.6769 18.6183 22.1212 18.9269 21.3572C19.2218 20.6269 19.6198 19.8049 20.0248 19.0257C20.3704 18.3608 20.7167 17.7356 21 17.2374C21.2833 17.7356 21.6296 18.3608 21.9752 19.0257C22.3802 19.8049 22.7782 20.6269 23.0731 21.3572C23.3817 22.1212 23.5312 22.6769 23.5312 22.9688Z" fill="#FFD366" stroke="black" stroke-width="1.5"/>
<path d="M34.7812 5.90625C34.9553 5.90625 35.1222 5.83711 35.2453 5.71404C35.3684 5.59097 35.4375 5.42405 35.4375 5.25V2.625C35.4375 2.45095 35.3684 2.28403 35.2453 2.16096C35.1222 2.03789 34.9553 1.96875 34.7812 1.96875H7.21875C7.0447 1.96875 6.87778 2.03789 6.75471 2.16096C6.63164 2.28403 6.5625 2.45095 6.5625 2.625V5.25C6.5625 5.42405 6.63164 5.59097 6.75471 5.71404C6.87778 5.83711 7.0447 5.90625 7.21875 5.90625H7.875V36.0938H7.21875C7.0447 36.0938 6.87778 36.1629 6.75471 36.286C6.63164 36.409 6.5625 36.576 6.5625 36.75V39.375C6.5625 39.549 6.63164 39.716 6.75471 39.839C6.87778 39.9621 7.0447 40.0312 7.21875 40.0312H34.7812C34.9553 40.0312 35.1222 39.9621 35.2453 39.839C35.3684 39.716 35.4375 39.549 35.4375 39.375V36.75C35.4375 36.576 35.3684 36.409 35.2453 36.286C35.1222 36.1629 34.9553 36.0938 34.7812 36.0938H34.125V5.90625H34.7812ZM7.875 3.28125H34.125V4.59375H7.875V3.28125ZM32.8125 29.5312H9.1875V12.4688H32.8125V29.5312ZM34.125 38.7188H7.875V37.4062H34.125V38.7188ZM9.1875 36.0938V30.8438H32.8125V36.0938H9.1875ZM32.8125 11.1562H9.1875V5.90625H32.8125V11.1562Z" fill="black"/>
</svg>
