<svg width="42" height="42" viewBox="0 0 42 42" fill="none" xmlns="http://www.w3.org/2000/svg">
<path d="M18.375 36.75H23.625V37.4062C23.625 38.1024 23.3484 38.7701 22.8562 39.2624C22.3639 39.7547 21.6962 40.0312 21 40.0312C20.3038 40.0312 19.6361 39.7547 19.1438 39.2624C18.6516 38.7701 18.375 38.1024 18.375 37.4062V36.75Z" fill="#5A646E"/>
<path d="M20.9994 9.1875C18.4492 9.18659 15.9757 10.0598 13.9913 11.6615C12.0068 13.2632 10.6313 15.4968 10.0941 17.9897C9.55678 20.4827 9.89019 23.0845 11.0387 25.3614C12.1872 27.6384 14.0815 29.4529 16.4057 30.5025H25.5932C27.9174 29.4529 29.8116 27.6384 30.9601 25.3614C32.1086 23.0845 32.442 20.4827 31.9048 17.9897C31.3675 15.4968 29.992 13.2632 28.0075 11.6615C26.0231 10.0598 23.5496 9.18659 20.9994 9.1875Z" fill="#FFB600"/>
<path d="M12.4688 21.6562C12.4681 23.3685 12.8631 25.0579 13.623 26.5924C14.3828 28.1269 15.487 29.465 16.8492 30.5025H25.5938C27.3995 29.6876 28.9555 28.4062 30.1015 26.7902C31.2476 25.1742 31.9423 23.282 32.1143 21.3084C32.2862 19.3348 31.9291 17.3509 31.0797 15.5612C30.2303 13.7714 28.9193 12.2402 27.2816 11.1254C25.6014 10.5372 23.8047 10.3604 22.0421 10.6099C20.2794 10.8594 18.6023 11.528 17.1514 12.5595C15.7005 13.591 14.5181 14.9553 13.7033 16.5381C12.8886 18.1209 12.4652 19.876 12.4688 21.6562Z" fill="#FFD366"/>
<path d="M16.4062 30.5029V34.7817C16.4062 35.3038 16.6137 35.8046 16.9829 36.1738C17.3521 36.543 17.8529 36.7504 18.375 36.7504H23.625C24.1471 36.7504 24.6479 36.543 25.0171 36.1738C25.3863 35.8046 25.5938 35.3038 25.5938 34.7817V30.5029H16.4062Z" fill="#F8F7FB"/>
<path d="M25.5938 34.7817V30.5029H18.375V34.7817C18.375 35.3038 18.5824 35.8046 18.9516 36.1738C19.3208 36.543 19.8216 36.7504 20.3438 36.7504H23.625C24.1471 36.7504 24.6479 36.543 25.0171 36.1738C25.3863 35.8046 25.5938 35.3038 25.5938 34.7817Z" fill="#ECEAF4"/>
<path d="M20.9998 18.3533V13.7812L16.8438 21.6779H20.9998V26.25L25.1558 18.3533H20.9998Z" fill="#FFDC5A"/>
<path d="M25.156 17.6974H21.6562V13.7815C21.6562 13.6348 21.6071 13.4923 21.5167 13.3768C21.4263 13.2613 21.2998 13.1794 21.1574 13.1442C21.015 13.109 20.8649 13.1225 20.7311 13.1826C20.5973 13.2427 20.4874 13.3459 20.4191 13.4757L16.2631 21.3724C16.2104 21.4724 16.1845 21.5843 16.1878 21.6973C16.1911 21.8103 16.2235 21.9206 16.2819 22.0173C16.3404 22.1141 16.4228 22.1942 16.5213 22.2497C16.6197 22.3053 16.7308 22.3344 16.8439 22.3344H20.3437V26.2503C20.3436 26.397 20.3927 26.5394 20.4831 26.655C20.5735 26.7705 20.7 26.8524 20.8424 26.8876C20.9848 26.9228 21.1349 26.9093 21.2688 26.8492C21.4026 26.7891 21.5124 26.6859 21.5807 26.5561L25.7367 18.6594C25.7894 18.5594 25.8154 18.4475 25.8121 18.3345C25.8088 18.2215 25.7763 18.1112 25.7179 18.0145C25.6595 17.9177 25.5771 17.8376 25.4786 17.7821C25.3801 17.7265 25.269 17.6973 25.156 17.6974ZM21.6562 23.5944V21.6782C21.6562 21.5041 21.587 21.3372 21.464 21.2141C21.3409 21.0911 21.174 21.0219 20.9999 21.0219H17.9306L20.3437 16.4374V18.3536C20.3437 18.5277 20.4128 18.6946 20.5359 18.8177C20.659 18.9407 20.8259 19.0099 20.9999 19.0099H24.0692L21.6562 23.5944Z" fill="black"/>
<path d="M39.375 19.6875H36.0938C35.9197 19.6875 35.7528 19.7566 35.6297 19.8797C35.5066 20.0028 35.4375 20.1697 35.4375 20.3438C35.4375 20.5178 35.5066 20.6847 35.6297 20.8078C35.7528 20.9309 35.9197 21 36.0938 21H39.375C39.549 21 39.716 20.9309 39.839 20.8078C39.9621 20.6847 40.0312 20.5178 40.0312 20.3438C40.0312 20.1697 39.9621 20.0028 39.839 19.8797C39.716 19.7566 39.549 19.6875 39.375 19.6875Z" fill="black"/>
<path d="M6.5625 20.3438C6.5625 20.1697 6.49336 20.0028 6.37029 19.8797C6.24722 19.7566 6.0803 19.6875 5.90625 19.6875H2.625C2.45095 19.6875 2.28403 19.7566 2.16096 19.8797C2.03789 20.0028 1.96875 20.1697 1.96875 20.3438C1.96875 20.5178 2.03789 20.6847 2.16096 20.8078C2.28403 20.9309 2.45095 21 2.625 21H5.90625C6.0803 21 6.24722 20.9309 6.37029 20.8078C6.49336 20.6847 6.5625 20.5178 6.5625 20.3438Z" fill="black"/>
<path d="M33.502 13.125C33.589 13.2757 33.7323 13.3857 33.9005 13.4307C34.0686 13.4758 34.2477 13.4522 34.3984 13.3652L37.2406 11.7245C37.3914 11.6375 37.5013 11.4942 37.5464 11.3261C37.5914 11.158 37.5678 10.9788 37.4808 10.8281C37.3938 10.6774 37.2505 10.5674 37.0823 10.5224C36.9142 10.4773 36.7351 10.5009 36.5844 10.5879L33.7422 12.2285C33.5914 12.3156 33.4815 12.4589 33.4364 12.627C33.3914 12.7951 33.415 12.9743 33.502 13.125Z" fill="black"/>
<path d="M8.49645 27.5625C8.40942 27.4118 8.26609 27.3018 8.09797 27.2567C7.92986 27.2117 7.75074 27.2353 7.60001 27.3223L4.75779 28.9629C4.60707 29.0499 4.49709 29.1933 4.45205 29.3614C4.407 29.5295 4.43059 29.7086 4.51761 29.8594C4.60463 30.0101 4.74797 30.1201 4.91608 30.1651C5.0842 30.2101 5.26332 30.1866 5.41404 30.0995L8.25626 28.4589C8.40699 28.3719 8.51697 28.2286 8.56201 28.0604C8.60705 27.8923 8.58347 27.7132 8.49645 27.5625Z" fill="black"/>
<path d="M28.2187 7.84052C28.3695 7.92754 28.5486 7.95112 28.7167 7.90608C28.8848 7.86104 29.0281 7.75106 29.1152 7.60033L30.7558 4.75877C30.8428 4.60804 30.8664 4.42892 30.8214 4.26081C30.7763 4.0927 30.6663 3.94936 30.5156 3.86233C30.3649 3.77531 30.1858 3.75173 30.0176 3.79677C29.8495 3.84182 29.7062 3.9518 29.6192 4.10252L27.9785 6.94408C27.8915 7.09481 27.8679 7.27393 27.913 7.44205C27.958 7.61016 28.068 7.75349 28.2187 7.84052Z" fill="black"/>
<path d="M21 5.90625C21.174 5.90625 21.341 5.83711 21.464 5.71404C21.5871 5.59097 21.6562 5.42405 21.6562 5.25V1.96875C21.6562 1.7947 21.5871 1.62778 21.464 1.50471C21.341 1.38164 21.174 1.3125 21 1.3125C20.826 1.3125 20.659 1.38164 20.536 1.50471C20.4129 1.62778 20.3438 1.7947 20.3438 1.96875V5.25C20.3438 5.42405 20.4129 5.59097 20.536 5.71404C20.659 5.83711 20.826 5.90625 21 5.90625Z" fill="black"/>
<path d="M12.8848 7.60033C12.9718 7.75106 13.1152 7.86104 13.2833 7.90608C13.4514 7.95112 13.6305 7.92754 13.7812 7.84052C13.932 7.75349 14.0419 7.61016 14.087 7.44205C14.132 7.27393 14.1084 7.09481 14.0214 6.94408L12.3808 4.10252C12.2938 3.9518 12.1504 3.84182 11.9823 3.79677C11.8142 3.75173 11.6351 3.77531 11.4844 3.86233C11.3336 3.94936 11.2237 4.0927 11.1786 4.26081C11.1336 4.42892 11.1571 4.60804 11.2442 4.75877L12.8848 7.60033Z" fill="black"/>
<path d="M8.25626 12.2285L5.41404 10.5879C5.26332 10.5009 5.0842 10.4773 4.91608 10.5224C4.74797 10.5674 4.60463 10.6774 4.51761 10.8281C4.43059 10.9788 4.407 11.158 4.45205 11.3261C4.49709 11.4942 4.60707 11.6375 4.75779 11.7245L7.60001 13.3652C7.75074 13.4522 7.92986 13.4758 8.09797 13.4307C8.26609 13.3857 8.40942 13.2757 8.49645 13.125C8.58347 12.9743 8.60705 12.7951 8.56201 12.627C8.51697 12.4589 8.40699 12.3156 8.25626 12.2285Z" fill="black"/>
<path d="M37.2406 28.9629L34.3984 27.3223C34.2477 27.2353 34.0686 27.2117 33.9005 27.2567C33.7323 27.3018 33.589 27.4118 33.502 27.5625C33.415 27.7132 33.3914 27.8923 33.4364 28.0604C33.4815 28.2286 33.5914 28.3719 33.7422 28.4589L36.5844 30.0995C36.7351 30.1866 36.9142 30.2101 37.0823 30.1651C37.2505 30.1201 37.3938 30.0101 37.4808 29.8594C37.5678 29.7086 37.5914 29.5295 37.5464 29.3614C37.5013 29.1933 37.3914 29.0499 37.2406 28.9629Z" fill="black"/>
<path d="M20.9993 8.53125C18.3357 8.53023 15.7501 9.42983 13.6624 11.0839C11.5747 12.738 10.1076 15.0493 9.49942 17.6425C8.89125 20.2357 9.17773 22.9583 10.3123 25.3681C11.447 27.7779 13.363 29.7333 15.7493 30.9166V33.4688C15.5752 33.4688 15.4083 33.5379 15.2852 33.661C15.1622 33.784 15.093 33.951 15.093 34.125C15.093 34.299 15.1622 34.466 15.2852 34.589C15.4083 34.7121 15.5752 34.7812 15.7493 34.7812C15.7515 35.3615 15.9458 35.9247 16.302 36.3828C16.6582 36.8409 17.1562 37.168 17.718 37.3131V37.4062C17.718 38.2765 18.0637 39.1111 18.6791 39.7264C19.2944 40.3418 20.129 40.6875 20.9993 40.6875C21.8695 40.6875 22.7041 40.3418 23.3195 39.7264C23.9348 39.1111 24.2805 38.2765 24.2805 37.4062V37.3131C24.8424 37.168 25.3403 36.8409 25.6965 36.3828C26.0527 35.9247 26.2471 35.3615 26.2493 34.7812C26.4233 34.7812 26.5902 34.7121 26.7133 34.589C26.8364 34.466 26.9055 34.299 26.9055 34.125C26.9055 33.951 26.8364 33.784 26.7133 33.661C26.5902 33.5379 26.4233 33.4688 26.2493 33.4688V30.9166C28.6355 29.7333 30.5516 27.7779 31.6862 25.3681C32.8208 22.9583 33.1073 20.2357 32.4991 17.6425C31.891 15.0493 30.4239 12.738 28.3362 11.0839C26.2485 9.42983 23.6628 8.53023 20.9993 8.53125ZM20.9993 39.375C20.4771 39.375 19.9764 39.1676 19.6072 38.7984C19.238 38.4292 19.0305 37.9284 19.0305 37.4062H22.968C22.968 37.9284 22.7606 38.4292 22.3914 38.7984C22.0222 39.1676 21.5214 39.375 20.9993 39.375ZM23.6243 36.0938H18.3743C18.0262 36.0938 17.6923 35.9555 17.4462 35.7093C17.2001 35.4632 17.0618 35.1293 17.0618 34.7812H24.9368C24.9368 35.1293 24.7985 35.4632 24.5524 35.7093C24.3062 35.9555 23.9724 36.0938 23.6243 36.0938ZM24.9368 33.4688H17.0618V31.1581H24.9368V33.4688ZM25.4395 29.8456H16.5591C14.3936 28.8351 12.6376 27.1161 11.5811 24.9727C10.5247 22.8292 10.2309 20.3895 10.7485 18.0566C11.266 15.7236 12.5639 13.637 14.4277 12.1414C16.2914 10.6458 18.6096 9.83062 20.9993 9.83062C23.3889 9.83062 25.7071 10.6458 27.5709 12.1414C29.4347 13.637 30.7325 15.7236 31.2501 18.0566C31.7676 20.3895 31.4739 22.8292 30.4174 24.9727C29.361 27.1161 27.605 28.8351 25.4395 29.8456Z" fill="black"/>
</svg>
