<svg width="42" height="42" viewBox="0 0 42 42" fill="none" xmlns="http://www.w3.org/2000/svg">
<g clip-path="url(#clip0_1173_1947)">
<path d="M0.65625 35.4375H11.1562V38.7188H0.65625V35.4375Z" fill="#958E96"/>
<path d="M1.96875 35.4375H11.1562V38.7188H1.96875V35.4375Z" fill="#7A727C"/>
<path d="M2.625 3.28125H9.1875C9.70965 3.28125 10.2104 3.48867 10.5796 3.85788C10.9488 4.2271 11.1562 4.72786 11.1562 5.25V35.4375H0.65625V5.25C0.65625 4.72786 0.863671 4.2271 1.23288 3.85788C1.6021 3.48867 2.10286 3.28125 2.625 3.28125Z" fill="#A8A8A3"/>
<path d="M3.28125 4.59375H9.84375C10.1918 4.59375 10.5257 4.73203 10.7718 4.97817C11.018 5.22431 11.1562 5.55815 11.1562 5.90625V35.4375H1.96875V5.90625C1.96875 5.55815 2.10703 5.22431 2.35317 4.97817C2.59931 4.73203 2.93315 4.59375 3.28125 4.59375Z" fill="#919191"/>
<path d="M7.67697 25.0419C7.67697 25.453 7.50308 25.8544 7.18183 26.1555C6.85948 26.4577 6.41577 26.6326 5.94689 26.6326C5.478 26.6326 5.03429 26.4577 4.71195 26.1555C4.39069 25.8544 4.2168 25.453 4.2168 25.0419C4.2168 24.8676 4.31428 24.5218 4.52445 24.034C4.72418 23.5703 4.99408 23.0477 5.26913 22.5516C5.51014 22.1169 5.75164 21.7088 5.94688 21.3875C6.14212 21.7088 6.38363 22.1169 6.62464 22.5516C6.8997 23.0477 7.16959 23.5703 7.36932 24.034C7.57949 24.5218 7.67697 24.8676 7.67697 25.0419Z" fill="#FDDA5F" stroke="black"/>
<path d="M3.28125 5.90625H8.53125V13.7812H3.28125V5.90625Z" fill="#A0CFFC"/>
<path d="M4.59375 7.21875H8.53125V13.7812H4.59375V7.21875Z" fill="#B0DBFF"/>
<path d="M22.9688 28.2188H21C20.6519 28.2188 20.3181 28.0805 20.0719 27.8343C19.8258 27.5882 19.6875 27.2543 19.6875 26.9062C19.6875 26.5582 19.8258 26.2243 20.0719 25.9782C20.3181 25.732 20.6519 25.5938 21 25.5938H22.9688V28.2188Z" fill="#645C66"/>
<path d="M24.2812 34.7812H30.1875V37.4062C30.1875 37.7543 30.0492 38.0882 29.8031 38.3343C29.5569 38.5805 29.2231 38.7188 28.875 38.7188H25.5938C25.2457 38.7188 24.9118 38.5805 24.6657 38.3343C24.4195 38.0882 24.2812 37.7543 24.2812 37.4062V34.7812Z" fill="#7A727C"/>
<path d="M24.2812 34.7812H30.1875V36.0938H24.2812V34.7812Z" fill="#645C66"/>
<path d="M22.9688 30.8438C22.6207 30.8438 22.2868 30.982 22.0407 31.2282C21.7945 31.4743 21.6562 31.8082 21.6562 32.1562V33.4688C21.6562 33.8168 21.7945 34.1507 22.0407 34.3968C22.2868 34.643 22.6207 34.7812 22.9688 34.7812H41.3438V30.8438H22.9688Z" fill="#F1FBFF"/>
<path d="M24.9375 32.1562C24.5894 32.1562 24.2556 32.2945 24.0094 32.5407C23.7633 32.7868 23.625 33.1207 23.625 33.4688V34.7812H41.3438V32.1562H24.9375Z" fill="#DCF6FF"/>
<path d="M26.25 20.3438L24.4466 21.7875C23.9856 22.1563 23.6134 22.624 23.3576 23.1561C23.1018 23.6882 22.9689 24.271 22.9688 24.8614V30.8438H41.3438V20.3438H26.25Z" fill="#FF8C96"/>
<path d="M28.6814 21.6563C28.085 21.6562 27.5064 21.8591 27.0408 22.2318L25.6758 23.3238C25.4453 23.5083 25.2593 23.7423 25.1315 24.0085C25.0037 24.2746 24.9374 24.5661 24.9375 24.8614V30.8438H41.3438V21.6563H28.6814Z" fill="#FF5564"/>
<path d="M36.0938 22.9688C35.7457 22.9688 35.4118 23.107 35.1657 23.3532C34.9195 23.5993 34.7812 23.9332 34.7812 24.2812V26.9062C34.7812 27.2543 34.9195 27.5882 35.1657 27.8343C35.4118 28.0805 35.7457 28.2188 36.0938 28.2188H41.3438V22.9688H36.0938Z" fill="#7A727C"/>
<path d="M22.9688 17.0625H25.0504C25.3984 17.0626 25.7322 17.2009 25.9783 17.4471L26.9062 18.375V20.3438H22.9688C22.6207 20.3438 22.2868 20.2055 22.0407 19.9593C21.7945 19.7132 21.6562 19.3793 21.6562 19.0312V18.375C21.6562 18.0269 21.7945 17.6931 22.0407 17.4469C22.2868 17.2008 22.6207 17.0625 22.9688 17.0625Z" fill="#F0465A"/>
<path d="M32.0335 8.53125C31.1375 8.53132 30.2683 8.83699 29.5695 9.39777C28.8707 9.95855 28.384 10.7409 28.1899 11.6156L26.25 20.3438H41.3438V8.53125H32.0335Z" fill="#A0CFFC"/>
<path d="M33.0383 10.5C32.2917 10.5 31.5675 10.7545 30.9851 11.2216C30.4028 11.6887 29.9971 12.3405 29.8351 13.0692L28.2188 20.3438H41.3438V10.5H33.0383Z" fill="#B0DBFF"/>
<path d="M22.9688 24.9375H28.2188L26.9062 28.2188H22.9688V24.9375Z" fill="#FFF096"/>
<path d="M24.9375 28.2188H26.9062L28.2188 24.9375H24.9375V28.2188Z" fill="#FDDA5F"/>
<path d="M8.53125 5.25H3.28125C3.1072 5.25 2.94028 5.31914 2.81721 5.44221C2.69414 5.56528 2.625 5.7322 2.625 5.90625V13.7812C2.625 13.9553 2.69414 14.1222 2.81721 14.2453C2.94028 14.3684 3.1072 14.4375 3.28125 14.4375H8.53125C8.7053 14.4375 8.87222 14.3684 8.99529 14.2453C9.11836 14.1222 9.1875 13.9553 9.1875 13.7812V5.90625C9.1875 5.7322 9.11836 5.56528 8.99529 5.44221C8.87222 5.31914 8.7053 5.25 8.53125 5.25ZM7.875 13.125H3.9375V6.5625H7.875V13.125Z" fill="black"/>
<path d="M4.59375 17.0625C4.95619 17.0625 5.25 16.7687 5.25 16.4062C5.25 16.0438 4.95619 15.75 4.59375 15.75C4.23131 15.75 3.9375 16.0438 3.9375 16.4062C3.9375 16.7687 4.23131 17.0625 4.59375 17.0625Z" fill="black"/>
<path d="M7.21875 17.0625C7.58119 17.0625 7.875 16.7687 7.875 16.4062C7.875 16.0438 7.58119 15.75 7.21875 15.75C6.85631 15.75 6.5625 16.0438 6.5625 16.4062C6.5625 16.7687 6.85631 17.0625 7.21875 17.0625Z" fill="black"/>
<path d="M41.3438 7.875H32.0335C30.9871 7.87017 29.9707 8.22477 29.1544 8.87949C28.338 9.53421 27.7712 10.4494 27.5487 11.4719L26.3425 16.9011C25.9869 16.5835 25.5271 16.4075 25.0504 16.4062H22.9688C22.4466 16.4062 21.9458 16.6137 21.5766 16.9829C21.2074 17.3521 21 17.8529 21 18.375V19.0312C21 19.5534 21.2074 20.0542 21.5766 20.4234C21.9458 20.7926 22.4466 21 22.9688 21H24.3797L24.0371 21.2737C23.4977 21.7029 23.0624 22.2486 22.7637 22.8699C22.4651 23.4912 22.3108 24.172 22.3125 24.8614V24.9375H21C20.5943 24.9392 20.199 25.0662 19.8682 25.3011C19.5374 25.5361 19.2872 25.8675 19.152 26.25H17.0625C16.7144 26.25 16.3806 26.1117 16.1344 25.8656C15.8883 25.6194 15.75 25.2856 15.75 24.9375V10.5C15.75 9.80381 15.4734 9.13613 14.9812 8.64384C14.4889 8.15156 13.8212 7.875 13.125 7.875H11.8125V5.25C11.8125 4.55381 11.5359 3.88613 11.0437 3.39384C10.5514 2.90156 9.88369 2.625 9.1875 2.625H2.625C1.92881 2.625 1.26113 2.90156 0.768845 3.39384C0.276562 3.88613 0 4.55381 0 5.25L0 38.7188C0 38.8928 0.0691404 39.0597 0.192211 39.1828C0.315282 39.3059 0.482202 39.375 0.65625 39.375H11.1562C11.3303 39.375 11.4972 39.3059 11.6203 39.1828C11.7434 39.0597 11.8125 38.8928 11.8125 38.7188V9.1875H13.125C13.4731 9.1875 13.8069 9.32578 14.0531 9.57192C14.2992 9.81806 14.4375 10.1519 14.4375 10.5V24.9375C14.4375 25.6337 14.7141 26.3014 15.2063 26.7937C15.6986 27.2859 16.3663 27.5625 17.0625 27.5625H19.152C19.2872 27.945 19.5374 28.2764 19.8682 28.5114C20.199 28.7463 20.5943 28.8733 21 28.875H22.3125V30.3082C21.93 30.4435 21.5986 30.6936 21.3636 31.0244C21.1287 31.3552 21.0017 31.7505 21 32.1562V33.4688C21 33.9909 21.2074 34.4917 21.5766 34.8609C21.9458 35.2301 22.4466 35.4375 22.9688 35.4375H23.625V37.4062C23.625 37.9284 23.8324 38.4292 24.2016 38.7984C24.5708 39.1676 25.0716 39.375 25.5938 39.375H28.875C29.3971 39.375 29.8979 39.1676 30.2671 38.7984C30.6363 38.4292 30.8438 37.9284 30.8438 37.4062V35.4375H41.3438C41.5178 35.4375 41.6847 35.3684 41.8078 35.2453C41.9309 35.1222 42 34.9553 42 34.7812V8.53125C42 8.3572 41.9309 8.19028 41.8078 8.06721C41.6847 7.94414 41.5178 7.875 41.3438 7.875ZM10.5 38.0625H1.3125V36.0938H10.5V38.0625ZM10.5 34.7812H1.3125V5.25C1.3125 4.9019 1.45078 4.56806 1.69692 4.32192C1.94306 4.07578 2.2769 3.9375 2.625 3.9375H9.1875C9.5356 3.9375 9.86944 4.07578 10.1156 4.32192C10.3617 4.56806 10.5 4.9019 10.5 5.25V34.7812ZM22.9688 19.6875C22.7947 19.6875 22.6278 19.6184 22.5047 19.4953C22.3816 19.3722 22.3125 19.2053 22.3125 19.0312V18.375C22.3125 18.201 22.3816 18.034 22.5047 17.911C22.6278 17.7879 22.7947 17.7188 22.9688 17.7188H25.0504C25.2243 17.7194 25.3909 17.7885 25.5143 17.911L26.0085 18.4052L25.725 19.6875H22.9688ZM23.625 25.5938H27.2495L26.462 27.5625H23.625V25.5938ZM21 27.5625C20.826 27.5625 20.659 27.4934 20.536 27.3703C20.4129 27.2472 20.3438 27.0803 20.3438 26.9062C20.3438 26.7322 20.4129 26.5653 20.536 26.4422C20.659 26.3191 20.826 26.25 21 26.25H22.3125V27.5625H21ZM29.5312 37.4062C29.5312 37.5803 29.4621 37.7472 29.339 37.8703C29.216 37.9934 29.049 38.0625 28.875 38.0625H25.5938C25.4197 38.0625 25.2528 37.9934 25.1297 37.8703C25.0066 37.7472 24.9375 37.5803 24.9375 37.4062V35.4375H29.5312V37.4062ZM40.6875 34.125H22.9688C22.7947 34.125 22.6278 34.0559 22.5047 33.9328C22.3816 33.8097 22.3125 33.6428 22.3125 33.4688V32.1562C22.3125 31.9822 22.3816 31.8153 22.5047 31.6922C22.6278 31.5691 22.7947 31.5 22.9688 31.5H40.6875V34.125ZM40.6875 27.5625H38.7188V23.625H40.6875V27.5625ZM40.6875 22.3125H36.0938C35.5716 22.3125 35.0708 22.5199 34.7016 22.8891C34.3324 23.2583 34.125 23.7591 34.125 24.2812V26.9062C34.125 27.4284 34.3324 27.9292 34.7016 28.2984C35.0708 28.6676 35.5716 28.875 36.0938 28.875H40.6875V30.1875H23.625V28.875H26.9062C27.0374 28.8751 27.1656 28.8359 27.2743 28.7624C27.3829 28.689 27.4671 28.5846 27.5159 28.4629L28.8284 25.1816C28.8683 25.082 28.8832 24.9741 28.8717 24.8674C28.8603 24.7607 28.8228 24.6584 28.7627 24.5696C28.7025 24.4807 28.6214 24.4079 28.5266 24.3577C28.4318 24.3074 28.3261 24.2812 28.2188 24.2812H23.6808C23.8182 23.4992 24.2364 22.7943 24.8568 22.2987L26.4803 21H40.6875V22.3125ZM37.4062 23.625V27.5625H36.0938C35.9197 27.5625 35.7528 27.4934 35.6297 27.3703C35.5066 27.2472 35.4375 27.0803 35.4375 26.9062V24.2812C35.4375 24.1072 35.5066 23.9403 35.6297 23.8172C35.7528 23.6941 35.9197 23.625 36.0938 23.625H37.4062ZM40.6875 19.6875H27.0683L28.831 11.7567C28.9896 11.0263 29.3942 10.3725 29.9772 9.90483C30.5602 9.43712 31.2861 9.18388 32.0335 9.1875H40.6875V19.6875Z" fill="black"/>
</g>
<defs>
<clipPath id="clip0_1173_1947">
<rect width="42" height="42" fill="white"/>
</clipPath>
</defs>
</svg>
